<?xml version="1.0" encoding="UTF-8" standalone="no"?>
<!DOCTYPE svg PUBLIC "-//W3C//DTD SVG 1.1//EN" "http://www.w3.org/Graphics/SVG/1.1/DTD/svg11.dtd">
<svg width="100%" height="100%" viewBox="0 0 1339 339" version="1.1" xmlns="http://www.w3.org/2000/svg" xmlns:xlink="http://www.w3.org/1999/xlink" xml:space="preserve" xmlns:serif="http://www.serif.com/" style="fill-rule:evenodd;clip-rule:evenodd;stroke-linejoin:round;stroke-miterlimit:2;">
    <g transform="matrix(1,0,0,1,-571,-300)">
        <g id="dobrylpminek">
            <g transform="matrix(4.16667,0,0,4.16667,0,252.92)">
                <path d="M151.161,92.22C157.144,92.22 161.577,88.097 161.577,81.37C161.577,74.643 157.144,70.52 151.285,70.52L143.194,70.52L143.194,85.803C143.194,90.36 145.085,92.22 148.96,92.22L151.161,92.22ZM157.144,81.37C157.144,86.206 154.385,88.624 150.851,88.624L149.704,88.624C148.092,88.624 147.534,87.849 147.534,85.493L147.534,74.116L150.851,74.116C154.385,74.116 157.144,76.534 157.144,81.37Z" style="fill:rgb(29,29,27);fill-rule:nonzero;"/>
            </g>
            <g transform="matrix(4.16667,0,0,4.16667,0,267.503)">
                <path d="M183.829,79.62C183.829,73.588 179.825,70.208 174.859,70.208C169.867,70.208 165.863,73.588 165.863,79.62C165.863,85.652 169.867,89.032 174.859,89.032C179.825,89.032 183.829,85.652 183.829,79.62ZM174.989,85.496C172.363,85.496 170.205,83.182 170.205,79.412C170.205,75.486 172.311,73.744 174.703,73.744C177.329,73.744 179.487,76.058 179.487,79.828C179.487,83.754 177.381,85.496 174.989,85.496Z" style="fill:rgb(29,29,27);fill-rule:nonzero;"/>
            </g>
            <g transform="matrix(4.16667,0,0,4.16667,0,267.503)">
                <path d="M198.051,83.208C198.051,84.56 197.271,85.366 195.607,85.366L194.515,85.366C193.163,85.366 192.643,84.716 192.643,82.74L192.643,81.154L195.451,81.154C197.167,81.154 198.051,81.908 198.051,83.208ZM197.453,75.902C197.453,77.072 196.725,77.93 195.113,77.93L192.617,77.93L192.617,73.848L195.113,73.848C196.725,73.848 197.453,74.706 197.453,75.902ZM188.275,70.52L188.275,82.87C188.275,87.004 189.861,88.72 193.631,88.72L195.659,88.72C200.157,88.72 202.419,86.614 202.419,83.572C202.419,81.388 201.145,79.932 199.377,79.308C200.833,78.684 201.821,77.202 201.821,75.434C201.821,72.548 199.559,70.52 195.243,70.52L188.275,70.52Z" style="fill:rgb(29,29,27);fill-rule:nonzero;"/>
            </g>
            <g transform="matrix(4.16667,0,0,4.16667,0,268.803)">
                <path d="M218.539,88.72C220.203,88.72 221.165,87.706 221.165,86.926C221.165,86.302 221.061,85.782 220.879,85.314L220.385,85.314C219.839,85.314 219.345,85.132 218.877,84.742C218.227,84.222 217.603,83.364 216.979,82.246C218.981,81.258 220.359,79.334 220.359,76.708C220.359,72.652 217.499,70.208 212.897,70.208L206.943,70.208L206.943,87.68C206.943,88.174 207.229,88.408 207.879,88.408L211.259,88.408L211.259,82.844C211.727,83.026 212.429,83.104 213.001,83.156C213.677,84.898 214.665,86.458 215.783,87.55C216.589,88.33 217.525,88.72 218.539,88.72ZM211.259,73.744L212.637,73.744C214.691,73.744 215.939,74.758 215.939,76.708C215.939,78.658 214.613,79.594 212.663,79.594C212.169,79.594 211.675,79.568 211.259,79.464L211.259,73.744Z" style="fill:rgb(29,29,27);fill-rule:nonzero;"/>
            </g>
            <g transform="matrix(4.16667,0,0,4.16667,0,266.637)">
                <path d="M229.329,88.2C229.329,88.694 229.615,88.928 230.265,88.928L233.671,88.928L233.671,82.636C236.193,79.464 238.481,75.46 239.599,71.898C239.833,71.118 239.391,70.728 238.559,70.728L235.491,70.728C234.763,73.38 233.203,76.552 231.643,78.866L227.665,71.144C227.431,70.676 227.171,70.52 226.729,70.52C225.741,70.52 224.441,71.404 223.557,72.418L229.329,82.714L229.329,88.2Z" style="fill:rgb(29,29,27);fill-rule:nonzero;"/>
            </g>
            <g transform="matrix(4.16667,0,0,4.16667,0,253.307)">
                <path d="M260.444,73.62C260.661,73.248 260.754,72.845 260.754,72.535C260.754,71.574 260.041,70.923 257.623,70.148C255.05,74.209 251.671,77.65 248.571,79.882L248.571,71.109C248.571,70.489 248.199,70.179 247.362,70.179C246.122,70.179 245.13,70.334 244.231,70.582L244.231,91.29C244.231,91.848 244.541,92.127 245.285,92.127L248.571,92.127L248.571,84.594C249.346,84.129 250.214,83.571 251.02,83.013C252.415,85.927 253.965,88.469 255.36,90.174C256.6,91.662 257.809,92.499 259.328,92.499C261.002,92.499 262.149,91.507 262.149,90.639C262.149,90.05 262.056,89.399 261.87,88.934L261.312,88.934C260.506,88.934 259.917,88.562 259.328,87.942C257.747,86.299 255.949,83.664 254.306,80.471C256.755,78.394 259.018,75.914 260.444,73.62Z" style="fill:rgb(29,29,27);fill-rule:nonzero;"/>
            </g>
            <g transform="matrix(4.16667,0,0,4.16667,0,267.503)">
                <path d="M283.223,79.62C283.223,73.588 279.219,70.208 274.253,70.208C269.261,70.208 265.257,73.588 265.257,79.62C265.257,85.652 269.261,89.032 274.253,89.032C279.219,89.032 283.223,85.652 283.223,79.62ZM274.383,85.496C271.757,85.496 269.599,83.182 269.599,79.412C269.599,75.486 271.705,73.744 274.097,73.744C276.723,73.744 278.881,76.058 278.881,79.828C278.881,83.754 276.775,85.496 274.383,85.496Z" style="fill:rgb(29,29,27);fill-rule:nonzero;"/>
            </g>
            <g transform="matrix(4.16667,0,0,4.16667,0,266.637)">
                <path d="M303.035,88.148C303.087,88.668 303.399,88.928 304.049,88.928L307.559,88.928L305.661,71.43C305.609,70.988 305.349,70.728 304.725,70.728L301.657,70.728L297.211,78.918L293.077,71.248C292.765,70.676 292.453,70.52 291.881,70.52C291.075,70.52 289.749,70.936 288.761,71.508L286.967,88.122C286.915,88.72 287.305,88.928 287.903,88.928L291.335,88.928L292.427,77.514L295.703,83.546L297.809,83.546C298.511,83.546 298.849,83.338 299.057,82.948L302.021,77.514L303.035,88.148Z" style="fill:rgb(29,29,27);fill-rule:nonzero;"/>
            </g>
            <g transform="matrix(4.16667,0,0,4.16667,0,266.637)">
                <path d="M316.737,88.928L316.737,71.43C316.737,70.806 316.347,70.52 315.567,70.52C314.241,70.52 313.253,70.65 312.395,70.884L312.395,88.2C312.395,88.694 312.681,88.928 313.331,88.928L316.737,88.928Z" style="fill:rgb(29,29,27);fill-rule:nonzero;"/>
            </g>
            <g transform="matrix(4.16667,0,0,4.16667,0,267.503)">
                <path d="M332.701,88.33C332.961,88.772 333.273,88.954 333.871,88.954C334.573,88.954 335.925,88.382 336.861,87.706L336.861,71.274C336.861,70.78 336.575,70.52 335.925,70.52L332.519,70.52L332.519,80.868L326.305,70.91C326.045,70.468 325.733,70.286 325.135,70.286C324.433,70.286 323.081,70.858 322.145,71.534L322.145,87.966C322.145,88.46 322.431,88.72 323.081,88.72L326.487,88.72L326.487,78.372L332.701,88.33Z" style="fill:rgb(29,29,27);fill-rule:nonzero;"/>
            </g>
            <g transform="matrix(4.16667,0,0,4.16667,0,267.503)">
                <path d="M354.099,88.72L354.099,86.146C354.099,85.496 353.839,85.21 353.345,85.21L348.145,85.21C346.923,85.21 346.403,84.56 346.403,82.584L346.403,81.414L352.487,81.414L352.487,78.84C352.487,78.19 352.227,77.904 351.733,77.904L346.403,77.904L346.403,74.056L353.605,74.056C353.787,73.276 353.891,72.314 353.891,71.534C353.891,70.858 353.605,70.52 353.033,70.52L342.087,70.52L342.087,82.636C342.087,87.238 343.647,88.72 347.677,88.72L354.099,88.72Z" style="fill:rgb(29,29,27);fill-rule:nonzero;"/>
            </g>
            <g transform="matrix(4.16667,0,0,4.16667,0,267.72)">
                <path d="M372.715,73.562C372.949,73.198 373.053,72.834 373.053,72.548C373.053,71.612 372.377,70.936 369.933,70.208C367.905,73.432 365.331,76.136 362.939,77.93L362.939,71.17C362.939,70.52 362.549,70.234 361.769,70.234C360.469,70.234 359.455,70.39 358.597,70.598L358.597,87.914C358.597,88.408 358.883,88.668 359.533,88.668L362.939,88.668L362.939,82.532C363.459,82.22 364.161,81.778 364.733,81.388C365.643,83.546 366.735,85.496 367.749,86.796C368.789,88.174 369.881,88.98 371.467,88.98C372.975,88.98 374.145,88.044 374.145,87.212C374.145,86.588 374.041,85.99 373.859,85.522L373.443,85.522C372.819,85.522 372.273,85.236 371.779,84.716C370.609,83.468 369.231,81.362 368.009,78.892C369.907,77.254 371.597,75.382 372.715,73.562Z" style="fill:rgb(29,29,27);fill-rule:nonzero;"/>
            </g>
            <g transform="matrix(-4.16497,0.118999,0.118999,4.16497,3164.87,278.629)">
                <path d="M380.903,70.146C382.39,70.104 383.503,71.065 383.549,72.676C383.598,74.411 382.297,75.534 380.903,75.574C379.415,75.616 378.302,74.656 378.256,73.044C378.207,71.309 379.508,70.186 380.903,70.146Z" style="fill:rgb(29,29,27);fill-rule:nonzero;"/>
            </g>
            <g transform="matrix(4.16667,0,0,4.16667,0,252.92)">
                <path d="M404.23,77.495C405.253,77.433 406.431,77.123 407.206,76.658C407.733,76.348 407.95,75.945 407.95,75.604C407.95,75.232 407.888,74.953 407.702,74.612C406.338,71.977 403.331,70.148 399.332,70.148C393.659,70.148 389.164,74.147 389.164,80.75C389.164,87.973 394.186,92.592 400.789,92.592C404.323,92.592 407.237,90.98 407.237,89.802C407.237,89.151 406.927,88.345 406.617,87.849C405.222,88.593 403.393,88.965 401.657,88.965C396.883,88.965 393.566,85.865 393.566,80.657C393.566,76.193 396.17,73.775 399.146,73.775C401.595,73.775 403.362,75.108 404.23,77.495Z" style="fill:rgb(29,29,27);fill-rule:nonzero;"/>
            </g>
            <g transform="matrix(4.16667,0,0,4.16667,0,267.503)">
                <path d="M427.939,79.62C427.939,73.588 423.935,70.208 418.969,70.208C413.977,70.208 409.973,73.588 409.973,79.62C409.973,85.652 413.977,89.032 418.969,89.032C423.935,89.032 427.939,85.652 427.939,79.62ZM419.099,85.496C416.473,85.496 414.315,83.182 414.315,79.412C414.315,75.486 416.421,73.744 418.813,73.744C421.439,73.744 423.597,76.058 423.597,79.828C423.597,83.754 421.491,85.496 419.099,85.496Z" style="fill:rgb(29,29,27);fill-rule:nonzero;"/>
            </g>
            <g transform="matrix(4.16667,0,0,4.16667,0,266.637)">
                <path d="M446.191,88.148C446.243,88.668 446.555,88.928 447.205,88.928L450.715,88.928L448.817,71.43C448.765,70.988 448.505,70.728 447.881,70.728L444.813,70.728L440.367,78.918L436.233,71.248C435.921,70.676 435.609,70.52 435.037,70.52C434.231,70.52 432.905,70.936 431.917,71.508L430.123,88.122C430.071,88.72 430.461,88.928 431.059,88.928L434.491,88.928L435.583,77.514L438.859,83.546L440.965,83.546C441.667,83.546 442.005,83.338 442.213,82.948L445.177,77.514L446.191,88.148Z" style="fill:rgb(29,29,27);fill-rule:nonzero;"/>
            </g>
            <g transform="matrix(4.16667,0,0,4.16667,0,-114.715)">
                <path d="M299.532,143.408C299.532,143.408 303.428,143.002 302.633,138.511C301.838,134.019 302.389,133.015 302.739,132.481C302.739,132.481 301.717,135.687 304.388,138.969C307.059,142.25 306.177,147.675 300.665,151.258C300.665,151.258 323.135,144.894 311.51,122.089C311.51,122.089 308.46,117.146 303.677,113.748C298.894,110.35 301.23,107.845 301.23,107.845C301.23,107.845 296.833,109.128 300.725,115.081C300.725,115.081 290.575,108.615 297.901,99.714C297.901,99.714 290.27,101.115 292.559,113.021C294.849,124.926 292.101,127.75 287.675,128.971C287.675,128.971 294.696,122.789 289.659,115.998C289.659,115.998 289.698,120.448 285.252,123.031C280.807,125.613 270.46,142.231 292.423,151.131C292.423,151.131 294.543,146.906 291.109,143.471C287.675,140.037 291.018,134.023 291.018,134.023C291.018,134.023 289.729,139.127 293.089,140.193C293.089,140.193 289.872,135.569 298.466,128.492C298.466,128.492 299.949,126.623 297.895,124.859C297.895,124.859 304.624,126.572 297.6,137.578C297.6,137.578 296.127,141.515 299.532,143.408Z" style="fill:rgb(228,25,30);fill-rule:nonzero;"/>
            </g>
            <g transform="matrix(4.16598,-0.0756028,-0.0756028,-4.16598,7.9881,960.471)">
                <path d="M325.511,100.887L458.327,100.887L325.598,105.705C324.269,105.73 323.17,104.669 323.146,103.341C323.122,102.011 324.181,100.912 325.511,100.887Z" style="fill:rgb(29,29,27);"/>
            </g>
            <g transform="matrix(-4.16599,0.0750256,0.0750256,4.16599,1702.57,64.7242)">
                <path d="M139.533,100.887L273.321,100.887L139.62,105.705C138.29,105.729 137.191,104.669 137.167,103.339C137.143,102.01 138.203,100.911 139.533,100.887Z" style="fill:rgb(29,29,27);"/>
            </g>
        </g>
    </g>
</svg>
