<svg width="100%" height="100%" viewBox="0 0 2007 930" version="1.1" xmlns="http://www.w3.org/2000/svg" xml:space="preserve" style="fill-rule:evenodd;clip-rule:evenodd;stroke-linejoin:round;stroke-miterlimit:2;">
    <g transform="matrix(1,0,0,1,-781,-103)">
        <g id="logoPrzytulasna" transform="matrix(1,0,0,1,0,-477)">
            <g transform="matrix(0.815504,0,0,0.830744,102.007,93.8248)">
                <g transform="matrix(481.391,0,0,-481.391,830.158,1013.02)">
                    <path d="M0.345,0.581C0.315,0.58 0.286,0.575 0.257,0.567L0.242,0.562L0.253,0.55C0.273,0.528 0.296,0.51 0.323,0.497C0.337,0.49 0.351,0.485 0.366,0.482C0.374,0.48 0.381,0.479 0.389,0.479C0.397,0.478 0.404,0.478 0.411,0.478C0.417,0.478 0.423,0.477 0.429,0.476C0.435,0.475 0.441,0.474 0.446,0.472C0.458,0.468 0.468,0.463 0.478,0.455C0.488,0.448 0.499,0.439 0.51,0.43L0.526,0.417C0.532,0.412 0.537,0.408 0.543,0.403C0.565,0.386 0.588,0.37 0.612,0.354C0.618,0.35 0.624,0.346 0.63,0.342L0.639,0.336C0.642,0.334 0.645,0.332 0.649,0.33C0.662,0.323 0.676,0.316 0.691,0.311C0.691,0.311 0.691,0.311 0.691,0.31C0.691,0.31 0.684,0.303 0.684,0.303C0.683,0.301 0.681,0.3 0.68,0.298C0.676,0.294 0.674,0.29 0.671,0.286L0.664,0.274C0.662,0.27 0.66,0.267 0.658,0.263C0.657,0.259 0.655,0.255 0.654,0.252L0.65,0.241C0.644,0.228 0.64,0.215 0.635,0.204C0.63,0.192 0.625,0.181 0.619,0.171C0.606,0.15 0.591,0.13 0.573,0.113C0.556,0.095 0.536,0.08 0.515,0.067C0.504,0.061 0.493,0.055 0.482,0.051L0.474,0.047C0.472,0.046 0.469,0.046 0.466,0.045C0.461,0.043 0.456,0.042 0.451,0.041C0.44,0.04 0.429,0.039 0.417,0.04C0.405,0.041 0.391,0.042 0.377,0.044C0.348,0.047 0.317,0.048 0.288,0.046C0.258,0.044 0.229,0.039 0.201,0.034C0.173,0.029 0.144,0.022 0.115,0.012C0.1,0.007 0.086,0.001 0.072,-0.007C0.057,-0.016 0.043,-0.026 0.03,-0.041C0.024,-0.048 0.018,-0.057 0.014,-0.066C0.01,-0.076 0.008,-0.086 0.007,-0.096C0.006,-0.101 0.007,-0.106 0.007,-0.111C0.007,-0.116 0.007,-0.12 0.008,-0.125C0.01,-0.134 0.012,-0.142 0.015,-0.15C0.021,-0.166 0.03,-0.18 0.039,-0.193C0.044,-0.2 0.05,-0.208 0.056,-0.214C0.063,-0.22 0.069,-0.225 0.076,-0.229C0.089,-0.238 0.101,-0.245 0.114,-0.252C0.126,-0.259 0.139,-0.266 0.151,-0.272C0.176,-0.286 0.201,-0.298 0.226,-0.311C0.238,-0.317 0.25,-0.323 0.262,-0.33C0.273,-0.336 0.285,-0.343 0.296,-0.351C0.302,-0.354 0.307,-0.358 0.312,-0.362L0.328,-0.375C0.34,-0.384 0.351,-0.392 0.363,-0.4C0.386,-0.416 0.41,-0.431 0.435,-0.445C0.447,-0.452 0.46,-0.459 0.472,-0.466C0.484,-0.472 0.496,-0.479 0.508,-0.485C0.532,-0.499 0.555,-0.514 0.578,-0.53C0.601,-0.546 0.623,-0.563 0.644,-0.581C0.607,-0.54 0.565,-0.502 0.519,-0.469C0.507,-0.461 0.496,-0.453 0.484,-0.445C0.472,-0.437 0.461,-0.43 0.45,-0.422C0.427,-0.406 0.405,-0.39 0.384,-0.372C0.373,-0.364 0.363,-0.355 0.353,-0.346L0.337,-0.331C0.332,-0.327 0.326,-0.322 0.32,-0.317C0.308,-0.308 0.297,-0.3 0.285,-0.292C0.273,-0.284 0.26,-0.277 0.248,-0.27C0.224,-0.256 0.201,-0.241 0.177,-0.227C0.165,-0.22 0.153,-0.213 0.142,-0.205C0.13,-0.198 0.118,-0.191 0.109,-0.183C0.104,-0.18 0.1,-0.176 0.096,-0.173C0.093,-0.169 0.09,-0.165 0.087,-0.161C0.081,-0.151 0.076,-0.14 0.072,-0.13C0.071,-0.125 0.069,-0.12 0.069,-0.115C0.068,-0.113 0.069,-0.11 0.068,-0.108C0.069,-0.106 0.068,-0.104 0.069,-0.102C0.069,-0.098 0.07,-0.095 0.072,-0.092C0.074,-0.089 0.076,-0.085 0.079,-0.082C0.081,-0.079 0.085,-0.076 0.089,-0.073C0.093,-0.07 0.098,-0.067 0.103,-0.065C0.113,-0.059 0.124,-0.055 0.136,-0.051C0.16,-0.044 0.186,-0.039 0.213,-0.034C0.24,-0.03 0.266,-0.027 0.292,-0.026C0.318,-0.024 0.343,-0.026 0.369,-0.029C0.383,-0.03 0.397,-0.032 0.412,-0.033C0.428,-0.034 0.445,-0.034 0.462,-0.032C0.471,-0.03 0.479,-0.029 0.487,-0.026C0.491,-0.025 0.495,-0.024 0.499,-0.022L0.51,-0.018C0.526,-0.012 0.539,-0.005 0.553,0.003C0.58,0.019 0.604,0.038 0.626,0.06C0.648,0.081 0.667,0.106 0.683,0.133C0.691,0.147 0.698,0.161 0.704,0.175C0.709,0.189 0.714,0.203 0.719,0.215L0.722,0.224L0.726,0.233C0.727,0.235 0.732,0.245 0.732,0.245L0.733,0.246C0.738,0.254 0.743,0.259 0.75,0.264C0.751,0.264 0.752,0.265 0.753,0.265C0.754,0.266 0.754,0.266 0.754,0.266C0.755,0.266 0.756,0.267 0.759,0.267C0.763,0.268 0.77,0.269 0.776,0.27L0.818,0.276C0.845,0.28 0.873,0.284 0.901,0.289C0.915,0.291 0.929,0.294 0.943,0.296L0.954,0.299C0.958,0.299 0.971,0.303 0.971,0.303L0.973,0.304C0.973,0.304 0.974,0.304 0.975,0.305C0.977,0.305 0.977,0.305 0.982,0.308C0.984,0.295 0.992,0.316 0.993,0.337C0.993,0.353 0.989,0.37 0.972,0.369C0.965,0.371 0.963,0.37 0.962,0.37C0.961,0.37 0.961,0.37 0.96,0.37C0.958,0.37 0.957,0.37 0.956,0.37C0.954,0.37 0.942,0.367 0.942,0.367C0.942,0.367 0.942,0.366 0.942,0.366C0.942,0.366 0.938,0.365 0.938,0.365C0.939,0.366 0.939,0.366 0.939,0.366C0.93,0.364 0.921,0.362 0.912,0.361C0.905,0.36 0.898,0.358 0.89,0.357C0.878,0.356 0.865,0.354 0.853,0.352C0.83,0.35 0.807,0.35 0.784,0.351C0.759,0.353 0.733,0.357 0.709,0.365C0.697,0.368 0.686,0.373 0.675,0.379C0.672,0.38 0.669,0.381 0.666,0.383L0.658,0.388C0.652,0.391 0.646,0.395 0.64,0.398C0.617,0.412 0.593,0.427 0.57,0.442L0.554,0.454L0.537,0.466C0.526,0.474 0.514,0.482 0.501,0.49C0.488,0.498 0.472,0.505 0.457,0.509C0.45,0.511 0.442,0.512 0.434,0.513C0.426,0.514 0.418,0.514 0.41,0.514C0.364,0.508 0.318,0.525 0.28,0.554C0.288,0.556 0.296,0.559 0.304,0.561C0.318,0.565 0.332,0.568 0.346,0.57C0.374,0.574 0.403,0.574 0.432,0.571C0.418,0.575 0.404,0.577 0.389,0.579C0.377,0.58 0.365,0.581 0.353,0.581C0.35,0.581 0.348,0.581 0.345,0.581ZM0.965,0.303C0.965,0.303 0.965,0.303 0.964,0.303C0.965,0.303 0.965,0.303 0.965,0.303ZM0.939,0.366C0.94,0.366 0.942,0.367 0.942,0.367C0.942,0.367 0.941,0.368 0.941,0.368C0.94,0.368 0.94,0.367 0.939,0.366Z" style="fill:url(#_Linear1);fill-rule:nonzero;"/>
                </g>
                <g transform="matrix(502.031,0,0,-502.031,1012.18,1197.53)">
                    <path d="M0.307,0.804C0.331,0.794 0.356,0.785 0.382,0.779C0.395,0.776 0.408,0.773 0.421,0.771C0.434,0.769 0.447,0.767 0.459,0.765C0.472,0.763 0.485,0.76 0.497,0.756C0.509,0.753 0.521,0.749 0.534,0.744C0.558,0.736 0.582,0.727 0.605,0.715C0.616,0.709 0.627,0.703 0.638,0.697C0.649,0.69 0.659,0.683 0.669,0.675C0.674,0.671 0.679,0.667 0.685,0.663C0.69,0.659 0.697,0.655 0.704,0.651C0.711,0.648 0.719,0.645 0.726,0.644L0.737,0.642L0.747,0.64C0.76,0.638 0.773,0.637 0.786,0.635C0.793,0.635 0.8,0.634 0.806,0.634L0.828,0.632L0.84,0.634C0.844,0.634 0.847,0.634 0.85,0.634C0.853,0.634 0.856,0.634 0.859,0.634C0.862,0.634 0.865,0.634 0.868,0.633C0.881,0.632 0.894,0.629 0.904,0.624C0.909,0.622 0.913,0.619 0.916,0.616C0.92,0.613 0.922,0.609 0.925,0.604C0.927,0.599 0.929,0.594 0.931,0.588C0.933,0.583 0.934,0.576 0.935,0.57C0.937,0.557 0.937,0.543 0.938,0.529C0.939,0.515 0.94,0.5 0.939,0.487C0.939,0.473 0.938,0.461 0.936,0.449C0.933,0.438 0.929,0.428 0.922,0.419C0.909,0.402 0.888,0.388 0.866,0.382C0.855,0.378 0.843,0.377 0.832,0.378C0.821,0.379 0.81,0.381 0.8,0.386C0.781,0.395 0.764,0.412 0.754,0.433C0.743,0.453 0.74,0.477 0.742,0.5L0.749,0.556L0.698,0.531C0.685,0.524 0.672,0.518 0.659,0.513C0.652,0.51 0.646,0.507 0.639,0.505L0.618,0.497C0.605,0.491 0.591,0.486 0.578,0.482C0.565,0.478 0.553,0.475 0.54,0.473C0.527,0.471 0.515,0.471 0.501,0.471C0.494,0.471 0.487,0.471 0.477,0.471C0.474,0.471 0.471,0.47 0.468,0.47C0.464,0.469 0.46,0.468 0.456,0.467C0.447,0.464 0.439,0.457 0.433,0.451C0.432,0.449 0.431,0.447 0.429,0.445C0.428,0.443 0.427,0.441 0.426,0.439C0.425,0.437 0.424,0.435 0.423,0.432C0.422,0.43 0.422,0.428 0.421,0.426C0.42,0.418 0.42,0.413 0.42,0.408C0.42,0.398 0.421,0.39 0.422,0.382C0.423,0.367 0.425,0.352 0.427,0.337C0.429,0.322 0.431,0.308 0.433,0.293L0.435,0.282C0.435,0.28 0.435,0.278 0.435,0.278C0.435,0.278 0.435,0.278 0.435,0.278C0.435,0.278 0.435,0.276 0.435,0.276C0.435,0.27 0.435,0.264 0.434,0.257C0.431,0.233 0.423,0.208 0.411,0.185C0.409,0.182 0.404,0.172 0.404,0.172L0.401,0.168C0.398,0.163 0.395,0.158 0.391,0.153L0.384,0.144C0.381,0.141 0.378,0.137 0.375,0.132C0.372,0.127 0.369,0.121 0.367,0.115C0.366,0.112 0.365,0.109 0.365,0.106C0.364,0.103 0.363,0.1 0.363,0.098C0.362,0.092 0.362,0.086 0.362,0.08C0.362,0.074 0.363,0.068 0.364,0.063C0.367,0.052 0.37,0.044 0.372,0.038C0.374,0.032 0.375,0.028 0.376,0.022C0.376,0.017 0.377,0.012 0.377,0.007C0.376,0.002 0.376,-0.001 0.374,-0.006C0.373,-0.01 0.37,-0.017 0.367,-0.026C0.364,-0.034 0.361,-0.043 0.36,-0.052C0.358,-0.061 0.357,-0.069 0.356,-0.078C0.354,-0.113 0.359,-0.148 0.369,-0.18C0.37,-0.184 0.372,-0.187 0.373,-0.191C0.375,-0.195 0.376,-0.199 0.378,-0.203C0.381,-0.211 0.385,-0.22 0.39,-0.228C0.395,-0.236 0.401,-0.244 0.406,-0.25C0.411,-0.256 0.416,-0.261 0.419,-0.266C0.423,-0.271 0.426,-0.275 0.429,-0.281L0.433,-0.289C0.434,-0.292 0.436,-0.295 0.437,-0.297C0.439,-0.303 0.441,-0.307 0.442,-0.312C0.443,-0.318 0.444,-0.325 0.445,-0.332L0.452,-0.376C0.455,-0.391 0.457,-0.406 0.46,-0.42C0.465,-0.45 0.471,-0.479 0.478,-0.509C0.479,-0.516 0.481,-0.524 0.483,-0.532C0.485,-0.54 0.487,-0.548 0.491,-0.558C0.491,-0.558 0.495,-0.565 0.495,-0.566C0.497,-0.569 0.498,-0.571 0.499,-0.573C0.502,-0.576 0.504,-0.58 0.507,-0.584C0.512,-0.591 0.517,-0.597 0.522,-0.603C0.527,-0.609 0.531,-0.614 0.535,-0.619C0.538,-0.624 0.541,-0.628 0.543,-0.632C0.545,-0.637 0.547,-0.641 0.549,-0.647C0.55,-0.652 0.551,-0.658 0.552,-0.663C0.552,-0.669 0.552,-0.674 0.552,-0.681C0.552,-0.681 0.552,-0.681 0.552,-0.681C0.551,-0.681 0.55,-0.681 0.549,-0.68C0.544,-0.679 0.537,-0.679 0.533,-0.68C0.529,-0.681 0.525,-0.683 0.522,-0.685C0.521,-0.686 0.519,-0.687 0.517,-0.689C0.516,-0.69 0.515,-0.691 0.514,-0.692C0.514,-0.693 0.51,-0.697 0.51,-0.698C0.51,-0.698 0.507,-0.703 0.507,-0.704C0.506,-0.706 0.505,-0.708 0.504,-0.71C0.501,-0.717 0.499,-0.723 0.496,-0.728C0.493,-0.734 0.49,-0.739 0.487,-0.743C0.484,-0.747 0.48,-0.751 0.477,-0.754C0.473,-0.757 0.469,-0.76 0.465,-0.762C0.456,-0.766 0.446,-0.768 0.434,-0.769C0.43,-0.769 0.426,-0.768 0.422,-0.768C0.424,-0.766 0.426,-0.764 0.428,-0.762C0.434,-0.756 0.44,-0.75 0.446,-0.743C0.457,-0.73 0.466,-0.714 0.472,-0.697C0.479,-0.68 0.481,-0.662 0.482,-0.645C0.483,-0.628 0.482,-0.612 0.481,-0.596C0.479,-0.581 0.476,-0.565 0.473,-0.55C0.472,-0.542 0.47,-0.535 0.468,-0.527C0.466,-0.52 0.464,-0.512 0.462,-0.504C0.457,-0.49 0.452,-0.475 0.446,-0.46C0.434,-0.432 0.42,-0.405 0.406,-0.379C0.379,-0.326 0.353,-0.273 0.33,-0.219C0.307,-0.165 0.285,-0.11 0.268,-0.054C0.251,0.002 0.237,0.059 0.226,0.117L0.225,0.123L0.22,0.125C0.2,0.13 0.18,0.137 0.162,0.147C0.144,0.157 0.126,0.168 0.11,0.182C0.102,0.188 0.094,0.195 0.087,0.203C0.08,0.21 0.073,0.218 0.066,0.227C0.054,0.243 0.042,0.261 0.033,0.281C0.041,0.261 0.05,0.242 0.062,0.224C0.068,0.215 0.075,0.206 0.081,0.198C0.088,0.19 0.096,0.182 0.103,0.174C0.119,0.159 0.136,0.146 0.155,0.134C0.172,0.124 0.19,0.116 0.208,0.109C0.215,0.051 0.226,-0.006 0.24,-0.062C0.248,-0.091 0.256,-0.12 0.265,-0.149C0.274,-0.177 0.284,-0.206 0.295,-0.234C0.305,-0.262 0.317,-0.289 0.329,-0.317C0.34,-0.344 0.353,-0.372 0.365,-0.399C0.378,-0.426 0.39,-0.452 0.4,-0.478C0.405,-0.492 0.409,-0.505 0.413,-0.519C0.415,-0.525 0.417,-0.532 0.418,-0.539C0.419,-0.546 0.421,-0.553 0.422,-0.56C0.427,-0.587 0.43,-0.616 0.427,-0.641C0.426,-0.654 0.424,-0.666 0.42,-0.677C0.415,-0.687 0.409,-0.697 0.401,-0.706C0.397,-0.711 0.393,-0.715 0.388,-0.72C0.383,-0.724 0.378,-0.728 0.372,-0.734C0.369,-0.737 0.365,-0.74 0.361,-0.745C0.359,-0.747 0.357,-0.75 0.354,-0.754C0.352,-0.758 0.35,-0.764 0.349,-0.771C0.348,-0.778 0.35,-0.785 0.352,-0.79C0.353,-0.792 0.353,-0.793 0.354,-0.794C0.355,-0.795 0.355,-0.797 0.356,-0.798C0.358,-0.8 0.359,-0.802 0.361,-0.803C0.366,-0.81 0.372,-0.814 0.377,-0.816C0.388,-0.822 0.397,-0.825 0.407,-0.827C0.416,-0.829 0.426,-0.83 0.435,-0.83C0.454,-0.83 0.472,-0.826 0.491,-0.818C0.496,-0.816 0.502,-0.813 0.507,-0.809C0.507,-0.809 0.508,-0.813 0.508,-0.814C0.509,-0.815 0.509,-0.817 0.51,-0.818C0.511,-0.819 0.512,-0.821 0.513,-0.823C0.514,-0.824 0.516,-0.827 0.518,-0.828C0.52,-0.831 0.523,-0.833 0.527,-0.835C0.531,-0.836 0.534,-0.837 0.538,-0.838C0.541,-0.838 0.546,-0.838 0.547,-0.838C0.55,-0.837 0.552,-0.837 0.554,-0.836C0.556,-0.835 0.557,-0.835 0.558,-0.834C0.559,-0.834 0.564,-0.831 0.564,-0.831C0.565,-0.83 0.569,-0.826 0.57,-0.825C0.57,-0.825 0.576,-0.819 0.577,-0.818C0.58,-0.813 0.583,-0.809 0.585,-0.805C0.595,-0.789 0.601,-0.774 0.606,-0.758C0.611,-0.742 0.615,-0.726 0.618,-0.709C0.618,-0.705 0.619,-0.7 0.619,-0.696C0.619,-0.692 0.62,-0.688 0.62,-0.684C0.621,-0.675 0.621,-0.666 0.62,-0.657C0.619,-0.648 0.618,-0.639 0.615,-0.63C0.613,-0.62 0.609,-0.611 0.605,-0.602C0.601,-0.593 0.596,-0.585 0.59,-0.578C0.585,-0.57 0.58,-0.564 0.575,-0.559C0.571,-0.553 0.567,-0.548 0.563,-0.543C0.562,-0.541 0.56,-0.538 0.558,-0.536C0.558,-0.534 0.557,-0.533 0.557,-0.533C0.556,-0.533 0.556,-0.532 0.556,-0.532L0.556,-0.531C0.554,-0.527 0.552,-0.521 0.551,-0.514C0.549,-0.508 0.548,-0.501 0.546,-0.494C0.54,-0.466 0.535,-0.437 0.53,-0.408C0.527,-0.393 0.525,-0.379 0.522,-0.365L0.516,-0.321C0.515,-0.313 0.513,-0.306 0.511,-0.296C0.509,-0.288 0.506,-0.277 0.502,-0.269C0.501,-0.265 0.499,-0.261 0.497,-0.257L0.491,-0.246C0.489,-0.242 0.486,-0.238 0.484,-0.234C0.482,-0.231 0.479,-0.227 0.476,-0.223C0.471,-0.216 0.466,-0.21 0.461,-0.205C0.457,-0.199 0.454,-0.195 0.451,-0.191C0.449,-0.186 0.446,-0.181 0.444,-0.176C0.443,-0.173 0.442,-0.17 0.441,-0.167C0.44,-0.164 0.438,-0.161 0.437,-0.158C0.429,-0.133 0.426,-0.108 0.428,-0.083C0.428,-0.077 0.429,-0.071 0.43,-0.066C0.431,-0.06 0.432,-0.055 0.434,-0.049C0.436,-0.043 0.439,-0.037 0.442,-0.027C0.445,-0.018 0.447,-0.006 0.448,0.004C0.448,0.014 0.448,0.023 0.446,0.033C0.445,0.042 0.442,0.052 0.439,0.061C0.436,0.069 0.434,0.075 0.433,0.078C0.433,0.081 0.433,0.083 0.433,0.087C0.433,0.088 0.434,0.089 0.434,0.09C0.434,0.091 0.434,0.092 0.434,0.092C0.435,0.093 0.435,0.094 0.436,0.095C0.437,0.097 0.442,0.103 0.447,0.11C0.452,0.117 0.457,0.124 0.461,0.131L0.467,0.142C0.47,0.146 0.471,0.149 0.473,0.153C0.488,0.183 0.499,0.215 0.503,0.25C0.504,0.258 0.504,0.267 0.504,0.276C0.504,0.277 0.504,0.283 0.504,0.284C0.504,0.288 0.503,0.29 0.503,0.292L0.501,0.303L0.495,0.346C0.493,0.361 0.49,0.376 0.489,0.39C0.488,0.395 0.487,0.4 0.487,0.405C0.489,0.405 0.499,0.405 0.501,0.405C0.509,0.405 0.517,0.405 0.526,0.406C0.534,0.406 0.542,0.407 0.55,0.409C0.567,0.411 0.583,0.416 0.599,0.421C0.614,0.426 0.628,0.432 0.642,0.438L0.663,0.446C0.67,0.449 0.676,0.452 0.683,0.455C0.686,0.438 0.692,0.421 0.701,0.405C0.717,0.374 0.744,0.348 0.777,0.334C0.794,0.327 0.811,0.322 0.829,0.322C0.847,0.321 0.865,0.324 0.882,0.329C0.898,0.334 0.914,0.342 0.928,0.352C0.942,0.362 0.955,0.374 0.965,0.389C0.975,0.404 0.982,0.422 0.985,0.439C0.989,0.456 0.989,0.472 0.989,0.488C0.988,0.503 0.987,0.518 0.986,0.532C0.984,0.547 0.983,0.562 0.98,0.578C0.979,0.585 0.977,0.594 0.974,0.602C0.971,0.61 0.968,0.618 0.963,0.626C0.959,0.634 0.953,0.642 0.945,0.648C0.938,0.654 0.929,0.66 0.921,0.663C0.904,0.67 0.888,0.672 0.872,0.674C0.868,0.674 0.864,0.674 0.86,0.674C0.856,0.674 0.852,0.674 0.848,0.674C0.843,0.673 0.839,0.673 0.835,0.672L0.826,0.671L0.809,0.671C0.802,0.671 0.796,0.672 0.789,0.672C0.777,0.673 0.764,0.674 0.751,0.675L0.732,0.677C0.727,0.678 0.722,0.679 0.717,0.681C0.708,0.685 0.698,0.692 0.687,0.7C0.676,0.707 0.664,0.715 0.652,0.721C0.64,0.728 0.628,0.734 0.616,0.739C0.591,0.75 0.566,0.759 0.54,0.766C0.528,0.769 0.515,0.772 0.502,0.775C0.489,0.778 0.475,0.78 0.462,0.782C0.449,0.783 0.436,0.784 0.423,0.786C0.41,0.787 0.397,0.788 0.384,0.791C0.333,0.799 0.284,0.816 0.236,0.838C0.259,0.825 0.282,0.814 0.307,0.804ZM0.479,0.404C0.479,0.404 0.479,0.404 0.479,0.404C0.479,0.404 0.479,0.404 0.479,0.404C0.479,0.404 0.479,0.404 0.479,0.404ZM0.406,-0.783C0.406,-0.783 0.406,-0.783 0.406,-0.782C0.406,-0.783 0.406,-0.783 0.406,-0.783C0.406,-0.783 0.406,-0.783 0.406,-0.783ZM0.571,-0.795C0.571,-0.795 0.571,-0.795 0.571,-0.795C0.571,-0.795 0.571,-0.795 0.571,-0.795C0.571,-0.795 0.571,-0.795 0.571,-0.795Z" style="fill:url(#_Linear2);fill-rule:nonzero;"/>
                </g>
                <g transform="matrix(1.80107,0,0,1.80107,905.888,1271.91)">
                    <path d="M0,-105.703C9.159,-109.226 19.637,-110.298 30.007,-108.082C31.302,-107.812 32.584,-107.47 33.837,-107.057C35.088,-106.642 36.393,-106.296 37.619,-105.802C38.85,-105.317 40.082,-104.809 41.303,-104.276L44.865,-102.498C46.031,-101.869 47.169,-101.199 48.31,-100.516C49.456,-99.839 50.509,-99.06 51.617,-98.329C53.777,-96.814 55.897,-95.23 57.865,-93.493C65.838,-86.662 72.503,-78.399 77.745,-69.332C79.063,-67.082 80.229,-64.821 81.335,-62.738C82.439,-60.669 83.441,-58.758 84.313,-57.538C84.75,-56.884 85.106,-56.516 85.393,-56.205L85.777,-55.885C85.917,-55.843 85.978,-55.71 86.138,-55.679C86.206,-55.651 86.27,-55.618 86.329,-55.573C86.391,-55.53 86.506,-55.514 86.588,-55.475C86.677,-55.443 86.763,-55.396 86.849,-55.358C86.938,-55.339 87.023,-55.315 87.108,-55.285C87.418,-55.216 87.422,-55.222 87.596,-55.225C87.771,-55.227 88.281,-55.274 89.272,-55.504L92.918,-56.333C95.749,-56.908 98.842,-57.28 101.759,-57.338C107.619,-57.468 113.343,-56.63 118.748,-55.045C121.454,-54.258 124.088,-53.296 126.641,-52.136C129.204,-50.995 131.674,-49.663 134.116,-48.096C135.342,-47.311 136.542,-46.456 137.791,-45.45C138.424,-44.929 139.046,-44.407 139.747,-43.729C140.447,-43.021 141.138,-42.429 142.271,-40.745C142.369,-40.605 142.608,-40.199 142.77,-39.888L143.021,-39.387C143.11,-39.189 143.148,-39.133 143.298,-38.737C143.543,-38.083 143.726,-37.39 143.833,-36.705C143.858,-36.579 143.907,-36.096 143.915,-35.797C143.928,-35.453 143.921,-35.103 143.896,-34.754C143.844,-34.056 143.711,-33.367 143.515,-32.727C143.243,-31.901 142.821,-31.051 142.284,-30.304C142.017,-29.93 141.724,-29.581 141.418,-29.266C141.122,-28.965 140.949,-28.828 140.688,-28.615C139.782,-27.844 138.315,-27.194 137.951,-27.119C137.646,-27.019 137.336,-26.932 137.024,-26.86L136.556,-26.763L136.273,-26.723C135.928,-26.68 135.581,-26.651 135.234,-26.634C134.905,-26.621 134.769,-26.634 134.526,-26.638C134.328,-26.646 134.052,-26.655 133.917,-26.671C133.624,-26.702 133.271,-26.738 133.027,-26.777L132.315,-26.899L131.708,-27.026C130.219,-27.366 129.095,-27.701 127.998,-27.997C125.849,-28.578 123.888,-29.103 122.446,-29.288C121.739,-29.396 121.189,-29.395 121.101,-29.46C121.029,-29.5 121.117,-29.573 121.231,-29.742C121.327,-29.915 121.516,-30.142 121.547,-30.367C121.669,-30.797 121.401,-30.789 121.269,-30.289C121.12,-29.809 121.096,-28.998 121.138,-28.106C121.23,-26.295 121.703,-24.172 122.296,-22.042C123.477,-17.737 125.204,-13.31 126.968,-8.872C128.759,-4.432 130.685,0.022 132.511,4.595C128.85,1.3 125.442,-2.223 122.215,-5.958C118.986,-9.703 115.954,-13.634 113.284,-18.12C111.969,-20.384 110.75,-22.775 109.809,-25.653C109.342,-27.1 108.974,-28.682 108.886,-30.602C108.816,-32.489 109.053,-34.91 110.437,-37.393C111.146,-38.598 112.104,-39.773 113.199,-40.623C114.277,-41.502 115.445,-42.13 116.51,-42.547C118.689,-43.413 120.559,-43.661 122.244,-43.802C125.606,-44.038 128.404,-43.753 130.959,-43.442C132.218,-43.29 133.439,-43.126 134.316,-43.072L134.598,-43.062L134.778,-43.073C134.832,-43.077 134.779,-43.098 134.784,-43.103C134.799,-43.105 134.674,-43.122 134.625,-43.126C134.532,-43.132 134.546,-43.133 134.366,-43.133C134.169,-43.131 133.971,-43.117 133.775,-43.088L133.604,-43.061L133.243,-42.995C133.004,-42.943 132.766,-42.876 132.533,-42.796C132.321,-42.744 130.97,-42.198 130.192,-41.502C129.961,-41.311 129.827,-41.186 129.552,-40.916C129.266,-40.633 128.993,-40.316 128.746,-39.974C128.248,-39.29 127.866,-38.505 127.634,-37.743C127.442,-37.177 127.314,-36.563 127.267,-35.939C127.243,-35.627 127.239,-35.315 127.254,-35.008C127.261,-34.746 127.323,-34.302 127.334,-34.211C127.399,-33.67 127.538,-33.12 127.741,-32.611L127.923,-32.163C127.967,-32.061 128.015,-31.959 128.066,-31.859C128.153,-31.678 128.332,-31.411 128.334,-31.387C128.783,-30.69 128.607,-30.943 128.412,-31.028L127.567,-31.562C126.884,-31.976 126.058,-32.411 125.212,-32.832C121.771,-34.519 117.853,-35.845 113.996,-36.663C110.12,-37.487 106.222,-37.832 102.494,-37.595C100.617,-37.491 98.936,-37.248 97.075,-36.828L93.713,-36.031C92.371,-35.721 90.512,-35.317 88.288,-35.24C86.063,-35.154 83.667,-35.493 81.671,-36.072L80.213,-36.533C79.74,-36.71 79.277,-36.906 78.812,-37.101C78.346,-37.306 77.888,-37.48 77.425,-37.726C76.96,-37.973 76.501,-38.233 76.046,-38.496C75.123,-38.993 74.283,-39.674 73.43,-40.301C72.625,-40.961 71.854,-41.678 71.152,-42.395C70.518,-43.11 69.794,-43.87 69.296,-44.58L68.495,-45.669C68.235,-46.035 68.04,-46.369 67.812,-46.721C66.065,-49.524 64.956,-51.933 63.931,-54.159C62.915,-56.376 61.986,-58.43 61.035,-60.406C60.55,-61.388 60.073,-62.368 59.563,-63.318L58.813,-64.751L58.008,-66.21C56.931,-68.099 55.834,-69.982 54.634,-71.812C52.262,-75.488 49.673,-79.04 46.839,-82.356C45.41,-84.003 43.963,-85.635 42.425,-87.17C40.896,-88.722 39.273,-90.145 37.641,-91.586C34.328,-94.403 30.704,-96.769 26.826,-98.835C22.926,-100.849 18.655,-102.377 14.151,-103.512C9.64,-104.628 4.906,-105.272 0,-105.703" style="fill:rgb(193,30,35);fill-rule:nonzero;"/>
                </g>
                <g transform="matrix(61.6558,0,0,-61.6558,1076.49,919.646)">
                    <path d="M0.211,0.646C0.188,0.612 0.168,0.576 0.15,0.54C0.135,0.504 0.12,0.467 0.108,0.43C0.097,0.393 0.089,0.355 0.082,0.317C0.058,0.165 0.073,0.011 0.12,-0.132C0.166,-0.275 0.243,-0.408 0.35,-0.517C0.378,-0.544 0.406,-0.57 0.436,-0.594C0.467,-0.618 0.5,-0.639 0.534,-0.66C0.569,-0.679 0.605,-0.697 0.644,-0.712C0.683,-0.727 0.725,-0.738 0.769,-0.745C0.774,-0.699 0.777,-0.657 0.776,-0.618C0.777,-0.578 0.776,-0.541 0.774,-0.505C0.772,-0.469 0.77,-0.434 0.766,-0.401C0.764,-0.367 0.76,-0.334 0.755,-0.303C0.738,-0.177 0.711,-0.064 0.676,0.047C0.64,0.157 0.597,0.264 0.538,0.376C0.525,0.405 0.509,0.433 0.491,0.462C0.476,0.491 0.456,0.521 0.437,0.551C0.418,0.581 0.398,0.613 0.374,0.645C0.352,0.677 0.326,0.71 0.295,0.745C0.263,0.714 0.235,0.68 0.211,0.646Z" style="fill:url(#_Linear3);fill-rule:nonzero;"/>
                </g>
                <g transform="matrix(61.2033,0,0,-61.2033,1215.95,1240.58)">
                    <path d="M0.237,0.993C0.224,0.94 0.214,0.889 0.205,0.837C0.189,0.735 0.179,0.634 0.177,0.534C0.171,0.335 0.188,0.141 0.223,-0.05C0.258,-0.241 0.31,-0.429 0.386,-0.614C0.424,-0.706 0.469,-0.797 0.52,-0.887C0.547,-0.932 0.574,-0.977 0.606,-1.021C0.636,-1.066 0.669,-1.11 0.709,-1.153C0.734,-1.1 0.751,-1.047 0.767,-0.995C0.782,-0.943 0.794,-0.892 0.804,-0.84C0.824,-0.738 0.837,-0.636 0.841,-0.536C0.852,-0.335 0.836,-0.138 0.802,0.055C0.767,0.248 0.712,0.438 0.631,0.623C0.591,0.715 0.544,0.806 0.489,0.895C0.46,0.939 0.431,0.983 0.398,1.026C0.365,1.069 0.33,1.112 0.288,1.153C0.266,1.098 0.25,1.045 0.237,0.993Z" style="fill:url(#_Linear4);fill-rule:nonzero;"/>
                </g>
                <g transform="matrix(83.4071,0,0,-83.4071,1130.69,1421.46)">
                    <path d="M0.193,1.37C0.189,1.301 0.188,1.233 0.188,1.165C0.188,1.029 0.192,0.894 0.202,0.76C0.22,0.492 0.254,0.227 0.301,-0.035C0.347,-0.298 0.407,-0.559 0.484,-0.817C0.522,-0.946 0.566,-1.074 0.615,-1.201C0.64,-1.264 0.665,-1.328 0.694,-1.391C0.722,-1.454 0.752,-1.517 0.787,-1.578C0.8,-1.508 0.807,-1.439 0.813,-1.371C0.818,-1.302 0.822,-1.233 0.824,-1.165C0.828,-1.029 0.826,-0.893 0.819,-0.759C0.805,-0.49 0.773,-0.223 0.726,0.041C0.678,0.304 0.616,0.566 0.534,0.823C0.494,0.952 0.447,1.08 0.395,1.206C0.342,1.332 0.284,1.457 0.211,1.578C0.201,1.508 0.196,1.439 0.193,1.37Z" style="fill:url(#_Linear5);fill-rule:nonzero;"/>
                </g>
                <g transform="matrix(221.707,0,0,-221.707,927.678,1454.3)">
                    <path d="M0.498,0.93C0.501,0.905 0.502,0.88 0.503,0.856C0.503,0.806 0.497,0.758 0.483,0.712C0.481,0.706 0.479,0.701 0.477,0.695L0.472,0.677L0.459,0.642C0.451,0.618 0.443,0.594 0.434,0.57C0.426,0.547 0.417,0.523 0.409,0.5C0.4,0.476 0.391,0.453 0.382,0.429C0.312,0.241 0.236,0.055 0.166,-0.136C0.157,-0.159 0.148,-0.183 0.14,-0.207C0.131,-0.231 0.123,-0.255 0.115,-0.279C0.106,-0.303 0.098,-0.328 0.091,-0.352C0.083,-0.376 0.075,-0.4 0.067,-0.425L0.045,-0.497C0.038,-0.521 0.03,-0.546 0.023,-0.572C0.009,-0.625 -0.003,-0.684 0.003,-0.749C0.005,-0.781 0.014,-0.815 0.027,-0.846C0.03,-0.854 0.033,-0.862 0.037,-0.869L0.049,-0.89C0.054,-0.898 0.06,-0.907 0.067,-0.915C0.073,-0.923 0.08,-0.93 0.087,-0.936C0.116,-0.963 0.148,-0.98 0.182,-0.992C0.2,-0.998 0.218,-1.001 0.237,-1.003C0.242,-1.004 0.247,-1.004 0.252,-1.004L0.263,-1.004L0.282,-1.004C0.332,-1.004 0.389,-1.005 0.451,-0.99C0.482,-0.983 0.514,-0.971 0.544,-0.952C0.574,-0.933 0.601,-0.908 0.621,-0.881L0.642,-0.852L0.636,-0.819C0.627,-0.777 0.622,-0.735 0.618,-0.692C0.614,-0.649 0.613,-0.606 0.613,-0.563C0.614,-0.52 0.616,-0.477 0.621,-0.433C0.625,-0.392 0.631,-0.35 0.639,-0.309C0.646,-0.293 0.652,-0.277 0.656,-0.261C0.661,-0.242 0.665,-0.224 0.669,-0.208C0.68,-0.17 0.693,-0.133 0.708,-0.096C0.723,-0.057 0.739,-0.019 0.756,0.02C0.79,0.098 0.827,0.177 0.856,0.261C0.859,0.271 0.863,0.281 0.866,0.292C0.869,0.302 0.873,0.313 0.876,0.324C0.879,0.335 0.882,0.345 0.885,0.356C0.887,0.367 0.889,0.378 0.892,0.388C0.9,0.431 0.909,0.473 0.914,0.517C0.92,0.56 0.924,0.603 0.926,0.647C0.926,0.69 0.924,0.734 0.918,0.776C0.913,0.69 0.894,0.607 0.87,0.526C0.858,0.486 0.845,0.446 0.83,0.406L0.82,0.376C0.816,0.366 0.812,0.357 0.808,0.348C0.804,0.338 0.799,0.329 0.795,0.319C0.791,0.31 0.786,0.301 0.782,0.291C0.763,0.254 0.744,0.217 0.723,0.18L0.661,0.068C0.639,0.03 0.619,-0.009 0.6,-0.048C0.58,-0.088 0.562,-0.129 0.546,-0.171L0.545,-0.176C0.535,-0.209 0.527,-0.237 0.514,-0.259L0.511,-0.264L0.509,-0.274C0.496,-0.32 0.487,-0.367 0.479,-0.415C0.472,-0.462 0.467,-0.51 0.464,-0.558C0.462,-0.606 0.462,-0.654 0.464,-0.703C0.466,-0.738 0.469,-0.772 0.474,-0.807C0.458,-0.819 0.439,-0.828 0.414,-0.834C0.378,-0.842 0.332,-0.842 0.282,-0.842L0.258,-0.842C0.257,-0.842 0.257,-0.842 0.256,-0.842C0.254,-0.841 0.253,-0.842 0.251,-0.841C0.245,-0.841 0.239,-0.839 0.232,-0.837C0.219,-0.833 0.206,-0.826 0.197,-0.818C0.195,-0.816 0.193,-0.814 0.192,-0.812C0.19,-0.81 0.189,-0.809 0.187,-0.806L0.18,-0.794C0.178,-0.79 0.177,-0.787 0.175,-0.783C0.169,-0.768 0.164,-0.752 0.163,-0.734C0.159,-0.698 0.164,-0.656 0.175,-0.611C0.181,-0.589 0.187,-0.565 0.194,-0.541L0.214,-0.468C0.22,-0.443 0.227,-0.419 0.234,-0.396C0.241,-0.372 0.248,-0.348 0.255,-0.324C0.262,-0.3 0.269,-0.276 0.276,-0.252C0.283,-0.228 0.29,-0.204 0.298,-0.18C0.356,0.012 0.418,0.205 0.468,0.402C0.481,0.451 0.493,0.501 0.504,0.551C0.509,0.575 0.515,0.6 0.519,0.625L0.53,0.681C0.532,0.688 0.533,0.694 0.534,0.701C0.542,0.754 0.54,0.807 0.531,0.858C0.526,0.884 0.52,0.909 0.513,0.933C0.506,0.958 0.497,0.982 0.488,1.005C0.492,0.98 0.496,0.955 0.498,0.93Z" style="fill:url(#_Linear6);fill-rule:nonzero;"/>
                </g>
                <g transform="matrix(143.273,0,0,-143.273,899.088,788.518)">
                    <path d="M0.475,1.411C0.469,1.41 0.464,1.41 0.458,1.409L0.441,1.406C0.43,1.403 0.418,1.401 0.408,1.398C0.386,1.391 0.364,1.384 0.344,1.373L0.313,1.357L0.285,1.339C0.214,1.29 0.15,1.219 0.112,1.134C0.093,1.092 0.08,1.049 0.072,1.005C0.063,0.962 0.06,0.919 0.059,0.877C0.057,0.792 0.066,0.713 0.077,0.637C0.082,0.598 0.088,0.561 0.094,0.525L0.102,0.471L0.106,0.445L0.107,0.432L0.109,0.421C0.109,0.418 0.11,0.414 0.11,0.411C0.11,0.408 0.11,0.405 0.11,0.402C0.11,0.396 0.11,0.39 0.11,0.383C0.11,0.369 0.108,0.354 0.107,0.339C0.103,0.309 0.096,0.278 0.088,0.245C0.072,0.18 0.049,0.108 0.03,0.029L0.024,-0.001L0.018,-0.032C0.015,-0.054 0.011,-0.076 0.01,-0.097L0.007,-0.129L0.006,-0.161C0.005,-0.182 0.006,-0.203 0.007,-0.224C0.01,-0.307 0.024,-0.39 0.046,-0.469C0.057,-0.508 0.071,-0.547 0.085,-0.585C0.101,-0.622 0.117,-0.659 0.135,-0.694C0.17,-0.765 0.211,-0.832 0.255,-0.895C0.299,-0.959 0.346,-1.019 0.394,-1.078C0.443,-1.136 0.492,-1.192 0.543,-1.248C0.594,-1.303 0.645,-1.358 0.697,-1.413C0.668,-1.343 0.635,-1.275 0.601,-1.208C0.567,-1.141 0.531,-1.075 0.497,-1.009C0.428,-0.878 0.363,-0.748 0.316,-0.616C0.269,-0.484 0.242,-0.351 0.245,-0.22C0.246,-0.204 0.246,-0.188 0.248,-0.171L0.249,-0.147L0.252,-0.123C0.254,-0.107 0.257,-0.093 0.26,-0.078L0.265,-0.054L0.272,-0.03C0.288,0.036 0.312,0.106 0.332,0.185C0.341,0.225 0.35,0.266 0.355,0.311C0.357,0.333 0.359,0.355 0.359,0.379C0.359,0.39 0.359,0.403 0.358,0.415L0.357,0.434C0.357,0.44 0.356,0.446 0.355,0.451L0.352,0.468L0.35,0.483L0.344,0.512L0.333,0.568L0.311,0.677C0.296,0.748 0.285,0.816 0.28,0.881C0.277,0.913 0.277,0.945 0.28,0.975C0.282,1.005 0.287,1.034 0.295,1.062C0.304,1.089 0.315,1.116 0.331,1.14C0.346,1.165 0.366,1.188 0.388,1.21L0.405,1.226L0.422,1.239C0.433,1.249 0.446,1.254 0.458,1.262C0.465,1.266 0.471,1.268 0.478,1.271L0.488,1.276C0.492,1.277 0.495,1.278 0.499,1.279L0.52,1.285C0.527,1.286 0.534,1.287 0.542,1.288C0.572,1.291 0.603,1.291 0.635,1.283L0.647,1.281L0.658,1.277C0.666,1.274 0.674,1.272 0.682,1.269C0.697,1.262 0.713,1.256 0.728,1.247C0.789,1.215 0.841,1.163 0.884,1.1C0.867,1.174 0.829,1.247 0.77,1.303C0.756,1.318 0.739,1.33 0.723,1.343C0.714,1.349 0.705,1.354 0.696,1.36L0.683,1.368L0.669,1.375C0.631,1.395 0.587,1.406 0.543,1.411C0.532,1.412 0.52,1.412 0.509,1.413C0.498,1.412 0.486,1.411 0.475,1.411Z" style="fill:url(#_Linear7);fill-rule:nonzero;"/>
                </g>
                <g transform="matrix(308.983,0,0,-308.983,1020.43,907.591)">
                    <path d="M0.157,0.146C0.181,0.133 0.203,0.121 0.225,0.108C0.236,0.101 0.247,0.094 0.258,0.087C0.264,0.084 0.277,0.075 0.277,0.075L0.289,0.066C0.294,0.062 0.299,0.058 0.305,0.054C0.311,0.05 0.316,0.046 0.322,0.042C0.334,0.034 0.346,0.027 0.357,0.019C0.381,0.005 0.406,-0.009 0.431,-0.021C0.479,-0.045 0.529,-0.066 0.58,-0.083C0.6,-0.093 0.621,-0.106 0.644,-0.121C0.655,-0.128 0.667,-0.136 0.681,-0.144C0.687,-0.148 0.694,-0.152 0.701,-0.156C0.705,-0.158 0.709,-0.16 0.713,-0.162C0.717,-0.164 0.721,-0.165 0.725,-0.167L0.745,-0.176C0.752,-0.178 0.759,-0.181 0.767,-0.184C0.781,-0.189 0.796,-0.194 0.811,-0.198C0.842,-0.206 0.875,-0.212 0.91,-0.21L0.947,-0.195C0.946,-0.197 0.944,-0.198 0.942,-0.2L0.938,-0.202L0.943,-0.2C0.945,-0.199 0.95,-0.198 0.955,-0.195C0.957,-0.194 0.963,-0.189 0.963,-0.189C0.964,-0.189 0.972,-0.181 0.972,-0.181L0.973,-0.179C0.976,-0.175 0.978,-0.172 0.98,-0.168C0.982,-0.163 0.984,-0.158 0.985,-0.153C0.985,-0.15 0.985,-0.148 0.985,-0.146C0.985,-0.144 0.985,-0.142 0.985,-0.139C0.985,-0.137 0.984,-0.131 0.984,-0.131L0.983,-0.128C0.982,-0.125 0.979,-0.118 0.979,-0.118L0.974,-0.109C0.967,-0.098 0.961,-0.086 0.956,-0.076C0.951,-0.065 0.948,-0.055 0.945,-0.045C0.943,-0.036 0.943,-0.026 0.944,-0.016L0.945,-0.013C0.944,-0.011 0.945,-0.007 0.947,-0.001C0.95,0.006 0.954,0.013 0.959,0.023C0.964,0.032 0.969,0.044 0.972,0.058C0.974,0.072 0.973,0.088 0.968,0.101L0.96,0.12L0.945,0.121C0.928,0.122 0.911,0.122 0.895,0.122C0.879,0.121 0.863,0.12 0.848,0.119C0.832,0.118 0.817,0.117 0.801,0.117C0.786,0.118 0.77,0.119 0.755,0.121C0.768,0.112 0.783,0.105 0.798,0.1C0.813,0.094 0.829,0.09 0.845,0.086C0.86,0.082 0.876,0.079 0.891,0.075C0.896,0.074 0.902,0.073 0.907,0.071C0.905,0.068 0.903,0.064 0.899,0.06C0.894,0.054 0.888,0.047 0.882,0.037C0.875,0.028 0.868,0.016 0.865,0L0.865,0.003C0.86,-0.015 0.857,-0.035 0.858,-0.054C0.858,-0.07 0.861,-0.084 0.865,-0.098C0.858,-0.096 0.85,-0.094 0.843,-0.091C0.831,-0.087 0.82,-0.083 0.808,-0.078C0.802,-0.075 0.796,-0.073 0.79,-0.07L0.772,-0.062C0.769,-0.061 0.766,-0.059 0.764,-0.058L0.757,-0.054C0.752,-0.051 0.747,-0.048 0.741,-0.045C0.73,-0.038 0.719,-0.031 0.707,-0.023C0.683,-0.007 0.656,0.01 0.625,0.023L0.62,0.025C0.57,0.04 0.521,0.057 0.474,0.075C0.45,0.085 0.426,0.095 0.403,0.105C0.391,0.11 0.379,0.115 0.368,0.121L0.351,0.13C0.345,0.132 0.339,0.135 0.333,0.138L0.319,0.145L0.314,0.148C0.308,0.151 0.301,0.154 0.294,0.157C0.281,0.162 0.268,0.167 0.255,0.172C0.229,0.181 0.202,0.189 0.175,0.194C0.121,0.207 0.067,0.213 0.012,0.213C0.062,0.191 0.111,0.17 0.157,0.146ZM0.889,-0.163C0.889,-0.163 0.887,-0.159 0.886,-0.157L0.889,-0.163ZM0.936,-0.203C0.935,-0.203 0.935,-0.203 0.934,-0.204C0.934,-0.204 0.934,-0.204 0.935,-0.204C0.935,-0.203 0.937,-0.203 0.937,-0.203L0.938,-0.202L0.936,-0.203Z" style="fill:url(#_Linear8);fill-rule:nonzero;"/>
                </g>
                <g transform="matrix(71.7804,0,0,-71.7804,1314.14,911.583)">
                    <path d="M0.614,0.66C0.6,0.659 0.588,0.657 0.577,0.655L0.543,0.648C0.518,0.642 0.494,0.636 0.47,0.628C0.376,0.595 0.294,0.541 0.236,0.464C0.283,0.45 0.325,0.438 0.364,0.425C0.403,0.412 0.439,0.398 0.472,0.383C0.476,0.381 0.479,0.379 0.483,0.378C0.48,0.37 0.476,0.359 0.472,0.346C0.46,0.307 0.449,0.253 0.445,0.2C0.441,0.146 0.442,0.092 0.453,0.027C0.459,-0.005 0.469,-0.04 0.48,-0.069C0.491,-0.098 0.499,-0.115 0.499,-0.117C0.499,-0.118 0.499,-0.116 0.499,-0.114C0.499,-0.113 0.498,-0.111 0.499,-0.112C0.499,-0.112 0.5,-0.119 0.501,-0.129C0.501,-0.149 0.499,-0.17 0.498,-0.189C0.492,-0.227 0.491,-0.252 0.476,-0.284C0.471,-0.292 0.466,-0.301 0.46,-0.308C0.454,-0.316 0.446,-0.324 0.437,-0.332C0.419,-0.348 0.393,-0.363 0.362,-0.374C0.33,-0.387 0.293,-0.395 0.253,-0.403C0.213,-0.41 0.169,-0.415 0.121,-0.42C0.142,-0.464 0.172,-0.502 0.207,-0.535C0.242,-0.569 0.284,-0.597 0.331,-0.619C0.379,-0.64 0.434,-0.656 0.495,-0.657C0.555,-0.659 0.622,-0.647 0.68,-0.622C0.709,-0.611 0.74,-0.592 0.767,-0.574C0.795,-0.554 0.82,-0.532 0.843,-0.507C0.888,-0.459 0.923,-0.403 0.947,-0.346C0.972,-0.289 0.987,-0.232 0.994,-0.172C0.998,-0.142 1,-0.108 0.997,-0.069C0.995,-0.031 0.985,0.017 0.971,0.053C0.941,0.128 0.942,0.119 0.936,0.135C0.931,0.148 0.925,0.174 0.921,0.2C0.917,0.227 0.913,0.253 0.911,0.293C0.91,0.313 0.91,0.336 0.907,0.371C0.907,0.378 0.906,0.39 0.904,0.4C0.903,0.409 0.901,0.423 0.899,0.435C0.894,0.459 0.884,0.49 0.868,0.519C0.861,0.533 0.851,0.547 0.841,0.56C0.831,0.573 0.82,0.583 0.809,0.594C0.788,0.613 0.761,0.631 0.734,0.642C0.694,0.657 0.663,0.661 0.639,0.661C0.63,0.661 0.621,0.66 0.614,0.66ZM0.563,0.32C0.543,0.326 0.526,0.333 0.509,0.357C0.507,0.361 0.505,0.365 0.503,0.368C0.508,0.365 0.514,0.362 0.52,0.359C0.524,0.357 0.527,0.355 0.531,0.353L0.545,0.346C0.554,0.342 0.562,0.338 0.568,0.334C0.579,0.328 0.582,0.32 0.57,0.32C0.568,0.32 0.566,0.32 0.563,0.32Z" style="fill:url(#_Linear9);fill-rule:nonzero;"/>
                </g>
                <g transform="matrix(36.0194,0,0,-36.0194,962.653,1679.81)">
                    <path d="M0.107,0.006L0.025,0.003C0.008,0.002 -0,0.001 0,-0C0.001,-0.002 0.033,-0.004 0.108,-0.006C0.188,-0.009 0.292,-0.011 0.5,-0.013C0.708,-0.011 0.812,-0.009 0.892,-0.006C0.967,-0.004 0.999,-0.002 1,-0C1,0.001 0.992,0.002 0.975,0.003L0.893,0.006C0.814,0.008 0.71,0.011 0.5,0.013C0.291,0.011 0.186,0.008 0.107,0.006Z" style="fill:url(#_Linear10);fill-rule:nonzero;"/>
                </g>
                <g transform="matrix(100.107,0,0,-100.107,976.38,1681.97)">
                    <path d="M0.756,0.154C0.748,0.132 0.74,0.113 0.731,0.099C0.722,0.085 0.709,0.078 0.702,0.082C0.697,0.085 0.696,0.09 0.694,0.095C0.693,0.1 0.692,0.105 0.692,0.108C0.691,0.123 0.671,0.124 0.643,0.127C0.616,0.131 0.582,0.133 0.546,0.135C0.474,0.138 0.393,0.137 0.307,0.12C0.266,0.112 0.225,0.101 0.181,0.086C0.159,0.079 0.137,0.071 0.114,0.061C0.091,0.051 0.068,0.041 0.043,0.026C0.058,0.002 0.075,-0.018 0.093,-0.037C0.111,-0.055 0.13,-0.071 0.149,-0.087C0.188,-0.116 0.229,-0.141 0.271,-0.159C0.351,-0.197 0.435,-0.22 0.53,-0.225C0.577,-0.227 0.627,-0.224 0.683,-0.212C0.71,-0.206 0.74,-0.197 0.771,-0.182C0.787,-0.175 0.803,-0.166 0.819,-0.155C0.836,-0.143 0.852,-0.13 0.868,-0.113C0.9,-0.081 0.925,-0.031 0.928,0.014C0.932,0.059 0.92,0.095 0.906,0.122C0.89,0.15 0.872,0.171 0.85,0.188C0.829,0.205 0.805,0.219 0.778,0.228C0.769,0.201 0.763,0.176 0.756,0.154Z" style="fill:url(#_Linear11);fill-rule:nonzero;"/>
                </g>
            </g>
            <g transform="matrix(2.86955,0,0,2.92318,-3130.99,-1556.65)">
                <path d="M1506.32,948.774C1506.32,956.283 1523.1,956.283 1523.1,956.283L1523.1,933.755L1527.88,933.755C1544.36,933.755 1558.99,928.782 1558.99,909.764L1558.99,908.009C1558.99,888.504 1544.36,884.408 1527.88,884.408L1506.32,884.408L1506.32,948.774ZM1527.88,896.306C1536.26,896.306 1542.21,898.256 1542.21,908.887C1542.21,920.395 1536.26,921.857 1527.88,921.857L1523.1,921.857L1523.1,896.306L1527.88,896.306Z" style="fill:rgb(13,202,242);fill-rule:nonzero;"/>
                <path d="M1584.05,955.991L1584.05,915.421C1591.36,913.763 1600.34,915.226 1600.34,924.393C1600.34,924.393 1606.28,919.614 1606.28,912.788C1606.28,905.083 1598.78,902.743 1591.85,902.743C1585.71,902.743 1580.73,904.791 1576.25,904.791C1573.81,904.791 1571.17,904.108 1567.66,902.45L1567.66,948.482C1567.66,955.991 1584.05,955.991 1584.05,955.991Z" style="fill:rgb(13,202,242);fill-rule:nonzero;"/>
                <path d="M1632.91,915.811C1626.67,925.856 1607.94,935.218 1607.94,949.944C1607.94,950.725 1607.85,951.407 1608.72,955.308L1645.1,955.308C1654.17,955.308 1654.17,943.508 1654.17,943.508L1626.57,943.508C1634.37,932.878 1649.29,923.613 1651.93,914.348C1653,910.74 1653.19,907.326 1654.27,903.913L1618.28,903.913C1609.02,903.913 1609.02,915.811 1609.02,915.811L1632.91,915.811Z" style="fill:rgb(13,202,242);fill-rule:nonzero;"/>
                <path d="M1674.06,947.506C1666.46,953.163 1660.31,957.844 1660.31,966.914C1660.31,974.326 1664.12,978.812 1670.07,978.812C1672.31,978.812 1674.84,978.226 1677.67,976.861C1677.67,976.861 1675.72,973.35 1675.72,968.962C1675.72,962.33 1680.4,957.941 1686.55,953.26L1690.35,950.335C1696.4,945.653 1704.88,935.316 1706.44,922.638L1708.78,903.23C1708.68,903.23 1692.79,903.23 1691.81,910.447L1689.86,924.1C1688.2,935.706 1683.13,939.314 1683.13,939.314C1683.13,939.314 1678.26,936.681 1676.5,924.1L1674.55,910.447C1673.48,903.23 1657.68,903.23 1657.68,903.23L1659.92,922.638C1661.09,933.073 1667.14,942.923 1674.06,947.506Z" style="fill:rgb(13,202,242);fill-rule:nonzero;"/>
                <path d="M1715.61,938.144C1715.61,949.652 1723.31,956.479 1737.94,956.479C1752.67,956.479 1756.47,949.749 1756.47,944.288C1756.47,940.485 1754.42,937.559 1751.2,934.536C1751.2,943.215 1745.26,944.678 1740.48,944.678C1733.36,944.678 1731.99,941.46 1731.99,935.413L1731.99,918.737L1742.33,918.737C1751.3,918.737 1751.4,906.839 1751.4,906.839L1731.99,906.839L1731.99,903.718C1731.99,895.038 1715.61,896.111 1715.61,896.111L1715.61,938.144Z" style="fill:rgb(13,202,242);fill-rule:nonzero;"/>
                <path d="M1778.22,910.74C1778.22,903.62 1761.84,903.23 1761.84,903.23L1761.84,939.217C1761.84,952.773 1773.54,956.479 1784.46,956.479C1789.43,956.479 1794.02,954.431 1798.99,954.431C1805.14,954.431 1809.53,956.869 1809.53,956.869L1809.53,910.74C1809.53,903.23 1793.14,903.23 1793.14,903.23L1793.14,943.898C1793.14,943.898 1789.14,944.873 1785.83,944.873C1780.17,944.873 1778.22,942.338 1778.22,937.754L1778.22,910.74Z" style="fill:rgb(13,202,242);fill-rule:nonzero;"/>
                <path d="M1819.77,939.509C1819.77,948.286 1823.96,955.991 1833.22,955.991C1836.05,955.991 1839.56,955.503 1842.1,951.407C1836.25,950.92 1836.15,941.752 1836.15,936.389L1836.15,887.139C1836.15,879.727 1820.84,879.629 1819.77,879.629L1819.77,939.509Z" style="fill:rgb(13,202,242);fill-rule:nonzero;"/>
                <path d="M1875.55,944.386C1875.55,944.386 1871.94,945.458 1868.43,945.458C1865.11,945.458 1861.8,944.483 1861.8,939.899C1861.8,933.658 1872.92,935.218 1875.55,931.122L1875.55,944.386ZM1867.16,914.348C1873.5,914.348 1875.26,917.079 1875.26,919.419C1870.77,925.953 1845.41,922.638 1845.41,940.485C1845.41,952.773 1855.95,956.479 1866.87,956.479C1872.62,956.479 1878.09,954.723 1883.25,954.723C1885.98,954.723 1888.91,955.016 1891.64,956.479L1891.64,920.199C1891.64,908.887 1883.25,902.743 1867.36,902.743C1860.63,902.743 1846.78,904.693 1846.78,914.543C1846.78,917.566 1847.66,921.077 1851.27,925.856C1851.27,916.591 1859.65,914.348 1867.16,914.348Z" style="fill:rgb(13,202,242);fill-rule:nonzero;"/>
                <path d="M1930.65,939.509C1930.65,944.386 1925.58,944.873 1922.46,944.873C1917.19,944.873 1906.56,944.288 1906.17,934.828C1901.98,938.632 1900.03,942.142 1900.03,945.263C1900.03,951.895 1908.41,956.479 1922.46,956.479C1938.65,956.479 1946.74,950.335 1946.74,939.997C1946.74,916.299 1915.05,926.344 1915.05,918.639C1915.05,915.713 1919.05,914.543 1924.12,914.543C1930.85,914.543 1939.13,916.884 1939.13,922.54C1942.26,918.932 1943.72,915.616 1943.72,912.885C1943.72,906.449 1935.72,902.743 1922.46,902.743C1907.34,902.743 1898.95,908.106 1898.95,919.712C1898.95,941.265 1930.65,931.025 1930.65,939.509ZM1923.14,877.581C1923.63,878.362 1923.82,879.142 1923.82,879.922C1923.82,882.458 1921.19,884.603 1919.14,886.651L1915.63,890.064C1909.98,895.526 1923.63,897.866 1923.63,897.866L1928.99,893.77C1937.77,887.041 1935.43,878.849 1923.14,877.581Z" style="fill:rgb(13,202,242);fill-rule:nonzero;"/>
                <path d="M1986.14,948.482C1986.14,955.796 2002.53,955.991 2002.53,955.991L2002.53,920.004C2002.53,906.449 1991.02,902.743 1980.1,902.743C1974.93,902.743 1970.34,904.791 1965.56,904.791C1959.13,904.791 1954.84,902.45 1954.84,902.45L1954.84,948.482C1954.84,955.991 1971.22,955.991 1971.22,955.991L1971.22,915.323C1971.22,915.323 1975.32,914.446 1978.73,914.446C1984.29,914.446 1986.14,916.884 1986.14,921.467L1986.14,948.482Z" style="fill:rgb(13,202,242);fill-rule:nonzero;"/>
                <path d="M2041.44,944.386C2041.44,944.386 2037.83,945.458 2034.32,945.458C2031,945.458 2027.69,944.483 2027.69,939.899C2027.69,933.658 2038.81,935.218 2041.44,931.122L2041.44,944.386ZM2033.05,914.348C2039.39,914.348 2041.14,917.079 2041.14,919.419C2036.66,925.953 2011.3,922.638 2011.3,940.485C2011.3,952.773 2021.84,956.479 2032.76,956.479C2038.51,956.479 2043.97,954.723 2049.14,954.723C2051.87,954.723 2054.8,955.016 2057.53,956.479L2057.53,920.199C2057.53,908.887 2049.14,902.743 2033.25,902.743C2026.52,902.743 2012.67,904.693 2012.67,914.543C2012.67,917.566 2013.55,921.077 2017.15,925.856C2017.15,916.591 2025.54,914.348 2033.05,914.348Z" style="fill:rgb(13,202,242);fill-rule:nonzero;"/>
                <path d="M1717.75,988.4C1717.75,1001.7 1740.9,993.349 1740.9,1004.95C1740.9,1009.59 1737.7,1012.53 1731.2,1012.53C1725.28,1012.53 1719.35,1010.83 1719.35,1005.62C1718.78,1007.06 1718.52,1008.35 1718.52,1009.38C1718.52,1013.82 1725.48,1015.42 1730.89,1015.42C1738.58,1015.42 1743.99,1012.01 1743.99,1004.8C1743.99,989.947 1720.84,998.608 1720.84,988.142C1720.84,982.729 1725.28,981.233 1730.74,981.233C1736.36,981.233 1741.93,982.625 1741.93,987.987C1742.55,986.544 1742.86,985.255 1742.86,984.275C1742.86,979.532 1736.52,978.346 1731.1,978.346C1724.09,978.346 1717.75,980.666 1717.75,988.4Z" style="fill:rgb(236,112,32);fill-opacity:0.98;fill-rule:nonzero;"/>
                <path d="M1770.85,1014.8C1773.02,1014.8 1773.53,1012.48 1773.53,1011.39C1773.53,1011.39 1772.81,1012.01 1769.77,1012.01L1751.98,1012.01C1754.1,1001.5 1772.55,994.329 1772.76,979.016L1751.78,979.016C1749.82,979.016 1749.82,981.801 1749.82,981.801L1769.56,981.801C1766.83,994.999 1748.53,1001.39 1748.53,1014.8L1770.85,1014.8Z" style="fill:rgb(236,112,32);fill-opacity:0.98;fill-rule:nonzero;"/>
                <path d="M1782.45,996.236C1792.04,996.391 1795.44,1003.82 1799.98,1012.48C1801.12,1014.64 1802.15,1015.42 1803.75,1015.42C1804.16,1015.42 1804.57,1015.36 1804.98,1015.26C1802.35,1010.98 1796.79,995.979 1788.64,995.154C1796.94,993.607 1800.96,982.161 1803.43,978.449C1803.43,978.449 1803.43,978.398 1802.77,978.398C1801.53,978.398 1799.83,978.81 1798.54,981.182C1794,989.637 1790.5,993.865 1782.45,994.174L1782.45,980.769C1782.45,978.501 1779.46,978.501 1779.46,978.501L1779.46,1013.04C1779.46,1015.31 1782.45,1015.31 1782.45,1015.31L1782.45,996.236Z" style="fill:rgb(236,112,32);fill-opacity:0.98;fill-rule:nonzero;"/>
                <path d="M1835.71,989.534C1835.71,982.574 1831.38,978.398 1822.15,978.398C1812.82,978.398 1808.54,982.574 1808.54,989.534L1808.54,1004.28C1808.54,1011.29 1812.82,1015.42 1822.15,1015.42C1831.38,1015.42 1835.71,1011.29 1835.71,1004.28L1835.71,989.534ZM1832.72,1003.61C1832.72,1008.97 1830.97,1012.63 1822.1,1012.63C1813.28,1012.63 1811.53,1008.97 1811.53,1003.61L1811.53,990.204C1811.53,984.894 1813.28,981.182 1822.1,981.182C1830.97,981.182 1832.72,984.894 1832.72,990.204L1832.72,1003.61Z" style="fill:rgb(236,112,32);fill-opacity:0.98;fill-rule:nonzero;"/>
                <path d="M1861.8,1014.8C1863.4,1014.8 1864.22,1012.53 1864.22,1011.5C1864.22,1011.5 1863.5,1012.01 1860.46,1012.01L1846.95,1012.01L1846.95,994.329L1849.42,993.298C1850.97,992.679 1850.09,990.72 1849.73,990.153L1846.95,991.287L1846.95,980.769C1846.95,978.501 1843.96,978.501 1843.96,978.501L1843.96,992.524L1841.02,993.71C1839.58,994.329 1840.35,996.133 1840.81,996.804L1843.96,995.515L1843.96,1012.53C1843.96,1014.8 1847.67,1014.8 1847.67,1014.8L1861.8,1014.8Z" style="fill:rgb(236,112,32);fill-opacity:0.98;fill-rule:nonzero;"/>
                <path d="M1889.23,1006.45C1890.36,1010.36 1891.29,1015.21 1895.05,1015.21C1895.21,1015.21 1895.41,1015.21 1895.57,1015.16C1894.28,1012.94 1890.72,1000.93 1888.04,992.163C1884.89,981.904 1880.51,978.81 1880.05,978.449C1879.59,978.81 1875.2,981.904 1872.06,992.163C1869.38,1000.93 1865.82,1012.94 1864.53,1015.16C1864.68,1015.21 1864.89,1015.21 1865.05,1015.21C1868.81,1015.21 1869.74,1010.36 1870.87,1006.45L1871.9,1002.84L1888.19,1002.84L1889.23,1006.45ZM1872.73,1000L1874.69,993.504C1876.96,985.925 1880.05,982.471 1880.05,982.471C1880.05,982.471 1883.14,985.925 1885.41,993.504L1887.37,1000L1872.73,1000Z" style="fill:rgb(236,112,32);fill-opacity:0.98;fill-rule:nonzero;"/>
                <path d="M1931.25,981.801C1933.82,981.801 1934.18,979.326 1934.18,978.295C1934.18,978.295 1933.72,979.016 1930.42,979.016L1910.83,979.016C1907.53,979.016 1907.01,978.295 1907.01,978.295C1907.01,979.326 1907.43,981.801 1910,981.801L1919.03,981.801L1919.03,1013.04C1919.03,1015.31 1922.02,1015.31 1922.02,1015.31L1922.02,981.801L1931.25,981.801Z" style="fill:rgb(236,112,32);fill-opacity:0.98;fill-rule:nonzero;"/>
                <path d="M1955.37,1006.45C1956.51,1010.36 1957.44,1015.21 1961.2,1015.21C1961.35,1015.21 1961.56,1015.21 1961.72,1015.16C1960.43,1012.94 1956.87,1000.93 1954.19,992.163C1951.04,981.904 1946.66,978.81 1946.2,978.449C1945.73,978.81 1941.35,981.904 1938.2,992.163C1935.52,1000.93 1931.97,1012.94 1930.68,1015.16C1930.83,1015.21 1931.04,1015.21 1931.19,1015.21C1934.96,1015.21 1935.88,1010.36 1937.02,1006.45L1938.05,1002.84L1954.34,1002.84L1955.37,1006.45ZM1938.88,1000L1940.84,993.504C1943.1,985.925 1946.2,982.471 1946.2,982.471C1946.2,982.471 1949.29,985.925 1951.56,993.504L1953.52,1000L1938.88,1000Z" style="fill:rgb(236,112,32);fill-opacity:0.98;fill-rule:nonzero;"/>
                <path d="M1971.77,981.491C1970.27,979.016 1968.47,979.016 1966.1,979.016L1966.1,1013.04C1966.1,1015.31 1969.09,1015.31 1969.09,1015.31L1969.09,986.544C1969.09,984.482 1968.67,982.265 1968.67,982.265L1987.24,1012.12C1987.24,1012.12 1988.68,1015.31 1992.96,1015.31L1992.96,981.285C1992.96,979.016 1989.97,979.016 1989.97,979.016L1989.97,1008.25C1989.97,1009.38 1990.38,1011.91 1990.38,1011.91L1988.37,1008.35L1971.77,981.491ZM1983.32,966.643C1983.78,968.499 1982.75,969.788 1981.56,970.974L1978.01,974.325C1976.82,975.408 1978.32,976.232 1979.66,976.387L1982.13,974.428C1987.39,970.252 1986.67,968.602 1983.32,966.643Z" style="fill:rgb(236,112,32);fill-opacity:0.98;fill-rule:nonzero;"/>
                <path d="M2015.08,981.285C2019.2,981.285 2027.14,982.316 2027.14,987.266C2031.37,979.223 2020.44,978.398 2015.08,978.398C2007.81,978.398 2001.21,981.44 2001.21,989.998L2001.21,1003.82C2001.21,1012.43 2007.55,1015.42 2014.82,1015.42C2021.01,1015.42 2030.96,1014.18 2027.14,1006.13C2027.3,1012.12 2017.96,1012.53 2014.82,1012.53C2008.58,1012.53 2004.2,1010.05 2004.2,1003.04L2004.2,990.72C2004.2,983.76 2008.84,981.285 2015.08,981.285Z" style="fill:rgb(236,112,32);fill-opacity:0.98;fill-rule:nonzero;"/>
                <path d="M2056.06,1006.45C2057.2,1010.36 2058.13,1015.21 2061.89,1015.21C2062.05,1015.21 2062.25,1015.21 2062.41,1015.16C2061.12,1012.94 2057.56,1000.93 2054.88,992.163C2051.73,981.904 2047.35,978.81 2046.89,978.449C2046.42,978.81 2042.04,981.904 2038.9,992.163C2036.22,1000.93 2032.66,1012.94 2031.37,1015.16C2031.52,1015.21 2031.73,1015.21 2031.88,1015.21C2035.65,1015.21 2036.58,1010.36 2037.71,1006.45L2038.74,1002.84L2055.03,1002.84L2056.06,1006.45ZM2039.57,1000L2041.53,993.504C2043.79,985.925 2046.89,982.471 2046.89,982.471C2046.89,982.471 2049.98,985.925 2052.25,993.504L2054.21,1000L2039.57,1000Z" style="fill:rgb(236,112,32);fill-opacity:0.98;fill-rule:nonzero;"/>
            </g>
        </g>
    </g>
    <defs>
        <linearGradient id="_Linear1" x1="0" y1="0" x2="1" y2="0" gradientUnits="userSpaceOnUse" gradientTransform="matrix(1,0,0,-1,0,-5.425e-07)"><stop offset="0" style="stop-color:rgb(193,30,35);stop-opacity:1"/><stop offset="0.02" style="stop-color:rgb(193,30,35);stop-opacity:1"/><stop offset="0.53" style="stop-color:rgb(239,117,32);stop-opacity:1"/><stop offset="1" style="stop-color:rgb(249,227,2);stop-opacity:1"/></linearGradient>
        <linearGradient id="_Linear2" x1="0" y1="0" x2="1" y2="0" gradientUnits="userSpaceOnUse" gradientTransform="matrix(1,0,0,-1,0,0.000217358)"><stop offset="0" style="stop-color:rgb(193,30,35);stop-opacity:1"/><stop offset="0.02" style="stop-color:rgb(193,30,35);stop-opacity:1"/><stop offset="0.53" style="stop-color:rgb(239,117,32);stop-opacity:1"/><stop offset="1" style="stop-color:rgb(249,227,2);stop-opacity:1"/></linearGradient>
        <linearGradient id="_Linear3" x1="0" y1="0" x2="1" y2="0" gradientUnits="userSpaceOnUse" gradientTransform="matrix(1,0,0,-1,0,-1.15678e-06)"><stop offset="0" style="stop-color:rgb(20,41,104);stop-opacity:1"/><stop offset="0.01" style="stop-color:rgb(20,41,104);stop-opacity:1"/><stop offset="0.4" style="stop-color:rgb(25,61,135);stop-opacity:1"/><stop offset="0.84" style="stop-color:rgb(22,120,211);stop-opacity:1"/><stop offset="1" style="stop-color:rgb(22,120,211);stop-opacity:1"/></linearGradient>
        <linearGradient id="_Linear4" x1="0" y1="0" x2="1" y2="0" gradientUnits="userSpaceOnUse" gradientTransform="matrix(1,0,0,-1,0,8.21619e-06)"><stop offset="0" style="stop-color:rgb(20,41,104);stop-opacity:1"/><stop offset="0.01" style="stop-color:rgb(20,41,104);stop-opacity:1"/><stop offset="0.4" style="stop-color:rgb(25,61,135);stop-opacity:1"/><stop offset="0.84" style="stop-color:rgb(22,120,211);stop-opacity:1"/><stop offset="1" style="stop-color:rgb(22,120,211);stop-opacity:1"/></linearGradient>
        <linearGradient id="_Linear5" x1="0" y1="0" x2="1" y2="0" gradientUnits="userSpaceOnUse" gradientTransform="matrix(1,0,0,-1,0,5.74824e-06)"><stop offset="0" style="stop-color:rgb(20,41,104);stop-opacity:1"/><stop offset="0.01" style="stop-color:rgb(20,41,104);stop-opacity:1"/><stop offset="0.4" style="stop-color:rgb(25,61,135);stop-opacity:1"/><stop offset="0.84" style="stop-color:rgb(22,120,211);stop-opacity:1"/><stop offset="1" style="stop-color:rgb(22,120,211);stop-opacity:1"/></linearGradient>
        <linearGradient id="_Linear6" x1="0" y1="0" x2="1" y2="0" gradientUnits="userSpaceOnUse" gradientTransform="matrix(1,0,0,-1,0,0.000773842)"><stop offset="0" style="stop-color:rgb(20,41,104);stop-opacity:1"/><stop offset="0.01" style="stop-color:rgb(20,41,104);stop-opacity:1"/><stop offset="0.4" style="stop-color:rgb(25,61,135);stop-opacity:1"/><stop offset="0.84" style="stop-color:rgb(22,120,211);stop-opacity:1"/><stop offset="1" style="stop-color:rgb(22,120,211);stop-opacity:1"/></linearGradient>
        <linearGradient id="_Linear7" x1="0" y1="0" x2="1" y2="0" gradientUnits="userSpaceOnUse" gradientTransform="matrix(1,0,0,-1,0,-5.57896e-06)"><stop offset="0" style="stop-color:rgb(20,41,104);stop-opacity:1"/><stop offset="0.01" style="stop-color:rgb(20,41,104);stop-opacity:1"/><stop offset="0.4" style="stop-color:rgb(25,61,135);stop-opacity:1"/><stop offset="0.84" style="stop-color:rgb(22,120,211);stop-opacity:1"/><stop offset="1" style="stop-color:rgb(22,120,211);stop-opacity:1"/></linearGradient>
        <linearGradient id="_Linear8" x1="0" y1="0" x2="1" y2="0" gradientUnits="userSpaceOnUse" gradientTransform="matrix(1,0,0,-1,0,0.00115723)"><stop offset="0" style="stop-color:rgb(20,41,104);stop-opacity:1"/><stop offset="0.01" style="stop-color:rgb(20,41,104);stop-opacity:1"/><stop offset="0.4" style="stop-color:rgb(25,61,135);stop-opacity:1"/><stop offset="0.84" style="stop-color:rgb(22,120,211);stop-opacity:1"/><stop offset="1" style="stop-color:rgb(22,120,211);stop-opacity:1"/></linearGradient>
        <linearGradient id="_Linear9" x1="0" y1="0" x2="1" y2="0" gradientUnits="userSpaceOnUse" gradientTransform="matrix(1,0,0,-1,0,0.00161023)"><stop offset="0" style="stop-color:rgb(20,41,104);stop-opacity:1"/><stop offset="0.01" style="stop-color:rgb(20,41,104);stop-opacity:1"/><stop offset="0.4" style="stop-color:rgb(25,61,135);stop-opacity:1"/><stop offset="0.84" style="stop-color:rgb(22,120,211);stop-opacity:1"/><stop offset="1" style="stop-color:rgb(22,120,211);stop-opacity:1"/></linearGradient>
        <linearGradient id="_Linear10" x1="0" y1="0" x2="1" y2="0" gradientUnits="userSpaceOnUse" gradientTransform="matrix(1,0,0,-1,0,-6.03332e-05)"><stop offset="0" style="stop-color:rgb(20,41,104);stop-opacity:1"/><stop offset="0.01" style="stop-color:rgb(20,41,104);stop-opacity:1"/><stop offset="0.4" style="stop-color:rgb(25,61,135);stop-opacity:1"/><stop offset="0.84" style="stop-color:rgb(22,120,211);stop-opacity:1"/><stop offset="1" style="stop-color:rgb(22,120,211);stop-opacity:1"/></linearGradient>
        <linearGradient id="_Linear11" x1="0" y1="0" x2="1" y2="0" gradientUnits="userSpaceOnUse" gradientTransform="matrix(1,0,0,-1,0,0.00151523)"><stop offset="0" style="stop-color:rgb(20,41,104);stop-opacity:1"/><stop offset="0.01" style="stop-color:rgb(20,41,104);stop-opacity:1"/><stop offset="0.4" style="stop-color:rgb(25,61,135);stop-opacity:1"/><stop offset="0.84" style="stop-color:rgb(22,120,211);stop-opacity:1"/><stop offset="1" style="stop-color:rgb(22,120,211);stop-opacity:1"/></linearGradient>
    </defs>
</svg>
