<?xml version="1.0" encoding="UTF-8" standalone="no"?>
<!DOCTYPE svg PUBLIC "-//W3C//DTD SVG 1.1//EN" "http://www.w3.org/Graphics/SVG/1.1/DTD/svg11.dtd">
<svg width="100%" height="100%" viewBox="0 0 330 100" version="1.1" xmlns="http://www.w3.org/2000/svg" xmlns:xlink="http://www.w3.org/1999/xlink" xml:space="preserve" xmlns:serif="http://www.serif.com/" style="fill-rule:evenodd;clip-rule:evenodd;stroke-linejoin:round;stroke-miterlimit:2;">
    <g transform="matrix(1,0,0,1,-2803,-60)">
        <g transform="matrix(1,0,0,5.65764,2743.97,0)">
            <g id="logo" transform="matrix(1,0,0,0.176752,0,1.37375e-32)">
                <g transform="matrix(0,-1.52754,-1.52754,0,260.184,89.3659)">
                    <path d="M-9.7,-10.108C-9.7,-10.108 0.204,-5.674 0.204,-0.205C0.204,5.265 -9.7,9.7 -9.7,9.7C-9.7,9.7 -20.011,3.014 -19.934,-0.618C-19.861,-4.107 -9.7,-10.108 -9.7,-10.108" style="fill:white;fill-rule:nonzero;"/>
                </g>
                <g transform="matrix(1.52754,0,0,1.52754,274.808,117.674)">
                    <path d="M0,-8.718C0,-8.718 -4.434,1.185 -9.904,1.185C-15.372,1.185 -19.807,-8.718 -19.807,-8.718C-19.807,-8.718 -15.569,-8.636 -13.222,-8.256C-11.354,-7.953 -9.075,-8.205 -6.362,-9.024C-3.453,-9.903 0,-8.718 0,-8.718" style="fill:rgb(227,6,19);fill-rule:nonzero;"/>
                </g>
                <g transform="matrix(1.52754,0,0,1.52754,218.133,106.447)">
                    <path d="M0,-1.18C0.211,-1.18 0.563,-1.277 1.057,-1.471C1.55,-1.664 2.069,-1.92 2.615,-2.237C3.161,-2.554 3.681,-2.888 4.175,-3.241C4.667,-3.593 5.019,-3.928 5.231,-4.244C5.759,-4.843 5.865,-5.592 5.547,-6.491C5.231,-7.389 4.598,-8.137 3.646,-8.736C3.188,-9.053 2.659,-9.15 2.061,-9.027C1.461,-8.903 0.898,-8.701 0.37,-8.418C-0.158,-8.137 -0.625,-7.828 -1.03,-7.494C-1.436,-7.159 -1.691,-6.921 -1.797,-6.781C-1.902,-6.675 -1.981,-6.367 -2.034,-5.857C-2.087,-5.345 -2.149,-4.79 -2.219,-4.192C-2.29,-3.523 -2.325,-2.766 -2.325,-1.92C-2.007,-1.814 -1.709,-1.708 -1.427,-1.603C-1.18,-1.533 -0.924,-1.452 -0.661,-1.366C-0.396,-1.277 -0.177,-1.214 0,-1.18M14.213,6.164C14.248,6.623 14.221,7.107 14.135,7.618C14.046,8.129 13.878,8.586 13.632,8.991C13.385,9.396 13.033,9.686 12.575,9.863C12.117,10.039 11.536,10.022 10.832,9.81C10.092,9.529 9.148,9.158 8.005,8.7C6.86,8.243 5.697,7.793 4.518,7.353C3.337,6.914 2.246,6.517 1.242,6.164C0.238,5.813 -0.476,5.582 -0.898,5.477C-1.356,5.338 -1.726,5.249 -2.007,5.213C-2.29,5.177 -2.519,5.16 -2.695,5.16C-2.906,5.16 -3.064,5.196 -3.17,5.266C-3.17,6.428 -3.188,7.467 -3.223,8.383C-3.258,9.194 -3.302,9.951 -3.355,10.655C-3.408,11.361 -3.47,11.783 -3.54,11.924C-3.822,12.206 -4.209,12.417 -4.703,12.557C-5.196,12.698 -5.848,12.733 -6.657,12.663C-7.045,12.629 -7.344,12.444 -7.556,12.108C-7.767,11.775 -7.917,11.386 -8.004,10.947C-8.093,10.506 -8.137,10.048 -8.137,9.572C-8.137,9.096 -8.119,8.666 -8.084,8.278C-7.767,5.107 -7.485,2.254 -7.239,-0.283C-7.133,-1.373 -7.028,-2.449 -6.922,-3.505C-6.815,-4.562 -6.71,-5.521 -6.604,-6.384C-6.499,-7.247 -6.411,-7.97 -6.34,-8.551C-6.27,-9.132 -6.2,-9.493 -6.129,-9.634C-5.989,-9.88 -5.593,-10.276 -4.94,-10.823C-4.289,-11.368 -3.487,-11.888 -2.536,-12.382C-1.585,-12.874 -0.546,-13.271 0.582,-13.571C1.708,-13.869 2.782,-13.913 3.804,-13.702C4.79,-13.492 5.688,-13.121 6.5,-12.593C7.308,-12.064 7.978,-11.421 8.507,-10.664C9.036,-9.907 9.396,-9.044 9.589,-8.076C9.784,-7.106 9.757,-6.059 9.511,-4.932C9.228,-3.804 8.797,-2.871 8.216,-2.131C7.635,-1.392 7.044,-0.811 6.446,-0.387C5.741,0.14 4.984,0.529 4.175,0.775L8.295,2.254C8.824,2.43 9.334,2.616 9.828,2.808C10.32,3.004 10.761,3.171 11.148,3.311C11.536,3.452 11.959,3.628 12.417,3.84C12.417,3.875 12.513,3.945 12.708,4.051C12.901,4.156 13.103,4.299 13.315,4.473C13.527,4.649 13.729,4.879 13.923,5.16C14.116,5.442 14.213,5.777 14.213,6.164" style="fill:rgb(33,170,204);fill-rule:nonzero;"/>
                </g>
                <g transform="matrix(1.52754,0,0,1.52754,271.242,105.935)">
                    <path d="M0,-0.211C0.034,-1.619 -0.116,-2.809 -0.449,-3.777C-0.784,-4.745 -1.234,-5.538 -1.797,-6.155C-2.36,-6.771 -2.986,-7.23 -3.673,-7.528C-4.358,-7.828 -5.021,-7.996 -5.654,-8.03C-6.323,-8.065 -7.09,-7.986 -7.952,-7.793C-8.815,-7.599 -9.635,-7.22 -10.409,-6.657C-11.183,-6.094 -11.845,-5.31 -12.391,-4.306C-12.937,-3.302 -13.229,-2.007 -13.262,-0.422C-13.262,1.128 -13.043,2.431 -12.603,3.488C-12.162,4.545 -11.59,5.398 -10.885,6.051C-10.181,6.702 -9.379,7.178 -8.48,7.477C-7.583,7.776 -6.676,7.926 -5.76,7.926C-3.786,7.926 -2.352,7.266 -1.454,5.945C-0.555,4.624 -0.071,2.572 0,-0.211M-7.027,-13.209C-4.667,-13.315 -2.714,-13.024 -1.163,-12.337C0.386,-11.649 1.62,-10.673 2.535,-9.404C3.452,-8.137 4.103,-6.622 4.492,-4.86C4.878,-3.099 5.071,-1.197 5.071,0.846C5.071,2.185 4.895,3.55 4.543,4.941C4.191,6.332 3.593,7.601 2.748,8.746C1.902,9.89 0.774,10.85 -0.634,11.625C-2.043,12.4 -3.824,12.857 -5.971,12.998C-7.556,13.104 -9.089,12.857 -10.568,12.259C-12.047,11.66 -13.368,10.814 -14.53,9.722C-15.692,8.631 -16.626,7.318 -17.33,5.785C-18.036,4.254 -18.406,2.607 -18.439,0.846C-18.511,-0.915 -18.282,-2.623 -17.754,-4.279C-17.226,-5.935 -16.468,-7.405 -15.481,-8.691C-14.496,-9.977 -13.289,-11.033 -11.862,-11.861C-10.436,-12.689 -8.824,-13.138 -7.027,-13.209" style="fill:rgb(33,170,204);fill-rule:nonzero;"/>
                </g>
                <g transform="matrix(1.52754,0,0,1.52754,297.472,97.0847)">
                    <path d="M0,11.289C0.493,11.114 1.153,10.832 1.98,10.444C2.808,10.057 3.627,9.643 4.438,9.202C5.248,8.763 5.935,8.33 6.499,7.908C7.062,7.485 7.326,7.133 7.292,6.852C7.22,6.605 6.992,6.103 6.604,5.345C6.217,4.588 5.6,3.778 4.754,2.915C3.91,2.052 2.801,1.251 1.426,0.511C0.053,-0.23 -1.656,-0.739 -3.699,-1.023C-3.699,-0.316 -3.682,0.326 -3.646,0.907C-3.612,1.488 -3.575,2.148 -3.54,2.889C-3.506,3.628 -3.453,4.386 -3.381,5.16L-2.959,11.289C-2.783,11.431 -2.554,11.537 -2.271,11.606C-2.026,11.678 -1.717,11.703 -1.348,11.685C-0.977,11.669 -0.528,11.537 0,11.289M-4.544,-7.045C-3.981,-6.728 -3.171,-6.314 -2.115,-5.803C-1.057,-5.292 0.096,-4.693 1.348,-4.007C2.596,-3.32 3.866,-2.545 5.152,-1.682C6.437,-0.818 7.582,0.15 8.586,1.224C9.589,2.299 10.382,3.47 10.963,4.737C11.545,6.006 11.764,7.362 11.624,8.806C11.482,10.285 10.884,11.563 9.827,12.637C8.771,13.712 7.477,14.627 5.944,15.384C4.412,16.143 2.765,16.759 1.003,17.234C-0.758,17.709 -2.404,18.071 -3.938,18.316C-5.469,18.563 -6.763,18.723 -7.82,18.792C-8.877,18.862 -9.476,18.862 -9.617,18.792C-9.828,18.723 -10.048,18.511 -10.277,18.159C-10.507,17.807 -10.709,17.436 -10.885,17.048C-11.062,16.662 -11.201,16.327 -11.308,16.045C-11.412,15.764 -11.43,15.64 -11.36,15.676C-11.326,15.746 -11.114,15.648 -10.726,15.384C-10.339,15.12 -9.916,14.829 -9.458,14.513C-8.929,14.125 -8.349,13.685 -7.714,13.191C-7.856,10.515 -7.996,8.102 -8.137,5.952C-8.208,5.037 -8.26,4.14 -8.297,3.258C-8.331,2.378 -8.367,1.586 -8.401,0.881C-8.437,0.177 -8.455,-0.397 -8.455,-0.837C-8.455,-1.276 -8.437,-1.532 -8.401,-1.603C-8.437,-1.638 -8.552,-1.734 -8.744,-1.894C-8.939,-2.052 -9.133,-2.245 -9.326,-2.475C-9.52,-2.703 -9.678,-2.941 -9.801,-3.189C-9.926,-3.434 -9.934,-3.645 -9.828,-3.822C-9.723,-3.998 -9.555,-4.341 -9.326,-4.853C-9.097,-5.362 -8.78,-5.856 -8.375,-6.332C-7.97,-6.808 -7.45,-7.15 -6.817,-7.362C-6.182,-7.573 -5.425,-7.468 -4.544,-7.045" style="fill:rgb(33,170,204);fill-rule:nonzero;"/>
                </g>
                <g transform="matrix(1.52754,0,0,1.52754,347.289,105.935)">
                    <path d="M0,-0.211C0.035,-1.619 -0.114,-2.809 -0.449,-3.777C-0.784,-4.745 -1.233,-5.538 -1.796,-6.155C-2.361,-6.771 -2.985,-7.23 -3.672,-7.528C-4.358,-7.828 -5.02,-7.996 -5.653,-8.03C-6.324,-8.065 -7.09,-7.986 -7.952,-7.793C-8.816,-7.599 -9.634,-7.22 -10.41,-6.657C-11.185,-6.094 -11.845,-5.31 -12.391,-4.306C-12.937,-3.302 -13.227,-2.007 -13.262,-0.422C-13.262,1.128 -13.043,2.431 -12.602,3.488C-12.162,4.545 -11.589,5.398 -10.884,6.051C-10.181,6.702 -9.378,7.178 -8.48,7.477C-7.582,7.776 -6.676,7.926 -5.759,7.926C-3.787,7.926 -2.352,7.266 -1.453,5.945C-0.554,4.624 -0.071,2.572 0,-0.211M-7.027,-13.209C-4.668,-13.315 -2.713,-13.024 -1.163,-12.337C0.387,-11.649 1.621,-10.673 2.536,-9.404C3.452,-8.137 4.104,-6.622 4.491,-4.86C4.879,-3.099 5.072,-1.197 5.072,0.846C5.072,2.185 4.896,3.55 4.544,4.941C4.191,6.332 3.593,7.601 2.748,8.746C1.902,9.89 0.774,10.85 -0.634,11.625C-2.043,12.4 -3.822,12.857 -5.971,12.998C-7.556,13.104 -9.088,12.857 -10.568,12.259C-12.047,11.66 -13.367,10.814 -14.53,9.722C-15.693,8.631 -16.625,7.318 -17.33,5.785C-18.036,4.254 -18.406,2.607 -18.44,0.846C-18.511,-0.915 -18.281,-2.623 -17.753,-4.279C-17.225,-5.935 -16.468,-7.405 -15.482,-8.691C-14.496,-9.977 -13.288,-11.033 -11.862,-11.861C-10.436,-12.689 -8.824,-13.138 -7.027,-13.209" style="fill:rgb(33,170,204);fill-rule:nonzero;"/>
                </g>
                <g transform="matrix(1.52754,0,0,1.52754,374.83,126.086)">
                    <path d="M0,-26.718C1.126,-26.647 2.086,-26.329 2.879,-25.767C3.672,-25.202 4.271,-24.541 4.676,-23.785C5.079,-23.028 5.274,-22.262 5.257,-21.487C5.238,-20.711 5.001,-20.095 4.543,-19.637C4.122,-19.215 3.707,-18.986 3.302,-18.95C2.896,-18.915 2.526,-18.967 2.192,-19.109C1.856,-19.249 1.565,-19.443 1.32,-19.691C1.074,-19.936 0.88,-20.148 0.739,-20.323C0.634,-20.5 0.431,-20.72 0.131,-20.985C-0.169,-21.249 -0.521,-21.451 -0.925,-21.592C-1.331,-21.733 -1.744,-21.759 -2.166,-21.671C-2.589,-21.583 -2.959,-21.257 -3.276,-20.695C-3.629,-20.2 -3.665,-19.691 -3.383,-19.161C-3.1,-18.634 -2.66,-18.113 -2.062,-17.603C-1.463,-17.092 -0.775,-16.599 0,-16.124C0.773,-15.648 1.497,-15.234 2.165,-14.882C2.8,-14.459 3.425,-14.063 4.042,-13.694C4.658,-13.323 5.231,-12.927 5.759,-12.504C6.288,-12.081 6.771,-11.597 7.212,-11.051C7.652,-10.505 8.031,-9.844 8.347,-9.07C8.665,-8.294 8.823,-7.441 8.823,-6.507C8.823,-5.573 8.62,-4.666 8.216,-3.785C7.811,-2.906 7.168,-2.14 6.288,-1.488C5.406,-0.835 4.244,-0.405 2.8,-0.194C1.32,-0.018 -0.054,0 -1.321,-0.14C-2.589,-0.281 -3.771,-0.51 -4.861,-0.826C-5.954,-1.145 -6.941,-1.505 -7.821,-1.909C-8.701,-2.315 -9.476,-2.711 -10.145,-3.099C-10.814,-3.451 -11.264,-3.857 -11.493,-4.315C-11.721,-4.772 -11.81,-5.23 -11.757,-5.689C-11.704,-6.146 -11.554,-6.595 -11.308,-7.035C-11.062,-7.476 -10.797,-7.855 -10.515,-8.172C-9.846,-8.805 -9.053,-8.954 -8.137,-8.621C-7.221,-8.286 -6.271,-7.714 -5.284,-6.904C-4.827,-6.515 -4.281,-6.191 -3.646,-5.926C-3.012,-5.662 -2.37,-5.478 -1.718,-5.371C-1.067,-5.266 -0.424,-5.23 0.211,-5.266C0.845,-5.3 1.39,-5.424 1.849,-5.635C2.694,-6.093 2.976,-6.719 2.694,-7.511C2.412,-8.304 1.638,-9.369 0.37,-10.708C-0.265,-11.447 -0.997,-12.029 -1.824,-12.451C-2.652,-12.874 -3.488,-13.34 -4.333,-13.852C-5.178,-14.362 -5.971,-14.988 -6.711,-15.728C-7.45,-16.467 -8.032,-17.524 -8.454,-18.898C-8.877,-20.306 -8.816,-21.514 -8.27,-22.517C-7.724,-23.521 -6.967,-24.331 -5.997,-24.947C-5.029,-25.564 -3.981,-26.012 -2.854,-26.295C-1.726,-26.576 -0.775,-26.718 0,-26.718" style="fill:rgb(33,170,204);fill-rule:nonzero;"/>
                </g>
                <g transform="matrix(-2.59682e-06,-60.8631,-60.8631,2.59682e-06,221.475,146.566)">
                    <path d="M1.022,0.062C1.014,0.091 1.004,0.117 0.992,0.141C0.98,0.164 0.967,0.185 0.953,0.201C0.939,0.217 0.929,0.227 0.923,0.231C0.919,0.233 0.91,0.234 0.896,0.236C0.881,0.238 0.863,0.24 0.841,0.243C0.82,0.245 0.796,0.248 0.769,0.251C0.743,0.253 0.716,0.256 0.688,0.259C0.625,0.265 0.553,0.272 0.473,0.28C0.464,0.281 0.453,0.281 0.441,0.281C0.429,0.281 0.418,0.28 0.406,0.278C0.395,0.276 0.386,0.272 0.377,0.267C0.369,0.261 0.364,0.254 0.363,0.244C0.362,0.224 0.362,0.207 0.366,0.195C0.37,0.183 0.375,0.173 0.382,0.166C0.385,0.164 0.396,0.162 0.414,0.161C0.431,0.16 0.45,0.159 0.471,0.158C0.494,0.157 0.52,0.157 0.549,0.157C0.551,0.154 0.552,0.15 0.552,0.145C0.552,0.14 0.551,0.134 0.55,0.127C0.549,0.12 0.547,0.111 0.544,0.099C0.541,0.089 0.535,0.071 0.526,0.046C0.518,0.021 0.508,-0.007 0.497,-0.036C0.486,-0.066 0.474,-0.095 0.463,-0.124C0.451,-0.153 0.442,-0.176 0.435,-0.195C0.43,-0.213 0.429,-0.227 0.434,-0.239C0.438,-0.25 0.445,-0.259 0.456,-0.265C0.466,-0.271 0.477,-0.276 0.49,-0.278C0.503,-0.28 0.515,-0.281 0.526,-0.28C0.536,-0.28 0.545,-0.277 0.552,-0.272C0.559,-0.268 0.565,-0.263 0.569,-0.257C0.573,-0.252 0.577,-0.247 0.58,-0.242C0.582,-0.237 0.584,-0.235 0.585,-0.235C0.59,-0.223 0.595,-0.213 0.598,-0.203C0.602,-0.193 0.606,-0.182 0.611,-0.17C0.616,-0.157 0.62,-0.145 0.625,-0.131L0.662,-0.028C0.668,-0.048 0.678,-0.067 0.691,-0.085C0.702,-0.1 0.716,-0.115 0.735,-0.129C0.753,-0.144 0.777,-0.155 0.805,-0.162C0.833,-0.168 0.86,-0.169 0.884,-0.164C0.908,-0.159 0.93,-0.15 0.949,-0.137C0.968,-0.123 0.984,-0.106 0.997,-0.086C1.011,-0.066 1.02,-0.043 1.025,-0.019C1.027,-0.008 1.028,0.003 1.028,0.014C1.028,0.03 1.026,0.046 1.022,0.062ZM0.715,0.094C0.718,0.1 0.72,0.107 0.721,0.113C0.724,0.12 0.727,0.127 0.729,0.135C0.751,0.135 0.77,0.134 0.786,0.133C0.801,0.131 0.815,0.129 0.828,0.128C0.841,0.127 0.849,0.125 0.851,0.122C0.855,0.119 0.861,0.113 0.869,0.103C0.878,0.093 0.885,0.081 0.892,0.068C0.9,0.054 0.905,0.04 0.908,0.025C0.911,0.01 0.908,-0.003 0.9,-0.015C0.885,-0.038 0.867,-0.054 0.844,-0.062C0.822,-0.07 0.803,-0.068 0.788,-0.054C0.78,-0.049 0.771,-0.04 0.763,-0.028C0.754,-0.015 0.745,-0.002 0.737,0.011C0.729,0.025 0.723,0.038 0.718,0.05C0.713,0.063 0.711,0.072 0.711,0.077C0.712,0.081 0.713,0.087 0.715,0.094Z" style="fill:url(#_Linear1);fill-rule:nonzero;"/>
                </g>
                <g transform="matrix(-2.59682e-06,-60.8652,-60.8652,2.59682e-06,259.59,146.569)">
                    <path d="M1.021,0.007C1.019,0.052 1.008,0.093 0.987,0.128C0.967,0.164 0.94,0.194 0.908,0.219C0.875,0.244 0.839,0.263 0.797,0.276C0.755,0.289 0.713,0.295 0.668,0.293C0.624,0.293 0.583,0.283 0.544,0.266C0.506,0.248 0.473,0.224 0.446,0.195C0.418,0.166 0.397,0.133 0.382,0.096C0.367,0.059 0.361,0.02 0.363,-0.02C0.367,-0.073 0.378,-0.118 0.398,-0.153C0.417,-0.189 0.441,-0.217 0.47,-0.238C0.499,-0.26 0.531,-0.275 0.566,-0.283C0.601,-0.292 0.635,-0.297 0.668,-0.297C0.72,-0.297 0.767,-0.292 0.812,-0.282C0.856,-0.272 0.894,-0.256 0.926,-0.233C0.958,-0.21 0.982,-0.179 0.999,-0.14C1.014,-0.106 1.022,-0.065 1.022,-0.016C1.022,-0.009 1.021,-0.001 1.021,0.007ZM0.502,0.043C0.509,0.066 0.521,0.086 0.538,0.104C0.554,0.122 0.576,0.136 0.602,0.147C0.629,0.158 0.661,0.163 0.7,0.163C0.74,0.163 0.773,0.155 0.798,0.142C0.823,0.128 0.843,0.111 0.857,0.092C0.871,0.072 0.88,0.052 0.885,0.03C0.89,0.009 0.892,-0.011 0.891,-0.028C0.89,-0.043 0.886,-0.06 0.879,-0.077C0.871,-0.094 0.86,-0.11 0.844,-0.124C0.829,-0.138 0.809,-0.15 0.784,-0.158C0.76,-0.166 0.73,-0.17 0.695,-0.169C0.625,-0.168 0.574,-0.155 0.54,-0.133C0.507,-0.11 0.491,-0.074 0.491,-0.025C0.491,-0.002 0.494,0.021 0.502,0.043Z" style="fill:url(#_Linear2);fill-rule:nonzero;"/>
                </g>
                <g transform="matrix(-2.59682e-06,-60.8637,-60.8637,2.59682e-06,296.439,146.566)">
                    <path d="M1.02,0.176C1.014,0.192 1.006,0.205 0.994,0.215C0.982,0.225 0.97,0.233 0.957,0.239C0.944,0.245 0.935,0.249 0.931,0.252C0.927,0.254 0.921,0.254 0.915,0.251C0.909,0.248 0.903,0.244 0.897,0.239C0.891,0.234 0.887,0.229 0.883,0.225C0.879,0.22 0.876,0.217 0.875,0.216C0.873,0.217 0.867,0.217 0.856,0.217C0.845,0.217 0.831,0.217 0.813,0.216C0.795,0.215 0.775,0.214 0.753,0.213C0.731,0.212 0.709,0.211 0.686,0.209C0.632,0.206 0.571,0.202 0.504,0.199C0.492,0.215 0.48,0.229 0.471,0.242C0.463,0.254 0.456,0.265 0.449,0.274C0.442,0.284 0.44,0.289 0.442,0.29C0.442,0.292 0.439,0.291 0.432,0.289C0.425,0.286 0.417,0.283 0.407,0.278C0.397,0.274 0.388,0.269 0.379,0.263C0.37,0.257 0.365,0.252 0.363,0.246C0.362,0.243 0.362,0.228 0.363,0.201C0.365,0.175 0.369,0.142 0.375,0.104C0.382,0.065 0.391,0.024 0.403,-0.02C0.414,-0.064 0.43,-0.106 0.449,-0.144C0.468,-0.183 0.491,-0.215 0.518,-0.242C0.545,-0.268 0.577,-0.283 0.614,-0.287C0.65,-0.29 0.684,-0.285 0.716,-0.27C0.748,-0.256 0.777,-0.236 0.804,-0.21C0.831,-0.185 0.856,-0.156 0.877,-0.124C0.899,-0.092 0.918,-0.06 0.936,-0.029C0.953,0.003 0.968,0.032 0.981,0.058C0.993,0.085 1.004,0.105 1.012,0.119C1.019,0.134 1.022,0.147 1.022,0.159C1.022,0.165 1.022,0.171 1.02,0.176ZM0.544,0.062C0.545,0.069 0.548,0.075 0.552,0.079L0.705,0.09C0.725,0.092 0.744,0.093 0.763,0.094C0.781,0.095 0.798,0.096 0.812,0.097C0.827,0.097 0.843,0.098 0.861,0.098C0.854,0.047 0.841,0.004 0.822,-0.031C0.804,-0.065 0.784,-0.093 0.762,-0.114C0.74,-0.135 0.72,-0.151 0.701,-0.161C0.682,-0.17 0.669,-0.176 0.663,-0.178C0.656,-0.179 0.647,-0.172 0.637,-0.158C0.626,-0.144 0.615,-0.127 0.604,-0.106C0.593,-0.086 0.583,-0.065 0.573,-0.045C0.563,-0.024 0.556,-0.007 0.552,0.005C0.545,0.018 0.542,0.03 0.542,0.039C0.542,0.041 0.542,0.043 0.542,0.044C0.542,0.051 0.542,0.057 0.544,0.062Z" style="fill:url(#_Linear3);fill-rule:nonzero;"/>
                </g>
                <g transform="matrix(-2.59682e-06,-60.8652,-60.8652,2.59682e-06,335.638,146.569)">
                    <path d="M1.021,0.007C1.019,0.052 1.008,0.092 0.987,0.128C0.967,0.164 0.94,0.194 0.908,0.219C0.875,0.244 0.839,0.263 0.797,0.276C0.755,0.289 0.713,0.295 0.668,0.293C0.624,0.293 0.583,0.283 0.544,0.266C0.506,0.248 0.473,0.224 0.446,0.195C0.418,0.166 0.397,0.133 0.382,0.096C0.367,0.059 0.361,0.02 0.363,-0.02C0.367,-0.073 0.378,-0.118 0.398,-0.153C0.417,-0.189 0.441,-0.217 0.47,-0.238C0.499,-0.26 0.531,-0.275 0.566,-0.283C0.601,-0.292 0.635,-0.297 0.668,-0.297C0.72,-0.297 0.767,-0.292 0.812,-0.282C0.856,-0.272 0.894,-0.256 0.926,-0.233C0.958,-0.21 0.982,-0.179 0.999,-0.14C1.014,-0.106 1.022,-0.065 1.022,-0.016C1.022,-0.009 1.021,-0.001 1.021,0.007ZM0.502,0.043C0.509,0.066 0.521,0.086 0.538,0.104C0.554,0.121 0.576,0.136 0.602,0.147C0.629,0.158 0.661,0.163 0.7,0.163C0.74,0.163 0.773,0.155 0.798,0.142C0.823,0.128 0.843,0.111 0.857,0.092C0.871,0.072 0.88,0.052 0.885,0.03C0.89,0.009 0.892,-0.011 0.891,-0.027C0.89,-0.043 0.886,-0.06 0.879,-0.077C0.871,-0.094 0.86,-0.11 0.844,-0.124C0.829,-0.138 0.809,-0.15 0.784,-0.158C0.76,-0.167 0.73,-0.17 0.695,-0.169C0.625,-0.168 0.574,-0.155 0.54,-0.133C0.507,-0.11 0.491,-0.074 0.491,-0.025C0.491,-0.002 0.494,0.021 0.502,0.043Z" style="fill:url(#_Linear4);fill-rule:nonzero;"/>
                </g>
                <g transform="matrix(-2.59682e-06,-60.8656,-60.8656,2.59682e-06,371.179,146.567)">
                    <path d="M1.018,0.034C1.011,0.062 1,0.088 0.985,0.113C0.969,0.137 0.949,0.156 0.924,0.17C0.898,0.183 0.868,0.185 0.833,0.174C0.798,0.164 0.772,0.149 0.753,0.13C0.735,0.112 0.719,0.092 0.706,0.071C0.693,0.05 0.682,0.029 0.671,0.008C0.66,-0.013 0.646,-0.031 0.627,-0.047C0.594,-0.079 0.567,-0.098 0.547,-0.106C0.527,-0.113 0.511,-0.106 0.5,-0.084C0.495,-0.073 0.492,-0.059 0.491,-0.043C0.49,-0.027 0.491,-0.011 0.493,0.005C0.496,0.022 0.501,0.038 0.507,0.054C0.514,0.069 0.522,0.083 0.532,0.095C0.552,0.119 0.566,0.143 0.575,0.166C0.583,0.189 0.58,0.209 0.564,0.226C0.556,0.233 0.546,0.24 0.535,0.246C0.524,0.252 0.513,0.256 0.501,0.257C0.49,0.258 0.478,0.256 0.467,0.25C0.455,0.245 0.445,0.233 0.436,0.217C0.427,0.2 0.417,0.18 0.406,0.158C0.396,0.136 0.387,0.111 0.379,0.084C0.371,0.057 0.366,0.027 0.362,-0.005C0.359,-0.037 0.359,-0.071 0.363,-0.108C0.369,-0.144 0.38,-0.174 0.396,-0.196C0.412,-0.218 0.431,-0.234 0.454,-0.244C0.476,-0.254 0.498,-0.259 0.522,-0.259C0.545,-0.259 0.567,-0.255 0.586,-0.247C0.606,-0.24 0.622,-0.23 0.636,-0.219C0.65,-0.208 0.662,-0.196 0.672,-0.182C0.683,-0.169 0.693,-0.155 0.702,-0.139C0.711,-0.124 0.721,-0.108 0.732,-0.092C0.741,-0.075 0.751,-0.057 0.763,-0.038C0.775,-0.018 0.787,-0.001 0.8,0.014C0.813,0.029 0.826,0.04 0.839,0.047C0.853,0.054 0.866,0.053 0.878,0.044C0.892,0.036 0.9,0.027 0.902,0.016C0.905,0.006 0.904,-0.005 0.9,-0.015C0.897,-0.025 0.892,-0.034 0.885,-0.041C0.879,-0.049 0.873,-0.054 0.869,-0.057C0.864,-0.06 0.859,-0.065 0.853,-0.071C0.847,-0.077 0.842,-0.085 0.838,-0.093C0.835,-0.101 0.833,-0.111 0.834,-0.121C0.835,-0.131 0.841,-0.141 0.851,-0.152C0.863,-0.163 0.878,-0.169 0.898,-0.17C0.917,-0.17 0.936,-0.165 0.955,-0.155C0.974,-0.145 0.991,-0.13 1.005,-0.11C1.019,-0.09 1.027,-0.066 1.029,-0.038C1.029,-0.018 1.026,0.005 1.018,0.034Z" style="fill:url(#_Linear5);fill-rule:nonzero;"/>
                </g>
                <g transform="matrix(1.52754,0,0,1.52754,213.623,136.554)">
                    <path d="M0,5.107C0.224,5.027 0.522,4.899 0.897,4.725C1.271,4.55 1.641,4.363 2.008,4.164C2.375,3.964 2.685,3.769 2.94,3.578C3.195,3.387 3.314,3.227 3.299,3.099C3.267,2.988 3.164,2.761 2.988,2.418C2.813,2.076 2.533,1.709 2.15,1.318C1.769,0.926 1.268,0.565 0.646,0.231C0.024,-0.104 -0.749,-0.335 -1.674,-0.462C-1.674,-0.143 -1.666,0.147 -1.649,0.41C-1.633,0.672 -1.618,0.97 -1.602,1.305C-1.586,1.641 -1.562,1.984 -1.529,2.334L-1.339,5.107C-1.259,5.171 -1.155,5.218 -1.027,5.251C-0.917,5.283 -0.776,5.294 -0.609,5.286C-0.441,5.277 -0.239,5.218 0,5.107M-2.056,-3.189C-1.801,-3.043 -1.435,-2.857 -0.957,-2.626C-0.479,-2.395 0.044,-2.123 0.61,-1.813C1.175,-1.501 1.749,-1.152 2.331,-0.76C2.912,-0.371 3.43,0.068 3.884,0.552C4.339,1.039 4.698,1.57 4.96,2.143C5.223,2.717 5.322,3.332 5.26,3.984C5.195,4.654 4.924,5.23 4.447,5.716C3.969,6.203 3.383,6.618 2.689,6.961C1.996,7.303 1.251,7.582 0.455,7.797C-0.343,8.012 -1.088,8.174 -1.781,8.287C-2.475,8.398 -3.058,8.47 -3.538,8.502C-4.015,8.534 -4.287,8.534 -4.35,8.502C-4.446,8.47 -4.546,8.375 -4.65,8.215C-4.752,8.056 -4.844,7.888 -4.924,7.713C-5.004,7.539 -5.068,7.386 -5.116,7.258C-5.164,7.13 -5.171,7.076 -5.139,7.091C-5.124,7.124 -5.028,7.08 -4.853,6.961C-4.677,6.84 -4.486,6.71 -4.278,6.565C-4.039,6.39 -3.777,6.191 -3.49,5.967C-3.553,4.756 -3.617,3.665 -3.681,2.693C-3.712,2.279 -3.737,1.871 -3.752,1.474C-3.77,1.075 -3.785,0.717 -3.8,0.398C-3.816,0.08 -3.825,-0.179 -3.825,-0.378C-3.825,-0.579 -3.816,-0.693 -3.8,-0.725C-3.816,-0.741 -3.869,-0.785 -3.956,-0.857C-4.043,-0.928 -4.131,-1.017 -4.218,-1.12C-4.306,-1.223 -4.378,-1.33 -4.434,-1.442C-4.49,-1.553 -4.494,-1.65 -4.446,-1.73C-4.398,-1.808 -4.322,-1.964 -4.218,-2.196C-4.116,-2.426 -3.972,-2.651 -3.789,-2.865C-3.606,-3.081 -3.371,-3.236 -3.083,-3.331C-2.797,-3.427 -2.455,-3.379 -2.056,-3.189" style="fill:rgb(33,170,204);fill-rule:nonzero;"/>
                </g>
                <g transform="matrix(1.52754,0,0,1.52754,228.231,140.788)">
                    <path d="M0,-0.533C0.095,-0.533 0.254,-0.577 0.478,-0.665C0.7,-0.753 0.935,-0.868 1.182,-1.012C1.429,-1.155 1.664,-1.306 1.887,-1.467C2.111,-1.624 2.271,-1.776 2.365,-1.919C2.605,-2.19 2.653,-2.53 2.509,-2.935C2.365,-3.342 2.079,-3.68 1.648,-3.951C1.441,-4.096 1.202,-4.138 0.931,-4.084C0.66,-4.027 0.405,-3.935 0.167,-3.808C-0.072,-3.68 -0.283,-3.54 -0.467,-3.39C-0.651,-3.238 -0.765,-3.13 -0.814,-3.066C-0.862,-3.018 -0.899,-2.878 -0.92,-2.649C-0.945,-2.417 -0.973,-2.168 -1.005,-1.895C-1.036,-1.593 -1.053,-1.25 -1.053,-0.868C-0.909,-0.82 -0.774,-0.772 -0.647,-0.725C-0.534,-0.693 -0.419,-0.657 -0.299,-0.617C-0.18,-0.577 -0.081,-0.549 0,-0.533M6.43,2.789C6.445,2.996 6.433,3.216 6.394,3.446C6.354,3.679 6.277,3.886 6.167,4.069C6.056,4.251 5.895,4.384 5.687,4.462C5.482,4.542 5.217,4.534 4.9,4.44C4.565,4.312 4.139,4.145 3.621,3.938C3.103,3.731 2.577,3.527 2.043,3.327C1.508,3.127 1.015,2.949 0.56,2.789C0.107,2.63 -0.216,2.527 -0.407,2.479C-0.614,2.414 -0.781,2.375 -0.909,2.359C-1.036,2.344 -1.141,2.335 -1.219,2.335C-1.316,2.335 -1.386,2.351 -1.435,2.383C-1.435,2.909 -1.442,3.379 -1.459,3.793C-1.476,4.159 -1.495,4.502 -1.519,4.821C-1.542,5.141 -1.571,5.333 -1.602,5.395C-1.73,5.524 -1.906,5.618 -2.128,5.682C-2.351,5.746 -2.646,5.762 -3.014,5.73C-3.188,5.715 -3.324,5.632 -3.419,5.48C-3.516,5.327 -3.583,5.153 -3.623,4.953C-3.663,4.754 -3.683,4.546 -3.683,4.331C-3.683,4.116 -3.676,3.922 -3.658,3.745C-3.516,2.311 -3.388,1.02 -3.276,-0.127C-3.229,-0.62 -3.181,-1.107 -3.134,-1.585C-3.084,-2.064 -3.037,-2.496 -2.989,-2.887C-2.941,-3.277 -2.902,-3.604 -2.87,-3.867C-2.839,-4.132 -2.806,-4.295 -2.774,-4.358C-2.711,-4.47 -2.531,-4.649 -2.236,-4.895C-1.941,-5.142 -1.579,-5.378 -1.148,-5.601C-0.717,-5.823 -0.248,-6.005 0.263,-6.139C0.772,-6.274 1.257,-6.295 1.721,-6.199C2.166,-6.103 2.574,-5.935 2.94,-5.696C3.307,-5.458 3.608,-5.167 3.849,-4.824C4.087,-4.481 4.25,-4.092 4.337,-3.652C4.425,-3.214 4.415,-2.74 4.303,-2.231C4.174,-1.72 3.979,-1.298 3.716,-0.963C3.454,-0.629 3.187,-0.366 2.916,-0.174C2.597,0.065 2.254,0.24 1.887,0.352L3.751,1.02C3.993,1.101 4.221,1.186 4.445,1.272C4.669,1.36 4.865,1.436 5.042,1.499C5.217,1.563 5.409,1.642 5.617,1.738C5.617,1.753 5.66,1.786 5.747,1.832C5.834,1.882 5.929,1.945 6.023,2.024C6.119,2.105 6.21,2.207 6.298,2.335C6.385,2.462 6.43,2.613 6.43,2.789" style="fill:rgb(33,170,204);fill-rule:nonzero;"/>
                </g>
                <g transform="matrix(1.52754,0,0,1.52754,252.913,148.58)">
                    <path d="M0,-10.797C0.048,-10.607 0.073,-10.423 0.073,-10.247C0.073,-10.088 0.045,-9.912 -0.011,-9.722C-0.068,-9.53 -0.174,-9.355 -0.334,-9.196C-0.524,-9.052 -0.852,-8.988 -1.313,-9.004C-1.776,-9.02 -2.278,-9.04 -2.821,-9.065C-3.362,-9.088 -3.882,-9.088 -4.384,-9.065C-4.887,-9.04 -5.266,-8.917 -5.521,-8.694C-5.777,-8.439 -5.919,-8.167 -5.952,-7.881C-5.983,-7.594 -5.968,-7.324 -5.904,-7.069C-5.84,-6.782 -5.711,-6.486 -5.521,-6.184C-5.061,-6.248 -4.621,-6.271 -4.207,-6.256C-3.856,-6.24 -3.51,-6.192 -3.166,-6.112C-2.824,-6.032 -2.58,-5.889 -2.437,-5.682C-2.312,-5.475 -2.246,-5.279 -2.246,-5.096C-2.246,-4.914 -2.286,-4.749 -2.366,-4.607C-2.447,-4.431 -2.556,-4.271 -2.701,-4.127L-5.928,-3.722C-6.04,-3.594 -6.103,-3.443 -6.12,-3.269C-6.15,-3.125 -6.13,-2.961 -6.061,-2.777C-5.988,-2.596 -5.84,-2.399 -5.616,-2.192C-5.345,-1.938 -5.031,-1.771 -4.673,-1.69C-4.314,-1.61 -3.93,-1.59 -3.524,-1.631C-3.117,-1.67 -2.704,-1.758 -2.282,-1.893C-1.86,-2.029 -1.442,-2.185 -1.026,-2.359C-0.072,-2.774 0.917,-3.34 1.937,-4.056C2.114,-3.976 2.24,-3.846 2.319,-3.662C2.397,-3.479 2.446,-3.299 2.463,-3.125C2.479,-2.917 2.463,-2.687 2.415,-2.432C1.858,-1.665 1.156,-1.024 0.312,-0.507C-0.533,0.012 -1.43,0.353 -2.378,0.521C-3.325,0.689 -4.269,0.661 -5.209,0.437C-6.15,0.214 -6.987,-0.256 -7.72,-0.973C-8.087,-1.322 -8.358,-1.717 -8.533,-2.156C-8.709,-2.596 -8.825,-3.05 -8.881,-3.519C-8.934,-3.987 -8.939,-4.466 -8.891,-4.952C-8.843,-5.439 -8.773,-5.905 -8.677,-6.351C-8.437,-7.403 -8.039,-8.479 -7.481,-9.578C-7.784,-9.69 -7.991,-9.825 -8.103,-9.985C-8.199,-10.112 -8.21,-10.272 -8.138,-10.462C-8.066,-10.653 -7.79,-10.876 -7.313,-11.133C-7.076,-11.243 -6.784,-11.327 -6.442,-11.384C-6.1,-11.44 -5.732,-11.471 -5.342,-11.48C-4.953,-11.486 -4.549,-11.476 -4.134,-11.443C-3.719,-11.411 -3.314,-11.371 -2.917,-11.324C-1.991,-11.195 -1.018,-11.021 0,-10.797" style="fill:rgb(33,170,204);fill-rule:nonzero;"/>
                </g>
                <g transform="matrix(1.52754,0,0,1.52754,260.73,140.009)">
                    <path d="M0,0.646C0.143,0.599 0.317,0.55 0.524,0.503C0.731,0.456 0.955,0.431 1.193,0.431C1.434,0.431 1.684,0.459 1.947,0.515C2.208,0.571 2.461,0.677 2.701,0.837C2.651,0.328 2.612,-0.155 2.581,-0.609C2.549,-1.063 2.516,-1.458 2.485,-1.792C2.453,-2.191 2.429,-2.542 2.414,-2.844C1.919,-2.348 1.473,-1.8 1.074,-1.194C0.676,-0.588 0.317,0.025 0,0.646M3.49,6.264C3.409,5.802 3.325,5.335 3.237,4.866C3.149,4.396 3.082,3.936 3.034,3.491C2.907,3.394 2.66,3.264 2.295,3.096C1.926,2.929 1.496,2.821 1.003,2.773C0.588,2.773 0.187,2.804 -0.204,2.869C-0.595,2.932 -0.902,2.997 -1.125,3.06C-1.3,3.523 -1.456,3.949 -1.591,4.339C-1.727,4.73 -1.841,5.077 -1.937,5.38C-2.049,5.731 -2.145,6.048 -2.225,6.335L-4.877,6.264C-4.7,5.324 -4.462,4.432 -4.16,3.586C-3.858,2.742 -3.516,1.949 -3.133,1.208C-2.75,0.467 -2.344,-0.218 -1.914,-0.848C-1.483,-1.478 -1.06,-2.046 -0.647,-2.556C0.339,-3.752 1.393,-4.796 2.508,-5.689C3.019,-5.657 3.418,-5.584 3.704,-5.473C3.993,-5.362 4.205,-5.243 4.35,-5.116C4.509,-4.956 4.605,-4.788 4.636,-4.614C4.651,-4.055 4.698,-3.473 4.768,-2.868C4.838,-2.261 4.918,-1.649 5.006,-1.028C5.093,-0.406 5.194,0.209 5.304,0.813C5.417,1.419 5.529,1.995 5.64,2.534C5.912,3.81 6.207,5.077 6.526,6.335L3.49,6.264Z" style="fill:rgb(33,170,204);fill-rule:nonzero;"/>
                </g>
                <g transform="matrix(1.52754,0,0,1.52754,277.268,132.271)">
                    <path d="M0,10.78C-0.064,10.89 -0.151,10.987 -0.263,11.067C-0.357,11.146 -0.477,11.211 -0.623,11.258C-0.763,11.305 -0.939,11.314 -1.147,11.282C-1.562,11.202 -1.88,11.094 -2.103,10.96C-2.325,10.824 -2.438,10.549 -2.438,10.134C-2.438,9.911 -2.45,9.509 -2.473,8.927C-2.497,8.345 -2.533,7.7 -2.581,6.991C-2.627,6.282 -2.693,5.573 -2.772,4.863C-2.853,4.155 -2.939,3.569 -3.036,3.107C-3.227,2.198 -3.365,1.48 -3.453,0.955C-3.54,0.429 -3.481,0.055 -3.274,-0.169C-3.147,-0.247 -3.003,-0.328 -2.844,-0.408C-2.686,-0.488 -2.506,-0.532 -2.305,-0.539C-2.106,-0.547 -1.895,-0.491 -1.674,-0.372C-1.451,-0.252 -1.219,-0.041 -0.979,0.261C-0.757,0.564 -0.453,0.943 -0.07,1.397C0.312,1.851 0.703,2.29 1.101,2.713C1.498,3.133 1.874,3.496 2.224,3.8C2.574,4.101 2.835,4.254 3.013,4.254C3.332,4.206 3.736,3.987 4.232,3.595C4.726,3.205 5.22,2.772 5.715,2.294C5.954,2.022 6.192,1.803 6.431,1.636C6.671,1.469 6.876,1.338 7.051,1.242C7.259,1.13 7.466,1.043 7.672,0.978C7.944,0.884 8.209,0.819 8.463,0.788C8.686,0.756 8.902,0.775 9.107,0.848C9.315,0.919 9.483,1.074 9.61,1.313C9.739,1.584 9.833,1.911 9.898,2.294C9.96,2.676 10.008,3.094 10.041,3.549C10.073,4.003 10.105,4.473 10.136,4.959C10.169,5.445 10.215,5.911 10.28,6.358C10.329,6.82 10.378,7.271 10.436,7.708C10.491,8.146 10.54,8.556 10.579,8.939C10.618,9.321 10.648,9.666 10.663,9.968C10.678,10.269 10.663,10.517 10.613,10.708C10.583,10.884 10.531,11.016 10.459,11.102C10.389,11.19 10.296,11.251 10.185,11.282C10.073,11.314 9.953,11.327 9.826,11.317C9.698,11.309 9.58,11.298 9.466,11.282C9.372,11.282 9.251,11.262 9.107,11.222C8.965,11.181 8.824,11.107 8.691,10.995C8.554,10.884 8.434,10.728 8.333,10.529C8.227,10.33 8.168,10.062 8.152,9.728C8.152,9.409 8.128,8.955 8.08,8.365C8.034,7.775 7.975,7.202 7.914,6.645C7.849,5.992 7.77,5.297 7.672,4.564C7.672,4.515 7.65,4.468 7.601,4.421C7.571,4.388 7.521,4.352 7.459,4.312C7.394,4.274 7.298,4.254 7.171,4.254C7.045,4.254 6.876,4.362 6.671,4.577C6.463,4.791 6.229,5.043 5.966,5.329C5.703,5.616 5.428,5.899 5.141,6.178C4.853,6.457 4.582,6.66 4.328,6.788C3.784,7.027 3.314,7.098 2.917,7.004C2.519,6.908 2.088,6.692 1.627,6.358C1.419,6.198 1.215,6.007 1.017,5.784C0.817,5.561 0.623,5.35 0.432,5.15C0.24,4.951 0.062,4.78 -0.106,4.636C-0.275,4.493 -0.429,4.421 -0.573,4.421C-0.717,4.421 -0.801,4.595 -0.825,4.947C-0.849,5.297 -0.836,5.708 -0.789,6.178C-0.742,6.649 -0.672,7.107 -0.585,7.551C-0.498,7.998 -0.414,8.318 -0.334,8.508C-0.27,8.717 -0.189,8.934 -0.095,9.166C0,9.398 0.077,9.616 0.133,9.824C0.188,10.031 0.216,10.222 0.216,10.397C0.216,10.572 0.144,10.7 0,10.78" style="fill:rgb(33,170,204);fill-rule:nonzero;"/>
                </g>
                <g transform="matrix(1.52754,0,0,1.52754,322.364,148.984)">
                    <path d="M0,-11.231C0.319,-11.006 0.511,-10.708 0.575,-10.334C0.637,-9.959 0.55,-9.628 0.31,-9.341C0.183,-9.213 0.067,-9.13 -0.036,-9.09C-0.141,-9.05 -0.248,-9.025 -0.358,-9.018C-0.472,-9.01 -0.597,-9.01 -0.741,-9.018C-0.885,-9.025 -1.052,-9.022 -1.243,-9.006C-1.53,-9.006 -1.761,-8.99 -1.936,-8.96C-2.111,-8.927 -2.367,-8.887 -2.701,-8.838C-2.732,-8.584 -2.784,-8.197 -2.855,-7.681C-2.93,-7.163 -2.987,-6.6 -3.036,-5.995C-3.053,-5.613 -3.043,-5.179 -3.012,-4.692C-2.981,-4.206 -2.936,-3.732 -2.881,-3.27C-2.825,-2.807 -2.765,-2.39 -2.701,-2.014C-2.638,-1.64 -2.582,-1.358 -2.533,-1.167C-2.502,-0.832 -2.478,-0.541 -2.461,-0.293C-2.445,-0.046 -2.582,0.118 -2.869,0.197C-3.012,0.229 -3.219,0.272 -3.49,0.329C-3.761,0.385 -4.038,0.405 -4.315,0.388C-4.595,0.373 -4.852,0.309 -5.092,0.197C-5.332,0.085 -5.492,-0.122 -5.57,-0.424C-5.666,-0.712 -5.716,-1.207 -5.725,-1.908C-5.735,-2.609 -5.712,-3.366 -5.666,-4.178C-5.618,-4.991 -5.559,-5.779 -5.486,-6.545C-5.414,-7.31 -5.362,-7.907 -5.332,-8.337C-5.857,-8.209 -6.414,-8.102 -7.004,-8.015C-7.594,-7.926 -8.153,-7.884 -8.676,-7.884C-9.045,-7.867 -9.352,-7.911 -9.597,-8.015C-9.844,-8.118 -10.041,-8.265 -10.185,-8.457C-10.327,-8.648 -10.421,-8.863 -10.468,-9.102C-10.518,-9.341 -10.518,-9.588 -10.468,-9.843C-10.437,-10.083 -10.343,-10.278 -10.185,-10.429C-10.023,-10.581 -9.84,-10.7 -9.634,-10.789C-9.427,-10.876 -9.216,-10.931 -9,-10.956C-8.786,-10.978 -8.59,-10.983 -8.414,-10.967C-8.254,-10.967 -8.028,-10.971 -7.733,-10.978C-7.437,-10.987 -7.109,-11.002 -6.741,-11.027C-6.375,-11.051 -5.987,-11.079 -5.583,-11.111C-5.175,-11.141 -4.764,-11.181 -4.351,-11.231C-3.554,-11.357 -2.9,-11.446 -2.389,-11.493C-1.88,-11.541 -1.497,-11.589 -1.243,-11.636C-0.988,-11.636 -0.793,-11.621 -0.657,-11.589C-0.523,-11.557 -0.304,-11.438 0,-11.231" style="fill:rgb(33,170,204);fill-rule:nonzero;"/>
                </g>
                <g transform="matrix(1.52754,0,0,1.52754,335.729,140.559)">
                    <path d="M0,-0.097C0.016,-0.733 -0.051,-1.271 -0.202,-1.71C-0.354,-2.148 -0.558,-2.505 -0.812,-2.785C-1.068,-3.064 -1.351,-3.272 -1.661,-3.407C-1.972,-3.542 -2.271,-3.618 -2.556,-3.634C-2.86,-3.65 -3.207,-3.615 -3.597,-3.528C-3.989,-3.44 -4.358,-3.267 -4.709,-3.013C-5.061,-2.757 -5.359,-2.404 -5.606,-1.95C-5.853,-1.495 -5.985,-0.91 -6,-0.192C-6,0.509 -5.899,1.098 -5.7,1.578C-5.503,2.054 -5.244,2.441 -4.925,2.736C-4.604,3.031 -4.243,3.247 -3.836,3.382C-3.43,3.518 -3.02,3.586 -2.605,3.586C-1.713,3.586 -1.065,3.286 -0.658,2.688C-0.25,2.091 -0.03,1.164 0,-0.097M-3.179,-5.977C-2.111,-6.025 -1.228,-5.895 -0.526,-5.581C0.175,-5.273 0.732,-4.829 1.149,-4.256C1.562,-3.682 1.856,-2.995 2.032,-2.201C2.208,-1.404 2.295,-0.543 2.295,0.382C2.295,0.988 2.216,1.605 2.056,2.233C1.897,2.863 1.626,3.437 1.243,3.955C0.861,4.473 0.352,4.909 -0.286,5.257C-0.924,5.609 -1.728,5.817 -2.701,5.88C-3.418,5.928 -4.111,5.817 -4.781,5.545C-5.45,5.274 -6.048,4.892 -6.573,4.398C-7.1,3.903 -7.521,3.31 -7.84,2.616C-8.159,1.924 -8.328,1.179 -8.343,0.382C-8.374,-0.415 -8.27,-1.188 -8.033,-1.938C-7.794,-2.686 -7.451,-3.352 -7.003,-3.934C-6.557,-4.514 -6.011,-4.993 -5.366,-5.368C-4.721,-5.743 -3.992,-5.945 -3.179,-5.977" style="fill:rgb(33,170,204);fill-rule:nonzero;"/>
                </g>
                <g transform="matrix(1.52754,0,0,1.52754,355.627,138.691)">
                    <path d="M0,2.37C0.033,2.657 0.081,2.968 0.145,3.301C0.208,3.636 0.285,3.963 0.372,4.282C0.46,4.6 0.547,4.895 0.635,5.166C0.722,5.436 0.804,5.652 0.885,5.812C1.044,6.132 1.012,6.421 0.789,6.684C0.568,6.947 0.114,7.095 -0.573,7.127C-0.939,7.158 -1.228,7.124 -1.433,7.019C-1.641,6.916 -1.809,6.784 -1.936,6.624C-2.079,6.45 -2.174,6.243 -2.222,6.002C-2.828,6.162 -3.448,6.314 -4.086,6.457C-4.644,6.586 -5.257,6.713 -5.928,6.84C-6.597,6.968 -7.266,7.063 -7.935,7.127C-8.621,7.191 -9.106,7.102 -9.394,6.864C-9.68,6.624 -9.852,6.326 -9.908,5.967C-9.963,5.609 -9.948,5.23 -9.861,4.831C-9.773,4.433 -9.689,4.099 -9.608,3.827C-9.514,3.588 -9.41,3.262 -9.297,2.847C-9.187,2.432 -9.075,1.988 -8.963,1.509C-8.85,1.031 -8.753,0.557 -8.665,0.087C-8.578,-0.384 -8.501,-0.802 -8.437,-1.168C-8.356,-1.503 -8.298,-1.829 -8.256,-2.149C-8.218,-2.467 -8.159,-2.754 -8.078,-3.009C-8,-3.264 -7.88,-3.475 -7.72,-3.642C-7.561,-3.81 -7.314,-3.909 -6.979,-3.942C-6.644,-3.974 -6.405,-3.825 -6.261,-3.5C-6.118,-3.173 -6.035,-2.762 -6.012,-2.268C-5.989,-1.773 -6.004,-1.244 -6.059,-0.679C-6.113,-0.113 -6.173,0.385 -6.238,0.815C-6.285,1.23 -6.398,1.637 -6.572,2.035C-6.748,2.432 -6.899,2.801 -7.025,3.134C-7.156,3.469 -7.223,3.772 -7.23,4.042C-7.238,4.313 -7.106,4.529 -6.835,4.688C-6.549,4.831 -6.17,4.863 -5.7,4.784C-5.23,4.703 -4.764,4.593 -4.302,4.449C-3.776,4.273 -3.219,4.051 -2.627,3.779C-2.725,2.84 -2.804,1.938 -2.867,1.079C-2.899,0.712 -2.923,0.338 -2.939,-0.044C-2.954,-0.429 -2.966,-0.799 -2.975,-1.157C-2.983,-1.515 -2.987,-1.853 -2.987,-2.172C-2.987,-2.491 -2.972,-2.771 -2.939,-3.009C-2.923,-3.502 -2.84,-3.879 -2.688,-4.133C-2.536,-4.388 -2.346,-4.567 -2.115,-4.672C-1.884,-4.775 -1.632,-4.821 -1.361,-4.814C-1.091,-4.806 -0.828,-4.778 -0.573,-4.731C-0.35,-4.715 -0.202,-4.632 -0.13,-4.48C-0.058,-4.327 -0.03,-4.128 -0.048,-3.882C-0.063,-3.635 -0.098,-3.355 -0.153,-3.045C-0.209,-2.734 -0.245,-2.427 -0.262,-2.124C-0.262,-1.806 -0.25,-1.399 -0.226,-0.905C-0.202,-0.411 -0.174,0.083 -0.143,0.577C-0.094,1.15 -0.048,1.748 0,2.37" style="fill:rgb(33,170,204);fill-rule:nonzero;"/>
                </g>
                <g transform="matrix(1.52754,0,0,1.52754,364.102,140.788)">
                    <path d="M0,-0.533C0.094,-0.533 0.254,-0.577 0.476,-0.665C0.701,-0.753 0.936,-0.868 1.181,-1.012C1.428,-1.155 1.663,-1.306 1.886,-1.467C2.111,-1.624 2.271,-1.776 2.365,-1.919C2.605,-2.19 2.652,-2.53 2.509,-2.935C2.365,-3.342 2.078,-3.68 1.647,-3.951C1.44,-4.096 1.202,-4.138 0.932,-4.084C0.661,-4.027 0.406,-3.935 0.166,-3.808C-0.073,-3.68 -0.283,-3.54 -0.467,-3.39C-0.65,-3.238 -0.765,-3.13 -0.815,-3.066C-0.863,-3.018 -0.899,-2.878 -0.921,-2.649C-0.945,-2.417 -0.972,-2.168 -1.005,-1.895C-1.038,-1.593 -1.053,-1.25 -1.053,-0.868C-0.909,-0.82 -0.773,-0.772 -0.647,-0.725C-0.533,-0.693 -0.419,-0.657 -0.299,-0.617C-0.181,-0.577 -0.081,-0.549 0,-0.533M6.429,2.789C6.445,2.996 6.434,3.216 6.393,3.446C6.354,3.679 6.276,3.886 6.167,4.069C6.055,4.251 5.894,4.384 5.688,4.462C5.48,4.542 5.218,4.534 4.899,4.44C4.565,4.312 4.138,4.145 3.62,3.938C3.102,3.731 2.576,3.527 2.042,3.327C1.507,3.127 1.015,2.949 0.561,2.789C0.106,2.63 -0.216,2.527 -0.407,2.479C-0.614,2.414 -0.782,2.375 -0.909,2.359C-1.038,2.344 -1.141,2.335 -1.22,2.335C-1.316,2.335 -1.386,2.351 -1.436,2.383C-1.436,2.909 -1.442,3.379 -1.46,3.793C-1.477,4.159 -1.496,4.502 -1.52,4.821C-1.543,5.141 -1.571,5.333 -1.602,5.395C-1.73,5.524 -1.906,5.618 -2.129,5.682C-2.354,5.746 -2.646,5.762 -3.014,5.73C-3.188,5.715 -3.323,5.632 -3.419,5.48C-3.516,5.327 -3.583,5.153 -3.623,4.953C-3.662,4.754 -3.682,4.546 -3.682,4.331C-3.682,4.116 -3.673,3.922 -3.658,3.745C-3.516,2.311 -3.389,1.02 -3.276,-0.127C-3.229,-0.62 -3.18,-1.107 -3.133,-1.585C-3.085,-2.064 -3.038,-2.496 -2.989,-2.887C-2.942,-3.277 -2.902,-3.604 -2.869,-3.867C-2.838,-4.132 -2.806,-4.295 -2.775,-4.358C-2.711,-4.47 -2.532,-4.649 -2.236,-4.895C-1.942,-5.142 -1.578,-5.378 -1.149,-5.601C-0.719,-5.823 -0.248,-6.005 0.262,-6.139C0.771,-6.274 1.257,-6.295 1.72,-6.199C2.166,-6.103 2.572,-5.935 2.939,-5.696C3.306,-5.458 3.609,-5.167 3.848,-4.824C4.086,-4.481 4.249,-4.092 4.337,-3.652C4.424,-3.214 4.414,-2.74 4.303,-2.231C4.173,-1.72 3.979,-1.298 3.716,-0.963C3.453,-0.629 3.186,-0.366 2.915,-0.174C2.596,0.065 2.253,0.24 1.886,0.352L3.752,1.02C3.992,1.101 4.222,1.186 4.445,1.272C4.67,1.36 4.866,1.436 5.041,1.499C5.218,1.563 5.409,1.642 5.616,1.738C5.616,1.753 5.659,1.786 5.746,1.832C5.834,1.882 5.926,1.945 6.022,2.024C6.118,2.105 6.209,2.207 6.299,2.335C6.386,2.462 6.429,2.613 6.429,2.789" style="fill:rgb(33,170,204);fill-rule:nonzero;"/>
                </g>
                <g transform="matrix(1.52754,0,0,1.52754,382.211,149.676)">
                    <path d="M0,-12.089C0.511,-12.057 0.945,-11.913 1.304,-11.659C1.661,-11.403 1.935,-11.105 2.118,-10.762C2.299,-10.419 2.386,-10.072 2.378,-9.722C2.37,-9.372 2.26,-9.092 2.055,-8.885C1.864,-8.694 1.677,-8.59 1.494,-8.575C1.312,-8.559 1.144,-8.583 0.993,-8.647C0.84,-8.71 0.708,-8.797 0.6,-8.909C0.487,-9.021 0.398,-9.115 0.334,-9.196C0.289,-9.276 0.196,-9.375 0.058,-9.496C-0.079,-9.615 -0.237,-9.706 -0.418,-9.77C-0.6,-9.834 -0.789,-9.846 -0.979,-9.806C-1.169,-9.765 -1.337,-9.618 -1.482,-9.363C-1.641,-9.14 -1.657,-8.909 -1.53,-8.67C-1.403,-8.433 -1.202,-8.196 -0.933,-7.966C-0.659,-7.735 -0.35,-7.513 0,-7.296C0.35,-7.082 0.678,-6.894 0.98,-6.735C1.269,-6.544 1.549,-6.363 1.828,-6.195C2.109,-6.028 2.366,-5.85 2.608,-5.657C2.845,-5.467 3.063,-5.247 3.266,-5.001C3.464,-4.753 3.635,-4.455 3.779,-4.104C3.924,-3.754 3.992,-3.368 3.992,-2.945C3.992,-2.524 3.899,-2.112 3.717,-1.715C3.533,-1.317 3.242,-0.969 2.845,-0.674C2.447,-0.378 1.918,-0.184 1.269,-0.089C0.6,-0.008 -0.024,0 -0.597,-0.065C-1.169,-0.128 -1.707,-0.232 -2.199,-0.375C-2.691,-0.52 -3.138,-0.682 -3.538,-0.865C-3.936,-1.049 -4.287,-1.228 -4.589,-1.403C-4.891,-1.563 -5.095,-1.746 -5.2,-1.953C-5.303,-2.161 -5.342,-2.368 -5.32,-2.575C-5.294,-2.782 -5.226,-2.985 -5.116,-3.185C-5.004,-3.384 -4.884,-3.556 -4.757,-3.698C-4.454,-3.986 -4.095,-4.053 -3.681,-3.902C-3.266,-3.75 -2.837,-3.491 -2.389,-3.124C-2.184,-2.949 -1.936,-2.802 -1.648,-2.683C-1.361,-2.564 -1.07,-2.48 -0.775,-2.433C-0.48,-2.383 -0.19,-2.368 0.093,-2.383C0.38,-2.4 0.631,-2.455 0.837,-2.551C1.217,-2.758 1.347,-3.04 1.217,-3.4C1.089,-3.759 0.739,-4.239 0.167,-4.845C-0.12,-5.181 -0.45,-5.443 -0.823,-5.635C-1.197,-5.825 -1.578,-6.036 -1.96,-6.269C-2.343,-6.498 -2.699,-6.781 -3.036,-7.116C-3.37,-7.452 -3.632,-7.93 -3.825,-8.55C-4.017,-9.189 -3.989,-9.735 -3.74,-10.189C-3.494,-10.643 -3.15,-11.009 -2.713,-11.288C-2.274,-11.567 -1.801,-11.77 -1.292,-11.899C-0.778,-12.026 -0.35,-12.089 0,-12.089" style="fill:rgb(33,170,204);fill-rule:nonzero;"/>
                </g>
                <g transform="matrix(-2.74957e-06,-62.6997,-62.6997,2.74957e-06,212.381,146.776)">
                    <path d="M0.266,0.077C0.264,0.084 0.26,0.09 0.255,0.095C0.25,0.099 0.244,0.102 0.239,0.105C0.233,0.108 0.229,0.109 0.227,0.111C0.225,0.112 0.223,0.112 0.22,0.11C0.217,0.109 0.215,0.107 0.212,0.105C0.21,0.103 0.208,0.101 0.206,0.099C0.204,0.096 0.203,0.095 0.203,0.095C0.202,0.095 0.199,0.095 0.194,0.095C0.189,0.095 0.183,0.095 0.175,0.095C0.168,0.094 0.159,0.094 0.149,0.094C0.139,0.093 0.13,0.093 0.119,0.092C0.096,0.09 0.069,0.089 0.04,0.087C0.034,0.094 0.029,0.101 0.025,0.106C0.022,0.112 0.018,0.116 0.016,0.12C0.013,0.125 0.012,0.127 0.012,0.127C0.013,0.128 0.011,0.128 0.008,0.127C0.005,0.126 0.001,0.124 -0.003,0.122C-0.007,0.12 -0.011,0.118 -0.015,0.116C-0.019,0.113 -0.021,0.111 -0.022,0.108C-0.023,0.107 -0.023,0.1 -0.022,0.088C-0.021,0.077 -0.02,0.062 -0.017,0.046C-0.014,0.029 -0.01,0.011 -0.005,-0.009C0,-0.028 0.007,-0.046 0.016,-0.063C0.024,-0.08 0.034,-0.094 0.046,-0.106C0.058,-0.118 0.072,-0.124 0.088,-0.126C0.104,-0.127 0.119,-0.125 0.133,-0.119C0.147,-0.112 0.16,-0.103 0.172,-0.092C0.183,-0.081 0.194,-0.069 0.204,-0.055C0.213,-0.04 0.222,-0.026 0.229,-0.013C0.237,0.001 0.243,0.014 0.249,0.026C0.255,0.037 0.259,0.046 0.263,0.052C0.266,0.059 0.267,0.065 0.267,0.07C0.267,0.073 0.267,0.075 0.266,0.077ZM0.057,0.027C0.058,0.03 0.059,0.033 0.061,0.035C0.061,0.035 0.145,0.041 0.153,0.041C0.161,0.042 0.169,0.042 0.175,0.042C0.182,0.043 0.189,0.043 0.196,0.043C0.193,0.02 0.188,0.002 0.179,-0.013C0.171,-0.029 0.162,-0.041 0.153,-0.05C0.143,-0.059 0.135,-0.066 0.126,-0.071C0.118,-0.075 0.112,-0.077 0.11,-0.078C0.106,-0.079 0.103,-0.076 0.098,-0.069C0.093,-0.063 0.088,-0.056 0.084,-0.047C0.079,-0.038 0.074,-0.029 0.07,-0.02C0.066,-0.011 0.063,-0.003 0.061,0.002C0.058,0.008 0.056,0.013 0.056,0.017C0.056,0.018 0.056,0.019 0.056,0.02C0.056,0.023 0.057,0.025 0.057,0.027Z" style="fill:url(#_Linear6);fill-rule:nonzero;"/>
                </g>
                <g transform="matrix(-2.74957e-06,-62.6965,-62.6965,2.74957e-06,228.966,146.776)">
                    <path d="M0.267,0.027C0.264,0.04 0.259,0.051 0.254,0.062C0.249,0.072 0.243,0.081 0.237,0.088C0.231,0.095 0.226,0.1 0.224,0.101C0.222,0.102 0.218,0.103 0.212,0.104C0.205,0.104 0.197,0.105 0.188,0.107C0.178,0.108 0.168,0.109 0.156,0.11C0.145,0.111 0.133,0.112 0.121,0.114C0.093,0.116 0.061,0.119 0.026,0.123C0.022,0.123 0.017,0.124 0.012,0.124C0.007,0.124 0.002,0.123 -0.003,0.122C-0.008,0.121 -0.012,0.119 -0.016,0.117C-0.02,0.115 -0.022,0.111 -0.022,0.107C-0.023,0.098 -0.022,0.091 -0.021,0.086C-0.019,0.08 -0.017,0.076 -0.014,0.073C-0.012,0.072 -0.008,0.071 0,0.071C0.008,0.07 0.016,0.07 0.025,0.069C0.035,0.069 0.047,0.069 0.06,0.069C0.06,0.068 0.061,0.066 0.061,0.063C0.061,0.062 0.06,0.059 0.06,0.056C0.06,0.053 0.059,0.049 0.057,0.044C0.056,0.039 0.053,0.031 0.05,0.02C0.046,0.009 0.041,-0.003 0.036,-0.016C0.032,-0.029 0.027,-0.042 0.022,-0.054C0.017,-0.067 0.012,-0.078 0.009,-0.086C0.007,-0.093 0.007,-0.1 0.009,-0.105C0.011,-0.11 0.014,-0.114 0.018,-0.116C0.023,-0.119 0.028,-0.121 0.034,-0.122C0.039,-0.123 0.045,-0.123 0.05,-0.123C0.054,-0.123 0.058,-0.122 0.061,-0.12C0.064,-0.118 0.066,-0.115 0.068,-0.113C0.07,-0.111 0.072,-0.108 0.073,-0.106C0.074,-0.104 0.075,-0.103 0.075,-0.103C0.078,-0.098 0.079,-0.093 0.081,-0.089C0.083,-0.085 0.084,-0.08 0.087,-0.075C0.089,-0.069 0.091,-0.063 0.093,-0.058L0.109,-0.012C0.112,-0.021 0.116,-0.03 0.122,-0.037C0.126,-0.044 0.133,-0.05 0.141,-0.057C0.149,-0.063 0.159,-0.068 0.172,-0.071C0.184,-0.074 0.196,-0.074 0.207,-0.072C0.217,-0.07 0.227,-0.066 0.235,-0.06C0.243,-0.054 0.251,-0.047 0.256,-0.038C0.262,-0.029 0.266,-0.019 0.269,-0.008C0.27,-0.004 0.27,0.001 0.27,0.006C0.27,0.013 0.269,0.02 0.267,0.027ZM0.131,0.034C0.131,0.036 0.134,0.047 0.135,0.05C0.136,0.053 0.138,0.056 0.139,0.059C0.148,0.059 0.156,0.059 0.164,0.058C0.17,0.057 0.176,0.057 0.182,0.056C0.188,0.056 0.191,0.055 0.192,0.054C0.194,0.052 0.196,0.05 0.2,0.045C0.204,0.041 0.207,0.036 0.21,0.03C0.213,0.024 0.216,0.018 0.217,0.011C0.218,0.005 0.217,-0.001 0.214,-0.006C0.207,-0.017 0.199,-0.024 0.189,-0.027C0.179,-0.031 0.171,-0.03 0.164,-0.024C0.161,-0.022 0.157,-0.018 0.153,-0.012C0.149,-0.007 0.146,-0.001 0.142,0.005C0.139,0.011 0.136,0.017 0.134,0.022C0.132,0.028 0.131,0.031 0.131,0.034Z" style="fill:url(#_Linear7);fill-rule:nonzero;"/>
                </g>
                <g transform="matrix(-2.74957e-06,-62.692,-62.692,2.74957e-06,246.593,146.774)">
                    <path d="M0.273,0.051C0.273,0.061 0.272,0.07 0.271,0.078C0.269,0.087 0.267,0.094 0.265,0.099C0.258,0.111 0.253,0.118 0.248,0.12C0.244,0.121 0.24,0.121 0.237,0.119C0.233,0.116 0.229,0.111 0.227,0.104C0.2,0.117 0.174,0.127 0.148,0.133C0.137,0.135 0.126,0.137 0.114,0.138C0.102,0.139 0.09,0.139 0.079,0.138C0.068,0.136 0.056,0.133 0.046,0.129C0.035,0.125 0.026,0.118 0.017,0.109C-0.001,0.091 -0.012,0.071 -0.017,0.048C-0.023,0.025 -0.024,0.002 -0.019,-0.021C-0.015,-0.044 -0.007,-0.066 0.006,-0.086C0.018,-0.107 0.034,-0.124 0.052,-0.138C0.059,-0.139 0.064,-0.139 0.069,-0.139C0.074,-0.138 0.078,-0.137 0.082,-0.135C0.087,-0.133 0.09,-0.13 0.092,-0.126C0.075,-0.101 0.061,-0.077 0.051,-0.054C0.046,-0.044 0.043,-0.033 0.039,-0.023C0.036,-0.013 0.034,-0.003 0.033,0.007C0.032,0.017 0.032,0.026 0.034,0.035C0.036,0.044 0.04,0.051 0.047,0.058C0.052,0.064 0.056,0.067 0.061,0.069C0.065,0.071 0.069,0.071 0.073,0.07C0.077,0.07 0.081,0.068 0.084,0.066L0.094,-0.013C0.097,-0.017 0.101,-0.019 0.105,-0.021C0.109,-0.023 0.113,-0.024 0.117,-0.024C0.122,-0.024 0.127,-0.022 0.132,-0.019C0.137,-0.016 0.14,-0.01 0.142,-0.002C0.144,0.007 0.145,0.015 0.146,0.024C0.146,0.034 0.145,0.045 0.144,0.056C0.151,0.06 0.158,0.064 0.165,0.065C0.172,0.067 0.178,0.067 0.185,0.066C0.192,0.066 0.199,0.062 0.205,0.056C0.21,0.05 0.214,0.04 0.214,0.028C0.215,0.016 0.215,0.003 0.214,-0.01C0.214,-0.023 0.213,-0.035 0.213,-0.047C0.212,-0.058 0.214,-0.066 0.217,-0.071C0.221,-0.075 0.225,-0.077 0.23,-0.079C0.235,-0.08 0.239,-0.081 0.243,-0.081C0.247,-0.081 0.252,-0.08 0.256,-0.079C0.262,-0.054 0.266,-0.03 0.269,-0.008C0.27,0.002 0.271,0.012 0.272,0.022C0.273,0.03 0.273,0.038 0.273,0.045C0.273,0.047 0.273,0.049 0.273,0.051Z" style="fill:url(#_Linear8);fill-rule:nonzero;"/>
                </g>
                <g transform="matrix(-2.74957e-06,-62.6956,-62.6956,2.74957e-06,260.606,146.774)">
                    <path d="M0.192,0.036C0.18,0.046 0.166,0.056 0.151,0.067C0.135,0.077 0.119,0.087 0.1,0.096C0.082,0.106 0.063,0.114 0.043,0.121C0.022,0.129 0,0.135 -0.023,0.139L-0.024,0.074C-0.017,0.072 -0.01,0.07 -0.001,0.067C0.006,0.065 0.015,0.062 0.024,0.059C0.034,0.056 0.044,0.052 0.055,0.047C0.057,0.042 0.059,0.035 0.06,0.025C0.062,0.016 0.062,0.006 0.062,-0.004C0.061,-0.016 0.059,-0.027 0.055,-0.036C0.05,-0.045 0.047,-0.051 0.045,-0.054C0.034,-0.055 0.023,-0.057 0.011,-0.059C-0,-0.061 -0.011,-0.063 -0.023,-0.065L-0.024,-0.139C0.006,-0.131 0.037,-0.124 0.068,-0.117C0.081,-0.115 0.095,-0.112 0.11,-0.109C0.125,-0.106 0.14,-0.104 0.155,-0.102C0.17,-0.1 0.185,-0.098 0.2,-0.096C0.215,-0.094 0.229,-0.093 0.242,-0.093C0.247,-0.092 0.251,-0.09 0.255,-0.086C0.258,-0.082 0.261,-0.077 0.263,-0.07C0.266,-0.063 0.268,-0.054 0.269,-0.041C0.247,-0.014 0.221,0.012 0.192,0.036ZM0.159,-0.006C0.174,-0.016 0.187,-0.027 0.199,-0.039C0.192,-0.039 0.183,-0.04 0.174,-0.04C0.165,-0.041 0.156,-0.042 0.145,-0.043C0.134,-0.044 0.122,-0.045 0.11,-0.046C0.113,-0.04 0.116,-0.034 0.117,-0.027C0.119,-0.021 0.119,-0.015 0.119,-0.009C0.119,-0.003 0.119,0.002 0.118,0.007C0.117,0.012 0.115,0.017 0.114,0.02C0.129,0.012 0.144,0.004 0.159,-0.006Z" style="fill:url(#_Linear9);fill-rule:nonzero;"/>
                </g>
                <g transform="matrix(-2.74957e-06,-62.6963,-62.6963,2.74957e-06,281.307,146.774)">
                    <path d="M0.267,0.143C0.266,0.147 0.265,0.152 0.263,0.156C0.261,0.16 0.259,0.163 0.257,0.166C0.252,0.171 0.243,0.173 0.23,0.171C0.217,0.168 0.2,0.165 0.178,0.16C0.166,0.158 0.152,0.156 0.135,0.154C0.118,0.152 0.1,0.151 0.083,0.149C0.066,0.148 0.05,0.147 0.036,0.147C0.022,0.146 0.012,0.146 0.006,0.146C-0.004,0.146 -0.01,0.143 -0.014,0.138C-0.017,0.132 -0.02,0.124 -0.021,0.114C-0.022,0.109 -0.022,0.105 -0.021,0.102C-0.02,0.098 -0.018,0.095 -0.016,0.093C-0.014,0.09 -0.012,0.088 -0.009,0.086C-0.007,0.083 -0.004,0.081 0,0.081C0.004,0.081 0.009,0.082 0.014,0.083C0.019,0.085 0.024,0.086 0.03,0.089C0.036,0.091 0.041,0.093 0.046,0.095C0.051,0.097 0.059,0.099 0.069,0.101C0.08,0.103 0.091,0.104 0.103,0.106C0.114,0.107 0.124,0.107 0.133,0.107C0.141,0.106 0.146,0.104 0.146,0.1C0.146,0.097 0.144,0.093 0.14,0.089C0.137,0.085 0.133,0.081 0.128,0.076C0.123,0.071 0.118,0.067 0.112,0.062C0.107,0.057 0.102,0.052 0.098,0.047C0.09,0.036 0.085,0.025 0.083,0.015C0.08,0.006 0.082,-0.006 0.088,-0.019C0.091,-0.025 0.096,-0.032 0.103,-0.039C0.11,-0.046 0.117,-0.053 0.123,-0.059C0.131,-0.065 0.137,-0.071 0.142,-0.076C0.147,-0.081 0.15,-0.085 0.15,-0.088C0.15,-0.091 0.149,-0.094 0.148,-0.095C0.147,-0.097 0.146,-0.098 0.146,-0.099C0.144,-0.1 0.143,-0.1 0.142,-0.1C0.124,-0.103 0.107,-0.105 0.091,-0.106C0.078,-0.108 0.064,-0.109 0.05,-0.11C0.035,-0.112 0.024,-0.112 0.016,-0.112C0.008,-0.113 0.002,-0.114 -0.003,-0.117C-0.008,-0.119 -0.012,-0.122 -0.015,-0.125C-0.017,-0.129 -0.019,-0.132 -0.02,-0.135C-0.021,-0.139 -0.021,-0.142 -0.021,-0.144C-0.022,-0.147 -0.022,-0.15 -0.022,-0.153C-0.023,-0.156 -0.022,-0.159 -0.021,-0.162C-0.021,-0.164 -0.019,-0.167 -0.017,-0.168C-0.015,-0.17 -0.012,-0.171 -0.008,-0.172C-0.003,-0.173 0.003,-0.174 0.011,-0.173C0.018,-0.173 0.026,-0.172 0.036,-0.171C0.045,-0.17 0.087,-0.165 0.098,-0.164C0.109,-0.162 0.121,-0.161 0.133,-0.161C0.144,-0.16 0.156,-0.159 0.167,-0.158C0.178,-0.157 0.188,-0.156 0.197,-0.155C0.207,-0.153 0.215,-0.151 0.221,-0.148C0.227,-0.145 0.231,-0.141 0.233,-0.135C0.234,-0.13 0.235,-0.125 0.234,-0.12C0.233,-0.114 0.232,-0.107 0.23,-0.1C0.228,-0.095 0.226,-0.09 0.223,-0.085C0.221,-0.081 0.218,-0.076 0.213,-0.07C0.209,-0.064 0.204,-0.059 0.197,-0.053C0.186,-0.041 0.175,-0.029 0.166,-0.017C0.156,-0.005 0.151,0.005 0.15,0.013C0.15,0.017 0.153,0.024 0.161,0.032C0.168,0.041 0.177,0.05 0.187,0.06C0.198,0.069 0.208,0.079 0.219,0.088C0.23,0.097 0.24,0.105 0.247,0.11C0.254,0.116 0.26,0.122 0.262,0.127C0.265,0.132 0.267,0.137 0.267,0.142C0.267,0.142 0.267,0.142 0.267,0.143Z" style="fill:url(#_Linear10);fill-rule:nonzero;"/>
                </g>
                <g transform="matrix(-2.74957e-06,-62.6992,-62.6992,2.74957e-06,313.461,146.776)">
                    <path d="M0.267,-0.062C0.266,-0.049 0.264,-0.033 0.26,-0.014C0.259,-0.004 0.258,0.006 0.258,0.016C0.257,0.026 0.256,0.035 0.255,0.044C0.255,0.053 0.255,0.061 0.254,0.068C0.254,0.076 0.254,0.081 0.254,0.085C0.254,0.089 0.254,0.094 0.254,0.099C0.253,0.105 0.252,0.11 0.25,0.115C0.248,0.12 0.245,0.124 0.241,0.128C0.237,0.132 0.232,0.134 0.227,0.135C0.22,0.136 0.214,0.136 0.209,0.135C0.203,0.134 0.198,0.132 0.193,0.128C0.188,0.125 0.185,0.12 0.182,0.114C0.18,0.108 0.178,0.1 0.179,0.091C0.179,0.079 0.18,0.065 0.182,0.051C0.184,0.036 0.187,0.023 0.19,0.01C0.179,0.011 0.165,0.012 0.146,0.014C0.128,0.015 0.108,0.017 0.089,0.018C0.069,0.019 0.05,0.02 0.033,0.019C0.016,0.019 0.004,0.018 -0.003,0.016C-0.01,0.014 -0.015,0.01 -0.018,0.004C-0.021,-0.002 -0.022,-0.008 -0.023,-0.015C-0.023,-0.022 -0.023,-0.028 -0.021,-0.035C-0.02,-0.042 -0.019,-0.047 -0.018,-0.05C-0.016,-0.057 -0.012,-0.06 -0.006,-0.06C-0,-0.06 0.007,-0.059 0.015,-0.058C0.02,-0.057 0.027,-0.056 0.036,-0.054C0.045,-0.053 0.055,-0.051 0.066,-0.05C0.078,-0.048 0.089,-0.047 0.101,-0.047C0.113,-0.046 0.124,-0.046 0.133,-0.046C0.148,-0.047 0.161,-0.049 0.174,-0.05C0.187,-0.052 0.196,-0.053 0.202,-0.054C0.203,-0.062 0.204,-0.069 0.205,-0.073C0.206,-0.077 0.206,-0.083 0.206,-0.09C0.207,-0.094 0.207,-0.098 0.207,-0.102C0.206,-0.105 0.206,-0.109 0.207,-0.111C0.207,-0.114 0.207,-0.117 0.208,-0.119C0.209,-0.122 0.211,-0.124 0.214,-0.128C0.221,-0.133 0.229,-0.136 0.239,-0.134C0.248,-0.132 0.255,-0.128 0.26,-0.12C0.265,-0.113 0.268,-0.107 0.269,-0.104C0.27,-0.101 0.27,-0.096 0.27,-0.09C0.269,-0.083 0.268,-0.074 0.267,-0.062Z" style="fill:url(#_Linear11);fill-rule:nonzero;"/>
                </g>
                <g transform="matrix(-2.74957e-06,-62.6952,-62.6952,2.74957e-06,329.683,146.776)">
                    <path d="M0.267,0.003C0.266,0.023 0.261,0.041 0.252,0.056C0.243,0.072 0.231,0.085 0.217,0.096C0.203,0.107 0.187,0.115 0.168,0.121C0.15,0.127 0.131,0.13 0.112,0.129C0.092,0.128 0.074,0.124 0.057,0.117C0.041,0.109 0.026,0.099 0.014,0.086C0.002,0.073 -0.007,0.058 -0.014,0.042C-0.021,0.026 -0.023,0.009 -0.022,-0.009C-0.021,-0.032 -0.015,-0.052 -0.007,-0.067C0.002,-0.083 0.012,-0.095 0.025,-0.105C0.037,-0.114 0.051,-0.121 0.067,-0.125C0.082,-0.128 0.097,-0.13 0.112,-0.13C0.134,-0.13 0.155,-0.128 0.175,-0.124C0.194,-0.12 0.211,-0.112 0.225,-0.102C0.239,-0.092 0.25,-0.079 0.257,-0.062C0.264,-0.047 0.267,-0.029 0.267,-0.007C0.267,-0.004 0.267,-0 0.267,0.003ZM0.039,0.019C0.042,0.029 0.047,0.038 0.055,0.046C0.062,0.053 0.071,0.06 0.083,0.065C0.094,0.069 0.109,0.072 0.126,0.072C0.143,0.071 0.158,0.068 0.169,0.062C0.18,0.056 0.188,0.049 0.195,0.04C0.201,0.032 0.205,0.023 0.207,0.013C0.209,0.004 0.21,-0.005 0.21,-0.012C0.209,-0.019 0.208,-0.026 0.204,-0.034C0.201,-0.041 0.196,-0.048 0.189,-0.055C0.182,-0.061 0.174,-0.066 0.163,-0.069C0.152,-0.073 0.139,-0.075 0.124,-0.074C0.093,-0.074 0.07,-0.068 0.056,-0.058C0.041,-0.048 0.034,-0.033 0.034,-0.011C0.034,-0.001 0.036,0.009 0.039,0.019Z" style="fill:url(#_Linear12);fill-rule:nonzero;"/>
                </g>
                <g transform="matrix(-2.74957e-06,-62.6967,-62.6967,2.74957e-06,347.462,146.776)">
                    <path d="M0.265,-0.057C0.262,-0.051 0.258,-0.046 0.252,-0.043C0.245,-0.039 0.236,-0.037 0.224,-0.037C0.218,-0.036 0.212,-0.035 0.204,-0.035C0.196,-0.035 0.188,-0.036 0.179,-0.036C0.17,-0.036 0.161,-0.036 0.152,-0.037C0.143,-0.037 0.134,-0.038 0.125,-0.038C0.104,-0.04 0.082,-0.042 0.059,-0.044C0.052,-0.03 0.047,-0.016 0.043,-0.003C0.039,0.008 0.036,0.019 0.034,0.031C0.033,0.042 0.033,0.051 0.037,0.058C0.041,0.065 0.046,0.068 0.052,0.068C0.059,0.068 0.066,0.066 0.075,0.063C0.083,0.06 0.092,0.056 0.101,0.052C0.111,0.048 0.121,0.045 0.131,0.044C0.142,0.042 0.154,0.041 0.168,0.039C0.181,0.038 0.194,0.038 0.206,0.038C0.218,0.039 0.228,0.041 0.236,0.044C0.244,0.048 0.248,0.054 0.247,0.062C0.246,0.07 0.244,0.076 0.24,0.08C0.236,0.084 0.231,0.087 0.224,0.089C0.218,0.091 0.211,0.092 0.203,0.093C0.196,0.094 0.188,0.095 0.179,0.097C0.171,0.099 0.16,0.101 0.149,0.103C0.137,0.105 0.126,0.107 0.114,0.11C0.103,0.113 0.092,0.116 0.082,0.118C0.071,0.121 0.064,0.124 0.058,0.126C0.051,0.128 0.043,0.13 0.033,0.132C0.024,0.134 0.014,0.135 0.006,0.133C-0.003,0.132 -0.01,0.128 -0.016,0.121C-0.022,0.114 -0.024,0.102 -0.023,0.085C-0.021,0.069 -0.019,0.053 -0.016,0.036C-0.013,0.02 -0.009,0.005 -0.006,-0.009C-0.003,-0.024 0.001,-0.039 0.005,-0.054C-0.001,-0.055 -0.006,-0.058 -0.01,-0.061C-0.014,-0.064 -0.017,-0.068 -0.02,-0.073C-0.023,-0.078 -0.023,-0.085 -0.023,-0.094C-0.022,-0.111 -0.018,-0.122 -0.012,-0.127C-0.005,-0.133 0.002,-0.134 0.009,-0.13C0.013,-0.128 0.019,-0.126 0.025,-0.124C0.032,-0.121 0.039,-0.119 0.047,-0.117C0.054,-0.115 0.062,-0.113 0.071,-0.112C0.079,-0.11 0.086,-0.109 0.093,-0.108C0.108,-0.107 0.123,-0.106 0.137,-0.105C0.149,-0.104 0.161,-0.103 0.173,-0.103C0.185,-0.102 0.195,-0.102 0.203,-0.102C0.21,-0.102 0.218,-0.103 0.225,-0.104C0.233,-0.106 0.24,-0.107 0.246,-0.107C0.252,-0.107 0.256,-0.107 0.26,-0.105C0.264,-0.103 0.266,-0.1 0.266,-0.094C0.267,-0.088 0.268,-0.082 0.268,-0.075C0.268,-0.075 0.268,-0.074 0.268,-0.074C0.268,-0.068 0.267,-0.062 0.265,-0.057Z" style="fill:url(#_Linear13);fill-rule:nonzero;"/>
                </g>
                <g transform="matrix(-2.74957e-06,-62.6965,-62.6965,2.74957e-06,364.84,146.776)">
                    <path d="M0.267,0.027C0.264,0.04 0.259,0.051 0.254,0.062C0.249,0.072 0.243,0.081 0.237,0.088C0.231,0.095 0.226,0.1 0.224,0.101C0.222,0.102 0.218,0.103 0.212,0.104C0.205,0.105 0.197,0.105 0.188,0.107C0.178,0.108 0.168,0.109 0.156,0.11C0.145,0.111 0.133,0.112 0.121,0.114C0.093,0.116 0.061,0.119 0.026,0.123C0.022,0.123 0.017,0.123 0.012,0.123C0.007,0.123 0.002,0.123 -0.003,0.122C-0.008,0.121 -0.012,0.119 -0.016,0.117C-0.02,0.115 -0.022,0.111 -0.022,0.107C-0.023,0.098 -0.022,0.091 -0.021,0.086C-0.019,0.08 -0.017,0.076 -0.014,0.073C-0.012,0.072 -0.008,0.071 0,0.071C0.008,0.07 0.016,0.07 0.025,0.069C0.035,0.069 0.047,0.069 0.06,0.069C0.06,0.068 0.061,0.066 0.061,0.064C0.061,0.062 0.06,0.059 0.06,0.056C0.06,0.053 0.059,0.049 0.057,0.044C0.056,0.039 0.053,0.031 0.05,0.02C0.046,0.009 0.041,-0.003 0.036,-0.016C0.032,-0.029 0.027,-0.042 0.022,-0.054C0.017,-0.067 0.012,-0.077 0.009,-0.086C0.007,-0.093 0.007,-0.1 0.009,-0.105C0.011,-0.11 0.014,-0.114 0.018,-0.116C0.023,-0.119 0.028,-0.121 0.034,-0.122C0.039,-0.123 0.045,-0.123 0.05,-0.123C0.054,-0.123 0.058,-0.122 0.061,-0.12C0.064,-0.117 0.066,-0.115 0.068,-0.113C0.07,-0.111 0.072,-0.108 0.073,-0.106C0.074,-0.104 0.075,-0.103 0.075,-0.103C0.078,-0.098 0.079,-0.093 0.081,-0.089C0.083,-0.085 0.084,-0.08 0.087,-0.075C0.089,-0.069 0.091,-0.063 0.093,-0.058L0.109,-0.012C0.112,-0.021 0.116,-0.029 0.122,-0.037C0.126,-0.044 0.133,-0.05 0.141,-0.057C0.149,-0.063 0.159,-0.068 0.172,-0.071C0.184,-0.074 0.196,-0.074 0.207,-0.072C0.217,-0.07 0.227,-0.066 0.235,-0.06C0.243,-0.054 0.251,-0.047 0.256,-0.038C0.262,-0.029 0.266,-0.019 0.269,-0.008C0.27,-0.003 0.27,0.001 0.27,0.006C0.27,0.013 0.269,0.02 0.267,0.027ZM0.131,0.034C0.131,0.036 0.134,0.047 0.135,0.05C0.136,0.053 0.138,0.056 0.139,0.059C0.148,0.059 0.156,0.059 0.164,0.058C0.17,0.058 0.176,0.057 0.182,0.056C0.188,0.056 0.191,0.055 0.192,0.054C0.194,0.052 0.196,0.05 0.2,0.045C0.204,0.041 0.207,0.036 0.21,0.03C0.213,0.024 0.216,0.018 0.217,0.011C0.218,0.005 0.217,-0.001 0.214,-0.006C0.207,-0.017 0.199,-0.024 0.189,-0.027C0.179,-0.031 0.171,-0.03 0.164,-0.024C0.161,-0.022 0.157,-0.018 0.153,-0.012C0.149,-0.007 0.146,-0.001 0.142,0.005C0.139,0.011 0.136,0.017 0.134,0.022C0.132,0.028 0.131,0.032 0.131,0.034Z" style="fill:url(#_Linear14);fill-rule:nonzero;"/>
                </g>
                <g transform="matrix(-2.74957e-06,-62.6972,-62.6972,2.74957e-06,379.788,146.776)">
                    <path d="M0.266,0.015C0.263,0.027 0.258,0.039 0.251,0.049C0.244,0.06 0.235,0.069 0.224,0.075C0.213,0.081 0.2,0.081 0.184,0.077C0.169,0.072 0.157,0.065 0.149,0.057C0.141,0.049 0.134,0.04 0.128,0.031C0.123,0.022 0.118,0.013 0.113,0.003C0.108,-0.006 0.102,-0.014 0.094,-0.021C0.079,-0.035 0.067,-0.043 0.059,-0.046C0.05,-0.049 0.043,-0.046 0.038,-0.037C0.036,-0.032 0.034,-0.026 0.034,-0.019C0.033,-0.012 0.034,-0.005 0.035,0.002C0.036,0.009 0.038,0.017 0.041,0.024C0.044,0.031 0.048,0.037 0.052,0.042C0.061,0.052 0.067,0.063 0.071,0.073C0.075,0.083 0.073,0.092 0.066,0.099C0.062,0.102 0.058,0.105 0.053,0.108C0.049,0.111 0.044,0.112 0.038,0.113C0.033,0.114 0.028,0.113 0.023,0.11C0.018,0.108 0.014,0.103 0.01,0.095C0.006,0.088 0.001,0.079 -0.003,0.07C-0.008,0.06 -0.012,0.049 -0.015,0.037C-0.019,0.025 -0.021,0.012 -0.023,-0.002C-0.024,-0.016 -0.024,-0.031 -0.022,-0.048C-0.02,-0.063 -0.015,-0.076 -0.008,-0.086C-0.001,-0.096 0.008,-0.103 0.018,-0.107C0.027,-0.112 0.037,-0.114 0.048,-0.114C0.058,-0.114 0.067,-0.112 0.076,-0.109C0.084,-0.105 0.092,-0.101 0.098,-0.096C0.104,-0.091 0.109,-0.086 0.114,-0.08C0.118,-0.074 0.123,-0.068 0.127,-0.061C0.131,-0.054 0.135,-0.048 0.14,-0.041C0.144,-0.033 0.148,-0.025 0.154,-0.017C0.159,-0.008 0.164,-0.001 0.17,0.006C0.175,0.013 0.181,0.018 0.187,0.021C0.193,0.024 0.198,0.023 0.204,0.019C0.21,0.016 0.214,0.012 0.215,0.007C0.216,0.003 0.215,-0.002 0.214,-0.006C0.212,-0.011 0.21,-0.015 0.207,-0.018C0.204,-0.021 0.202,-0.024 0.2,-0.025C0.198,-0.026 0.196,-0.028 0.193,-0.031C0.19,-0.034 0.188,-0.037 0.186,-0.041C0.185,-0.044 0.184,-0.049 0.185,-0.053C0.185,-0.057 0.188,-0.062 0.192,-0.067C0.197,-0.072 0.204,-0.074 0.213,-0.075C0.221,-0.075 0.23,-0.073 0.238,-0.068C0.246,-0.064 0.254,-0.057 0.26,-0.048C0.266,-0.04 0.27,-0.029 0.27,-0.017C0.27,-0.008 0.269,0.002 0.266,0.015Z" style="fill:url(#_Linear15);fill-rule:nonzero;"/>
                </g>
                <g transform="matrix(54.6368,-25.2196,-19.8775,-43.0634,94.1197,107.376)">
                    <path d="M0.595,0.047C0.595,0.047 0.944,0.446 0.767,0.642C0.756,0.655 0.745,0.664 0.734,0.671C0.57,0.767 0.427,0.252 0.595,0.047ZM-0.042,0.729C-0.174,0.77 -0.274,0.697 -0.258,0.621C-0.243,0.545 -0.131,0.215 0.069,0.149C0.069,0.149 0.089,0.654 -0.03,0.723C-0.034,0.726 -0.038,0.727 -0.042,0.729ZM0.869,-0.392C0.869,-0.392 1.234,-0.494 1.26,-0.438C1.287,-0.382 1.459,-0.477 1.349,-0.214C1.334,-0.179 1.315,-0.157 1.293,-0.144C1.148,-0.059 0.869,-0.392 0.869,-0.392ZM0.479,-0.101C-0.03,0.192 -0.338,-0.59 -0.162,-0.882C-0.124,-0.946 -0.096,-0.975 -0.011,-0.972C0.001,-0.972 -0.001,-0.971 -0.011,-0.966C-0.031,-0.955 -0.084,-0.925 -0.117,-0.839C-0.13,-0.804 -0.242,-0.482 0.139,-0.253C0.483,-0.047 0.957,-0.588 0.572,-1.227C0.572,-1.227 0.758,-1.118 0.809,-0.783C0.839,-0.586 0.724,-0.245 0.482,-0.103C0.481,-0.103 0.48,-0.102 0.479,-0.101ZM-0.592,0.037C-0.669,-0.06 -0.639,-0.077 -0.614,-0.091C-0.597,-0.101 -0.584,-0.108 -0.609,-0.138C-0.672,-0.211 -0.46,-0.232 -0.287,-0.214C-0.287,-0.214 -0.379,0.001 -0.479,0.06C-0.517,0.082 -0.556,0.082 -0.592,0.037ZM0.969,-0.983C1.03,-1.297 1.37,-1.447 1.322,-1.161C1.307,-1.073 1.267,-1.022 1.22,-0.994C1.114,-0.932 0.969,-0.983 0.969,-0.983ZM0.898,-1.613C0.952,-1.494 0.785,-1.35 0.785,-1.35C0.665,-1.711 0.844,-1.733 0.898,-1.613ZM-0.6,-0.765C-0.625,-0.969 -0.487,-0.887 -0.38,-0.781C-0.38,-0.781 -0.428,-0.728 -0.479,-0.698C-0.531,-0.667 -0.588,-0.661 -0.6,-0.765Z" style="fill:url(#_Radial16);fill-rule:nonzero;"/>
                </g>
                <g transform="matrix(23.7437,-35.4812,-35.4812,-23.7437,114.241,143.3)">
                    <path d="M1.226,-0.12C1.224,-0.117 1.221,-0.115 1.219,-0.113C1.214,-0.107 1.212,-0.106 1.205,-0.109C1.203,-0.11 1.201,-0.111 1.199,-0.112C1.193,-0.115 1.187,-0.115 1.181,-0.109C1.18,-0.108 1.179,-0.107 1.178,-0.106C1.178,-0.107 1.178,-0.107 1.178,-0.108C1.172,-0.107 1.167,-0.108 1.162,-0.106C1.158,-0.103 1.154,-0.099 1.151,-0.094C1.147,-0.087 1.144,-0.078 1.14,-0.07C1.131,-0.052 1.122,-0.035 1.105,-0.022C1.104,-0.021 1.103,-0.02 1.102,-0.019C1.097,-0.009 1.087,-0.003 1.077,0.002C1.065,0.009 1.055,0.018 1.049,0.029C1.043,0.039 1.035,0.046 1.025,0.051C1.019,0.054 1.013,0.055 1.007,0.058C0.994,0.064 0.981,0.071 0.968,0.079C0.964,0.081 0.961,0.085 0.958,0.088C0.956,0.089 0.953,0.091 0.951,0.092L0.819,0.177C0.817,0.178 0.815,0.18 0.813,0.182C0.799,0.202 0.776,0.209 0.756,0.22C0.755,0.221 0.754,0.22 0.753,0.221C0.747,0.222 0.742,0.224 0.738,0.228C0.734,0.233 0.728,0.235 0.722,0.234C0.709,0.233 0.696,0.232 0.683,0.231C0.676,0.231 0.669,0.233 0.661,0.234C0.658,0.234 0.654,0.235 0.651,0.236C0.645,0.237 0.639,0.237 0.633,0.239C0.63,0.24 0.626,0.242 0.625,0.244C0.621,0.249 0.617,0.251 0.611,0.251C0.605,0.25 0.601,0.253 0.598,0.258C0.595,0.263 0.593,0.269 0.591,0.272C0.585,0.276 0.581,0.278 0.578,0.28C0.571,0.278 0.564,0.276 0.557,0.274C0.556,0.273 0.554,0.274 0.552,0.275C0.547,0.279 0.541,0.277 0.535,0.275C0.531,0.274 0.526,0.272 0.523,0.273C0.514,0.276 0.507,0.271 0.501,0.267C0.497,0.265 0.495,0.262 0.49,0.262C0.486,0.263 0.483,0.261 0.481,0.257C0.48,0.255 0.477,0.253 0.474,0.253C0.47,0.252 0.466,0.253 0.462,0.253C0.458,0.253 0.454,0.253 0.45,0.252C0.446,0.252 0.442,0.251 0.439,0.252C0.434,0.253 0.429,0.254 0.424,0.252C0.422,0.251 0.42,0.251 0.418,0.251C0.414,0.252 0.41,0.253 0.406,0.253C0.401,0.253 0.399,0.254 0.399,0.26C0.399,0.261 0.399,0.263 0.398,0.265C0.398,0.265 0.397,0.264 0.397,0.264C0.394,0.265 0.392,0.267 0.39,0.268C0.388,0.269 0.386,0.27 0.384,0.271C0.372,0.276 0.358,0.278 0.345,0.279C0.344,0.279 0.342,0.281 0.342,0.282C0.341,0.287 0.338,0.287 0.334,0.289C0.332,0.29 0.33,0.292 0.328,0.294C0.327,0.295 0.326,0.297 0.325,0.298C0.318,0.3 0.315,0.305 0.312,0.31C0.311,0.312 0.31,0.313 0.308,0.315C0.306,0.318 0.304,0.32 0.301,0.322C0.296,0.325 0.29,0.327 0.285,0.331C0.276,0.336 0.276,0.337 0.268,0.33C0.26,0.324 0.259,0.314 0.267,0.307C0.269,0.305 0.271,0.303 0.273,0.302C0.279,0.297 0.278,0.295 0.272,0.292C0.266,0.289 0.26,0.285 0.254,0.282C0.256,0.276 0.253,0.272 0.249,0.268C0.245,0.263 0.24,0.265 0.236,0.265C0.232,0.261 0.229,0.258 0.225,0.254C0.232,0.244 0.233,0.232 0.232,0.221C0.231,0.212 0.232,0.206 0.238,0.2C0.242,0.196 0.243,0.192 0.241,0.186C0.237,0.177 0.233,0.169 0.225,0.163C0.208,0.151 0.19,0.139 0.171,0.131C0.166,0.129 0.162,0.127 0.158,0.124C0.149,0.119 0.14,0.114 0.131,0.11C0.117,0.104 0.103,0.098 0.088,0.093C0.069,0.086 0.05,0.082 0.031,0.079C0.008,0.075 -0.014,0.072 -0.037,0.068C-0.042,0.068 -0.049,0.067 -0.053,0.069C-0.06,0.074 -0.066,0.068 -0.074,0.07C-0.074,0.066 -0.073,0.064 -0.073,0.062C-0.072,0.058 -0.072,0.054 -0.076,0.052C-0.083,0.048 -0.085,0.042 -0.089,0.035C-0.09,0.032 -0.093,0.029 -0.096,0.027C-0.1,0.025 -0.102,0.022 -0.102,0.017C-0.102,0.012 -0.102,0.007 -0.102,0.002C-0.101,-0.003 -0.102,-0.007 -0.105,-0.011C-0.107,-0.014 -0.107,-0.017 -0.106,-0.02C-0.105,-0.022 -0.105,-0.026 -0.106,-0.028C-0.11,-0.032 -0.111,-0.036 -0.112,-0.041C-0.113,-0.046 -0.117,-0.048 -0.122,-0.05C-0.126,-0.051 -0.128,-0.047 -0.13,-0.044C-0.134,-0.039 -0.138,-0.034 -0.146,-0.032C-0.147,-0.033 -0.148,-0.035 -0.15,-0.036C-0.155,-0.038 -0.155,-0.041 -0.153,-0.046C-0.152,-0.047 -0.151,-0.049 -0.151,-0.051C-0.149,-0.055 -0.147,-0.057 -0.142,-0.058C-0.138,-0.058 -0.134,-0.059 -0.13,-0.06C-0.125,-0.06 -0.122,-0.062 -0.12,-0.067C-0.119,-0.069 -0.118,-0.07 -0.116,-0.071C-0.11,-0.074 -0.106,-0.077 -0.107,-0.082C-0.102,-0.087 -0.099,-0.09 -0.094,-0.093C-0.086,-0.098 -0.076,-0.097 -0.068,-0.104C-0.063,-0.102 -0.061,-0.106 -0.058,-0.109C-0.055,-0.107 -0.052,-0.104 -0.049,-0.105C-0.037,-0.106 -0.025,-0.11 -0.017,-0.12C-0.015,-0.124 -0.015,-0.127 -0.017,-0.131C-0.018,-0.132 -0.018,-0.134 -0.019,-0.136C-0.008,-0.129 -0.008,-0.129 0.004,-0.131C0.005,-0.131 0.006,-0.131 0.008,-0.131C0.018,-0.133 0.021,-0.136 0.022,-0.146L0.022,-0.146C0.028,-0.147 0.034,-0.147 0.04,-0.147C0.042,-0.147 0.043,-0.147 0.045,-0.146C0.048,-0.146 0.051,-0.144 0.054,-0.144C0.063,-0.145 0.073,-0.145 0.082,-0.147C0.089,-0.149 0.095,-0.151 0.101,-0.155C0.104,-0.157 0.106,-0.157 0.11,-0.156C0.112,-0.155 0.114,-0.155 0.116,-0.155C0.155,-0.151 0.193,-0.148 0.231,-0.148C0.243,-0.148 0.254,-0.148 0.265,-0.152C0.266,-0.153 0.269,-0.153 0.27,-0.152C0.282,-0.15 0.293,-0.151 0.303,-0.157C0.309,-0.16 0.314,-0.165 0.319,-0.169C0.319,-0.171 0.32,-0.174 0.32,-0.176C0.327,-0.177 0.333,-0.178 0.34,-0.18C0.346,-0.182 0.352,-0.184 0.356,-0.189C0.357,-0.191 0.36,-0.191 0.362,-0.193C0.37,-0.198 0.38,-0.202 0.387,-0.208C0.393,-0.214 0.399,-0.216 0.406,-0.216C0.41,-0.216 0.412,-0.218 0.414,-0.221C0.418,-0.227 0.423,-0.233 0.426,-0.24C0.429,-0.249 0.434,-0.257 0.431,-0.267C0.428,-0.275 0.428,-0.276 0.419,-0.275C0.42,-0.278 0.42,-0.279 0.421,-0.281C0.421,-0.283 0.423,-0.285 0.422,-0.287C0.42,-0.292 0.421,-0.296 0.426,-0.299C0.427,-0.299 0.427,-0.302 0.427,-0.304C0.427,-0.305 0.427,-0.307 0.427,-0.308C0.428,-0.317 0.431,-0.326 0.428,-0.335C0.427,-0.335 0.428,-0.336 0.429,-0.338C0.432,-0.336 0.435,-0.335 0.437,-0.333C0.442,-0.325 0.447,-0.317 0.452,-0.309C0.456,-0.301 0.456,-0.301 0.465,-0.303C0.483,-0.306 0.502,-0.308 0.52,-0.311C0.522,-0.307 0.525,-0.305 0.527,-0.302C0.526,-0.301 0.526,-0.301 0.526,-0.3C0.521,-0.297 0.519,-0.293 0.521,-0.287C0.522,-0.279 0.518,-0.273 0.511,-0.271C0.508,-0.27 0.506,-0.268 0.506,-0.265C0.507,-0.259 0.511,-0.255 0.517,-0.254C0.519,-0.253 0.521,-0.251 0.523,-0.25C0.526,-0.249 0.53,-0.245 0.533,-0.246C0.539,-0.247 0.544,-0.244 0.549,-0.242C0.566,-0.234 0.582,-0.23 0.601,-0.232C0.603,-0.232 0.606,-0.232 0.609,-0.232C0.621,-0.23 0.632,-0.231 0.638,-0.245C0.643,-0.241 0.647,-0.238 0.65,-0.235C0.654,-0.231 0.668,-0.231 0.67,-0.236C0.674,-0.243 0.68,-0.246 0.686,-0.248C0.692,-0.25 0.695,-0.254 0.695,-0.261C0.695,-0.267 0.7,-0.273 0.704,-0.273C0.709,-0.272 0.713,-0.271 0.717,-0.269C0.721,-0.266 0.725,-0.263 0.731,-0.264C0.732,-0.265 0.734,-0.264 0.736,-0.263C0.744,-0.26 0.753,-0.256 0.761,-0.254C0.769,-0.251 0.778,-0.249 0.786,-0.249C0.795,-0.248 0.799,-0.252 0.801,-0.26C0.803,-0.26 0.806,-0.258 0.809,-0.259C0.814,-0.259 0.819,-0.258 0.823,-0.254C0.824,-0.253 0.827,-0.252 0.828,-0.252C0.835,-0.253 0.84,-0.249 0.846,-0.246C0.857,-0.239 0.869,-0.235 0.883,-0.235C0.894,-0.235 0.906,-0.234 0.917,-0.233C0.922,-0.233 0.926,-0.232 0.93,-0.232C0.936,-0.232 0.942,-0.233 0.947,-0.233C0.948,-0.233 0.95,-0.232 0.951,-0.232C0.956,-0.228 0.966,-0.228 0.97,-0.233C0.974,-0.238 0.978,-0.238 0.983,-0.237C0.986,-0.237 0.989,-0.237 0.992,-0.237C0.994,-0.237 0.997,-0.238 0.997,-0.239C0.999,-0.245 1.005,-0.245 1.009,-0.245C1.014,-0.246 1.017,-0.243 1.018,-0.239C1.019,-0.235 1.019,-0.231 1.02,-0.227C1.033,-0.229 1.041,-0.223 1.046,-0.213C1.048,-0.209 1.052,-0.208 1.057,-0.208C1.069,-0.209 1.081,-0.21 1.093,-0.211C1.098,-0.211 1.104,-0.212 1.107,-0.218C1.108,-0.22 1.11,-0.221 1.112,-0.222C1.123,-0.227 1.135,-0.222 1.146,-0.226C1.148,-0.221 1.152,-0.215 1.151,-0.211C1.149,-0.202 1.154,-0.198 1.159,-0.192C1.159,-0.184 1.159,-0.184 1.166,-0.183C1.168,-0.182 1.169,-0.181 1.171,-0.18C1.172,-0.18 1.173,-0.179 1.175,-0.178C1.18,-0.178 1.185,-0.178 1.191,-0.178C1.193,-0.178 1.195,-0.178 1.197,-0.18C1.2,-0.183 1.203,-0.184 1.207,-0.182C1.211,-0.18 1.215,-0.178 1.217,-0.175C1.22,-0.172 1.222,-0.17 1.227,-0.17C1.231,-0.169 1.234,-0.168 1.235,-0.163C1.236,-0.16 1.238,-0.159 1.238,-0.156C1.24,-0.15 1.244,-0.144 1.24,-0.138C1.24,-0.137 1.239,-0.137 1.239,-0.136C1.235,-0.13 1.23,-0.125 1.226,-0.12ZM0.022,-0.146C0.022,-0.146 0.022,-0.146 0.022,-0.146C0.022,-0.146 0.022,-0.146 0.022,-0.146L0.022,-0.146ZM0.022,-0.146C0.022,-0.146 0.022,-0.146 0.022,-0.146C0.022,-0.146 0.022,-0.147 0.022,-0.146Z" style="fill:url(#_Linear17);fill-rule:nonzero;"/>
                </g>
            </g>
        </g>
    </g>
    <defs>
        <linearGradient id="_Linear1" x1="0" y1="0" x2="1" y2="0" gradientUnits="userSpaceOnUse" gradientTransform="matrix(1,-6.61744e-24,-6.61744e-24,-1,0,0.000506116)"><stop offset="0" style="stop-color:rgb(43,170,213);stop-opacity:1"/><stop offset="0.8" style="stop-color:rgb(69,193,239);stop-opacity:1"/><stop offset="1" style="stop-color:rgb(69,193,239);stop-opacity:1"/></linearGradient>
        <linearGradient id="_Linear2" x1="0" y1="0" x2="1" y2="0" gradientUnits="userSpaceOnUse" gradientTransform="matrix(1,-6.61744e-24,-6.61744e-24,-1,0,-0.0014891)"><stop offset="0" style="stop-color:rgb(43,170,213);stop-opacity:1"/><stop offset="0.8" style="stop-color:rgb(69,193,239);stop-opacity:1"/><stop offset="1" style="stop-color:rgb(69,193,239);stop-opacity:1"/></linearGradient>
        <linearGradient id="_Linear3" x1="0" y1="0" x2="1" y2="0" gradientUnits="userSpaceOnUse" gradientTransform="matrix(1,0,0,-1,0,0.00176591)"><stop offset="0" style="stop-color:rgb(43,170,213);stop-opacity:1"/><stop offset="0.8" style="stop-color:rgb(69,193,239);stop-opacity:1"/><stop offset="1" style="stop-color:rgb(69,193,239);stop-opacity:1"/></linearGradient>
        <linearGradient id="_Linear4" x1="0" y1="0" x2="1" y2="0" gradientUnits="userSpaceOnUse" gradientTransform="matrix(1,-6.61744e-24,-6.61744e-24,-1,0,-0.00147302)"><stop offset="0" style="stop-color:rgb(43,170,213);stop-opacity:1"/><stop offset="0.8" style="stop-color:rgb(69,193,239);stop-opacity:1"/><stop offset="1" style="stop-color:rgb(69,193,239);stop-opacity:1"/></linearGradient>
        <linearGradient id="_Linear5" x1="0" y1="0" x2="1" y2="0" gradientUnits="userSpaceOnUse" gradientTransform="matrix(1,0,0,-1,0,-0.000950698)"><stop offset="0" style="stop-color:rgb(43,170,213);stop-opacity:1"/><stop offset="0.8" style="stop-color:rgb(69,193,239);stop-opacity:1"/><stop offset="1" style="stop-color:rgb(69,193,239);stop-opacity:1"/></linearGradient>
        <linearGradient id="_Linear6" x1="0" y1="0" x2="1" y2="0" gradientUnits="userSpaceOnUse" gradientTransform="matrix(1,0,0,-1,0,0.000775999)"><stop offset="0" style="stop-color:rgb(43,170,213);stop-opacity:1"/><stop offset="0.8" style="stop-color:rgb(69,193,239);stop-opacity:1"/><stop offset="1" style="stop-color:rgb(69,193,239);stop-opacity:1"/></linearGradient>
        <linearGradient id="_Linear7" x1="0" y1="0" x2="1" y2="0" gradientUnits="userSpaceOnUse" gradientTransform="matrix(1,0,0,-1,0,0.000221374)"><stop offset="0" style="stop-color:rgb(43,170,213);stop-opacity:1"/><stop offset="0.8" style="stop-color:rgb(69,193,239);stop-opacity:1"/><stop offset="1" style="stop-color:rgb(69,193,239);stop-opacity:1"/></linearGradient>
        <linearGradient id="_Linear8" x1="0" y1="0" x2="1" y2="0" gradientUnits="userSpaceOnUse" gradientTransform="matrix(1,0,0,-1,0,-0.000130009)"><stop offset="0" style="stop-color:rgb(43,170,213);stop-opacity:1"/><stop offset="0.8" style="stop-color:rgb(69,193,239);stop-opacity:1"/><stop offset="1" style="stop-color:rgb(69,193,239);stop-opacity:1"/></linearGradient>
        <linearGradient id="_Linear9" x1="0" y1="0" x2="1" y2="0" gradientUnits="userSpaceOnUse" gradientTransform="matrix(1,0,0,-1,0,-6.09316e-06)"><stop offset="0" style="stop-color:rgb(43,170,213);stop-opacity:1"/><stop offset="0.8" style="stop-color:rgb(69,193,239);stop-opacity:1"/><stop offset="1" style="stop-color:rgb(69,193,239);stop-opacity:1"/></linearGradient>
        <linearGradient id="_Linear10" x1="0" y1="0" x2="1" y2="0" gradientUnits="userSpaceOnUse" gradientTransform="matrix(1,0,0,-1,0,-0.000971318)"><stop offset="0" style="stop-color:rgb(43,170,213);stop-opacity:1"/><stop offset="0.8" style="stop-color:rgb(69,193,239);stop-opacity:1"/><stop offset="1" style="stop-color:rgb(69,193,239);stop-opacity:1"/></linearGradient>
        <linearGradient id="_Linear11" x1="0" y1="0" x2="1" y2="0" gradientUnits="userSpaceOnUse" gradientTransform="matrix(1,0,0,-1,0,0.000757748)"><stop offset="0" style="stop-color:rgb(43,170,213);stop-opacity:1"/><stop offset="0.8" style="stop-color:rgb(69,193,239);stop-opacity:1"/><stop offset="1" style="stop-color:rgb(69,193,239);stop-opacity:1"/></linearGradient>
        <linearGradient id="_Linear12" x1="0" y1="0" x2="1" y2="0" gradientUnits="userSpaceOnUse" gradientTransform="matrix(1,6.61744e-24,6.61744e-24,-1,0,-0.000642413)"><stop offset="0" style="stop-color:rgb(43,170,213);stop-opacity:1"/><stop offset="0.8" style="stop-color:rgb(69,193,239);stop-opacity:1"/><stop offset="1" style="stop-color:rgb(69,193,239);stop-opacity:1"/></linearGradient>
        <linearGradient id="_Linear13" x1="0" y1="0" x2="1" y2="0" gradientUnits="userSpaceOnUse" gradientTransform="matrix(1,-6.61744e-24,-6.61744e-24,-1,0,0.000884145)"><stop offset="0" style="stop-color:rgb(43,170,213);stop-opacity:1"/><stop offset="0.8" style="stop-color:rgb(69,193,239);stop-opacity:1"/><stop offset="1" style="stop-color:rgb(69,193,239);stop-opacity:1"/></linearGradient>
        <linearGradient id="_Linear14" x1="0" y1="0" x2="1" y2="0" gradientUnits="userSpaceOnUse" gradientTransform="matrix(1,0,0,-1,0,0.000234506)"><stop offset="0" style="stop-color:rgb(43,170,213);stop-opacity:1"/><stop offset="0.8" style="stop-color:rgb(69,193,239);stop-opacity:1"/><stop offset="1" style="stop-color:rgb(69,193,239);stop-opacity:1"/></linearGradient>
        <linearGradient id="_Linear15" x1="0" y1="0" x2="1" y2="0" gradientUnits="userSpaceOnUse" gradientTransform="matrix(1,6.61744e-24,6.61744e-24,-1,0,-0.000376304)"><stop offset="0" style="stop-color:rgb(43,170,213);stop-opacity:1"/><stop offset="0.8" style="stop-color:rgb(69,193,239);stop-opacity:1"/><stop offset="1" style="stop-color:rgb(69,193,239);stop-opacity:1"/></linearGradient>
        <radialGradient id="_Radial16" cx="0" cy="0" r="1" gradientUnits="userSpaceOnUse" gradientTransform="matrix(1,0,0,-1,0,-0.96305)"><stop offset="0" style="stop-color:rgb(197,28,29);stop-opacity:1"/><stop offset="0.41" style="stop-color:rgb(241,193,56);stop-opacity:1"/><stop offset="1" style="stop-color:rgb(252,228,67);stop-opacity:1"/></radialGradient>
        <linearGradient id="_Linear17" x1="0" y1="0" x2="1" y2="0" gradientUnits="userSpaceOnUse" gradientTransform="matrix(1,0,0,-1,0,-0.00157484)"><stop offset="0" style="stop-color:rgb(197,26,27);stop-opacity:1"/><stop offset="0.18" style="stop-color:rgb(197,26,27);stop-opacity:1"/><stop offset="1" style="stop-color:rgb(227,6,19);stop-opacity:1"/></linearGradient>
    </defs>
</svg>
