<svg width="100%" height="100%" viewBox="0 0 1341 1497" version="1.1" xmlns="http://www.w3.org/2000/svg" xmlns:xlink="http://www.w3.org/1999/xlink" xml:space="preserve" style="fill-rule:evenodd;clip-rule:evenodd;stroke-linejoin:round;stroke-miterlimit:2;">
    <g transform="matrix(1,0,0,1,-544,-2265)">
        <g transform="matrix(1,0,0,1,-1251.5,-1147.64)">
            <g id="logoYellow" transform="matrix(0.325432,0,0,0.325432,1295.8,3163.95)">
                <path d="M4338.5,4443.5C4338.37,4442.76 4338.54,4442.09 4339,4441.5C4339.69,4442.44 4339.53,4443.1 4338.5,4443.5ZM3704.5,4831.5C3702.37,4832.63 3700.04,4832.8 3697.5,4832C3699.81,4831.5 3702.14,4831.34 3704.5,4831.5ZM4338.5,4443.5C4313.78,4553.24 4273.78,4656.9 4218.5,4754.5C4092.4,4977.77 3913.4,5144.27 3681.5,5254C3668.7,5260.07 3655.7,5265.57 3642.5,5270.5C3510.08,5327.12 3371.75,5358.12 3227.5,5363.5C3226.84,5363.53 3226.17,5363.56 3225.51,5363.56C2918.82,5372.43 2647.48,5279.91 2411.5,5086C2193.72,4899.4 2058.22,4664.23 2005,4380.5C1985.47,4265.65 1982.13,4150.31 1995,4034.5C2000.71,3985.79 2009.54,3937.79 2021.5,3890.5C2054.73,3753.03 2110.73,3626.03 2189.5,3509.5C2322.84,3312.34 2499.18,3167.18 2718.5,3074C2917.87,2992.76 3124.53,2964.76 3338.5,2990C3372.47,2996.86 3406.47,3003.86 3440.5,3011C3496.91,3023.68 3551.91,3040.51 3605.5,3061.5C3825.28,3146.79 4004.78,3284.46 4144,3474.5C4152.35,3485.88 4160.18,3497.55 4167.5,3509.5C4179.64,3527.77 4191.81,3546.1 4204,3564.5C4250.86,3657.55 4281.53,3755.88 4296,3859.5C4298.5,3878.82 4300.67,3898.16 4302.5,3917.5C4304.13,3945.47 4304.8,3973.47 4304.5,4001.5C4304.42,4046.81 4300.75,4091.81 4293.5,4136.5C4285.21,4190.99 4272.21,4244.33 4254.5,4296.5C4236.45,4349.6 4213.78,4400.6 4186.5,4449.5C4163.61,4491.35 4137.61,4531.02 4108.5,4568.5C4107.49,4569.87 4106.49,4571.2 4105.5,4572.5C4077.6,4604.56 4047.27,4634.06 4014.5,4661C4007.16,4667.33 3999.5,4673.16 3991.5,4678.5C3958.9,4704.48 3924.24,4727.48 3887.5,4747.5C3858.19,4765.29 3827.53,4780.62 3795.5,4793.5C3771.45,4804.19 3746.79,4813.52 3721.5,4821.5C3719.18,4823.66 3716.51,4825.33 3713.5,4826.5L3713.5,4825.5C3714.17,4825.5 3714.5,4825.17 3714.5,4824.5C3713.83,4824.5 3713.5,4824.83 3713.5,4825.5C3709.39,4826.09 3705.39,4827.09 3701.5,4828.5C3699.49,4829.92 3697.15,4830.59 3694.5,4830.5C3690.4,4832.02 3686.07,4833.02 3681.5,4833.5C3648.18,4842.56 3614.51,4850.23 3580.5,4856.5C3546.96,4864.11 3512.96,4868.44 3478.5,4869.5C3459.83,4869.67 3441.16,4869.5 3422.5,4869C3407.93,4868.36 3393.6,4866.86 3379.5,4864.5C3346.31,4860.93 3313.98,4853.93 3282.5,4843.5C3269.33,4840.33 3256.67,4836 3244.5,4830.5C3231.36,4826.13 3218.69,4820.79 3206.5,4814.5C3182.37,4803.61 3159.37,4790.94 3137.5,4776.5C3126.13,4770.15 3115.46,4762.82 3105.5,4754.5C3100.73,4751.58 3096.07,4748.41 3091.5,4745C3084.72,4739.95 3078.39,4734.45 3072.5,4728.5C3071.5,4728.17 3070.83,4727.5 3070.5,4726.5C3068.25,4725.92 3066.58,4724.59 3065.5,4722.5C3064.17,4721.83 3063.17,4720.83 3062.5,4719.5C3060.25,4718.92 3058.58,4717.59 3057.5,4715.5C3052.34,4711.61 3047.67,4707.27 3043.5,4702.5C3041.17,4702.17 3039.83,4700.83 3039.5,4698.5C3033.56,4692.22 3027.56,4685.89 3021.5,4679.5C3019.09,4678.09 3017.42,4676.09 3016.5,4673.5C3012.77,4670.77 3009.77,4667.44 3007.5,4663.5C3003.79,4660.79 3000.79,4657.46 2998.5,4653.5C2997.09,4653.03 2996.43,4652.03 2996.5,4650.5C2993.8,4648.77 2991.8,4646.43 2990.5,4643.5C2989.09,4643.03 2988.43,4642.03 2988.5,4640.5C2983.79,4636.09 2979.79,4631.09 2976.5,4625.5C2969.11,4615.44 2962.11,4605.11 2955.5,4594.5C2935.42,4563.34 2918.75,4530.34 2905.5,4495.5C2890.78,4459.01 2880.12,4421.35 2873.5,4382.5C2867.02,4348.85 2864.02,4314.85 2864.5,4280.5C2863.69,4229.31 2869.86,4178.97 2883,4129.5C2903.81,4087.85 2928.15,4048.52 2956,4011.5C2957.37,4009.96 2958.87,4008.63 2960.5,4007.5C2962.5,4003.5 2965.5,4000.5 2969.5,3998.5C2984.19,3983.98 2999.53,3970.15 3015.5,3957C3029.44,3948.06 3043.11,3938.72 3056.5,3929C3069.59,3921.96 3082.92,3915.3 3096.5,3909C3124.3,3899.29 3152.63,3891.62 3181.5,3886C3193.62,3884.32 3205.79,3883.15 3218,3882.5C3229.38,3882.77 3240.55,3883.77 3251.5,3885.5L3256.5,3885.5C3262.14,3885.5 3267.48,3886.5 3272.5,3888.5C3302.12,3894.03 3329.45,3905.03 3354.5,3921.5C3356.03,3921.43 3357.03,3922.09 3357.5,3923.5C3357.97,3924.91 3358.97,3925.57 3360.5,3925.5C3364.39,3927.06 3367.73,3929.4 3370.5,3932.5C3372.03,3932.43 3373.03,3933.09 3373.5,3934.5C3375.4,3934.74 3376.74,3935.74 3377.5,3937.5C3379.19,3940.19 3381.53,3942.19 3384.5,3943.5C3389.41,3946.12 3393.75,3949.45 3397.5,3953.5C3397.97,3954.91 3398.97,3955.57 3400.5,3955.5C3402.17,3956.5 3403.5,3957.83 3404.5,3959.5C3404.83,3960.5 3405.5,3961.17 3406.5,3961.5C3414.8,3968.13 3422.47,3975.47 3429.5,3983.5C3431.91,3984.91 3433.58,3986.91 3434.5,3989.5C3439.21,3993.21 3443.21,3997.54 3446.5,4002.5C3447.91,4002.97 3448.57,4003.97 3448.5,4005.5C3450.26,4006.26 3451.26,4007.6 3451.5,4009.5C3453.26,4010.26 3454.26,4011.6 3454.5,4013.5C3455.91,4013.97 3456.57,4014.97 3456.5,4016.5C3457.91,4016.97 3458.57,4017.97 3458.5,4019.5C3459.34,4019.84 3459.67,4020.51 3459.5,4021.5C3460.91,4021.97 3461.57,4022.97 3461.5,4024.5C3465.9,4031.3 3469.23,4038.63 3471.5,4046.5C3473.47,4049.08 3474.47,4052.08 3474.5,4055.5C3474.29,4058.5 3474.96,4061.16 3476.5,4063.5C3477.34,4065.38 3477.67,4067.38 3477.5,4069.5C3479.04,4071.84 3479.71,4074.5 3479.5,4077.5C3480.45,4078.92 3480.78,4080.59 3480.5,4082.5C3482.25,4089.92 3482.92,4097.59 3482.5,4105.5L3482.5,4107.5C3483.67,4118.53 3483.34,4129.53 3481.5,4140.5C3480.62,4155.35 3476.96,4169.35 3470.5,4182.5C3470.6,4184.55 3469.93,4186.22 3468.5,4187.5C3468.01,4189.82 3467.01,4191.82 3465.5,4193.5C3465.25,4195.67 3464.25,4197.34 3462.5,4198.5C3462.07,4199.71 3461.4,4200.71 3460.5,4201.5C3459.09,4201.97 3458.43,4202.97 3458.5,4204.5C3457.42,4207 3456.08,4209.34 3454.5,4211.5C3454.57,4213.03 3453.91,4214.03 3452.5,4214.5C3452.57,4216.03 3451.91,4217.03 3450.5,4217.5C3449.09,4217.97 3448.43,4218.97 3448.5,4220.5C3448.17,4221.5 3447.5,4222.17 3446.5,4222.5C3445.09,4222.97 3444.43,4223.97 3444.5,4225.5C3441.19,4230.8 3437.52,4235.8 3433.5,4240.5C3433.57,4242.03 3432.91,4243.03 3431.5,4243.5C3431.17,4244.5 3430.5,4245.17 3429.5,4245.5C3429.57,4247.03 3428.91,4248.03 3427.5,4248.5C3413.63,4266.04 3397.3,4280.71 3378.5,4292.5C3376.97,4292.43 3375.97,4293.09 3375.5,4294.5C3375.16,4295.34 3374.49,4295.67 3373.5,4295.5C3372.22,4296.93 3370.55,4297.6 3368.5,4297.5C3361.48,4302.18 3353.81,4305.51 3345.5,4307.5C3341.45,4309.26 3337.12,4310.26 3332.5,4310.5C3324.15,4312.96 3315.48,4314.3 3306.5,4314.5L3282.5,4313C3277.61,4312.65 3272.94,4311.81 3268.5,4310.5C3264.52,4310.26 3260.85,4309.26 3257.5,4307.5C3251.71,4307.56 3246.38,4306.23 3241.5,4303.5C3239.6,4303.2 3237.93,4302.54 3236.5,4301.5C3233.91,4301.54 3231.91,4300.54 3230.5,4298.5C3229.51,4298.67 3228.84,4298.34 3228.5,4297.5C3226.97,4297.57 3225.97,4296.91 3225.5,4295.5C3224.51,4295.67 3223.84,4295.34 3223.5,4294.5C3221.6,4294.26 3220.26,4293.26 3219.5,4291.5C3217.97,4291.57 3216.97,4290.91 3216.5,4289.5C3213.91,4288.58 3211.91,4286.91 3210.5,4284.5C3208.6,4284.26 3207.26,4283.26 3206.5,4281.5C3205.5,4281.17 3204.83,4280.5 3204.5,4279.5C3204.26,4277.6 3203.26,4276.26 3201.5,4275.5C3195.96,4268.92 3190.96,4261.92 3186.5,4254.5C3185.66,4254.84 3185.33,4255.51 3185.5,4256.5C3186.17,4261.17 3186.83,4265.83 3187.5,4270.5C3189.51,4278.86 3192.01,4287.19 3195,4295.5C3201.69,4306.9 3208.86,4317.9 3216.5,4328.5C3218.59,4329.58 3219.92,4331.25 3220.5,4333.5C3236.9,4347.71 3255.24,4358.87 3275.5,4367C3297.2,4375.34 3319.53,4381.34 3342.5,4385C3361.62,4386.21 3380.62,4385.38 3399.5,4382.5C3401.6,4381.39 3403.93,4380.72 3406.5,4380.5C3416.21,4377.87 3425.88,4374.71 3435.5,4371C3450.35,4363.74 3465.01,4356.24 3479.5,4348.5C3500.67,4336.75 3521.01,4323.75 3540.5,4309.5C3542.9,4306.1 3545.9,4303.43 3549.5,4301.5C3552.88,4297.45 3556.55,4293.79 3560.5,4290.5C3564.77,4284.56 3569.77,4279.22 3575.5,4274.5C3575.5,4273.83 3575.83,4273.5 3576.5,4273.5C3578.09,4270.24 3580.43,4267.57 3583.5,4265.5C3592.51,4254.15 3600.51,4242.15 3607.5,4229.5C3608.08,4226.67 3609.41,4224.34 3611.5,4222.5C3615.99,4211.53 3620.99,4200.86 3626.5,4190.5C3633.29,4175.58 3638.96,4160.25 3643.5,4144.5C3643.57,4141.57 3644.23,4138.91 3645.5,4136.5C3646.42,4128.97 3647.75,4121.63 3649.5,4114.5C3651.19,4103.99 3653.19,4093.65 3655.5,4083.5C3655.51,4069.98 3656.18,4056.65 3657.5,4043.5L3657.5,4042.5C3657.35,4035.13 3657.68,4028.13 3658.5,4021.5C3657.58,4011.52 3656.92,4001.52 3656.5,3991.5C3655.1,3987.41 3654.44,3983.08 3654.5,3978.5C3653.95,3969.29 3652.28,3960.29 3649.5,3951.5C3647.46,3946.38 3645.8,3941.05 3644.5,3935.5C3639.44,3923.71 3634.11,3912.04 3628.5,3900.5C3626.8,3897.74 3625.46,3894.74 3624.5,3891.5C3622.46,3890.09 3621.46,3888.09 3621.5,3885.5C3609.81,3864.46 3597.31,3843.8 3584,3823.5C3577.92,3816.32 3572.08,3808.99 3566.5,3801.5C3564.41,3800.42 3563.08,3798.75 3562.5,3796.5C3554.16,3788.33 3546.33,3779.66 3539,3770.5C3534.31,3766.63 3529.81,3762.63 3525.5,3758.5C3523.25,3757.92 3521.58,3756.59 3520.5,3754.5C3518.97,3754.57 3517.97,3753.91 3517.5,3752.5C3515.25,3751.92 3513.58,3750.59 3512.5,3748.5C3508.61,3746.94 3505.27,3744.6 3502.5,3741.5C3500.25,3740.92 3498.58,3739.59 3497.5,3737.5C3467.66,3719.41 3436.99,3702.57 3405.5,3687C3381.95,3675.2 3357.29,3667.37 3331.5,3663.5C3324.92,3663.84 3318.58,3663.18 3312.5,3661.5C3292.88,3659.06 3273.22,3657.06 3253.5,3655.5C3243.64,3655.44 3233.97,3654.78 3224.5,3653.5C3205.5,3652.27 3186.5,3652.27 3167.5,3653.5C3145.75,3657.91 3123.75,3661.58 3101.5,3664.5C3098.38,3665.87 3095.05,3666.87 3091.5,3667.5C3087.08,3669.1 3082.41,3670.1 3077.5,3670.5C3073.84,3670.72 3070.5,3671.72 3067.5,3673.5C3062.02,3674.8 3056.35,3675.8 3050.5,3676.5C3045.64,3677.13 3040.97,3678.13 3036.5,3679.5C3029.63,3681.9 3022.63,3683.9 3015.5,3685.5C3012.15,3687.26 3008.48,3688.26 3004.5,3688.5C3002.4,3689.61 3000.07,3690.28 2997.5,3690.5C2988.9,3693.79 2980.23,3697.13 2971.5,3700.5C2963.57,3703.79 2955.57,3707.13 2947.5,3710.5C2946.22,3711.93 2944.55,3712.6 2942.5,3712.5C2937.41,3714.88 2932.41,3717.55 2927.5,3720.5C2927.03,3721.91 2926.03,3722.57 2924.5,3722.5C2911.76,3730.05 2899.1,3737.88 2886.5,3746C2875.28,3754.43 2863.95,3762.6 2852.5,3770.5C2851.74,3772.26 2850.4,3773.26 2848.5,3773.5C2848.16,3774.34 2847.49,3774.67 2846.5,3774.5C2846.03,3775.91 2845.03,3776.57 2843.5,3776.5C2840.72,3779.06 2837.72,3781.4 2834.5,3783.5C2832.6,3783.74 2831.26,3784.74 2830.5,3786.5C2824.23,3791.43 2818.23,3796.77 2812.5,3802.5C2812.03,3803.91 2811.03,3804.57 2809.5,3804.5C2802.81,3811.53 2796.14,3818.53 2789.5,3825.5C2788.09,3825.97 2787.43,3826.97 2787.5,3828.5C2765.49,3852.51 2743.82,3876.84 2722.5,3901.5C2712.83,3914.01 2703.33,3926.67 2694,3939.5C2682.81,3957.9 2671.64,3976.23 2660.5,3994.5C2660.02,3996.78 2659.02,3998.78 2657.5,4000.5C2657.57,4002.03 2656.91,4003.03 2655.5,4003.5C2655.67,4004.49 2655.34,4005.16 2654.5,4005.5C2652.68,4009.63 2650.68,4013.63 2648.5,4017.5C2647.09,4017.97 2646.43,4018.97 2646.5,4020.5C2646.41,4022.79 2645.74,4024.79 2644.5,4026.5C2643.07,4031.49 2641.07,4036.16 2638.5,4040.5C2638.6,4042.55 2637.93,4044.22 2636.5,4045.5C2631.4,4058.16 2625.73,4070.5 2619.5,4082.5C2613.39,4096.64 2608.06,4110.97 2603.5,4125.5C2603.35,4130.29 2602.01,4134.62 2599.5,4138.5C2598.46,4146.09 2596.8,4153.43 2594.5,4160.5C2593.72,4172.43 2592.05,4184.1 2589.5,4195.5C2589.81,4199.37 2589.48,4203.04 2588.5,4206.5C2588.91,4208.81 2589.25,4211.14 2589.5,4213.5C2588.91,4226.33 2588.24,4238.99 2587.5,4251.5L2587.5,4256.5C2585.91,4271.3 2585.24,4286.3 2585.5,4301.5C2584.82,4322.12 2586.15,4342.45 2589.5,4362.5L2592.5,4380.5C2596.79,4397.66 2600.79,4414.99 2604.5,4432.5C2605.77,4434.91 2606.43,4437.57 2606.5,4440.5C2611.87,4455.6 2616.87,4470.93 2621.5,4486.5C2633.31,4518.91 2646.31,4550.91 2660.5,4582.5C2666.81,4595.13 2673.15,4607.79 2679.5,4620.5C2696.9,4651.63 2715.57,4681.97 2735.5,4711.5C2749.75,4731.09 2764.42,4750.43 2779.5,4769.5C2793.47,4785.14 2807.47,4800.81 2821.5,4816.5C2826.23,4820.23 2830.23,4824.56 2833.5,4829.5C2836.13,4831.13 2838.47,4833.13 2840.5,4835.5C2843.83,4838.17 2846.83,4841.17 2849.5,4844.5C2859.83,4853.49 2869.83,4862.83 2879.5,4872.5C2894.72,4884.6 2909.72,4896.94 2924.5,4909.5C2943.84,4923.17 2963.17,4936.84 2982.5,4950.5C2992.34,4956.25 3002.01,4962.25 3011.5,4968.5C3025.34,4975.92 3039,4983.58 3052.5,4991.5C3070.33,4999.91 3087.99,5008.58 3105.5,5017.5C3132.92,5028.97 3160.58,5039.64 3188.5,5049.5C3202.69,5053.54 3216.69,5057.88 3230.5,5062.5C3248.31,5066.7 3265.98,5071.04 3283.5,5075.5C3295.7,5077.42 3307.7,5079.75 3319.5,5082.5C3347.06,5086.71 3374.73,5090.04 3402.5,5092.5C3413.18,5093.05 3423.84,5093.72 3434.5,5094.5C3448.51,5094.38 3462.51,5094.71 3476.5,5095.5C3476.98,5095.48 3477.46,5095.47 3477.94,5095.46C3507.03,5094.61 3536.2,5092.96 3565.5,5090.5C3573.63,5089 3581.97,5088 3590.5,5087.5C3605,5084.97 3619.67,5082.64 3634.5,5080.5C3660.54,5075.16 3686.54,5069.16 3712.5,5062.5C3747.6,5051.91 3782.26,5039.91 3816.5,5026.5C3831.1,5019.87 3845.76,5013.2 3860.5,5006.5C3894.76,4989.37 3928.1,4970.7 3960.5,4950.5C3998.72,4924.53 4035.39,4896.37 4070.5,4866C4083.42,4853.58 4096.42,4841.41 4109.5,4829.5C4154.71,4782.72 4194.87,4732.05 4230,4677.5C4240.53,4659.77 4251.03,4642.1 4261.5,4624.5C4289.05,4571.39 4312.22,4516.39 4331,4459.5C4333.04,4453.85 4335.54,4448.52 4338.5,4443.5ZM3708.5,4829.5C3708.16,4830.34 3707.49,4830.67 3706.5,4830.5C3706.84,4829.66 3707.51,4829.33 3708.5,4829.5ZM3706.5,4830.5C3706.16,4831.34 3705.49,4831.67 3704.5,4831.5C3704.84,4830.66 3705.51,4830.33 3706.5,4830.5ZM3713.5,4826.5C3713.16,4827.34 3712.49,4827.67 3711.5,4827.5C3711.84,4826.66 3712.51,4826.33 3713.5,4826.5ZM3711.5,4827.5C3711.03,4828.91 3710.03,4829.57 3708.5,4829.5C3708.97,4828.09 3709.97,4827.43 3711.5,4827.5ZM3121.5,1060.5C3112.36,1035 3106.19,1008.66 3103,981.5C3099.22,957.062 3098.72,932.729 3101.5,908.5C3101.43,904.575 3102.1,900.909 3103.5,897.5C3104.61,895.401 3105.28,893.067 3105.5,890.5C3105.87,886.703 3107.21,883.37 3109.5,880.5C3109.46,877.911 3110.46,875.911 3112.5,874.5C3112.43,872.973 3113.09,871.973 3114.5,871.5C3114.43,869.973 3115.09,868.973 3116.5,868.5C3117.58,865.996 3118.92,863.663 3120.5,861.5C3121.08,859.251 3122.41,857.585 3124.5,856.5C3124.33,855.508 3124.66,854.842 3125.5,854.5C3125.74,852.596 3126.74,851.262 3128.5,850.5C3129.42,847.911 3131.09,845.911 3133.5,844.5C3135.5,840.5 3138.5,837.5 3142.5,835.5C3142.5,834.833 3142.83,834.5 3143.5,834.5C3147.23,829.77 3151.56,825.77 3156.5,822.5C3156.5,821.833 3156.83,821.5 3157.5,821.5C3158.58,819.413 3160.25,818.08 3162.5,817.5C3163.26,815.738 3164.6,814.738 3166.5,814.5C3167.26,812.738 3168.6,811.738 3170.5,811.5C3170.97,810.094 3171.97,809.427 3173.5,809.5C3173.97,808.094 3174.97,807.427 3176.5,807.5C3177.9,806.11 3179.57,805.11 3181.5,804.5C3181.97,803.094 3182.97,802.427 3184.5,802.5C3184.97,801.094 3185.97,800.427 3187.5,800.5C3187.84,799.662 3188.51,799.328 3189.5,799.5C3189.97,798.094 3190.97,797.427 3192.5,797.5C3201.16,792.604 3210.16,788.271 3219.5,784.5C3221.43,782.707 3223.76,781.707 3226.5,781.5C3228.1,779.926 3230.1,779.259 3232.5,779.5C3243.65,775.44 3254.98,771.607 3266.5,768C3284.12,765.233 3301.79,764.899 3319.5,767C3332.22,769.411 3344.89,772.078 3357.5,775C3361.31,776.428 3364.97,777.928 3368.5,779.5C3370.55,779.402 3372.22,780.069 3373.5,781.5C3375.55,781.402 3377.22,782.069 3378.5,783.5C3379.49,783.328 3380.16,783.662 3380.5,784.5C3382.67,784.75 3384.34,785.75 3385.5,787.5C3389.66,788.742 3393.32,790.742 3396.5,793.5C3398.03,793.427 3399.03,794.094 3399.5,795.5C3401.4,795.738 3402.74,796.738 3403.5,798.5C3404.58,800.587 3406.25,801.92 3408.5,802.5C3409.26,804.262 3410.6,805.262 3412.5,805.5C3413.54,807.531 3415.21,808.864 3417.5,809.5C3419.17,810.5 3420.5,811.833 3421.5,813.5C3423.17,814.5 3424.5,815.833 3425.5,817.5C3426.5,817.833 3427.17,818.5 3427.5,819.5C3429.26,820.262 3430.26,821.596 3430.5,823.5C3431.34,823.842 3431.67,824.508 3431.5,825.5C3433.26,826.262 3434.26,827.596 3434.5,829.5C3436.59,830.585 3437.92,832.251 3438.5,834.5C3439.91,834.973 3440.57,835.973 3440.5,837.5C3441.91,837.973 3442.57,838.973 3442.5,840.5C3444.26,841.262 3445.26,842.596 3445.5,844.5C3446.91,844.973 3447.57,845.973 3447.5,847.5C3449.59,849.336 3450.92,851.669 3451.5,854.5C3453.34,856.849 3454.67,859.515 3455.5,862.5C3456.91,862.973 3457.57,863.973 3457.5,865.5C3458.67,866.514 3459.34,867.847 3459.5,869.5C3460.91,869.973 3461.57,870.973 3461.5,872.5C3463.35,875.54 3464.68,878.873 3465.5,882.5C3466.91,882.973 3467.57,883.973 3467.5,885.5C3472.91,895.981 3476.91,906.981 3479.5,918.5C3481.01,921.544 3481.68,924.878 3481.5,928.5C3483.05,936.619 3484.05,944.953 3484.5,953.5C3483.18,971.809 3482.35,990.143 3482,1008.5C3481.81,1010.71 3481.31,1012.71 3480.5,1014.5C3480.5,1019.5 3479.5,1024.17 3477.5,1028.5C3477.26,1032.48 3476.26,1036.15 3474.5,1039.5C3474.27,1042.54 3473.27,1045.21 3471.5,1047.5C3470.96,1050.91 3469.62,1053.91 3467.5,1056.5C3466.92,1059.33 3465.59,1061.66 3463.5,1063.5C3461.75,1064.66 3460.75,1066.33 3460.5,1068.5C3460.57,1070.03 3459.91,1071.03 3458.5,1071.5C3458.57,1073.03 3457.91,1074.03 3456.5,1074.5C3455.19,1077.14 3453.52,1079.47 3451.5,1081.5C3451.57,1083.03 3450.91,1084.03 3449.5,1084.5C3449.5,1085.17 3449.17,1085.5 3448.5,1085.5C3448.57,1087.03 3447.91,1088.03 3446.5,1088.5C3446.5,1089.17 3446.17,1089.5 3445.5,1089.5C3445.57,1091.03 3444.91,1092.03 3443.5,1092.5C3443.5,1093.17 3443.17,1093.5 3442.5,1093.5C3442.26,1095.4 3441.26,1096.74 3439.5,1097.5C3438.83,1098.83 3437.83,1099.83 3436.5,1100.5C3435.92,1102.75 3434.59,1104.42 3432.5,1105.5C3421.68,1118.33 3409.35,1129.33 3395.5,1138.5C3393.97,1138.43 3392.97,1139.09 3392.5,1140.5C3386.21,1145.99 3379.21,1150.49 3371.5,1154C3365.5,1156.67 3359.5,1159.33 3353.5,1162C3347.71,1164.43 3341.71,1165.93 3335.5,1166.5C3331.9,1168.69 3327.9,1169.69 3323.5,1169.5C3305.47,1172.22 3287.47,1172.88 3269.5,1171.5C3265.54,1171.75 3261.88,1171.08 3258.5,1169.5C3256.04,1170.3 3253.71,1169.97 3251.5,1168.5C3248.85,1168.59 3246.51,1167.92 3244.5,1166.5C3243.21,1166.74 3242.21,1166.4 3241.5,1165.5C3238.76,1165.29 3236.43,1164.29 3234.5,1162.5C3218.54,1156.05 3202.87,1148.89 3187.5,1141C3185.32,1139.64 3183.32,1138.14 3181.5,1136.5C3179.97,1136.57 3178.97,1135.91 3178.5,1134.5C3177.51,1134.67 3176.84,1134.34 3176.5,1133.5C3174.97,1133.57 3173.97,1132.91 3173.5,1131.5C3171.25,1130.92 3169.58,1129.59 3168.5,1127.5C3166.25,1126.92 3164.58,1125.59 3163.5,1123.5C3161.6,1123.26 3160.26,1122.26 3159.5,1120.5C3157.25,1119.92 3155.58,1118.59 3154.5,1116.5C3151.5,1114.17 3148.83,1111.5 3146.5,1108.5C3143.17,1107.17 3140.83,1104.83 3139.5,1101.5C3137.23,1098.36 3135.06,1095.03 3133,1091.5C3131.26,1088.69 3130.09,1085.69 3129.5,1082.5C3128.33,1081.49 3127.66,1080.15 3127.5,1078.5C3124.53,1072.91 3122.53,1066.91 3121.5,1060.5ZM4020.5,1399.5C4019.88,1399.08 4019.54,1398.42 4019.5,1397.5C4020.79,1383.35 4022.13,1369.35 4023.5,1355.5C4024.4,1341.36 4027.06,1327.69 4031.5,1314.5C4032.47,1308.96 4033.8,1303.63 4035.5,1298.5C4035.46,1295.91 4036.46,1293.91 4038.5,1292.5C4039.38,1288.42 4041.04,1284.75 4043.5,1281.5C4046.33,1273.17 4050.66,1265.84 4056.5,1259.5C4057.76,1256.57 4059.76,1254.24 4062.5,1252.5C4064.46,1249.21 4066.79,1246.21 4069.5,1243.5C4070.08,1241.25 4071.41,1239.58 4073.5,1238.5C4076.12,1233.59 4079.45,1229.25 4083.5,1225.5C4084.08,1223.25 4085.41,1221.58 4087.5,1220.5C4090.6,1215.95 4093.94,1211.61 4097.5,1207.5C4098.76,1204.57 4100.76,1202.24 4103.5,1200.5C4105.83,1196.17 4109.17,1192.83 4113.5,1190.5C4113.84,1189.66 4114.51,1189.33 4115.5,1189.5C4117.64,1186.03 4120.64,1183.69 4124.5,1182.5C4125.8,1180.18 4127.8,1178.84 4130.5,1178.5C4131.51,1177.33 4132.85,1176.66 4134.5,1176.5C4135.26,1174.74 4136.6,1173.74 4138.5,1173.5C4139.91,1171.46 4141.91,1170.46 4144.5,1170.5C4145.91,1168.46 4147.91,1167.46 4150.5,1167.5C4151.51,1166.33 4152.85,1165.66 4154.5,1165.5C4154.97,1164.09 4155.97,1163.43 4157.5,1163.5C4186.07,1147.35 4216.4,1142.69 4248.5,1149.5C4251.91,1149.46 4255.24,1149.96 4258.5,1151C4260.32,1151.2 4261.65,1152.03 4262.5,1153.5C4267.04,1154.77 4271.38,1156.6 4275.5,1159C4281.06,1161.94 4286.4,1165.11 4291.5,1168.5C4291.97,1169.91 4292.97,1170.57 4294.5,1170.5C4296.43,1171.11 4298.1,1172.11 4299.5,1173.5C4299.97,1174.91 4300.97,1175.57 4302.5,1175.5C4306.84,1177.33 4310.84,1179.67 4314.5,1182.5C4314.97,1183.91 4315.97,1184.57 4317.5,1184.5C4318.17,1184.5 4318.5,1184.83 4318.5,1185.5C4318.97,1186.91 4319.97,1187.57 4321.5,1187.5C4322.17,1187.5 4322.5,1187.83 4322.5,1188.5C4322.97,1189.91 4323.97,1190.57 4325.5,1190.5C4325.97,1191.91 4326.97,1192.57 4328.5,1192.5C4333.28,1194.89 4337.28,1198.22 4340.5,1202.5C4344.12,1204.45 4347.12,1207.12 4349.5,1210.5C4349.97,1211.91 4350.97,1212.57 4352.5,1212.5C4355.5,1214.83 4358.17,1217.5 4360.5,1220.5C4362.26,1221.26 4363.26,1222.6 4363.5,1224.5C4364.17,1224.5 4364.5,1224.83 4364.5,1225.5C4365.91,1225.97 4366.57,1226.97 4366.5,1228.5C4367.49,1228.33 4368.16,1228.66 4368.5,1229.5C4370.26,1230.26 4371.26,1231.6 4371.5,1233.5C4373.01,1235.18 4374.01,1237.18 4374.5,1239.5C4375.91,1239.97 4376.57,1240.97 4376.5,1242.5C4377.91,1242.97 4378.57,1243.97 4378.5,1245.5C4379.91,1245.97 4380.57,1246.97 4380.5,1248.5C4383.38,1253.34 4384.71,1258.67 4384.5,1264.5C4385.82,1273.74 4385.82,1283.07 4384.5,1292.5C4384.32,1294.59 4384.65,1296.59 4385.5,1298.5C4385.01,1300.03 4384.34,1301.36 4383.5,1302.5C4383.78,1304.41 4383.45,1306.08 4382.5,1307.5C4382.34,1316.15 4381,1324.48 4378.5,1332.5C4376.34,1342.66 4373,1352.33 4368.5,1361.5C4368.6,1363.55 4367.93,1365.22 4366.5,1366.5C4364.83,1374.17 4361.83,1381.17 4357.5,1387.5C4354.6,1395.62 4350.94,1403.29 4346.5,1410.5C4344.62,1416.6 4341.95,1422.26 4338.5,1427.5C4333.83,1436.86 4328.16,1445.53 4321.5,1453.5C4318.18,1458.15 4314.51,1462.49 4310.5,1466.5C4303.52,1476.81 4294.85,1485.48 4284.5,1492.5C4281.91,1493.42 4279.91,1495.09 4278.5,1497.5C4275.42,1500.55 4272.09,1503.39 4268.5,1506C4254.12,1514.52 4239.46,1522.52 4224.5,1530C4217.33,1532.56 4209.99,1534.39 4202.5,1535.5C4199.74,1536.76 4196.74,1537.59 4193.5,1538C4183.32,1538.69 4173.15,1539.52 4163,1540.5C4152.77,1540.39 4142.94,1538.72 4133.5,1535.5C4110.51,1529.83 4089.51,1520.17 4070.5,1506.5C4059.9,1499.23 4050.23,1490.9 4041.5,1481.5C4036.43,1476.38 4032.6,1470.38 4030,1463.5C4027.21,1454.32 4025.04,1444.99 4023.5,1435.5C4021.44,1423.6 4020.44,1411.6 4020.5,1399.5ZM2233.5,1551.5C2227.36,1541.55 2222.53,1530.88 2219,1519.5C2207.11,1482.05 2202.94,1444.05 2206.5,1405.5C2206.65,1401.61 2207.31,1397.95 2208.5,1394.5C2208.32,1390.88 2208.99,1387.54 2210.5,1384.5C2211.29,1377.83 2212.96,1371.5 2215.5,1365.5C2221.27,1349.96 2228.6,1335.29 2237.5,1321.5C2237.43,1319.97 2238.09,1318.97 2239.5,1318.5C2242.06,1312.95 2245.39,1307.95 2249.5,1303.5C2249.43,1301.97 2250.09,1300.97 2251.5,1300.5C2251.5,1299.83 2251.83,1299.5 2252.5,1299.5C2252.43,1297.97 2253.09,1296.97 2254.5,1296.5C2257.46,1291.87 2261.12,1287.87 2265.5,1284.5C2265.97,1283.09 2266.97,1282.43 2268.5,1282.5C2268.83,1281.5 2269.5,1280.83 2270.5,1280.5C2271.26,1278.74 2272.6,1277.74 2274.5,1277.5C2296.53,1260.16 2321.53,1248.66 2349.5,1243C2360.48,1241.78 2371.48,1240.95 2382.5,1240.5C2384.68,1239.73 2387.02,1239.07 2389.5,1238.5C2390.11,1238.62 2390.44,1238.96 2390.5,1239.5C2415.52,1239.27 2440.19,1242.1 2464.5,1248C2473.45,1251.81 2482.11,1256.14 2490.5,1261C2494.27,1262.61 2497.27,1265.11 2499.5,1268.5C2499.97,1269.91 2500.97,1270.57 2502.5,1270.5C2509.25,1275.91 2514.92,1282.25 2519.5,1289.5C2520.91,1289.97 2521.57,1290.97 2521.5,1292.5C2522.17,1292.5 2522.5,1292.83 2522.5,1293.5C2523.91,1293.97 2524.57,1294.97 2524.5,1296.5C2525.91,1296.97 2526.57,1297.97 2526.5,1299.5C2538.15,1316.8 2547.15,1335.46 2553.5,1355.5C2554.91,1355.97 2555.57,1356.97 2555.5,1358.5C2557.29,1360.43 2558.29,1362.76 2558.5,1365.5C2559.93,1366.78 2560.6,1368.45 2560.5,1370.5C2561.4,1371.21 2561.74,1372.21 2561.5,1373.5C2563.07,1375.1 2563.74,1377.1 2563.5,1379.5C2564.4,1380.21 2564.74,1381.21 2564.5,1382.5C2566.04,1384.84 2566.71,1387.5 2566.5,1390.5C2567.99,1394.26 2568.99,1398.26 2569.5,1402.5C2570.77,1404.91 2571.43,1407.57 2571.5,1410.5C2573.37,1415.21 2574.37,1420.21 2574.5,1425.5C2575.44,1430.07 2575.77,1434.74 2575.5,1439.5C2576.17,1444.32 2576.5,1449.32 2576.5,1454.5C2576.7,1461.74 2576.03,1468.74 2574.5,1475.5C2574.12,1481.51 2572.78,1487.17 2570.5,1492.5C2570.74,1493.79 2570.4,1494.79 2569.5,1495.5C2569.18,1500.46 2567.52,1504.8 2564.5,1508.5C2564.21,1511.75 2562.87,1514.42 2560.5,1516.5C2560.67,1517.49 2560.34,1518.16 2559.5,1518.5C2559.57,1520.03 2558.91,1521.03 2557.5,1521.5C2556.56,1524.11 2554.89,1526.11 2552.5,1527.5C2551.83,1530.17 2550.17,1531.83 2547.5,1532.5C2544.37,1536.13 2541.04,1539.63 2537.5,1543C2530.31,1548.09 2522.98,1552.93 2515.5,1557.5C2515.03,1558.91 2514.03,1559.57 2512.5,1559.5C2500.17,1567.12 2487.5,1574.29 2474.5,1581C2466.29,1584.79 2457.95,1588.29 2449.5,1591.5C2449.03,1592.91 2448.03,1593.57 2446.5,1593.5C2435.03,1600.5 2422.7,1605.66 2409.5,1609C2390.37,1613.11 2371.04,1615.61 2351.5,1616.5C2349.41,1616.43 2347.41,1616.09 2345.5,1615.5C2339.01,1615.83 2332.67,1615 2326.5,1613C2316.99,1610.06 2307.65,1606.9 2298.5,1603.5C2290.41,1600.62 2282.74,1596.95 2275.5,1592.5C2273.21,1592.41 2271.21,1591.74 2269.5,1590.5C2255.05,1581.38 2243.71,1569.38 2235.5,1554.5C2234.09,1554.03 2233.43,1553.03 2233.5,1551.5ZM3790.5,2660.5C3790.39,2659.88 3790.06,2659.38 3789.5,2659C3790.65,2654.11 3791.32,2649.11 3791.5,2644C3790.41,2614.5 3790.41,2585 3791.5,2555.5C3791.33,2548.16 3791.5,2540.83 3792,2533.5C3796.61,2501.91 3800.44,2470.36 3803.47,2438.86C3803.48,2438.74 3803.49,2438.62 3803.5,2438.5C3803.72,2431.16 3804.06,2423.83 3804.5,2416.5C3805.36,2406.83 3805.02,2397.16 3803.5,2387.5C3806.53,2337.54 3809.03,2287.54 3811,2237.5C3811.85,2231.07 3813.02,2224.73 3814.5,2218.5C3818.8,2185.65 3825.14,2153.32 3833.5,2121.5C3837.3,2103.86 3840.96,2086.19 3844.5,2068.5C3846.92,2053.42 3849.59,2038.42 3852.5,2023.5C3855.47,2007.97 3858.8,1992.63 3862.5,1977.5C3864.88,1954.58 3869.55,1932.24 3876.5,1910.5C3879.9,1894.91 3883.9,1879.57 3888.5,1864.5C3891.23,1850.06 3893.9,1835.73 3896.5,1821.5C3896.96,1815.94 3897.96,1810.61 3899.5,1805.5C3900.2,1798.59 3901.54,1791.92 3903.5,1785.5C3906.63,1770.02 3909.96,1754.68 3913.5,1739.5C3913.72,1734.96 3914.72,1730.63 3916.5,1726.5C3917.39,1719.53 3919.05,1712.87 3921.5,1706.5C3923.86,1695.44 3927.19,1684.77 3931.5,1674.5C3933.32,1668.86 3935.66,1663.53 3938.5,1658.5C3942.17,1650.48 3946.84,1643.15 3952.5,1636.5C3956.82,1629.21 3961.65,1622.21 3967,1615.5C3971.76,1610.23 3976.93,1605.57 3982.5,1601.5C3993.56,1592.3 4005.89,1585.13 4019.5,1580C4025.28,1578.79 4031.11,1577.96 4037,1577.5C4048.22,1578.64 4059.38,1580.14 4070.5,1582C4082.58,1585.64 4094.58,1589.14 4106.5,1592.5C4109.57,1592.55 4112.57,1593.05 4115.5,1594C4131.83,1599.67 4148.17,1605.33 4164.5,1611C4171.45,1613.14 4177.79,1616.31 4183.5,1620.5C4190.78,1624.14 4197.78,1628.31 4204.5,1633C4206.04,1634.37 4207.37,1635.87 4208.5,1637.5C4214.98,1641.91 4221.31,1646.58 4227.5,1651.5C4237.06,1659.72 4244.73,1669.39 4250.5,1680.5C4254.92,1686.33 4258.59,1692.67 4261.5,1699.5C4265.78,1702.72 4269.11,1706.72 4271.5,1711.5C4276.16,1719.48 4281.33,1727.15 4287,1734.5C4288.45,1737.07 4289.62,1739.74 4290.5,1742.5C4294.34,1749.67 4297,1757.34 4298.5,1765.5C4299.6,1767.28 4300.43,1769.28 4301,1771.5C4302.21,1778.51 4303.38,1785.51 4304.5,1792.5C4308.32,1800.96 4309.99,1809.96 4309.5,1819.5C4311.34,1828.27 4312.34,1837.27 4312.5,1846.5C4313.66,1851.63 4314.33,1856.97 4314.5,1862.5C4315.8,1874.25 4315.83,1886 4314.58,1897.75C4314.57,1897.99 4314.55,1898.24 4314.5,1898.5C4314.83,1907.02 4314.49,1915.35 4313.5,1923.5C4312.32,1937.66 4310.99,1951.66 4309.5,1965.5C4309.22,1971.02 4308.55,1976.35 4307.5,1981.5C4307.81,1984.71 4307.48,1987.71 4306.5,1990.5C4305.72,2009.64 4302.72,2028.31 4297.5,2046.5C4296.41,2054.19 4294.41,2061.52 4291.5,2068.5C4290.28,2074.4 4288.61,2080.07 4286.5,2085.5C4275.55,2117.37 4265.22,2149.37 4255.5,2181.5C4251.31,2196.9 4246.81,2212.24 4242,2227.5C4235.54,2240.54 4230.88,2254.21 4228,2268.5C4224.12,2280.07 4219.95,2291.4 4215.5,2302.5C4207.46,2323.93 4199.96,2345.6 4193,2367.5C4189.72,2376.37 4186.22,2385.04 4182.5,2393.5C4167.65,2436.22 4152.48,2478.89 4137,2521.5C4132.34,2534.8 4129.34,2548.47 4128,2562.5C4120.88,2593.37 4112.04,2623.7 4101.5,2653.5C4099.03,2661.75 4095.86,2669.75 4092,2677.5C4085.53,2704.4 4077.37,2730.73 4067.5,2756.5C4062.83,2770.18 4058.16,2783.85 4053.5,2797.5C4045.59,2825.31 4034.42,2851.64 4020,2876.5C4017.35,2880.97 4014.18,2884.97 4010.5,2888.5C3992.06,2913.27 3968.06,2930.27 3938.5,2939.5C3932.54,2942.07 3926.21,2943.57 3919.5,2944C3902.78,2945.56 3886.45,2943.89 3870.5,2939C3853.15,2929.98 3839.32,2917.15 3829,2900.5C3825.9,2894.63 3823.06,2888.63 3820.5,2882.5C3807.63,2852.01 3798.96,2820.34 3794.5,2787.5C3792.54,2768.7 3791.2,2749.7 3790.5,2730.5C3789.51,2707.06 3789.51,2683.73 3790.5,2660.5ZM3091.5,1826.5C3091.17,1816.32 3091.51,1806.32 3092.5,1796.5C3093.19,1780.84 3093.52,1765.18 3093.5,1749.5C3092.43,1736.67 3092.76,1724 3094.5,1711.5C3093.05,1700.22 3093.38,1688.89 3095.5,1677.5C3095.38,1660.98 3096.05,1644.64 3097.5,1628.5C3097.57,1618.82 3097.91,1609.16 3098.5,1599.5C3096.9,1588.72 3097.24,1578.06 3099.5,1567.5C3099.76,1556.83 3100.09,1546.16 3100.5,1535.5C3100.06,1535.57 3099.73,1535.4 3099.5,1535C3100.14,1530.07 3100.81,1525.23 3101.5,1520.5L3101.5,1517.5C3101.86,1508.79 3101.86,1500.13 3101.5,1491.5C3102.39,1482.67 3103.39,1474.01 3104.5,1465.5C3104.19,1462.29 3104.52,1459.29 3105.5,1456.5C3104.81,1448.99 3106.14,1441.99 3109.5,1435.5C3109.69,1432.14 3110.69,1429.14 3112.5,1426.5C3113.98,1422.2 3115.48,1417.86 3117,1413.5C3117.38,1412.06 3118.21,1411.06 3119.5,1410.5C3119.66,1408.85 3120.33,1407.51 3121.5,1406.5C3121.55,1403.39 3122.89,1401.05 3125.5,1399.5C3126.41,1396.01 3128.08,1393.01 3130.5,1390.5C3131.43,1387.63 3133.1,1385.3 3135.5,1383.5C3135.74,1381.6 3136.74,1380.26 3138.5,1379.5C3139.76,1376.57 3141.76,1374.24 3144.5,1372.5C3145.42,1369.91 3147.09,1367.91 3149.5,1366.5C3149.5,1365.17 3150.17,1364.5 3151.5,1364.5C3155.89,1359.11 3160.89,1354.44 3166.5,1350.5C3176.67,1340.91 3188.34,1333.57 3201.5,1328.5C3202.91,1326.46 3204.91,1325.46 3207.5,1325.5C3211.64,1322.43 3216.31,1320.43 3221.5,1319.5C3224.8,1317.36 3228.47,1316.02 3232.5,1315.5C3234.51,1314.08 3236.85,1313.41 3239.5,1313.5C3252.53,1310.44 3265.87,1308.44 3279.5,1307.5C3294.88,1308.17 3310.22,1309.34 3325.5,1311C3337.86,1313.84 3350.19,1316 3362.5,1317.5C3365.78,1317.42 3368.78,1318.09 3371.5,1319.5C3373.41,1319.22 3375.08,1319.55 3376.5,1320.5C3385.64,1321.54 3394.64,1323.37 3403.5,1326C3416.62,1330.24 3429.62,1334.41 3442.5,1338.5C3445.15,1338.41 3447.49,1339.08 3449.5,1340.5C3457.12,1342.59 3464.45,1345.26 3471.5,1348.5C3474.54,1348.73 3477.21,1349.73 3479.5,1351.5C3480.79,1351.26 3481.79,1351.6 3482.5,1352.5C3486.89,1353.4 3490.89,1355.07 3494.5,1357.5C3495.49,1357.33 3496.16,1357.66 3496.5,1358.5C3512.27,1364.55 3526.61,1372.88 3539.5,1383.5C3546.5,1388.5 3552.5,1394.5 3557.5,1401.5C3559.54,1402.58 3560.88,1404.25 3561.5,1406.5C3563.59,1407.58 3564.92,1409.25 3565.5,1411.5C3568.28,1413.95 3570.28,1416.95 3571.5,1420.5C3572.91,1420.97 3573.57,1421.97 3573.5,1423.5C3574.91,1423.97 3575.57,1424.97 3575.5,1426.5C3577.01,1428.18 3578.01,1430.18 3578.5,1432.5C3583.26,1439.69 3587.26,1447.35 3590.5,1455.5C3591.34,1455.84 3591.67,1456.51 3591.5,1457.5C3592.74,1459.21 3593.41,1461.21 3593.5,1463.5C3596.26,1468.88 3598.26,1474.55 3599.5,1480.5C3600.93,1481.78 3601.6,1483.45 3601.5,1485.5C3603.07,1488.22 3604.07,1491.22 3604.5,1494.5C3607.47,1500.09 3609.47,1506.09 3610.5,1512.5C3611.93,1513.78 3612.6,1515.45 3612.5,1517.5C3613.4,1518.21 3613.74,1519.21 3613.5,1520.5C3615.45,1526.98 3617.12,1533.65 3618.5,1540.5C3619.46,1545.66 3620.13,1550.99 3620.5,1556.5C3622.26,1561.55 3622.93,1566.89 3622.5,1572.5C3623.49,1578.32 3624.16,1584.32 3624.5,1590.5C3625.4,1593.39 3625.74,1596.39 3625.5,1599.5C3626.49,1604.64 3626.82,1609.97 3626.5,1615.5C3626.99,1622.78 3626.99,1630.11 3626.5,1637.5C3627.5,1649.66 3627.83,1661.99 3627.5,1674.5C3628.91,1683.63 3629.58,1692.96 3629.5,1702.5L3629.5,1706.5C3630.49,1713.65 3630.82,1720.98 3630.5,1728.5C3630.61,1729.84 3630.65,1731.15 3630.61,1732.43C3630.79,1740.06 3630.76,1747.75 3630.5,1755.5C3630.18,1766.34 3629.51,1777.01 3628.5,1787.5C3628.82,1793.69 3628.49,1799.69 3627.5,1805.5L3627.5,1807.5C3626.91,1821.01 3625.91,1834.35 3624.5,1847.5C3623.98,1855.7 3622.98,1863.7 3621.5,1871.5C3620.56,1881.19 3619.56,1890.86 3618.5,1900.5C3618.56,1905.2 3618.23,1909.87 3617.5,1914.5C3617.47,1930.54 3617.47,1946.38 3617.5,1962C3616.86,1965.6 3616.2,1969.1 3615.5,1972.5C3614.42,1984.55 3613.42,1996.55 3612.5,2008.5C3611.72,2021.32 3610.72,2033.99 3609.5,2046.5C3607.89,2062.48 3606.39,2078.48 3605,2094.5C3604,2097.91 3603.17,2101.24 3602.5,2104.5C3601.31,2116.76 3599.31,2128.76 3596.5,2140.5C3595.64,2152.03 3594.31,2163.36 3592.5,2174.5C3590.68,2186.91 3589.01,2199.25 3587.5,2211.5C3585.53,2238.68 3581.19,2265.34 3574.5,2291.5C3568.33,2318.64 3562,2345.64 3555.5,2372.5C3546.01,2415.12 3534.68,2457.12 3521.5,2498.5C3514.31,2524.25 3506.81,2549.91 3499,2575.5C3493.85,2587.95 3488.52,2600.28 3483,2612.5C3478.98,2620.56 3474.48,2628.23 3469.5,2635.5C3462.59,2646.97 3455.43,2658.31 3448,2669.5C3446.38,2671.76 3444.55,2673.76 3442.5,2675.5C3422.51,2700.21 3399.51,2721.54 3373.5,2739.5C3357.35,2749.41 3340.68,2758.58 3323.5,2767C3302.59,2775.09 3281.93,2774.76 3261.5,2766C3247.54,2758.7 3234.71,2749.86 3223,2739.5C3217.17,2733.17 3212.34,2726.17 3208.5,2718.5C3197.57,2687.04 3187.24,2655.37 3177.5,2623.5C3173.29,2612.52 3170.29,2601.19 3168.5,2589.5C3164.74,2577.12 3161.57,2564.45 3159,2551.5C3153.9,2515.96 3147.73,2480.63 3140.5,2445.5C3137.04,2433.38 3133.87,2421.05 3131,2408.5C3127.1,2379.1 3121.27,2350.1 3113.5,2321.5C3110.41,2307.69 3108.74,2293.69 3108.5,2279.5C3105.17,2251.58 3101.34,2223.58 3097,2195.5C3096.5,2190.51 3096.33,2185.51 3096.5,2180.5C3096.08,2171.17 3095.74,2161.84 3095.5,2152.5C3094.56,2139.87 3094.22,2127.2 3094.5,2114.5C3093.83,2102.84 3093.17,2091.17 3092.5,2079.5C3092.5,2075.32 3092.83,2071.32 3093.5,2067.5C3092.83,2052.17 3092.17,2036.83 3091.5,2021.5L3091.5,1992.5C3091.6,1976.49 3091.94,1960.49 3092.5,1944.5C3091.2,1928.36 3091.2,1912.36 3092.5,1896.5C3092.01,1887.29 3091.67,1877.29 3091.5,1866.5L3091.5,1826.5ZM1541.5,2241.5C1538.09,2231.13 1536.09,2220.47 1535.5,2209.5C1536.15,2195.93 1536.48,2182.26 1536.5,2168.5C1536.36,2162.46 1536.69,2156.46 1537.5,2150.5C1537.57,2147.57 1538.23,2144.91 1539.5,2142.5C1539.91,2134.21 1541.57,2126.21 1544.5,2118.5C1544.11,2115.45 1544.78,2112.78 1546.5,2110.5C1546.4,2108.45 1547.07,2106.78 1548.5,2105.5C1548.33,2104.51 1548.66,2103.84 1549.5,2103.5C1549.71,2100.76 1550.71,2098.43 1552.5,2096.5C1552.33,2095.51 1552.66,2094.84 1553.5,2094.5C1553.43,2092.97 1554.09,2091.97 1555.5,2091.5C1556.41,2088.01 1558.08,2085.01 1560.5,2082.5C1560.43,2080.97 1561.09,2079.97 1562.5,2079.5C1562.74,2077.6 1563.74,2076.26 1565.5,2075.5C1565.43,2073.97 1566.09,2072.97 1567.5,2072.5C1567.74,2070.6 1568.74,2069.26 1570.5,2068.5C1572.5,2064.5 1575.5,2061.5 1579.5,2059.5C1580.58,2057.41 1582.25,2056.08 1584.5,2055.5C1585.44,2054.03 1586.77,2053.03 1588.5,2052.5C1588.97,2051.09 1589.97,2050.43 1591.5,2050.5C1592.9,2049.11 1594.57,2048.11 1596.5,2047.5C1596.97,2046.09 1597.97,2045.43 1599.5,2045.5C1601.18,2043.99 1603.18,2042.99 1605.5,2042.5C1611.58,2038.13 1618.25,2034.79 1625.5,2032.5C1640.86,2023.49 1657.53,2018.49 1675.5,2017.5C1685.28,2015.79 1695.28,2015.13 1705.5,2015.5C1728.85,2013.44 1750.85,2017.77 1771.5,2028.5C1772.71,2028.93 1773.71,2029.6 1774.5,2030.5C1776.03,2030.43 1777.03,2031.09 1777.5,2032.5C1782.11,2034.47 1786.44,2036.97 1790.5,2040C1794.39,2043.43 1798.39,2046.59 1802.5,2049.5C1803.17,2049.5 1803.5,2049.83 1803.5,2050.5C1805.03,2050.43 1806.03,2051.09 1806.5,2052.5C1819.26,2061.26 1829.59,2072.26 1837.5,2085.5C1840.13,2088.08 1842.3,2091.08 1844,2094.5C1845.41,2096.65 1846.24,2098.98 1846.5,2101.5C1848.1,2102.29 1848.77,2103.62 1848.5,2105.5C1850.19,2107.9 1851.53,2110.56 1852.5,2113.5C1854.1,2114.29 1854.77,2115.62 1854.5,2117.5C1856.31,2120.14 1857.31,2123.14 1857.5,2126.5C1859.1,2127.29 1859.77,2128.62 1859.5,2130.5C1860.93,2133.3 1861.59,2136.3 1861.5,2139.5C1862.45,2140.92 1862.78,2142.59 1862.5,2144.5C1864.04,2146.84 1864.71,2149.5 1864.5,2152.5C1866.04,2157.61 1867.04,2162.94 1867.5,2168.5C1869.78,2181.32 1871.78,2194.32 1873.5,2207.5C1874.17,2211.65 1874.5,2215.99 1874.5,2220.5C1874.63,2227.72 1873.96,2234.72 1872.5,2241.5C1871.29,2251.7 1869.13,2261.7 1866,2271.5C1861.67,2280.83 1857.33,2290.17 1853,2299.5C1850.39,2303.74 1847.56,2307.74 1844.5,2311.5C1838.74,2318.76 1832.41,2325.6 1825.5,2332C1812.32,2341.76 1799.32,2351.76 1786.5,2362C1776.76,2367.58 1766.76,2372.58 1756.5,2377C1750.44,2377.98 1744.44,2379.15 1738.5,2380.5C1728.25,2382.04 1718.09,2383.04 1708,2383.5C1697.6,2381.84 1687.1,2380.68 1676.5,2380C1673.26,2379.59 1670.26,2378.76 1667.5,2377.5C1653.08,2374.67 1639.41,2370 1626.5,2363.5C1612.07,2356.07 1600.07,2345.74 1590.5,2332.5C1587.9,2330.4 1585.4,2328.07 1583,2325.5C1577,2315.35 1570.84,2305.35 1564.5,2295.5C1554.63,2278.43 1546.96,2260.43 1541.5,2241.5ZM2310.5,1906.5C2308.4,1889.28 2306.74,1871.95 2305.5,1854.5C2305.5,1851.97 2305.84,1849.64 2306.5,1847.5C2306.33,1842.49 2306.5,1837.49 2307,1832.5C2308.67,1827.83 2310.33,1823.17 2312,1818.5C2316.91,1809.69 2321.57,1800.69 2326,1791.5C2328.18,1789.09 2330.35,1786.76 2332.5,1784.5C2341.96,1766.52 2354.63,1751.02 2370.5,1738C2385.01,1727.91 2399.34,1717.58 2413.5,1707C2429.47,1697.35 2445.47,1687.68 2461.5,1678C2483.76,1657.21 2510.09,1645.04 2540.5,1641.5C2564.24,1643.09 2586.57,1649.09 2607.5,1659.5C2621.74,1666.26 2632.41,1676.59 2639.5,1690.5C2640.91,1690.97 2641.57,1691.97 2641.5,1693.5C2645.23,1699.24 2648.56,1705.24 2651.5,1711.5C2655.92,1717.33 2659.59,1723.67 2662.5,1730.5C2663.91,1730.97 2664.57,1731.97 2664.5,1733.5C2665.67,1734.51 2666.34,1735.85 2666.5,1737.5C2670.91,1743.3 2674.57,1749.64 2677.5,1756.5C2678.67,1757.51 2679.34,1758.85 2679.5,1760.5C2680.91,1760.97 2681.57,1761.97 2681.5,1763.5C2684.26,1766.68 2686.26,1770.35 2687.5,1774.5C2691.14,1782.08 2693.8,1790.08 2695.5,1798.5C2697.07,1800.1 2697.74,1802.1 2697.5,1804.5C2699.1,1808.24 2700.1,1812.24 2700.5,1816.5C2702.58,1822.56 2703.91,1828.89 2704.5,1835.5C2706.26,1840.23 2707.26,1845.23 2707.5,1850.5C2709.14,1857.32 2710.47,1864.32 2711.5,1871.5C2713.13,1876.59 2714.13,1881.92 2714.5,1887.5C2715.46,1889.26 2715.79,1891.26 2715.5,1893.5C2716.53,1895.96 2717.2,1898.63 2717.5,1901.5C2718.99,1905.24 2719.66,1909.24 2719.5,1913.5C2720.45,1914.92 2720.78,1916.59 2720.5,1918.5C2721.81,1923.62 2722.47,1928.95 2722.5,1934.5C2723.27,1935.26 2723.77,1936.26 2724,1937.5C2724.5,1943.51 2725,1949.51 2725.5,1955.5C2727.15,1960.58 2728.15,1965.91 2728.5,1971.5C2730.26,1980.36 2731.92,1989.36 2733.5,1998.5C2735.1,2005 2736.43,2011.67 2737.5,2018.5C2738.46,2020.26 2738.79,2022.26 2738.5,2024.5C2740.03,2031 2741.37,2037.67 2742.5,2044.5C2743.9,2048.59 2744.56,2052.92 2744.5,2057.5C2746.25,2061.18 2746.92,2065.18 2746.5,2069.5C2748.15,2077.99 2749.48,2086.65 2750.5,2095.5C2752.13,2100.59 2753.13,2105.92 2753.5,2111.5C2755.59,2125.28 2756.93,2139.28 2757.5,2153.5C2758.48,2156.96 2758.81,2160.63 2758.5,2164.5C2760.49,2176.29 2761.82,2188.29 2762.5,2200.5C2764.88,2211.58 2766.55,2222.91 2767.5,2234.5C2768.04,2241.58 2769.04,2248.58 2770.5,2255.5C2770.89,2260.22 2771.56,2264.89 2772.5,2269.5C2774.48,2282.76 2775.82,2296.09 2776.5,2309.5C2777.78,2325.12 2779.78,2340.79 2782.5,2356.5C2784.66,2369.76 2786.32,2383.09 2787.5,2396.5L2787.5,2406.5C2788.48,2426.59 2789.15,2446.59 2789.5,2466.5C2789.42,2473.86 2789.75,2481.19 2790.5,2488.5C2790.45,2505.66 2790.45,2522.66 2790.5,2539.5C2788.6,2574.63 2788.26,2609.96 2789.5,2645.5C2790.06,2673.42 2791.39,2701.26 2793.5,2729C2792.94,2729.38 2792.61,2729.88 2792.5,2730.5C2796.08,2767.95 2792.91,2804.95 2783,2841.5C2779.26,2853.65 2774.42,2865.32 2768.5,2876.5C2760.91,2890.93 2750.58,2903.09 2737.5,2913C2725.25,2921.57 2712.25,2928.9 2698.5,2935C2683.62,2941.25 2668.28,2942.75 2652.5,2939.5C2641.64,2936.9 2631.64,2932.4 2622.5,2926C2596.63,2902.15 2577.13,2873.98 2564,2841.5C2555.7,2817.24 2547.7,2792.91 2540,2768.5C2530.91,2744.98 2521.24,2721.64 2511,2698.5C2503.33,2676.14 2495.66,2653.81 2488,2631.5C2487.05,2628.57 2486.55,2625.57 2486.5,2622.5C2484.54,2614.94 2482.54,2607.27 2480.5,2599.5C2473.17,2578.21 2465.83,2556.88 2458.5,2535.5C2454.91,2524.43 2451.74,2513.09 2449,2501.5C2443.97,2488.86 2440.14,2475.86 2437.5,2462.5C2433.45,2445.59 2429.78,2428.59 2426.5,2411.5C2423.11,2395.68 2418.11,2380.34 2411.5,2365.5C2407.31,2353.05 2403.98,2340.39 2401.5,2327.5C2397.94,2312.26 2394.94,2296.92 2392.5,2281.5C2389.64,2271.7 2387.64,2261.7 2386.5,2251.5C2382.56,2238.42 2379.23,2225.09 2376.5,2211.5C2371.92,2199.2 2368.25,2186.53 2365.5,2173.5C2364.22,2168.49 2362.55,2163.49 2360.5,2158.5C2360.62,2157.89 2360.96,2157.56 2361.5,2157.5C2359.91,2154.05 2358.91,2150.39 2358.5,2146.5C2355.8,2136.7 2353.47,2126.7 2351.5,2116.5C2347.92,2106.84 2345.25,2096.84 2343.5,2086.5C2341.42,2080.44 2340.09,2074.11 2339.5,2067.5C2337.9,2063.08 2336.9,2058.41 2336.5,2053.5C2332.96,2041.81 2330.29,2029.81 2328.5,2017.5C2325.87,2004.97 2323.87,1992.3 2322.5,1979.5C2320.07,1965.37 2318.07,1951.03 2316.5,1936.5L2316.5,1935.5C2315.51,1930.95 2314.51,1926.28 2313.5,1921.5C2311.37,1916.85 2310.37,1911.85 2310.5,1906.5ZM1677.5,2633.5C1673.55,2619.02 1672.55,2604.36 1674.5,2589.5C1675.4,2581.52 1676.23,2573.52 1677,2565.5C1677.23,2564.26 1677.73,2563.26 1678.5,2562.5C1682.79,2551.71 1686.62,2540.71 1690,2529.5C1692.23,2524.26 1694.73,2519.26 1697.5,2514.5C1705.35,2501.32 1714.35,2488.99 1724.5,2477.5C1740.68,2456.82 1759.01,2438.32 1779.5,2422C1787.47,2415.03 1795.14,2407.7 1802.5,2400L1865.5,2355C1875.82,2350.34 1886.49,2346.67 1897.5,2344C1906.19,2342.81 1914.53,2343.97 1922.5,2347.5C1929.6,2348.89 1936.6,2350.72 1943.5,2353C1946.9,2354.36 1949.9,2356.19 1952.5,2358.5C1955.89,2359.53 1958.56,2361.53 1960.5,2364.5C1963.39,2365.88 1965.89,2367.88 1968,2370.5C1972.01,2375.21 1975.51,2380.21 1978.5,2385.5C1982.61,2389.95 1985.94,2394.95 1988.5,2400.5C1993.25,2406.32 1997.25,2412.65 2000.5,2419.5C2003.41,2423.66 2006.08,2427.99 2008.5,2432.5C2012.42,2438.66 2016.08,2445 2019.5,2451.5C2022.92,2455.32 2025.58,2459.66 2027.5,2464.5C2030,2467.36 2031.67,2470.69 2032.5,2474.5C2036.59,2479.66 2039.92,2485.33 2042.5,2491.5C2046.59,2497.35 2049.93,2503.68 2052.5,2510.5C2055.89,2515.23 2058.89,2520.23 2061.5,2525.5C2066.53,2532.22 2070.53,2539.55 2073.5,2547.5C2079.18,2555.52 2083.85,2564.19 2087.5,2573.5C2092.37,2582.06 2096.37,2591.06 2099.5,2600.5C2103.29,2607.09 2106.29,2614.09 2108.5,2621.5C2112.43,2630.53 2115.77,2639.87 2118.5,2649.5C2123.27,2659.46 2127.27,2669.79 2130.5,2680.5C2137.52,2694.89 2143.19,2709.89 2147.5,2725.5C2152.68,2742.53 2158.01,2759.53 2163.5,2776.5C2168.16,2787.15 2171.83,2798.15 2174.5,2809.5C2177.24,2816.87 2179.24,2824.54 2180.5,2832.5C2183.07,2838.89 2185.07,2845.56 2186.5,2852.5C2191.46,2868.67 2196.3,2885 2201,2901.5C2209.4,2938.22 2217.9,2974.88 2226.5,3011.5C2230.15,3023.77 2233.65,3036.1 2237,3048.5C2240.82,3068.95 2245.16,3089.28 2250,3109.5C2253.95,3133.1 2255.12,3156.76 2253.5,3180.5C2253.65,3187.29 2252.81,3193.95 2251,3200.5C2241.38,3224.58 2228.55,3246.75 2212.5,3267C2199.45,3278.86 2184.11,3285.86 2166.5,3288C2154.33,3288.83 2142.33,3288.66 2130.5,3287.5C2112.92,3284.69 2095.92,3279.86 2079.5,3273C2070.7,3267.36 2062.37,3261.19 2054.5,3254.5C2047.25,3249.42 2040.42,3243.76 2034,3237.5C2004.06,3204.9 1976.39,3170.57 1951,3134.5C1932.83,3106.16 1914.16,3078.16 1895,3050.5C1892.55,3046.61 1890.39,3042.61 1888.5,3038.5C1866.85,3006.54 1845.18,2974.54 1823.5,2942.5C1816.26,2932.35 1809.26,2922.01 1802.5,2911.5C1794.03,2902.56 1787.03,2892.56 1781.5,2881.5C1772.92,2868.68 1764.59,2855.68 1756.5,2842.5C1751.68,2835.53 1747.34,2828.2 1743.5,2820.5C1740.31,2815.45 1737.64,2810.12 1735.5,2804.5C1729.25,2795.32 1724.58,2785.32 1721.5,2774.5C1718.99,2770.13 1716.99,2765.47 1715.5,2760.5C1713.53,2758.57 1712.03,2756.24 1711,2753.5C1707.53,2744.24 1704.36,2734.91 1701.5,2725.5C1699.54,2722.82 1698.04,2719.82 1697,2716.5C1695.83,2710.49 1694.66,2704.49 1693.5,2698.5C1692.34,2695.73 1691.68,2692.73 1691.5,2689.5C1688.59,2682.11 1686.26,2674.44 1684.5,2666.5C1680.77,2655.91 1678.44,2644.91 1677.5,2633.5ZM5315.5,3524.5C5313.19,3521.9 5311.36,3518.9 5310,3515.5C5295.73,3481.82 5290.4,3446.82 5294,3410.5C5295.1,3387.66 5302.94,3367.66 5317.5,3350.5C5322.5,3343.5 5328.5,3337.5 5335.5,3332.5C5339.98,3327.35 5345.31,3323.35 5351.5,3320.5C5361.9,3312.63 5373.23,3306.3 5385.5,3301.5C5395.53,3296.27 5406.2,3292.6 5417.5,3290.5C5434.05,3285.85 5451.05,3283.52 5468.5,3283.5L5469.5,3283.5C5484.25,3282.06 5498.91,3282.73 5513.5,3285.5C5517.37,3285.19 5521.04,3285.52 5524.5,3286.5C5530.08,3286.87 5535.41,3287.87 5540.5,3289.5C5548.6,3290.77 5556.26,3293.1 5563.5,3296.5C5572.83,3299.16 5581.49,3303.16 5589.5,3308.5C5592.81,3310.48 5595.81,3312.82 5598.5,3315.5C5599.26,3317.26 5600.6,3318.26 5602.5,3318.5C5607.95,3322.61 5612.28,3327.61 5615.5,3333.5C5619.26,3336.93 5622.26,3340.93 5624.5,3345.5C5630.98,3353.47 5635.65,3362.47 5638.5,3372.5C5641.13,3376.38 5642.8,3380.71 5643.5,3385.5C5645.47,3388.08 5646.47,3391.08 5646.5,3394.5C5649.23,3399.74 5650.9,3405.41 5651.5,3411.5L5651.5,3412.5C5653.34,3416.17 5654.51,3420.17 5655,3424.5C5657.99,3446.88 5655.33,3468.55 5647,3489.5C5646.62,3490.94 5645.79,3491.94 5644.5,3492.5C5644.67,3493.49 5644.34,3494.16 5643.5,3494.5C5643.57,3496.03 5642.91,3497.03 5641.5,3497.5C5641.57,3499.03 5640.91,3500.03 5639.5,3500.5C5638.21,3503.12 5636.55,3505.45 5634.5,3507.5C5633.5,3507.83 5632.83,3508.5 5632.5,3509.5L5632.5,3510.5C5631.5,3512.17 5630.17,3513.5 5628.5,3514.5C5627.09,3514.97 5626.43,3515.97 5626.5,3517.5C5625.17,3519.5 5623.5,3521.17 5621.5,3522.5C5620.09,3522.97 5619.43,3523.97 5619.5,3525.5C5614.83,3530.83 5609.83,3535.83 5604.5,3540.5C5602.94,3540.73 5601.6,3541.4 5600.5,3542.5L5600.5,3543.5C5598.97,3543.43 5597.97,3544.09 5597.5,3545.5C5595.85,3547.33 5593.85,3548.66 5591.5,3549.5C5589.97,3549.43 5588.97,3550.09 5588.5,3551.5C5588.16,3552.34 5587.49,3552.67 5586.5,3552.5C5584.97,3552.43 5583.97,3553.09 5583.5,3554.5C5581.05,3555.23 5578.71,3556.23 5576.5,3557.5L5576.5,3558.5C5572.17,3561.67 5567.5,3564.34 5562.5,3566.5C5561.71,3568.1 5560.38,3568.77 5558.5,3568.5C5557.71,3570.1 5556.38,3570.77 5554.5,3570.5C5553.71,3572.1 5552.38,3572.77 5550.5,3572.5C5549.22,3573.93 5547.55,3574.6 5545.5,3574.5C5538.36,3577.46 5531.02,3580.13 5523.5,3582.5C5522.07,3583.54 5520.4,3584.2 5518.5,3584.5C5509.6,3588.31 5500.6,3591.98 5491.5,3595.5C5487.78,3597.41 5483.78,3598.74 5479.5,3599.5C5476.09,3600.9 5472.42,3601.57 5468.5,3601.5C5466.39,3602.47 5464.06,3602.8 5461.5,3602.5C5453.53,3604.27 5445.53,3604.6 5437.5,3603.5C5432.31,3603.82 5427.31,3603.49 5422.5,3602.5C5420.59,3602.78 5418.92,3602.45 5417.5,3601.5C5412.21,3601.37 5407.21,3600.37 5402.5,3598.5C5400.9,3598.77 5399.57,3598.43 5398.5,3597.5C5396.49,3596.08 5394.15,3595.41 5391.5,3595.5C5384.94,3593.88 5378.94,3591.22 5373.5,3587.5C5369.32,3585.91 5365.65,3583.58 5362.5,3580.5C5360.25,3579.92 5358.58,3578.59 5357.5,3576.5C5353.9,3574.57 5350.9,3571.9 5348.5,3568.5C5346.83,3566.17 5344.83,3564.17 5342.5,3562.5C5331.18,3551.51 5322.18,3538.84 5315.5,3524.5ZM4453.5,4030.5C4443.72,4013.93 4435.22,3996.6 4428,3978.5C4418.92,3952.65 4411.26,3926.32 4405,3899.5C4400.52,3866.09 4398.02,3832.59 4397.5,3799C4398.71,3783.11 4399.88,3766.95 4401,3750.5C4401.42,3746.61 4402.25,3742.94 4403.5,3739.5C4405.21,3729 4407.71,3718.66 4411,3708.5C4422.66,3684.5 4436.32,3661.84 4452,3640.5C4457.04,3635.3 4462.2,3630.3 4467.5,3625.5C4473.86,3619.14 4480.53,3613.14 4487.5,3607.5C4516.13,3581.2 4544.13,3554.2 4571.5,3526.5C4610.87,3490.51 4654.87,3461.17 4703.5,3438.5C4730.88,3423.14 4759.22,3409.31 4788.5,3397C4795.35,3394 4802.35,3391.5 4809.5,3389.5C4816.2,3386.2 4823.2,3383.37 4830.5,3381C4848.64,3376.4 4866.98,3372.9 4885.5,3370.5C4899.21,3367.25 4913.21,3364.92 4927.5,3363.5C4948.13,3360.87 4968.79,3358.54 4989.5,3356.5C5004.48,3354.29 5019.48,3352.12 5034.5,3350C5043.68,3349.18 5052.68,3349.34 5061.5,3350.5C5070.35,3350.17 5079.02,3350.51 5087.5,3351.5C5098.5,3351.31 5109.16,3352.65 5119.5,3355.5C5140.4,3362.09 5157.4,3374.09 5170.5,3391.5C5174.17,3394.33 5177.33,3397.67 5180,3401.5C5184.56,3409.39 5189.89,3416.73 5196,3423.5C5198.45,3427.39 5200.61,3431.39 5202.5,3435.5C5214.2,3455.61 5221.86,3476.94 5225.5,3499.5C5224.93,3522.72 5218.76,3544.38 5207,3564.5C5204.21,3569.77 5200.71,3574.44 5196.5,3578.5C5192.5,3584.5 5187.5,3589.5 5181.5,3593.5C5174.49,3600.51 5167.16,3607.17 5159.5,3613.5C5154.53,3618.14 5149.53,3622.81 5144.5,3627.5C5137.25,3634.46 5129.25,3640.46 5120.5,3645.5C5115.72,3649.73 5110.72,3653.73 5105.5,3657.5C5103.75,3659.25 5101.75,3660.58 5099.5,3661.5C5094.06,3666.6 5088.06,3670.93 5081.5,3674.5C5075.7,3679.57 5069.36,3683.91 5062.5,3687.5C5057.55,3691.65 5052.22,3695.31 5046.5,3698.5C5036.66,3704.92 5026.32,3710.59 5015.5,3715.5C5009.01,3719.91 5002.01,3723.58 4994.5,3726.5C4986.51,3731.16 4978.51,3735.83 4970.5,3740.5C4962.84,3746 4954.84,3751 4946.5,3755.5C4934.68,3763.91 4922.34,3771.58 4909.5,3778.5C4906.2,3782.16 4902.2,3784.82 4897.5,3786.5C4890.06,3791.4 4882.72,3796.57 4875.5,3802C4864.26,3813.41 4853.59,3825.24 4843.5,3837.5C4821.62,3864.03 4800.95,3891.36 4781.5,3919.5C4760.19,3948.32 4739.02,3977.32 4718,4006.5C4705.53,4020.63 4692.7,4034.47 4679.5,4048C4673.03,4053.74 4666.03,4058.74 4658.5,4063C4641.62,4070.71 4624.62,4078.21 4607.5,4085.5C4606.94,4086.79 4605.94,4087.62 4604.5,4088C4600.23,4089.79 4595.9,4091.29 4591.5,4092.5C4579.77,4097.47 4567.77,4101.97 4555.5,4106C4542.08,4107.49 4529.41,4105.32 4517.5,4099.5C4507.94,4096.78 4499.78,4091.78 4493,4084.5C4478.11,4067.71 4464.95,4049.71 4453.5,4030.5ZM4273.5,1133.5C4273.9,1132.47 4274.56,1132.31 4275.5,1133C4274.91,1133.46 4274.24,1133.63 4273.5,1133.5ZM4265.5,1689.5C4267.33,1690.14 4267.67,1691.14 4266.5,1692.5C4265.61,1691.68 4265.28,1690.68 4265.5,1689.5ZM5375.5,3594.5C5373.16,3594.5 5371.16,3593.66 5369.5,3592C5371.82,3591.99 5373.82,3592.83 5375.5,3594.5ZM5451.5,3607.5C5457.32,3607.35 5457.66,3608.01 5452.5,3609.5C5450.28,3609.56 5449.95,3608.89 5451.5,3607.5Z" style="fill:rgb(246,235,182);"/>
            </g>
        </g>
    </g>
</svg>
