<svg viewBox="0 0 15 14" xmlns="http://www.w3.org/2000/svg" fill-rule="evenodd" clip-rule="evenodd" stroke-linejoin="round" stroke-miterlimit="2"><g transform="translate(-20.208 -19.96)"><path fill="none" d="M20.208 19.96h15v13.615h-15z"/><clipPath id="prefix__a"><path d="M20.208 19.96h15v13.615h-15z"/></clipPath><g clip-path="url(#prefix__a)"><path d="M33.924 26.062l-2.577 1.02v-.578l1.862-.74-1.862-.742v-.583l2.577 1.025v.598zm-4.555 1.541h-.573l1.41-3.79h.578l-1.415 3.79zm-1.309-.556h-.74l-.467-1.76h-.01l-.447 1.76h-.746l-.832-2.623h.761l.482 1.78h.01l.437-1.78h.7l.446 1.775h.01l.482-1.775h.742l-.828 2.623zm-3.992-2.025l-1.862.741 1.862.74v.58l-2.577-1.02v-.599l2.577-1.025v.583zm10.54-1.774a5.46 5.46 0 00-1.63-1.802 7.654 7.654 0 00-2.385-1.108 10.652 10.652 0 00-2.886-.378 10.81 10.81 0 00-2.9.378c-.91.252-1.704.62-2.383 1.108a5.508 5.508 0 00-1.617 1.802c-.4.715-.6 1.535-.6 2.46 0 .927.2 1.746.6 2.461.4.714.938 1.315 1.617 1.802.679.487 1.473.856 2.383 1.108.912.252 1.878.377 2.9.377.263 0 .521-.008.776-.025l-.804 2.144 2.423-2.128.389-.341.102-.027c.901-.252 1.696-.62 2.384-1.108a5.453 5.453 0 001.631-1.802c.399-.715.6-1.534.6-2.46 0-.926-.201-1.746-.6-2.46" fill="#878787" fill-rule="nonzero"/></g></g></svg>