<svg width="100%" height="100%" viewBox="0 0 156 142" version="1.1" xmlns="http://www.w3.org/2000/svg" xml:space="preserve" style="fill-rule:evenodd;clip-rule:evenodd;stroke-linejoin:round;stroke-miterlimit:2;">
    <g transform="matrix(1,0,0,1,-204,-2844)">
        <g transform="matrix(1,0,0,7.20556,0,0)">
            <g id="button-bg" transform="matrix(0.976345,0,0,0.135499,346.046,405.579)">
                <path d="M7.471,-44.638C11.697,-37.069 13.823,-28.38 13.823,-18.575C13.823,-8.768 11.697,-0.088 7.471,7.487C3.238,15.048 -2.52,21.41 -9.797,26.564C-17.069,31.718 -25.475,35.616 -35.003,38.286C-35.336,38.379 -35.677,38.459 -36.011,38.547L-40.055,42.098L-65.572,64.502C-65.678,64.595 -65.834,64.604 -65.95,64.524C-66.066,64.444 -66.112,64.295 -66.063,64.163C-66.063,64.163 -57.762,42.032 -57.762,42.032C-60.296,42.188 -62.865,42.268 -65.475,42.268C-76.271,42.268 -86.478,40.943 -96.1,38.286C-105.724,35.616 -114.124,31.718 -121.296,26.563C-128.483,21.409 -134.185,15.047 -138.418,7.487C-142.648,-0.088 -144.77,-8.768 -144.77,-18.575C-144.77,-28.38 -142.648,-37.069 -138.418,-44.638C-134.185,-52.204 -128.483,-58.56 -121.296,-63.722C-114.124,-68.869 -105.724,-72.775 -96.1,-75.435C-86.478,-78.102 -76.271,-79.428 -65.475,-79.428C-54.682,-79.428 -44.521,-78.102 -35.003,-75.435C-25.475,-72.775 -17.069,-68.869 -9.797,-63.723C-2.52,-58.561 3.238,-52.205 7.471,-44.638ZM6.935,-44.338C2.746,-51.825 -2.952,-58.113 -10.153,-63.221C-17.369,-68.329 -25.713,-72.203 -35.169,-74.843C-44.635,-77.496 -54.74,-78.814 -65.475,-78.814C-76.213,-78.814 -86.366,-77.496 -95.936,-74.843C-105.486,-72.203 -113.822,-68.329 -120.938,-63.222C-128.049,-58.114 -133.693,-51.826 -137.882,-44.338C-142.062,-36.857 -144.156,-28.266 -144.156,-18.575C-144.156,-8.882 -142.062,-0.3 -137.882,7.187C-133.693,14.669 -128.049,20.963 -120.938,26.063C-113.822,31.178 -105.486,35.044 -95.936,37.694C-86.366,40.337 -76.213,41.654 -65.475,41.654C-62.716,41.654 -60.002,41.564 -57.327,41.388C-57.223,41.382 -57.123,41.428 -57.06,41.512C-56.998,41.596 -56.983,41.705 -57.019,41.803L-65.057,63.232L-40.461,41.636L-36.363,38.038C-36.327,38.007 -36.286,37.985 -36.24,37.972C-35.886,37.877 -35.523,37.793 -35.169,37.694C-25.713,35.044 -17.369,31.178 -10.153,26.062C-2.952,20.962 2.746,14.668 6.935,7.187C11.111,-0.3 13.209,-8.882 13.209,-18.575C13.209,-28.266 11.111,-36.857 6.935,-44.338Z"/>
            </g>
        </g>
    </g>
</svg>
