<svg width="100%" height="100%" viewBox="0 0 268 249" version="1.1" xmlns="http://www.w3.org/2000/svg" xml:space="preserve" style="fill-rule:evenodd;clip-rule:evenodd;stroke-linejoin:round;stroke-miterlimit:2;">
    <g transform="matrix(1,0,0,1,-1502,-5052)">
        <g transform="matrix(1,0,0,7.20556,0,0)">
            <g id="competenciesSectionBg" transform="matrix(1.49807,0,0,0.207904,1521.44,726.655)">
                <path d="M0,-4.95L8.025,-2.475L0,-0.001L-2.475,8.025L-4.949,-0.001L-12.975,-2.475L-4.949,-4.95L-2.475,-12.975L0,-4.95ZM14.525,8.025L16.057,12.993L21.025,14.525L16.057,16.057L14.525,21.025L12.993,16.057L8.025,14.525L12.993,12.993L14.525,8.025ZM25.068,-88.425L21.061,-101.418L8.068,-105.425L21.061,-109.432L25.068,-122.425L29.075,-109.432L42.068,-105.425L29.075,-101.418L25.068,-88.425ZM159.609,-65.34C163.81,-57.815 165.922,-49.175 165.922,-39.427C165.922,-29.677 163.81,-21.046 159.609,-13.516C155.398,-5.994 149.67,0.334 142.431,5.461C135.187,10.596 126.812,14.478 117.32,17.138C116.965,17.237 116.601,17.321 116.246,17.417L112.148,21.015L86.631,43.419L95.099,20.843C92.418,21.019 89.697,21.108 86.931,21.108C76.164,21.108 65.984,19.788 56.388,17.138C46.8,14.478 38.433,10.596 31.289,5.461C24.14,0.334 18.466,-5.994 14.256,-13.516C10.05,-21.046 7.943,-29.677 7.943,-39.427C7.943,-49.175 10.05,-57.815 14.256,-65.34C18.466,-72.867 24.14,-79.189 31.289,-84.324C38.433,-89.451 46.8,-93.341 56.388,-95.991C65.984,-98.651 76.164,-99.974 86.931,-99.974C97.695,-99.974 107.828,-98.651 117.32,-95.991C126.812,-93.341 135.187,-89.451 142.431,-84.324C149.67,-79.189 155.398,-72.867 159.609,-65.34ZM110.699,-33.911C116.275,-39.92 119.345,-47.747 119.345,-55.951C119.345,-73.524 105.595,-87.754 88.047,-88.345C78.795,-88.656 70.142,-85.128 63.709,-78.507C57.541,-72.158 54.281,-63.813 54.533,-55.008C54.757,-47.175 57.816,-39.69 63.144,-33.936C66.33,-30.494 68.357,-26.301 69.009,-21.8L69.23,-15.976L104.646,-15.976L104.84,-21.677C105.504,-26.266 107.529,-30.494 110.699,-33.911ZM87.857,-82.848C102.431,-82.357 113.845,-70.542 113.845,-55.951C113.845,-49.139 111.296,-42.64 106.668,-37.652C102.695,-33.369 100.171,-28.059 99.373,-22.293L99.33,-21.475L89.683,-21.475L89.683,-37.041L100.17,-55.204L95.406,-57.954L86.933,-43.28L78.46,-57.955L73.698,-55.204L84.183,-37.044L84.183,-21.475L74.525,-21.475L74.5,-22.15L74.476,-22.424C73.687,-28.094 71.166,-33.367 67.181,-37.671C62.757,-42.45 60.216,-48.662 60.031,-55.165C59.822,-62.472 62.529,-69.4 67.652,-74.673C72.785,-79.954 79.634,-82.864 86.941,-82.864C87.246,-82.864 87.548,-82.859 87.857,-82.848ZM127.378,-15.526L132.345,-17.059L127.378,-18.591L125.845,-23.559L124.313,-18.591L119.345,-17.059L124.313,-15.526L125.845,-10.559L127.378,-15.526ZM97.601,5.941L97.601,0.441L75.156,0.441L75.156,5.941L97.601,5.941ZM104.64,-5.059L104.64,-10.559L69.224,-10.559L69.224,-5.059L104.64,-5.059ZM145.32,-31.584L153.345,-34.059L145.32,-36.533L142.845,-44.559L140.371,-36.533L132.345,-34.059L140.371,-31.584L142.845,-23.559L145.32,-31.584Z" style="fill:rgb(135,135,135);"/>
            </g>
        </g>
    </g>
</svg>
