<svg width="100%" height="100%" viewBox="0 0 268 249" version="1.1" xmlns="http://www.w3.org/2000/svg" xml:space="preserve" style="fill-rule:evenodd;clip-rule:evenodd;stroke-linejoin:round;stroke-miterlimit:2;">
    <g transform="matrix(1,0,0,1,-1452,-1777)">
        <g transform="matrix(1,0,0,7.20556,0,0)">
            <g id="futureSectionBg" transform="matrix(1.49807,0,0,0.207905,1598.68,249.225)">
                <path d="M0,-7.266L-2.602,5.004L-5.965,5.004L-2.297,-12.27L1.488,-12.27L5.801,-0.211L8.367,-12.27L11.73,-12.27L8.063,5.004L4.453,5.004L0,-7.266ZM-84.936,105.206L-76.911,107.681L-84.936,110.155L-87.411,118.181L-89.885,110.155L-97.911,107.681L-89.885,105.206L-87.411,97.181L-84.936,105.206ZM-70.41,118.18L-68.877,123.148L-63.91,124.68L-68.877,126.212L-70.41,131.18L-71.941,126.212L-76.91,124.68L-71.941,123.148L-70.41,118.18ZM74.674,44.816C78.876,52.34 80.987,60.981 80.987,70.729C80.987,80.479 78.876,89.11 74.674,96.64C70.463,104.161 64.735,110.489 57.497,115.616C50.252,120.751 41.877,124.633 32.385,127.293C32.03,127.393 31.667,127.477 31.311,127.572L27.213,131.17L1.696,153.574L10.165,130.998C7.483,131.174 4.762,131.264 1.997,131.264C-8.771,131.264 -18.951,129.944 -28.546,127.293C-38.134,124.633 -46.501,120.751 -53.646,115.616C-60.794,110.489 -66.468,104.161 -70.679,96.64C-74.884,89.11 -76.992,80.479 -76.992,70.729C-76.992,60.981 -74.884,52.34 -70.679,44.816C-66.468,37.288 -60.794,30.966 -53.646,25.831C-46.501,20.704 -38.134,16.815 -28.546,14.164C-18.951,11.504 -8.771,10.182 1.997,10.182C12.76,10.182 22.893,11.504 32.385,14.164C41.877,16.815 50.252,20.704 57.497,25.831C64.735,30.966 70.463,37.288 74.674,44.816ZM40.397,108.883L25.174,80.089L56.331,70.484L25.174,60.878L40.397,32.083L11.604,47.306L1.997,16.151L-7.609,47.307L-36.402,32.082L-21.179,60.877L-52.337,70.484L-21.179,80.089L-36.402,108.884L-7.609,93.659L1.997,124.817L11.604,93.66L40.397,108.883ZM9.486,59.106L1.996,66.595L-5.494,59.106L1.996,34.817L9.486,59.106ZM13.375,62.995L37.662,70.484L13.375,77.974L5.885,70.484L13.375,62.995ZM-5.494,81.862L1.996,74.373L9.486,81.862L1.996,106.151L-5.494,81.862ZM14.801,83.288L19.824,81.739L27.197,95.684L13.252,88.312L14.801,83.288ZM-15.832,81.739L-10.809,83.288L-9.26,88.311L-23.203,95.683L-15.832,81.739ZM-10.809,57.68L-15.832,59.229L-23.204,45.284L-9.26,52.657L-10.809,57.68ZM-9.383,62.995L-1.893,70.484L-9.383,77.974L-33.67,70.484L-9.383,62.995ZM19.824,59.229L14.801,57.68L13.252,52.656L27.197,45.283L19.824,59.229Z" style="fill:rgb(135,135,135);"/>
            </g>
        </g>
    </g>
</svg>
