<?xml version="1.0" encoding="UTF-8" standalone="no"?>
<!DOCTYPE svg PUBLIC "-//W3C//DTD SVG 1.1//EN" "http://www.w3.org/Graphics/SVG/1.1/DTD/svg11.dtd">
<svg width="100%" height="100%" viewBox="0 0 401 43" version="1.1" xmlns="http://www.w3.org/2000/svg" xmlns:xlink="http://www.w3.org/1999/xlink" xml:space="preserve" xmlns:serif="http://www.serif.com/" style="fill-rule:evenodd;clip-rule:evenodd;stroke-linejoin:round;stroke-miterlimit:2;">
    <g id="logo" transform="matrix(0.372777,0,0,0.372777,-261.659,-959.13)">
        <g>
            <g transform="matrix(3.12998,0,0,3.12998,-1597.31,-258.253)">
                <path d="M736.694,940.233L735.132,940.233L735.156,905.248L740.21,905.248L752.734,926.977L765.283,905.248L771.142,905.248L771.142,940.233L765.283,940.233L765.283,908.349L750.268,934.374L736.694,910.863L736.694,940.233Z" style="fill:rgb(27,48,67);fill-rule:nonzero;"/>
            </g>
            <g transform="matrix(3.12998,0,0,3.12998,-1597.31,-258.253)">
                <path d="M789.111,924.291C789.111,923.819 789.091,923.335 789.05,922.838C789.009,922.342 788.928,921.858 788.806,921.386C788.684,920.914 788.509,920.474 788.281,920.067C788.021,919.612 787.703,919.217 787.329,918.883C786.955,918.55 786.519,918.289 786.023,918.102C785.526,917.915 784.977,917.821 784.375,917.821C783.838,917.821 783.337,917.911 782.873,918.09C782.409,918.269 781.99,918.505 781.616,918.798C781.242,919.091 780.916,919.416 780.639,919.774C780.363,920.133 780.135,920.491 779.956,920.849C779.777,921.207 779.655,921.549 779.59,921.874L777.392,919.677C777.929,919.026 778.585,918.456 779.358,917.968C780.131,917.48 780.949,917.093 781.811,916.808C782.674,916.523 783.52,916.348 784.35,916.283C784.79,916.251 785.221,916.234 785.644,916.234C786.344,916.234 787.02,916.283 787.671,916.381C788.696,916.544 789.632,916.841 790.478,917.272C791.325,917.703 792.053,918.265 792.663,918.957C793.274,919.648 793.746,920.478 794.079,921.447C794.413,922.415 794.58,923.526 794.58,924.779L794.58,940.233L789.111,940.233L789.111,938.329C788.232,939.241 787.252,939.916 786.169,940.356C785.087,940.795 783.952,941.023 782.763,941.039C781.689,941.023 780.68,940.836 779.736,940.478C778.76,940.103 777.929,939.57 777.246,938.878C776.562,938.187 776.115,937.353 775.903,936.376C775.805,935.839 775.757,935.334 775.757,934.862C775.757,934.342 775.814,933.853 775.928,933.397C776.172,932.502 776.57,931.705 777.124,931.005C777.677,930.305 778.324,929.699 779.065,929.186C779.805,928.673 780.566,928.238 781.347,927.88L789.111,924.291ZM789.111,936.62L789.111,926C788.428,926.293 787.736,926.61 787.036,926.952C786.336,927.294 785.661,927.681 785.01,928.112C784.359,928.543 783.76,929.027 783.215,929.564C782.67,930.102 782.218,930.712 781.86,931.396C781.583,931.916 781.396,932.425 781.299,932.921C781.201,933.418 781.152,933.878 781.152,934.301C781.152,934.529 781.168,934.773 781.201,935.033C781.282,935.798 781.522,936.441 781.921,936.962C782.32,937.483 782.812,937.869 783.398,938.122C783.984,938.374 784.595,938.5 785.229,938.5L785.351,938.5C786.035,938.484 786.702,938.321 787.353,938.012C788.004,937.703 788.59,937.239 789.111,936.62Z" style="fill:rgb(27,48,67);fill-rule:nonzero;"/>
            </g>
            <g transform="matrix(3.12998,0,0,3.12998,-1597.31,-258.253)">
                <path d="M815.356,920.141C814.64,919.083 813.647,918.554 812.378,918.554L812.06,918.554C810.709,918.717 809.513,919.266 808.471,920.202C807.43,921.138 806.583,922.183 805.932,923.339L805.932,940.233L800.464,940.233L800.464,917.016L805.932,917.016L805.932,921.02C806.567,919.783 807.458,918.696 808.606,917.76C809.753,916.824 811.108,916.308 812.671,916.21C814.624,916.21 816.251,916.788 817.554,917.943L815.356,920.141Z" style="fill:rgb(27,48,67);fill-rule:nonzero;"/>
            </g>
            <g transform="matrix(3.12998,0,0,3.12998,-1597.31,-258.253)">
                <rect x="820.825" y="917.016" width="5.444" height="23.218" style="fill:rgb(27,48,67);"/>
            </g>
            <g transform="matrix(3.12998,0,0,3.12998,-1597.31,-258.253)">
                <path d="M842.163,939.403C843.725,939.403 845.056,938.895 846.155,937.877C847.253,936.86 847.99,935.578 848.364,934.032L848.364,917.016L853.808,917.016L853.808,940.233L848.364,940.233L848.364,937.572C846.883,939.574 844.816,940.705 842.163,940.966C841.756,940.998 841.357,941.015 840.967,941.015C839.453,941.015 838.094,940.787 836.889,940.331C835.359,939.778 834.159,938.846 833.288,937.536C832.418,936.225 831.982,934.529 831.982,932.445L831.982,917.016L837.427,917.016L837.427,932.445C837.427,933.227 837.471,934.036 837.561,934.875C837.65,935.713 837.882,936.482 838.257,937.182C838.664,937.865 839.217,938.406 839.917,938.805C840.617,939.204 841.365,939.403 842.163,939.403Z" style="fill:rgb(27,48,67);fill-rule:nonzero;"/>
            </g>
            <g transform="matrix(3.12998,0,0,3.12998,-1597.31,-258.253)">
                <path d="M866.284,924.608C867.195,925.194 868.139,925.74 869.116,926.244C869.246,926.326 869.376,926.399 869.507,926.464C870.923,927.196 872.274,928.01 873.559,928.905C875.692,930.549 876.774,932.307 876.806,934.179L876.806,934.301C876.806,936.107 876.021,937.666 874.45,938.976C872.88,940.286 870.727,940.966 867.993,941.015C864.363,940.933 861.369,939.892 859.009,937.89L860.107,936.791C862.239,938.484 864.648,939.33 867.334,939.33C867.562,939.33 867.781,939.322 867.993,939.306C869.442,939.208 870.54,938.834 871.289,938.183C871.842,937.694 872.119,937.117 872.119,936.449C872.119,936.221 872.033,935.798 871.863,935.18C871.692,934.561 870.809,933.707 869.214,932.616C868.302,932.03 867.358,931.485 866.382,930.981L865.918,930.736C864.518,930.02 863.192,929.223 861.938,928.344C859.806,926.684 858.724,924.926 858.691,923.07L858.691,922.948C858.691,921.125 859.477,919.559 861.047,918.249C862.618,916.938 864.762,916.259 867.48,916.21C871.11,916.308 874.105,917.357 876.465,919.359L875.366,920.434C873.234,918.741 870.825,917.895 868.139,917.895C867.912,917.895 867.692,917.903 867.48,917.919C866.048,918.017 864.957,918.399 864.209,919.066C863.655,919.555 863.379,920.124 863.379,920.775C863.379,921.02 863.46,921.451 863.623,922.069C863.786,922.688 864.673,923.534 866.284,924.608Z" style="fill:rgb(27,48,67);fill-rule:nonzero;"/>
            </g>
            <g transform="matrix(3.12998,0,0,3.12998,-1597.31,-258.253)">
                <path d="M880.981,918.554L880.981,917.016L902.148,917.016L902.148,918.041L887.134,938.671L901.172,938.671L901.172,940.233L880.005,940.233L880.005,939.208L895.019,918.554L880.981,918.554Z" style="fill:rgb(27,48,67);fill-rule:nonzero;"/>
            </g>
            <g transform="matrix(3.12998,0,0,3.12998,-1597.31,-258.253)">
                <path d="M920.068,940.233L918.506,940.233L918.53,905.248L923.584,905.248L936.108,926.977L948.657,905.248L954.516,905.248L954.516,940.233L948.657,940.233L948.657,908.349L933.642,934.374L920.068,910.863L920.068,940.233Z" style="fill:rgb(27,48,67);fill-rule:nonzero;"/>
            </g>
            <g transform="matrix(3.12998,0,0,3.12998,-1597.31,-258.253)">
                <path d="M972.485,924.291C972.485,923.819 972.465,923.335 972.424,922.838C972.383,922.342 972.302,921.858 972.18,921.386C972.058,920.914 971.883,920.474 971.655,920.067C971.395,919.612 971.077,919.217 970.703,918.883C970.329,918.55 969.893,918.289 969.397,918.102C968.9,917.915 968.351,917.821 967.749,917.821C967.212,917.821 966.711,917.911 966.247,918.09C965.783,918.269 965.364,918.505 964.99,918.798C964.616,919.091 964.29,919.416 964.013,919.774C963.737,920.133 963.509,920.491 963.33,920.849C963.151,921.207 963.029,921.549 962.964,921.874L960.766,919.677C961.304,919.026 961.959,918.456 962.732,917.968C963.505,917.48 964.323,917.093 965.185,916.808C966.048,916.523 966.894,916.348 967.724,916.283C968.164,916.251 968.595,916.234 969.018,916.234C969.718,916.234 970.394,916.283 971.045,916.381C972.07,916.544 973.006,916.841 973.852,917.272C974.699,917.703 975.427,918.265 976.037,918.957C976.648,919.648 977.12,920.478 977.453,921.447C977.787,922.415 977.954,923.526 977.954,924.779L977.954,940.233L972.485,940.233L972.485,938.329C971.606,939.241 970.626,939.916 969.543,940.356C968.461,940.795 967.326,941.023 966.137,941.039C965.063,941.023 964.054,940.836 963.11,940.478C962.134,940.103 961.304,939.57 960.62,938.878C959.936,938.187 959.489,937.353 959.277,936.376C959.179,935.839 959.131,935.334 959.131,934.862C959.131,934.342 959.188,933.853 959.302,933.397C959.546,932.502 959.944,931.705 960.498,931.005C961.051,930.305 961.698,929.699 962.439,929.186C963.179,928.673 963.94,928.238 964.721,927.88L972.485,924.291ZM972.485,936.62L972.485,926C971.802,926.293 971.11,926.61 970.41,926.952C969.71,927.294 969.035,927.681 968.384,928.112C967.733,928.543 967.134,929.027 966.589,929.564C966.044,930.102 965.592,930.712 965.234,931.396C964.957,931.916 964.77,932.425 964.673,932.921C964.575,933.418 964.526,933.878 964.526,934.301C964.526,934.529 964.542,934.773 964.575,935.033C964.656,935.798 964.896,936.441 965.295,936.962C965.694,937.483 966.186,937.869 966.772,938.122C967.358,938.374 967.969,938.5 968.603,938.5L968.725,938.5C969.409,938.484 970.076,938.321 970.727,938.012C971.378,937.703 971.964,937.239 972.485,936.62Z" style="fill:rgb(27,48,67);fill-rule:nonzero;"/>
            </g>
            <g transform="matrix(3.12998,0,0,3.12998,-1597.31,-258.253)">
                <path d="M998.73,920.141C998.014,919.083 997.021,918.554 995.752,918.554L995.434,918.554C994.083,918.717 992.887,919.266 991.845,920.202C990.804,921.138 989.957,922.183 989.306,923.339L989.306,940.233L983.838,940.233L983.838,917.016L989.306,917.016L989.306,921.02C989.941,919.783 990.832,918.696 991.98,917.76C993.127,916.824 994.482,916.308 996.045,916.21C997.998,916.21 999.625,916.788 1000.93,917.943L998.73,920.141Z" style="fill:rgb(27,48,67);fill-rule:nonzero;"/>
            </g>
            <g transform="matrix(3.12998,0,0,3.12998,-1597.31,-258.253)">
                <path d="M1004.59,918.554L1004.59,917.016L1025.76,917.016L1025.76,918.041L1010.74,938.671L1024.78,938.671L1024.78,940.233L1003.61,940.233L1003.61,939.208L1018.63,918.554L1004.59,918.554Z" style="fill:rgb(27,48,67);fill-rule:nonzero;"/>
            </g>
            <g transform="matrix(3.12998,0,0,3.12998,-1597.31,-258.253)">
                <path d="M1049.66,933.275L1051.34,933.275C1050.38,935.587 1048.88,937.454 1046.84,938.878C1044.8,940.303 1042.47,941.015 1039.87,941.015C1037.59,941.015 1035.51,940.457 1033.63,939.342C1031.75,938.227 1030.25,936.73 1029.14,934.85C1028.02,932.97 1027.47,930.891 1027.47,928.612C1027.47,926.334 1028.02,924.254 1029.14,922.375C1030.25,920.495 1031.75,918.997 1033.63,917.882C1035.51,916.767 1037.59,916.21 1039.87,916.21C1042.15,916.21 1044.23,916.767 1046.11,917.882C1047.99,918.997 1049.48,920.495 1050.6,922.375C1051.71,924.254 1052.27,926.334 1052.27,928.612C1052.27,928.873 1052.26,929.133 1052.25,929.394L1032.93,929.394C1033.1,932.633 1033.85,935.054 1035.19,936.657C1036.54,938.26 1038.14,939.143 1040.01,939.306C1040.28,939.322 1040.53,939.33 1040.77,939.33C1042.38,939.33 1044.01,938.842 1045.65,937.865C1047.3,936.889 1048.63,935.359 1049.66,933.275ZM1032.93,927.831L1046.78,927.831C1046.61,924.967 1045.88,922.574 1044.57,920.653C1043.26,918.733 1041.69,917.772 1039.87,917.772C1038.03,917.772 1036.46,918.733 1035.16,920.653C1033.85,922.574 1033.11,924.967 1032.93,927.831Z" style="fill:rgb(27,48,67);fill-rule:nonzero;"/>
            </g>
            <g transform="matrix(3.12998,0,0,3.12998,-1597.31,-258.253)">
                <path d="M1061.62,928.612C1061.62,931.542 1062.24,934.016 1063.49,936.034C1064.73,938.052 1066.58,939.216 1069.02,939.525C1069.33,939.558 1069.64,939.574 1069.95,939.574C1071.12,939.574 1072.31,939.326 1073.51,938.83C1074.71,938.333 1075.83,937.54 1076.86,936.449L1077.95,937.548C1076.78,938.622 1075.43,939.468 1073.91,940.087C1072.39,940.705 1070.76,941.015 1069.02,941.015C1066.66,941.015 1064.51,940.457 1062.56,939.342C1060.62,938.227 1059.07,936.73 1057.91,934.85C1056.75,932.97 1056.18,930.891 1056.18,928.612C1056.18,926.334 1056.75,924.254 1057.91,922.375C1059.07,920.495 1060.62,918.997 1062.56,917.882C1064.51,916.767 1066.66,916.21 1069.02,916.21C1070.76,916.21 1072.39,916.519 1073.91,917.138C1075.43,917.756 1076.78,918.611 1077.95,919.701L1076.86,920.8C1075.83,919.693 1074.64,918.863 1073.29,918.31C1072.23,917.87 1071.12,917.65 1069.95,917.65C1069.64,917.65 1069.33,917.667 1069.02,917.699C1066.58,918.009 1064.73,919.172 1063.49,921.19C1062.24,923.209 1061.62,925.683 1061.62,928.612Z" style="fill:rgb(27,48,67);fill-rule:nonzero;"/>
            </g>
            <g transform="matrix(0.875856,0,0,0.875856,30.5934,753.791)">
                <circle cx="832.792" cy="2091" r="12.083" style="fill:rgb(180,31,36);"/>
            </g>
        </g>
    </g>
</svg>
