<?xml version="1.0" encoding="UTF-8" standalone="no"?>
<!DOCTYPE svg PUBLIC "-//W3C//DTD SVG 1.1//EN" "http://www.w3.org/Graphics/SVG/1.1/DTD/svg11.dtd">
<svg width="100%" height="100%" viewBox="0 0 504 119" version="1.1" xmlns="http://www.w3.org/2000/svg" xmlns:xlink="http://www.w3.org/1999/xlink" xml:space="preserve" xmlns:serif="http://www.serif.com/" style="fill-rule:evenodd;clip-rule:evenodd;stroke-linejoin:round;stroke-miterlimit:2;">
    <g transform="matrix(1,0,0,1,-47,-151)">
        <g id="logoQiMed">
            <g transform="matrix(1,0,0,1,502.402,251.671)">
                <path d="M0,-37.445C0.581,-37.695 0.709,-38.104 0.941,-38.412C4.479,-43.099 9.883,-45.074 15.353,-43.668C18.489,-42.862 20.738,-40.971 22.166,-38.082C22.342,-37.725 22.514,-37.367 22.69,-37.003C23.213,-37.137 23.332,-37.611 23.576,-37.95C25.652,-40.828 28.209,-43.032 31.797,-43.748C35.646,-44.516 39.29,-44.172 42.435,-41.542C44.232,-40.038 45.34,-38.066 46.13,-35.89C47.291,-32.69 47.662,-29.356 47.673,-25.99C47.71,-15.312 47.689,-4.635 47.687,6.042C47.686,7.262 47.67,7.267 46.429,7.268C43.55,7.271 40.67,7.272 37.791,7.268C36.647,7.266 36.635,7.26 36.635,6.078C36.631,-3.679 36.643,-13.437 36.627,-23.194C36.623,-25.431 36.572,-27.671 36.043,-29.866C35.874,-30.567 35.642,-31.241 35.346,-31.9C33.771,-35.407 29.635,-35.512 27.398,-33.451C25.57,-31.765 24.723,-29.61 24.545,-27.169C24.487,-26.373 24.482,-25.571 24.481,-24.772C24.478,-14.774 24.479,-4.777 24.479,5.22C24.479,5.54 24.483,5.861 24.478,6.18C24.459,7.243 24.457,7.261 23.42,7.265C20.9,7.276 18.381,7.288 15.862,7.258C15.041,7.248 14.015,7.629 13.452,7.031C12.942,6.489 13.285,5.498 13.284,4.708C13.271,-5.449 13.272,-15.606 13.279,-25.763C13.28,-27.371 13.164,-28.962 12.74,-30.514C12.17,-32.606 11.103,-34.291 8.791,-34.705C6.402,-35.133 4.579,-34.108 3.217,-32.208C1.972,-30.468 1.491,-28.441 1.255,-26.361C1.133,-25.293 1.136,-24.206 1.135,-23.128C1.125,-13.41 1.128,-3.693 1.123,6.025C1.122,7.261 1.111,7.267 -0.119,7.268C-2.958,7.272 -5.798,7.272 -8.637,7.268C-9.919,7.267 -9.936,7.261 -9.937,6.051C-9.938,-6.826 -9.923,-19.702 -9.942,-32.579C-9.947,-35.735 -10.086,-38.889 -10.267,-42.041C-10.337,-43.28 -10.312,-43.29 -9.064,-43.295C-6.666,-43.303 -4.267,-43.308 -1.867,-43.303C-0.582,-43.3 -0.588,-43.286 -0.462,-41.959C-0.322,-40.491 -0.163,-39.025 0,-37.445" style="fill:rgb(90,91,90);"/>
            </g>
            <g transform="matrix(1,0,0,1,254.321,251.7)">
                <path d="M0,-37.258C1.196,-38.951 2.351,-40.371 3.856,-41.462C7.701,-44.252 11.896,-44.859 16.364,-43.346C19.033,-42.443 20.89,-40.563 22.12,-38.044C22.288,-37.699 22.34,-37.281 22.695,-37.023C23.131,-37.232 23.278,-37.672 23.523,-38.022C26.4,-42.113 30.274,-44.271 35.336,-44.118C39.705,-43.986 42.965,-42.024 45.044,-38.163C46.612,-35.254 47.226,-32.083 47.457,-28.832C47.586,-27 47.607,-25.157 47.61,-23.32C47.621,-13.561 47.611,-3.802 47.605,5.957C47.604,7.235 47.593,7.239 46.282,7.24C43.522,7.242 40.762,7.242 38.002,7.24C36.551,7.239 36.544,7.237 36.543,5.82C36.542,-2.499 36.543,-10.818 36.542,-19.137C36.542,-21.615 36.588,-24.095 36.436,-26.57C36.334,-28.212 36.092,-29.83 35.496,-31.374C34.035,-35.157 29.805,-36.047 26.974,-33.146C25.369,-31.502 24.616,-29.467 24.456,-27.201C24.405,-26.485 24.403,-25.763 24.403,-25.043C24.4,-14.925 24.401,-4.806 24.401,5.312C24.401,5.593 24.404,5.873 24.399,6.152C24.381,7.216 24.38,7.232 23.341,7.237C20.822,7.247 18.302,7.26 15.783,7.229C14.962,7.22 13.936,7.601 13.373,7C12.864,6.457 13.207,5.468 13.206,4.678C13.194,-5.442 13.197,-15.56 13.198,-25.679C13.198,-27.525 13.019,-29.338 12.477,-31.121C11.12,-35.587 6.103,-35.861 3.567,-32.806C2.016,-30.939 1.462,-28.711 1.17,-26.39C1.061,-25.522 1.061,-24.635 1.06,-23.756C1.053,-13.958 1.062,-4.159 1.047,5.639C1.044,7.41 1.302,7.232 -0.556,7.238C-3.315,7.247 -6.075,7.243 -8.834,7.239C-9.995,7.237 -10.012,7.231 -10.012,6.056C-10.018,-3.542 -10.016,-13.141 -10.018,-22.739C-10.02,-27.898 -9.968,-33.056 -10.161,-38.212C-10.211,-39.57 -10.308,-40.925 -10.354,-42.282C-10.389,-43.292 -10.368,-43.318 -9.428,-43.323C-6.828,-43.339 -4.229,-43.31 -1.629,-43.347C-0.904,-43.358 -0.634,-43.078 -0.581,-42.39C-0.473,-40.995 -0.319,-39.605 -0.177,-38.213C-0.153,-37.978 -0.092,-37.747 0,-37.258" style="fill:rgb(90,91,90);"/>
            </g>
            <g transform="matrix(1,0,0,1,106.759,173.108)">
                <path d="M0,40.721C-5.91,40.638 -10.488,38.009 -13.943,33.316C-16.297,30.119 -17.556,26.506 -17.899,22.543C-18.396,16.793 -17.011,11.58 -13.463,7.027C-10.226,2.871 -5.943,0.437 -0.645,0.201C3.904,0 7.928,1.568 11.287,4.66C15.427,8.471 17.52,13.265 17.949,18.844C18.344,23.976 17.153,28.699 14.248,32.931C11.435,37.028 7.604,39.668 2.642,40.549C1.765,40.704 0.89,40.671 0,40.721" style="fill:rgb(242,201,57);"/>
            </g>
            <g transform="matrix(1,0,0,1,77.6313,244.682)">
                <path d="M0,-7.61C0.052,-9.976 0.318,-11.949 0.996,-13.853C3.203,-20.054 8.953,-22.889 15.229,-20.88C18.361,-19.877 20.949,-18.038 23.135,-15.638C27.37,-10.988 29.616,-5.517 29.654,0.799C29.667,3.013 29.275,5.172 28.392,7.224C25.999,12.777 20.736,15.279 14.922,13.609C11.723,12.691 9.066,10.89 6.805,8.49C2.453,3.871 0.224,-1.633 0,-7.61" style="fill:rgb(90,91,90);"/>
            </g>
            <g transform="matrix(1,0,0,1,443.357,217.275)">
                <path d="M0,32.132C0.403,32.971 0.319,33.915 0.468,34.807C0.743,36.461 0.869,38.14 1.154,39.792C1.28,40.521 1.014,40.794 0.403,41.021C-2.298,42.023 -5.102,42.385 -7.957,42.297C-12.584,42.155 -16.751,40.75 -20.187,37.535C-22.479,35.392 -24.146,32.803 -25.163,29.857C-28.078,21.412 -28.228,12.919 -25.145,4.492C-23.302,-0.543 -20.16,-4.62 -15.348,-7.188C-10.349,-9.856 -5.082,-10.253 0.342,-8.717C1.782,-8.308 1.774,-8.264 1.507,-6.815C1.101,-4.616 0.693,-2.417 0.274,-0.22C0.104,0.681 0.056,0.712 -0.824,0.411C-2.819,-0.271 -4.854,-0.652 -6.951,-0.256C-10.056,0.332 -12.117,2.3 -13.603,4.967C-14.925,7.343 -15.625,9.925 -15.917,12.604C-16.394,16.972 -16.282,21.31 -14.814,25.514C-13.909,28.104 -12.51,30.369 -10.093,31.811C-7.167,33.557 -4.07,33.379 -0.942,32.42C-0.646,32.329 -0.386,32.118 0,32.132" style="fill:rgb(90,91,90);"/>
            </g>
            <g transform="matrix(1,0,0,1,206.481,233.498)">
                <path d="M0,0.326L0,23.598C0,23.919 -0.027,24.241 0.003,24.558C0.069,25.246 -0.243,25.461 -0.904,25.451C-2.943,25.425 -4.983,25.442 -7.022,25.442C-8.142,25.442 -9.262,25.42 -10.381,25.449C-11.008,25.465 -11.26,25.209 -11.205,24.597C-11.183,24.359 -11.203,24.118 -11.203,23.878L-11.203,-23.508C-11.203,-23.668 -11.205,-23.828 -11.203,-23.988C-11.186,-25.108 -11.185,-25.125 -10.066,-25.129C-7.107,-25.138 -4.148,-25.139 -1.189,-25.128C-0.014,-25.123 -0.002,-25.105 -0.002,-23.907C0.001,-15.829 0,-7.752 0,0.326" style="fill:rgb(90,91,90);"/>
            </g>
            <g transform="matrix(1,0,0,1,86.1011,170.791)">
                <path d="M0,-6.914C-0.216,-0.658 -2.116,4.925 -6.696,9.379C-8.604,11.235 -10.839,12.497 -13.614,12.513C-16.501,12.531 -18.523,11.061 -20.028,8.755C-21.326,6.767 -21.941,4.517 -22.078,2.186C-22.466,-4.406 -20.659,-10.301 -16.179,-15.251C-14.486,-17.122 -12.459,-18.518 -9.91,-18.99C-7.454,-19.445 -5.32,-18.791 -3.525,-17.067C-1.659,-15.273 -0.801,-12.974 -0.31,-10.502C-0.075,-9.321 -0.001,-8.126 0,-6.914" style="fill:rgb(90,91,90);"/>
            </g>
            <g transform="matrix(1,0,0,1,70.8174,229.292)">
                <path d="M0,4.521C0.042,6.663 -0.27,9.184 -1.343,11.567C-1.907,12.821 -2.643,13.957 -3.75,14.808C-5.456,16.123 -7.315,16.321 -9.286,15.508C-10.927,14.831 -12.21,13.67 -13.184,12.231C-16.846,6.818 -17.813,0.931 -16.073,-5.375C-15.709,-6.697 -15.07,-7.902 -14.185,-8.959C-12.211,-11.32 -9.409,-11.8 -6.764,-10.234C-5.14,-9.272 -3.958,-7.878 -2.975,-6.297C-1.187,-3.421 -0.143,0.241 0,4.521" style="fill:rgb(90,91,90);"/>
            </g>
            <g transform="matrix(1,0,0,1,62.9766,195.51)">
                <path d="M0,1.943C-0.042,4.71 -0.537,7.478 -2.002,10.002C-2.301,10.517 -2.657,11.008 -3.045,11.461C-5.313,14.11 -8.588,14.317 -11.192,11.987C-12.466,10.848 -13.417,9.468 -14.067,7.901C-16.077,3.051 -16.33,-1.856 -14.425,-6.803C-13.917,-8.122 -13.167,-9.298 -12.131,-10.275C-10.116,-12.175 -7.504,-12.374 -5.227,-10.785C-3.888,-9.85 -2.906,-8.598 -2.142,-7.17C-0.636,-4.359 -0.038,-1.33 0,1.943" style="fill:rgb(90,91,90);"/>
            </g>
            <g transform="matrix(1,0,0,1,225.481,226.847)">
                <path d="M0,8.256C-3.239,8.256 -6.479,8.261 -9.718,8.254C-10.822,8.251 -10.833,8.237 -10.837,7.11C-10.845,5.11 -10.845,3.111 -10.836,1.111C-10.832,0.029 -10.821,0.004 -9.802,0.003C-3.283,-0.005 3.235,-0.006 9.754,0.004C10.733,0.006 10.75,0.037 10.756,1.033C10.769,3.112 10.77,5.193 10.756,7.272C10.75,8.232 10.729,8.25 9.718,8.253C6.479,8.262 3.239,8.256 0,8.256" style="fill:rgb(90,91,90);"/>
            </g>
            <g transform="matrix(1,0,0,1,409.107,251.923)">
                <path d="M0,0.134C0.051,1.207 -0.069,2.191 -0.375,3.153C-1.312,6.103 -3.577,7.798 -6.716,7.892C-9.378,7.972 -11.862,6.277 -12.861,3.558C-13.91,0.699 -13.783,-2.115 -12.01,-4.674C-10.497,-6.855 -8.363,-7.838 -5.691,-7.456C-3.065,-7.08 -1.382,-5.546 -0.479,-3.094C-0.086,-2.029 0.063,-0.929 0,0.134" style="fill:rgb(90,91,90);"/>
            </g>
            <g transform="matrix(1,0,0,1,194.96,195.379)">
                <path d="M0,-0.353C0.018,-0.772 -0.017,-1.412 0.134,-2.042C0.841,-4.988 3.351,-6.776 6.468,-6.544C9.358,-6.329 11.571,-4.039 11.78,-1.005C11.835,-0.211 11.871,0.595 11.727,1.386C11.143,4.575 8.566,6.423 5.043,6.194C2.309,6.016 0.126,3.588 0.001,0.583C-0.008,0.344 0,0.105 0,-0.353" style="fill:rgb(90,91,90);"/>
            </g>
            <g transform="matrix(1,0,0,1,173.644,216.939)">
                <path d="M0,22.923C-0.443,24.918 -1.045,26.861 -1.976,28.69C-2.376,29.475 -2.848,30.215 -3.424,30.887C-5.934,33.814 -9.926,33.899 -12.567,31.08C-13.877,29.683 -14.718,28.01 -15.364,26.233C-16.644,22.711 -17.184,19.04 -17.526,15.33C-17.923,11.021 -17.906,6.698 -17.738,2.386C-17.533,-2.86 -16.899,-8.054 -14.877,-12.974C-14.295,-14.389 -13.537,-15.698 -12.526,-16.853C-10.001,-19.743 -6.07,-19.775 -3.502,-16.916C-2.139,-15.398 -1.336,-13.575 -0.705,-11.664C0.395,-8.339 0.858,-4.894 1.167,-1.428C1.412,1.32 1.494,4.078 1.474,6.838C1.45,12.242 1.176,17.624 0,22.923M14.485,43.549C10.73,42.187 6.938,40.925 3.252,39.377C2.823,39.197 2.324,39.128 2.032,38.711C2.063,38.407 2.298,38.305 2.499,38.186C5.09,36.646 6.916,34.403 8.321,31.792C10.532,27.685 11.563,23.22 12.242,18.652C12.95,13.89 13.038,9.097 12.998,4.296C12.959,-0.317 12.5,-4.884 11.483,-9.383C10.454,-13.94 8.919,-18.302 6.028,-22.056C1.755,-27.608 -3.941,-29.572 -10.736,-28.436C-15.98,-27.559 -19.821,-24.503 -22.759,-20.205C-25.112,-16.762 -26.633,-12.943 -27.592,-8.913C-30.057,1.442 -29.97,11.847 -27.947,22.251C-27.033,26.956 -25.434,31.423 -22.605,35.363C-19.362,39.88 -15.037,42.519 -9.417,42.805C-8.213,42.866 -7.178,43.235 -6.153,43.828C-0.753,46.959 4.842,49.698 10.605,52.096C11.566,52.495 11.579,52.487 12.012,51.564C13.044,49.356 14.071,47.147 15.094,44.934C15.553,43.941 15.547,43.935 14.485,43.549" style="fill:rgb(90,91,90);"/>
            </g>
            <g transform="matrix(1,0,0,1,375.718,215.149)">
                <path d="M0,17.01C0.017,17.65 0.002,18.289 0.002,18.929C0.002,21.448 0.034,23.967 -0.008,26.486C-0.046,28.859 -0.733,31.066 -2.068,33.025C-4.191,36.142 -8.018,36.265 -10.363,33.322C-11.743,31.591 -12.456,29.545 -12.873,27.418C-14.066,21.345 -14.059,15.262 -12.704,9.214C-12.222,7.057 -11.438,5.005 -9.778,3.41C-7.724,1.435 -4.812,1.421 -2.799,3.423C-1.226,4.988 -0.577,6.978 -0.234,9.11C0.187,11.735 -0.07,14.377 0,17.01M11.421,42.667C11.198,37.877 11.034,33.086 11.037,28.29C11.049,10.138 11.042,-8.013 11.042,-26.165C11.042,-26.485 11.015,-26.807 11.047,-27.124C11.116,-27.793 10.853,-28.03 10.171,-28.019C7.972,-27.986 5.772,-28.008 3.574,-28.008C2.654,-28.008 1.733,-27.978 0.815,-28.016C0.187,-28.042 -0.061,-27.801 -0.001,-27.185C0.025,-26.908 0.002,-26.626 0.002,-26.346L0.002,-2.205C-0.497,-2.591 -0.604,-2.992 -0.814,-3.319C-2.282,-5.601 -4.344,-6.967 -7.023,-7.402C-10.543,-7.975 -13.681,-7.074 -16.473,-4.918C-19.417,-2.644 -21.235,0.433 -22.515,3.852C-23.984,7.78 -24.601,11.87 -24.784,16.049C-24.999,20.948 -24.712,25.795 -23.521,30.563C-22.59,34.287 -21.174,37.796 -18.504,40.649C-15.673,43.675 -12.178,45.052 -8.031,44.508C-4.34,44.025 -1.63,41.999 0.373,38.932C0.593,38.594 0.696,38.143 1.165,37.92C1.354,38.44 1.39,38.914 1.432,39.39C1.53,40.504 1.626,41.619 1.752,42.731C1.87,43.77 1.887,43.783 2.915,43.787C5.395,43.797 7.873,43.796 10.353,43.788C11.478,43.785 11.472,43.774 11.421,42.667" style="fill:rgb(90,91,90);"/>
            </g>
            <g transform="matrix(1,0,0,1,473.192,234.226)">
                <path d="M0,-0.601C0.057,3.098 -0.216,6.598 -1.014,10.044C-1.384,11.645 -1.902,13.199 -2.813,14.591C-4.803,17.638 -8.335,17.829 -10.648,15.008C-11.898,13.485 -12.524,11.67 -12.971,9.795C-13.856,6.075 -14.02,2.285 -13.977,-1.522C-13.937,-4.969 -13.671,-8.39 -12.753,-11.731C-12.358,-13.164 -11.813,-14.533 -10.931,-15.748C-8.73,-18.776 -5.043,-18.746 -2.928,-15.658C-1.729,-13.908 -1.172,-11.904 -0.764,-9.856C-0.568,-8.876 -0.411,-7.887 -0.294,-6.896C-0.039,-4.75 0.055,-2.594 0,-0.601M10.441,-8.769C9.858,-12.466 8.689,-15.979 6.68,-19.184C1.119,-28.045 -9.613,-28.41 -16.146,-23.566C-19.335,-21.202 -21.412,-18.029 -22.832,-14.387C-24.587,-9.888 -25.118,-5.181 -25.143,0.587C-25.16,1.81 -25.028,4.004 -24.732,6.185C-24.163,10.38 -23.049,14.391 -20.774,18.03C-14.985,27.286 -2.578,27.809 4.281,20.75C7.394,17.547 9.108,13.634 10.053,9.35C11.377,3.342 11.396,-2.714 10.441,-8.769" style="fill:rgb(90,91,90);"/>
            </g>
            <g transform="matrix(1,0,0,1,333.813,238.351)">
                <path d="M0,-9.65C-2.038,-9.657 -4.076,-9.653 -6.113,-9.653C-8.071,-9.653 -10.03,-9.668 -11.987,-9.645C-12.589,-9.638 -12.868,-9.821 -12.809,-10.466C-12.534,-13.469 -12.007,-16.402 -10.516,-19.079C-10.125,-19.781 -9.649,-20.416 -9.066,-20.975C-6.984,-22.974 -4.106,-22.888 -2.163,-20.749C-1.119,-19.6 -0.521,-18.213 -0.068,-16.751C0.576,-14.668 0.664,-12.51 0.816,-10.36C0.862,-9.715 0.495,-9.648 0,-9.65M11.08,-8.994C10.946,-13.092 10.381,-17.111 8.811,-20.938C7.604,-23.881 5.927,-26.513 3.249,-28.294C-1.787,-31.641 -7.079,-31.56 -12.344,-28.926C-16.501,-26.846 -19.127,-23.285 -20.936,-19.107C-23.401,-13.409 -24.022,-7.407 -23.703,-1.266C-23.507,2.509 -22.888,6.202 -21.42,9.708C-19.144,15.147 -15.359,19.022 -9.542,20.489C-3.585,21.991 2.273,21.198 8.022,19.235C8.837,18.956 8.89,18.466 8.742,17.753C8.329,15.758 7.957,13.754 7.564,11.754C7.383,10.831 7.359,10.809 6.506,11.14C3.594,12.269 0.578,12.777 -2.538,12.624C-6.545,12.427 -9.558,10.649 -11.302,6.952C-12.413,4.596 -12.773,2.071 -12.904,-0.5C-12.964,-1.659 -12.917,-1.726 -11.757,-1.729C-8.197,-1.735 -4.638,-1.731 -1.079,-1.731C2.44,-1.731 5.96,-1.729 9.479,-1.732C10.828,-1.733 10.828,-1.738 10.92,-3.126C11.05,-5.08 11.144,-7.036 11.08,-8.994" style="fill:rgb(90,91,90);"/>
            </g>
        </g>
    </g>
</svg>
