<?xml version="1.0" encoding="UTF-8" standalone="no"?>
<!DOCTYPE svg PUBLIC "-//W3C//DTD SVG 1.1//EN" "http://www.w3.org/Graphics/SVG/1.1/DTD/svg11.dtd">
<svg width="100%" height="100%" viewBox="0 0 40 52" version="1.1" xmlns="http://www.w3.org/2000/svg" xmlns:xlink="http://www.w3.org/1999/xlink" xml:space="preserve" xmlns:serif="http://www.serif.com/" style="fill-rule:evenodd;clip-rule:evenodd;stroke-linejoin:round;stroke-miterlimit:2;">
    <g transform="matrix(1,0,0,1,-14,-14)">
        <g id="logoLiconfe">
            <g transform="matrix(1,0,0,1,15.519,58.7525)">
                <path d="M3.192,6.593L3.182,6.77L3.147,6.892L3.089,6.966L3.007,6.99L-0.016,6.99L-0.246,6.908C-0.318,6.854 -0.354,6.757 -0.354,6.62L-0.354,0.289L-0.333,0.214L-0.259,0.165L-0.116,0.133L0.1,0.119L0.32,0.133L0.459,0.165L0.534,0.214L0.555,0.289L0.555,6.202L3.007,6.202L3.089,6.227L3.147,6.295L3.182,6.414L3.192,6.593M5.105,6.852L5.084,6.926L5.01,6.977L4.869,7.009L4.65,7.022L4.434,7.009L4.291,6.977L4.217,6.926L4.196,6.852L4.196,0.289L4.219,0.214L4.299,0.165L4.442,0.133L4.65,0.119L4.869,0.133L5.01,0.165L5.084,0.214L5.105,0.289L5.105,6.852M11.489,6.023L11.484,6.17L11.465,6.282L11.43,6.366L11.357,6.456C11.322,6.492 11.247,6.545 11.135,6.617C11.022,6.69 10.882,6.76 10.715,6.829C10.547,6.898 10.355,6.956 10.138,7.003C9.922,7.05 9.685,7.075 9.428,7.075C8.984,7.075 8.583,7.001 8.226,6.852C7.868,6.705 7.563,6.486 7.312,6.197C7.059,5.909 6.866,5.552 6.73,5.127C6.594,4.703 6.527,4.214 6.527,3.66C6.527,3.093 6.599,2.588 6.746,2.143C6.892,1.7 7.097,1.324 7.361,1.015C7.626,0.707 7.942,0.472 8.31,0.31C8.678,0.148 9.086,0.067 9.534,0.067C9.73,0.067 9.923,0.086 10.109,0.123C10.297,0.159 10.469,0.206 10.627,0.263C10.786,0.318 10.927,0.384 11.05,0.458C11.174,0.531 11.259,0.593 11.307,0.64L11.399,0.748L11.433,0.836L11.454,0.955L11.462,1.118L11.452,1.298L11.42,1.423L11.369,1.496L11.298,1.52L11.091,1.417C11.002,1.349 10.888,1.273 10.748,1.19C10.608,1.107 10.437,1.031 10.238,0.962C10.037,0.894 9.798,0.859 9.518,0.859C9.213,0.859 8.936,0.92 8.687,1.042C8.437,1.164 8.223,1.343 8.047,1.578C7.869,1.814 7.732,2.102 7.634,2.442C7.537,2.783 7.489,3.171 7.489,3.607C7.489,4.041 7.535,4.424 7.629,4.757C7.723,5.09 7.857,5.369 8.033,5.592C8.208,5.816 8.423,5.985 8.678,6.1C8.933,6.214 9.222,6.271 9.545,6.271C9.817,6.271 10.055,6.238 10.259,6.17C10.463,6.104 10.636,6.029 10.78,5.946C10.923,5.863 11.041,5.788 11.133,5.722C11.225,5.655 11.297,5.621 11.351,5.621L11.415,5.637L11.458,5.698L11.481,5.822L11.489,6.023M17.365,3.555C17.365,3.168 17.332,2.807 17.262,2.474C17.194,2.141 17.08,1.853 16.919,1.608C16.759,1.362 16.546,1.172 16.278,1.034C16.01,0.896 15.68,0.828 15.286,0.828C14.892,0.828 14.562,0.902 14.293,1.05C14.026,1.197 13.809,1.395 13.642,1.642C13.474,1.889 13.355,2.177 13.283,2.506C13.211,2.836 13.175,3.181 13.175,3.544C13.175,3.946 13.209,4.316 13.276,4.654C13.342,4.993 13.454,5.284 13.613,5.529C13.771,5.774 13.983,5.963 14.248,6.1C14.514,6.235 14.848,6.303 15.249,6.303C15.647,6.303 15.981,6.229 16.252,6.081C16.522,5.933 16.741,5.733 16.907,5.482C17.071,5.229 17.189,4.938 17.26,4.606C17.331,4.276 17.365,3.925 17.365,3.555M18.327,3.492C18.327,4.044 18.263,4.543 18.131,4.987C18.001,5.431 17.807,5.808 17.548,6.12C17.289,6.433 16.964,6.672 16.572,6.839C16.182,7.007 15.725,7.09 15.204,7.09C14.69,7.09 14.245,7.013 13.87,6.86C13.494,6.707 13.184,6.485 12.939,6.192C12.695,5.9 12.512,5.536 12.392,5.103C12.273,4.669 12.214,4.172 12.214,3.608C12.214,3.068 12.279,2.579 12.408,2.138C12.539,1.698 12.734,1.324 12.995,1.015C13.256,0.707 13.581,0.47 13.973,0.302C14.364,0.135 14.82,0.051 15.341,0.051C15.845,0.051 16.284,0.126 16.658,0.279C17.031,0.43 17.341,0.651 17.59,0.941C17.839,1.232 18.024,1.591 18.145,2.019C18.266,2.447 18.327,2.939 18.327,3.492M24.933,6.614L24.898,6.794L24.806,6.916L24.677,6.985L24.535,7.006L24.234,7.006C24.139,7.006 24.056,6.996 23.985,6.977L23.783,6.871L23.592,6.663C23.527,6.574 23.46,6.462 23.389,6.325L21.302,2.435C21.193,2.234 21.083,2.023 20.972,1.803C20.862,1.583 20.759,1.368 20.663,1.16L20.653,1.16C20.66,1.414 20.665,1.674 20.669,1.938C20.672,2.202 20.673,2.464 20.673,2.725L20.673,6.852L20.651,6.924L20.576,6.977L20.437,7.009L20.216,7.022L19.996,7.009L19.86,6.977L19.787,6.924L19.765,6.852L19.765,0.542C19.765,0.401 19.805,0.301 19.885,0.242C19.965,0.181 20.052,0.151 20.147,0.151L20.595,0.151C20.7,0.151 20.788,0.16 20.859,0.178L21.05,0.265L21.214,0.434C21.266,0.507 21.321,0.597 21.379,0.706L22.983,3.709C23.082,3.892 23.177,4.07 23.269,4.244C23.361,4.418 23.449,4.591 23.535,4.76C23.619,4.929 23.703,5.095 23.787,5.259C23.87,5.423 23.953,5.588 24.035,5.753L24.04,5.753C24.033,5.475 24.029,5.186 24.027,4.884C24.025,4.583 24.025,4.293 24.025,4.014L24.025,0.305L24.046,0.236L24.122,0.18L24.262,0.146C24.319,0.139 24.394,0.135 24.487,0.135L24.699,0.146L24.839,0.18L24.911,0.236L24.933,0.305L24.933,6.614M30.345,0.542L30.335,0.717L30.297,0.836L30.237,0.902L30.165,0.923L27.66,0.923L27.66,3.248L30.028,3.248L30.099,3.266L30.16,3.328L30.198,3.441L30.207,3.623L30.198,3.795L30.16,3.911L30.099,3.981L30.028,4.004L27.66,4.004L27.66,6.852L27.639,6.924L27.566,6.977L27.427,7.009C27.371,7.017 27.297,7.022 27.206,7.022L26.99,7.009L26.847,6.977L26.773,6.924L26.751,6.852L26.751,0.522C26.751,0.384 26.788,0.288 26.86,0.233L27.089,0.151L30.165,0.151L30.237,0.172L30.297,0.241L30.335,0.366L30.345,0.542M35.529,6.614L35.519,6.781L35.481,6.9L35.421,6.969L35.344,6.99L32.063,6.99L31.833,6.908C31.761,6.854 31.724,6.757 31.724,6.62L31.724,0.522C31.724,0.384 31.761,0.288 31.833,0.233L32.063,0.151L35.307,0.151L35.384,0.172L35.439,0.242L35.474,0.36L35.487,0.537L35.474,0.703L35.439,0.82L35.384,0.886L35.307,0.908L32.633,0.908L32.633,3.053L34.926,3.053L35.004,3.077L35.062,3.142L35.096,3.259L35.107,3.433L35.096,3.597L35.062,3.709L35.004,3.769L34.926,3.787L32.633,3.787L32.633,6.235L35.344,6.235L35.421,6.256L35.481,6.321L35.519,6.437L35.529,6.614M37.247,-0.085L37.24,-0.126L37.218,-0.161L37.174,-0.184L37.104,-0.192L37.014,-0.192L37.014,0.031L37.101,0.031L37.215,-0.001L37.247,-0.085M37.493,0.465L37.49,0.479L37.474,0.49L37.441,0.495L37.382,0.497L37.327,0.495L37.293,0.488L37.272,0.474L37.263,0.449L37.221,0.312L37.164,0.21L37.066,0.181L37.014,0.181L37.014,0.459L36.996,0.489L36.918,0.497L36.837,0.489L36.816,0.459L36.816,-0.253L36.838,-0.322L36.902,-0.347L37.132,-0.347L37.271,-0.332L37.374,-0.289L37.44,-0.215L37.462,-0.109L37.41,0.039L37.271,0.113L37.359,0.168L37.431,0.281L37.479,0.407L37.493,0.465M37.727,0.102C37.727,0.008 37.712,-0.077 37.682,-0.154L37.559,-0.351L37.37,-0.478L37.134,-0.521C37.042,-0.521 36.96,-0.505 36.886,-0.473L36.696,-0.342L36.575,-0.149L36.532,0.086C36.532,0.178 36.548,0.264 36.577,0.34L36.701,0.537L36.889,0.665L37.126,0.709C37.217,0.709 37.299,0.693 37.373,0.66L37.562,0.53L37.684,0.337L37.727,0.102M37.905,0.09C37.905,0.198 37.885,0.3 37.845,0.394C37.804,0.489 37.749,0.571 37.68,0.641C37.609,0.71 37.526,0.765 37.431,0.805C37.336,0.846 37.235,0.866 37.126,0.866C37.015,0.866 36.91,0.847 36.815,0.807C36.721,0.768 36.639,0.714 36.571,0.647C36.502,0.578 36.451,0.498 36.411,0.403C36.372,0.309 36.354,0.206 36.354,0.094C36.354,-0.015 36.374,-0.115 36.414,-0.21C36.454,-0.304 36.51,-0.385 36.581,-0.454C36.65,-0.524 36.733,-0.579 36.827,-0.619C36.921,-0.658 37.024,-0.678 37.134,-0.678C37.247,-0.678 37.35,-0.658 37.444,-0.621C37.539,-0.582 37.62,-0.528 37.689,-0.461C37.756,-0.393 37.81,-0.311 37.848,-0.217C37.886,-0.124 37.905,-0.021 37.905,0.09" style="fill:rgb(29,29,27);fill-rule:nonzero;"/>
            </g>
            <g transform="matrix(1,0,0,1,52.4564,14.1625)">
                <path d="M0,38.292L-33.661,38.292L-34.262,38.197C-36.489,38.197 -38.292,36.394 -38.292,34.166L-38.292,0L-4.631,0C-2.072,0 0,2.072 0,4.631L0,38.292Z" style="fill:rgb(165,26,24);"/>
            </g>
            <g transform="matrix(1,0,0,1,26.9655,45.2425)">
                <path d="M0,-23.932L0,-3.101L9.587,-3.101L9.587,0L-4.773,0L-4.773,-23.932L0.055,-23.932L0,-23.932Z" style="fill:white;"/>
            </g>
            <g transform="matrix(1,0,0,1,-5.6693,-95.017)">
                <rect x="35.946" y="122.663" width="5.483" height="11.266" style="fill:white;"/>
            </g>
            <g transform="matrix(1,0,0,1,39.8217,21.3105)">
                <path d="M0,23.932L0,3.101L-9.587,3.101L-9.587,0L4.773,0L4.773,23.932L-0.056,23.932L0,23.932Z" style="fill:white;"/>
            </g>
        </g>
    </g>
</svg>
