<?xml version="1.0" encoding="UTF-8" standalone="no"?>
<!DOCTYPE svg PUBLIC "-//W3C//DTD SVG 1.1//EN" "http://www.w3.org/Graphics/SVG/1.1/DTD/svg11.dtd">
<svg width="100%" height="100%" viewBox="0 0 1415 1304" version="1.1" xmlns="http://www.w3.org/2000/svg" xmlns:xlink="http://www.w3.org/1999/xlink" xml:space="preserve" xmlns:serif="http://www.serif.com/" style="fill-rule:evenodd;clip-rule:evenodd;stroke-linejoin:round;stroke-miterlimit:2;">
    <g id="logo_2_neg" transform="matrix(1.17377,0,0,1.17377,-91.579,-52.71)">
        <g>
            <g id="logoVictima">
                <g id="logo_2_neg1" serif:id="logo_2_neg">
                    <g transform="matrix(0.956833,0,0,0.560547,-262.944,661.075)">
                        <g>
                            <g transform="matrix(1.04511,0,0,1.78397,-15.835,-290.854)">
                                <path d="M458.918,607.298L464.169,625.767L465.256,625.767L470.507,607.298L549.816,389.831L573.174,389.831L475.034,653.471L454.392,653.471L356.251,389.831L379.79,389.831L458.918,607.298Z" style="fill:#46294b;fill-rule:nonzero;"/>
                            </g>
                            <g transform="matrix(1.04511,0,0,1.78397,-15.835,-290.854)">
                                <path d="M631.298,653.471L609.75,653.471L609.75,457.552L631.298,457.552L631.298,653.471ZM631.298,401.42L609.75,401.42L609.75,371L631.298,371L631.298,401.42Z" style="fill:#46294b;fill-rule:nonzero;"/>
                            </g>
                            <g transform="matrix(1.04511,0,0,1.78397,-15.835,-290.854)">
                                <path d="M762.936,638.985C776.819,638.985 789.101,634.881 799.784,626.672C810.468,618.464 815.809,607.056 815.809,592.45L835.184,592.45L835.546,593.536C836.029,611.643 828.907,626.793 814.18,638.985C799.452,651.177 782.371,657.273 762.936,657.273C736.862,657.273 716.552,648.099 702.006,629.75C687.46,611.402 680.187,587.923 680.187,559.314L680.187,551.709C680.187,523.22 687.43,499.802 701.916,481.453C716.401,463.105 736.681,453.931 762.755,453.931C783.76,453.931 801.263,460.268 815.266,472.943C829.269,485.618 836.029,502.276 835.546,522.919L835.184,524.005L815.809,524.005C815.809,508.312 810.679,495.788 800.418,486.433C790.157,477.077 777.603,472.4 762.755,472.4C742.234,472.4 726.964,479.944 716.944,495.034C706.925,510.123 701.916,529.015 701.916,551.709L701.916,559.314C701.916,582.37 706.925,601.413 716.944,616.442C726.964,631.471 742.294,638.985 762.936,638.985Z" style="fill:#46294b;fill-rule:nonzero;"/>
                            </g>
                            <g transform="matrix(1.04511,0,0,1.78397,-15.835,-290.854)">
                                <path d="M915.941,407.395L915.941,457.552L959.036,457.552L959.036,475.297L915.941,475.297L915.941,602.952C915.941,615.748 918.265,624.831 922.913,630.203C927.56,635.575 933.747,638.261 941.472,638.261C944.128,638.261 946.693,638.11 949.168,637.808C951.643,637.506 954.57,636.993 957.95,636.269L961.209,652.384C958.312,653.833 954.721,655.01 950.435,655.915C946.15,656.821 941.895,657.273 937.67,657.273C923.909,657.273 913.195,652.927 905.53,644.236C897.864,635.545 894.032,621.783 894.032,602.952L894.032,475.297L860.172,475.297L860.172,457.552L894.032,457.552L894.032,407.395L915.941,407.395Z" style="fill:#46294b;fill-rule:nonzero;"/>
                            </g>
                            <g transform="matrix(1.04511,0,0,1.78397,-15.835,-290.854)">
                                <path d="M1025.67,653.471L1004.12,653.471L1004.12,457.552L1025.67,457.552L1025.67,653.471ZM1025.67,401.42L1004.12,401.42L1004.12,371L1025.67,371L1025.67,401.42Z" style="fill:#46294b;fill-rule:nonzero;"/>
                            </g>
                            <g transform="matrix(1.04511,0,0,1.78397,-15.835,-290.854)">
                                <path d="M1104.07,457.552L1106.07,489.783C1112.34,478.435 1120.7,469.623 1131.14,463.346C1141.59,457.069 1153.99,453.931 1168.35,453.931C1183.32,453.931 1195.82,457.522 1205.84,464.704C1215.86,471.887 1223.04,482.841 1227.38,497.569C1233.3,483.928 1241.72,473.245 1252.64,465.519C1263.57,457.793 1276.76,453.931 1292.21,453.931C1313.09,453.931 1329.24,460.872 1340.64,474.754C1352.05,488.636 1357.76,510.123 1357.76,539.215L1357.76,653.471L1336.03,653.471L1336.03,538.853C1336.03,514.71 1331.74,497.659 1323.17,487.7C1314.6,477.741 1302.77,472.762 1287.68,472.762C1271.14,472.762 1258.35,477.802 1249.29,487.881C1240.24,497.961 1234.51,510.968 1232.09,526.902C1232.09,528.23 1232.12,529.558 1232.18,530.886C1232.24,532.214 1232.27,533.904 1232.27,535.956L1232.27,653.471L1210.36,653.471L1210.36,538.853C1210.36,515.193 1206.05,498.263 1197.42,488.062C1188.79,477.862 1176.92,472.762 1161.84,472.762C1146.63,472.762 1134.52,476.595 1125.53,484.26C1116.54,491.925 1110.23,502.276 1106.61,515.314L1106.61,653.471L1084.88,653.471L1084.88,457.552L1104.07,457.552Z" style="fill:#46294b;fill-rule:nonzero;"/>
                            </g>
                            <g transform="matrix(1.04511,0,0,1.78397,-15.835,-290.854)">
                                <path d="M1538.28,653.471C1536.95,646.59 1535.96,640.675 1535.3,635.726C1534.63,630.776 1534.3,625.706 1534.3,620.516C1527.54,631.139 1518.06,639.921 1505.87,646.862C1493.68,653.803 1479.68,657.273 1463.86,657.273C1444.67,657.273 1429.79,652.173 1419.23,641.973C1408.67,631.772 1403.38,617.92 1403.38,600.417C1403.38,582.913 1411.05,568.729 1426.38,557.865C1441.71,547.001 1461.63,541.569 1486.13,541.569L1534.3,541.569L1534.3,517.305C1534.3,503.303 1529.86,492.318 1520.99,484.35C1512.12,476.383 1499.59,472.4 1483.42,472.4C1468.57,472.4 1456.59,476.021 1447.48,483.264C1438.36,490.507 1433.8,499.621 1433.8,510.606L1413.7,510.606L1413.34,509.519C1412.62,494.792 1418.93,481.846 1432.27,470.68C1445.6,459.514 1463.02,453.931 1484.5,453.931C1505.99,453.931 1523.25,459.423 1536.29,470.408C1549.33,481.393 1555.85,497.146 1555.85,517.667L1555.85,613.997C1555.85,620.878 1556.24,627.578 1557.02,634.096C1557.81,640.615 1559.11,647.073 1560.92,653.471L1538.28,653.471ZM1466.22,638.08C1482.88,638.08 1497.3,634.126 1509.49,626.22C1521.68,618.313 1529.95,608.143 1534.3,595.709L1534.3,558.227L1485.95,558.227C1468.33,558.227 1453.78,562.422 1442.32,570.812C1430.85,579.201 1425.11,589.311 1425.11,601.141C1425.11,612.247 1428.77,621.18 1436.07,627.94C1443.37,634.7 1453.42,638.08 1466.22,638.08Z" style="fill:#46294b;fill-rule:nonzero;"/>
                            </g>
                        </g>
                    </g>
                    <g transform="matrix(1.25045,0,0,1.25045,-170.534,-180.991)">
                        <g transform="matrix(4.16667,0,0,4.16667,-2094.72,-2282.01)">
                            <path d="M666.147,736.122L666.147,591.122C666.147,591.122 627.858,595.92 603.647,602.583C603.647,602.583 605.261,640.166 608.536,661.49C611.811,682.813 614.626,690.276 627.295,702.804C639.964,715.331 666.147,736.122 666.147,736.122Z" style="fill:#cacaca;fill-rule:nonzero;"/>
                            <path d="M666.147,736.122L666.147,591.122C666.147,591.122 704.435,595.92 728.647,602.583C728.647,602.583 727.032,640.166 723.757,661.49C720.482,682.813 717.667,690.276 704.998,702.804C692.329,715.331 666.147,736.122 666.147,736.122Z" style="fill:#fff;fill-rule:nonzero;"/>
                            <path d="M608.834,606.387C609.351,616.611 610.905,643.975 613.478,660.73C616.57,680.869 618.934,687.504 630.81,699.248C640.585,708.914 658.863,723.841 666.146,729.713L666.147,596.163L666.146,596.163C661.407,596.777 630.697,600.865 608.834,606.387Z" style="fill:#46294b;fill-rule:nonzero;"/>
                            <path d="M701.482,699.248C713.359,687.504 715.723,680.869 718.814,660.73C721.388,643.98 722.942,616.612 723.459,606.387C701.596,600.865 670.886,596.777 666.147,596.163L666.147,729.713C673.43,723.841 691.705,708.916 701.482,699.248Z" style="fill:#46294b;fill-rule:nonzero;"/>
                            <path d="M611.958,608.706C612.593,620.67 614.087,644.93 616.443,660.275C619.41,679.598 621.416,685.74 632.92,697.115C641.837,705.933 657.946,719.209 666.146,725.855L666.147,599.188L666.146,599.188C661.338,599.818 633.053,603.624 611.958,608.706Z" style="fill:#cacaca;fill-rule:nonzero;"/>
                            <path d="M699.373,697.115C710.877,685.74 712.883,679.598 715.85,660.275C718.206,644.935 719.7,620.673 720.335,608.706C699.24,603.624 670.955,599.818 666.147,599.188L666.147,725.855C674.345,719.211 690.452,705.936 699.373,697.115Z" style="fill:#fff;fill-rule:nonzero;"/>
                        </g>
                        <g transform="matrix(0.799709,0,2.22045e-16,0.799709,-3341.37,-253.242)">
                            <path d="M5078.83,770.783C5075.37,764.356 5070.05,758.793 5062.88,754.096C5055.71,749.399 5047.31,747.05 5037.67,747.05C5028.03,747.05 5019.5,749.522 5012.08,754.467C5004.66,759.411 5000.95,766.581 5000.95,775.975C5000.95,780.919 5002.01,785.308 5004.11,789.14C5006.21,792.972 5009.24,796.556 5013.19,799.894C5017.15,803.231 5022.09,806.322 5028.03,809.165C5033.96,812.008 5040.76,815.036 5048.42,818.25C5057.07,821.958 5065.17,825.728 5072.71,829.56C5080.25,833.392 5086.8,837.842 5092.36,842.91C5097.93,847.978 5102.25,853.726 5105.34,860.154C5108.43,866.582 5109.98,873.999 5109.98,882.404C5109.98,893.529 5106.89,903.356 5100.71,911.885C5094.53,920.415 5087.11,926.657 5078.46,930.613C5093.54,940.749 5101.08,955.582 5101.08,975.113C5101.08,985.99 5098.92,995.447 5094.59,1003.48C5090.26,1011.52 5084.58,1018.13 5077.53,1023.32C5070.48,1028.51 5062.45,1032.41 5053.43,1035C5044.4,1037.6 5035.19,1038.9 5025.8,1038.9C5009.73,1038.9 4994.47,1035.43 4980,1028.51C4965.54,1021.59 4954.48,1010.96 4946.81,996.621L4977.59,979.563C4981.79,989.699 4988.47,997.053 4997.62,1001.63C5006.76,1006.2 5016.16,1008.49 5025.8,1008.49C5029.76,1008.49 5034.02,1007.93 5038.59,1006.82C5043.17,1005.71 5047.43,1003.98 5051.39,1001.63C5055.34,999.278 5058.56,996.126 5061.03,992.171C5063.5,988.215 5064.74,983.271 5064.74,977.338C5064.74,972.146 5063.75,967.634 5061.77,963.802C5059.79,959.97 5056.64,956.447 5052.32,953.233C5047.99,950.019 5042.49,946.867 5035.81,943.777C5029.14,940.687 5020.98,937.04 5011.34,932.838C5003.43,929.376 4995.95,925.853 4988.9,922.269C4981.86,918.684 4975.74,914.667 4970.55,910.217C4965.35,905.767 4961.21,900.575 4958.12,894.642C4955.03,888.708 4953.49,881.539 4953.49,873.133C4953.49,860.278 4957.07,849.524 4964.24,840.871C4971.41,832.218 4980.19,825.79 4990.57,821.588C4983.9,817.385 4977.96,811.884 4972.77,805.085C4967.58,798.287 4964.98,789.325 4964.98,778.2C4964.98,768.064 4967.09,759.226 4971.29,751.685C4975.49,744.145 4980.99,737.903 4987.79,732.958C4994.59,728.014 5002.31,724.306 5010.97,721.833C5019.62,719.361 5028.4,718.125 5037.3,718.125C5052.87,718.125 5066.53,721.092 5078.27,727.025C5090.02,732.958 5098.98,741.117 5105.16,751.5L5078.83,770.783ZM5015.05,838.275C5012.08,839.017 5008.93,840.191 5005.59,841.798C5002.25,843.405 4999.28,845.383 4996.69,847.731C4994.09,850.08 4991.93,852.923 4990.2,856.26C4988.47,859.598 4987.6,863.492 4987.6,867.942C4987.6,872.639 4988.53,876.718 4990.39,880.179C4992.24,883.64 4994.77,886.669 4997.99,889.265C5001.2,891.86 5004.97,894.209 5009.3,896.31C5013.62,898.412 5018.14,900.575 5022.83,902.8L5053.98,916.15C5059.67,914.172 5064.74,910.649 5069.19,905.581C5073.64,900.513 5075.86,894.394 5075.86,887.225C5075.86,882.033 5074.94,877.583 5073.08,873.875C5071.23,870.167 5068.76,866.891 5065.66,864.048C5062.57,861.205 5059.05,858.733 5055.1,856.631C5051.14,854.53 5047.06,852.49 5042.86,850.513L5015.05,838.275Z" style="fill:#46294b;fill-rule:nonzero;"/>
                        </g>
                    </g>
                </g>
            </g>
        </g>
    </g>
</svg>
