<?xml version="1.0" encoding="UTF-8" standalone="no"?>
<!DOCTYPE svg PUBLIC "-//W3C//DTD SVG 1.1//EN" "http://www.w3.org/Graphics/SVG/1.1/DTD/svg11.dtd">
<svg width="100%" height="100%" viewBox="0 0 181 182" version="1.1" xmlns="http://www.w3.org/2000/svg" xmlns:xlink="http://www.w3.org/1999/xlink" xml:space="preserve" xmlns:serif="http://www.serif.com/" style="fill-rule:evenodd;clip-rule:evenodd;stroke-linejoin:round;stroke-miterlimit:2;">
    <g transform="matrix(1,0,0,1,-2873,-80)">
        <g transform="matrix(1,0,0,1,740,0)">
            <g id="audioclinic" transform="matrix(0.38915,0,0,0.38915,2093.54,61.5913)">
                <g id="text">
                    <g transform="matrix(1,0,0,1,200.773,505.112)">
                        <path d="M0,-10.125C-1.335,-10.125 -2.444,-9.652 -3.327,-8.709C-4.209,-7.765 -4.651,-6.555 -4.651,-5.078C-4.651,-3.592 -4.202,-2.368 -3.303,-1.408C-2.404,-0.448 -1.298,0.031 0.016,0.031C1.372,0.031 2.496,-0.44 3.39,-1.385C4.283,-2.328 4.729,-3.564 4.729,-5.094C4.729,-6.592 4.283,-7.805 3.39,-8.732C2.496,-9.66 1.367,-10.125 0,-10.125M4.54,-13.668L8.858,-13.668L8.858,3.543L4.54,3.543L4.54,1.724C3.697,2.525 2.852,3.103 2.004,3.456C1.156,3.81 0.237,3.986 -0.753,3.986C-2.976,3.986 -4.898,3.124 -6.521,1.399C-8.143,-0.325 -8.954,-2.468 -8.954,-5.031C-8.954,-7.688 -8.169,-9.866 -6.599,-11.564C-5.03,-13.262 -3.124,-14.111 -0.879,-14.111C0.153,-14.111 1.122,-13.916 2.027,-13.525C2.933,-13.136 3.771,-12.55 4.54,-11.77L4.54,-13.668Z" style="fill:rgb(236,102,24);fill-rule:nonzero;"/>
                    </g>
                    <g transform="matrix(1,0,0,1,222.824,510.965)">
                        <path d="M0,-15.978C-1.36,-15.978 -2.489,-15.513 -3.385,-14.585C-4.282,-13.658 -4.729,-12.445 -4.729,-10.947C-4.729,-9.417 -4.282,-8.181 -3.385,-7.238C-2.489,-6.293 -1.36,-5.822 0,-5.822C1.318,-5.822 2.428,-6.301 3.33,-7.261C4.232,-8.221 4.683,-9.445 4.683,-10.931C4.683,-12.408 4.24,-13.618 3.354,-14.562C2.468,-15.505 1.35,-15.978 0,-15.978M-4.54,-19.521L-4.54,-17.623C-3.759,-18.403 -2.916,-18.989 -2.009,-19.378C-1.102,-19.769 -0.132,-19.964 0.902,-19.964C3.148,-19.964 5.057,-19.115 6.628,-17.417C8.2,-15.719 8.985,-13.541 8.985,-10.884C8.985,-8.321 8.173,-6.178 6.549,-4.454C4.925,-2.729 3,-1.867 0.775,-1.867C-0.216,-1.867 -1.139,-2.043 -1.993,-2.397C-2.847,-2.75 -3.696,-3.328 -4.54,-4.129L-4.54,3.986L-8.827,3.986L-8.827,-19.521L-4.54,-19.521Z" style="fill:rgb(236,102,24);fill-rule:nonzero;"/>
                    </g>
                    <g transform="matrix(1,0,0,1,243.547,505.112)">
                        <path d="M0,-10.125C-1.335,-10.125 -2.444,-9.652 -3.327,-8.709C-4.209,-7.765 -4.651,-6.555 -4.651,-5.078C-4.651,-3.592 -4.202,-2.368 -3.303,-1.408C-2.404,-0.448 -1.298,0.031 0.016,0.031C1.372,0.031 2.496,-0.44 3.39,-1.385C4.283,-2.328 4.729,-3.564 4.729,-5.094C4.729,-6.592 4.283,-7.805 3.39,-8.732C2.496,-9.66 1.367,-10.125 0,-10.125M4.54,-13.668L8.858,-13.668L8.858,3.543L4.54,3.543L4.54,1.724C3.697,2.525 2.852,3.103 2.004,3.456C1.156,3.81 0.237,3.986 -0.753,3.986C-2.976,3.986 -4.898,3.124 -6.521,1.399C-8.143,-0.325 -8.954,-2.468 -8.954,-5.031C-8.954,-7.688 -8.169,-9.866 -6.599,-11.564C-5.03,-13.262 -3.124,-14.111 -0.879,-14.111C0.153,-14.111 1.122,-13.916 2.027,-13.525C2.933,-13.136 3.771,-12.55 4.54,-11.77L4.54,-13.668Z" style="fill:rgb(236,102,24);fill-rule:nonzero;"/>
                    </g>
                    <g transform="matrix(1,0,0,1,255.759,508.212)">
                        <path d="M0,-16.768L3.702,-16.768L3.702,-14.601C4.103,-15.456 4.635,-16.104 5.299,-16.546C5.964,-16.99 6.691,-17.211 7.482,-17.211C8.042,-17.211 8.626,-17.063 9.238,-16.768L7.894,-13.05C7.388,-13.304 6.971,-13.43 6.644,-13.43C5.98,-13.43 5.418,-13.019 4.959,-12.197C4.5,-11.373 4.271,-9.76 4.271,-7.356L4.287,-6.517L4.287,0.443L0,0.443L0,-16.768Z" style="fill:rgb(236,102,24);fill-rule:nonzero;"/>
                    </g>
                    <g transform="matrix(1,0,0,1,275.296,505.112)">
                        <path d="M0,-10.125C-1.335,-10.125 -2.444,-9.652 -3.327,-8.709C-4.209,-7.765 -4.651,-6.555 -4.651,-5.078C-4.651,-3.592 -4.202,-2.368 -3.303,-1.408C-2.404,-0.448 -1.298,0.031 0.016,0.031C1.372,0.031 2.496,-0.44 3.39,-1.385C4.283,-2.328 4.729,-3.564 4.729,-5.094C4.729,-6.592 4.283,-7.805 3.39,-8.732C2.496,-9.66 1.367,-10.125 0,-10.125M4.54,-13.668L8.858,-13.668L8.858,3.543L4.54,3.543L4.54,1.724C3.697,2.525 2.852,3.103 2.004,3.456C1.156,3.81 0.237,3.986 -0.753,3.986C-2.976,3.986 -4.898,3.124 -6.521,1.399C-8.143,-0.325 -8.954,-2.468 -8.954,-5.031C-8.954,-7.688 -8.169,-9.866 -6.599,-11.564C-5.03,-13.262 -3.124,-14.111 -0.879,-14.111C0.153,-14.111 1.122,-13.916 2.027,-13.525C2.933,-13.136 3.771,-12.55 4.54,-11.77L4.54,-13.668Z" style="fill:rgb(236,102,24);fill-rule:nonzero;"/>
                    </g>
                    <g transform="matrix(1,0,0,1,289.043,508.656)">
                        <path d="M0,-23.555L4.318,-23.555L4.318,-17.211L6.881,-17.211L6.881,-13.493L4.318,-13.493L4.318,0L0,0L0,-13.493L-2.215,-13.493L-2.215,-17.211L0,-17.211L0,-23.555Z" style="fill:rgb(236,102,24);fill-rule:nonzero;"/>
                    </g>
                    <g transform="matrix(1,0,0,1,296.324,514.951)">
                        <path d="M0,-23.507L4.413,-23.507L8.884,-12.708L13.817,-23.507L18.243,-23.507L7.463,0L3.003,0L6.542,-7.58L0,-23.507Z" style="fill:rgb(236,102,24);fill-rule:nonzero;"/>
                    </g>
                    <g transform="matrix(1,0,0,1,336.625,506.251)">
                        <path d="M0,-12.402L-2.673,-9.728C-3.76,-10.804 -4.746,-11.342 -5.631,-11.342C-6.117,-11.342 -6.496,-11.239 -6.771,-11.034C-7.045,-10.828 -7.182,-10.572 -7.182,-10.266C-7.182,-10.034 -7.095,-9.821 -6.92,-9.626C-6.747,-9.43 -6.317,-9.164 -5.631,-8.827L-4.049,-8.036C-2.383,-7.214 -1.239,-6.375 -0.617,-5.52C0.005,-4.667 0.316,-3.665 0.316,-2.515C0.316,-0.986 -0.245,0.29 -1.368,1.313C-2.491,2.336 -3.997,2.848 -5.884,2.848C-8.395,2.848 -10.398,1.867 -11.896,-0.094L-9.238,-2.99C-8.732,-2.399 -8.139,-1.922 -7.458,-1.558C-6.778,-1.194 -6.175,-1.012 -5.647,-1.012C-5.078,-1.012 -4.619,-1.149 -4.271,-1.423C-3.923,-1.698 -3.749,-2.014 -3.749,-2.373C-3.749,-3.037 -4.376,-3.685 -5.631,-4.318L-7.087,-5.047C-9.871,-6.449 -11.263,-8.205 -11.263,-10.314C-11.263,-11.674 -10.738,-12.837 -9.689,-13.801C-8.64,-14.767 -7.298,-15.25 -5.663,-15.25C-4.545,-15.25 -3.493,-15.005 -2.507,-14.513C-1.521,-14.023 -0.686,-13.319 0,-12.402" style="fill:rgb(236,102,24);fill-rule:nonzero;"/>
                    </g>
                    <g transform="matrix(1,0,0,1,345.5,501.136)">
                        <path d="M0,-8.817L1.708,-10.739L1.708,-6.782L0,-4.871L0,7.519L-4.318,7.519L-4.318,-0.041L-6.042,1.887L-6.042,-2.022L-4.318,-3.962L-4.318,-16.336L0,-16.336L0,-8.817Z" style="fill:rgb(236,102,24);fill-rule:nonzero;"/>
                    </g>
                    <g transform="matrix(1,0,0,1,350.688,509.098)">
                        <path d="M0,-17.654L4.366,-17.654L4.366,-9.365C4.366,-7.752 4.477,-6.631 4.699,-6.004C4.921,-5.376 5.278,-4.888 5.77,-4.54C6.261,-4.192 6.866,-4.018 7.585,-4.018C8.304,-4.018 8.915,-4.189 9.417,-4.532C9.919,-4.875 10.292,-5.379 10.535,-6.043C10.714,-6.539 10.805,-7.598 10.805,-9.222L10.805,-17.654L15.123,-17.654L15.123,-10.362C15.123,-7.356 14.886,-5.3 14.411,-4.192C13.831,-2.842 12.977,-1.806 11.849,-1.084C10.72,-0.361 9.286,0 7.546,0C5.658,0 4.131,-0.422 2.966,-1.265C1.801,-2.109 0.981,-3.285 0.506,-4.794C0.169,-5.838 0,-7.736 0,-10.488L0,-17.654Z" style="fill:rgb(236,102,24);fill-rule:nonzero;"/>
                    </g>
                    <g transform="matrix(1,0,0,1,386.993,505.175)">
                        <path d="M0,-10.25L-3.594,-8.273C-4.27,-8.979 -4.937,-9.47 -5.598,-9.744C-6.258,-10.019 -7.031,-10.155 -7.918,-10.155C-9.533,-10.155 -10.84,-9.674 -11.838,-8.71C-12.836,-7.747 -13.336,-6.512 -13.336,-5.007C-13.336,-3.543 -12.855,-2.348 -11.895,-1.421C-10.934,-0.494 -9.672,-0.031 -8.109,-0.031C-6.176,-0.031 -4.672,-0.69 -3.594,-2.009L-0.189,0.323C-2.035,2.724 -4.641,3.924 -8.004,3.924C-11.031,3.924 -13.4,3.027 -15.115,1.234C-16.828,-0.559 -17.686,-2.657 -17.686,-5.062C-17.686,-6.728 -17.269,-8.263 -16.436,-9.665C-15.602,-11.067 -14.439,-12.17 -12.947,-12.972C-11.455,-13.772 -9.787,-14.174 -7.941,-14.174C-6.232,-14.174 -4.697,-13.833 -3.338,-13.153C-1.977,-12.473 -0.865,-11.505 0,-10.25" style="fill:rgb(236,102,24);fill-rule:nonzero;"/>
                    </g>
                    <g transform="matrix(1,0,0,1,390.901,508.655)">
                        <path d="M0,-23.854L4.286,-23.854L4.286,-15.47C5.13,-16.198 5.979,-16.744 6.833,-17.108C7.687,-17.471 8.552,-17.654 9.428,-17.654C11.136,-17.654 12.575,-17.063 13.746,-15.881C14.748,-14.859 15.249,-13.356 15.249,-11.374L15.249,0L10.994,0L10.994,-7.545C10.994,-9.539 10.898,-10.888 10.709,-11.595C10.52,-12.301 10.195,-12.829 9.736,-13.176C9.277,-13.525 8.71,-13.699 8.035,-13.699C7.16,-13.699 6.409,-13.409 5.781,-12.829C5.154,-12.249 4.719,-11.458 4.477,-10.456C4.35,-9.939 4.286,-8.757 4.286,-6.913L4.286,0L0,0L0,-23.854Z" style="fill:rgb(236,102,24);fill-rule:nonzero;"/>
                    </g>
                    <g transform="matrix(1,0,0,1,418.481,505.033)">
                        <path d="M0,-9.967C-1.342,-9.967 -2.459,-9.5 -3.352,-8.567C-4.244,-7.633 -4.69,-6.439 -4.69,-4.984C-4.69,-3.486 -4.25,-2.273 -3.367,-1.345C-2.485,-0.417 -1.368,0.047 -0.016,0.047C1.336,0.047 2.461,-0.422 3.359,-1.362C4.257,-2.3 4.706,-3.507 4.706,-4.984C4.706,-6.46 4.265,-7.659 3.383,-8.582C2.501,-9.505 1.373,-9.967 0,-9.967M-0.071,-14.032C1.553,-14.032 3.079,-13.626 4.508,-12.814C5.937,-12.002 7.053,-10.9 7.854,-9.508C8.655,-8.115 9.056,-6.613 9.056,-4.999C9.056,-3.375 8.652,-1.857 7.846,-0.444C7.039,0.97 5.939,2.074 4.548,2.871C3.155,3.667 1.621,4.065 -0.056,4.065C-2.523,4.065 -4.63,3.187 -6.375,1.43C-8.121,-0.325 -8.993,-2.458 -8.993,-4.968C-8.993,-7.657 -8.007,-9.898 -6.035,-11.691C-4.306,-13.251 -2.317,-14.032 -0.071,-14.032" style="fill:rgb(236,102,24);fill-rule:nonzero;"/>
                    </g>
                    <g transform="matrix(1,0,0,1,429.158,508.655)">
                        <path d="M0,-17.211L4.228,-17.211L7.688,-7.419L11.412,-17.211L13.998,-17.211L17.654,-7.53L21.119,-17.211L25.374,-17.211L19.094,0L16.357,0L12.688,-9.808L8.906,0L6.201,0L0,-17.211Z" style="fill:rgb(236,102,24);fill-rule:nonzero;"/>
                    </g>
                    <g transform="matrix(1,0,0,1,469.9,502.201)">
                        <path d="M0,-4.303C-0.285,-5.263 -0.849,-6.043 -1.688,-6.644C-2.528,-7.245 -3.502,-7.546 -4.611,-7.546C-5.815,-7.546 -6.872,-7.208 -7.78,-6.533C-8.351,-6.112 -8.879,-5.368 -9.365,-4.303L0,-4.303ZM4.318,-0.902L-9.555,-0.902C-9.354,0.322 -8.819,1.295 -7.949,2.016C-7.079,2.739 -5.97,3.1 -4.619,3.1C-3.006,3.1 -1.619,2.536 -0.459,1.408L3.18,3.116C2.272,4.403 1.187,5.354 -0.079,5.971C-1.345,6.589 -2.848,6.897 -4.588,6.897C-7.288,6.897 -9.486,6.046 -11.185,4.342C-12.883,2.639 -13.731,0.506 -13.731,-2.057C-13.731,-4.683 -12.885,-6.863 -11.192,-8.598C-9.5,-10.332 -7.377,-11.2 -4.825,-11.2C-2.115,-11.2 0.089,-10.332 1.787,-8.598C3.485,-6.863 4.334,-4.572 4.334,-1.725L4.318,-0.902Z" style="fill:rgb(236,102,24);fill-rule:nonzero;"/>
                    </g>
                    <g transform="matrix(1,0,0,1,114.757,434.839)">
                        <path d="M0,24.271C0,20.296 1.188,17.04 3.564,14.499C5.941,11.958 8.926,10.688 12.519,10.688C16.197,10.688 19.238,11.937 21.643,14.435C24.047,16.933 25.25,20.198 25.25,24.228C25.25,24.257 25.247,24.284 25.247,24.313L36.363,24.313L36.363,1.15L24.739,1.15L24.739,6.259C22.668,4.159 20.415,2.584 17.976,1.533C15.538,0.483 12.93,-0.042 10.151,-0.042C4.111,-0.042 -1.02,2.243 -5.245,6.813C-9.453,11.365 -11.562,17.199 -11.579,24.313L0.002,24.313C0.002,24.299 0,24.285 0,24.271" style="fill:rgb(236,102,26);fill-rule:nonzero;"/>
                    </g>
                    <g transform="matrix(1,0,0,1,136.399,477.456)">
                        <path d="M0,-8.403C-2.404,-5.862 -5.432,-4.592 -9.082,-4.592C-12.618,-4.592 -15.596,-5.883 -18.015,-8.467C-19.598,-10.157 -20.652,-12.158 -21.199,-14.456L-32.967,-14.456C-32.3,-9.201 -30.22,-4.677 -26.675,-0.909C-22.309,3.733 -17.134,6.053 -11.151,6.053C-8.486,6.053 -6.012,5.577 -3.729,4.626C-1.448,3.676 0.828,2.121 3.096,-0.036L3.096,4.861L14.721,4.861L14.721,-14.456L3.176,-14.456C2.635,-12.099 1.584,-10.076 0,-8.403" style="fill:rgb(236,102,26);fill-rule:nonzero;"/>
                    </g>
                    <g transform="matrix(1,0,0,1,191.187,479.266)">
                        <path d="M0,-12.023C-0.655,-10.235 -1.657,-8.878 -3.009,-7.957C-4.361,-7.034 -6.004,-6.573 -7.939,-6.573C-9.875,-6.573 -11.504,-7.042 -12.827,-7.978C-14.15,-8.915 -15.111,-10.227 -15.708,-11.917C-16.058,-12.906 -16.303,-14.365 -16.448,-16.266L-28.139,-16.266C-27.921,-12.9 -27.542,-10.354 -26.994,-8.66C-25.716,-4.599 -23.51,-1.435 -20.373,0.836C-17.236,3.107 -13.127,4.243 -8.045,4.243C-3.362,4.243 0.499,3.27 3.536,1.326C6.573,-0.619 8.873,-3.408 10.434,-7.042C11.276,-9.005 11.839,-12.085 12.126,-16.266L0.621,-16.266C0.507,-14.267 0.3,-12.851 0,-12.023" style="fill:rgb(236,102,26);fill-rule:nonzero;"/>
                    </g>
                    <g transform="matrix(1,0,0,1,174.582,436.841)">
                        <path d="M0,21.46L0,-0.852L-11.752,-0.852L-11.752,18.438C-11.752,19.818 -11.731,21.091 -11.699,22.312L0.008,22.312C0.005,22.029 0,21.755 0,21.46" style="fill:rgb(236,102,26);fill-rule:nonzero;"/>
                    </g>
                    <g transform="matrix(1,0,0,1,203.537,439.524)">
                        <path d="M0,16.094L0,-3.535L-11.625,-3.535L-11.625,19.16C-11.625,19.324 -11.627,19.47 -11.628,19.629L-0.047,19.629C-0.017,18.508 0,17.335 0,16.094" style="fill:rgb(236,102,26);fill-rule:nonzero;"/>
                    </g>
                    <g transform="matrix(1,0,0,1,224.657,418.147)">
                        <path d="M0,40.963C0,36.988 1.188,33.732 3.564,31.191C5.941,28.65 8.926,27.38 12.519,27.38C16.197,27.38 19.238,28.629 21.643,31.127C24.047,33.625 25.25,36.89 25.25,40.92C25.25,40.949 25.247,40.976 25.247,41.005L36.363,41.005L36.363,-0.042L24.739,-0.042L24.739,22.951C22.668,20.851 20.415,19.276 17.976,18.225C15.538,17.175 12.93,16.65 10.151,16.65C4.111,16.65 -1.02,18.935 -5.245,23.505C-9.453,28.057 -11.562,33.891 -11.579,41.005L0.002,41.005C0.002,40.991 0,40.977 0,40.963" style="fill:rgb(236,102,26);fill-rule:nonzero;"/>
                    </g>
                    <g transform="matrix(1,0,0,1,246.299,477.456)">
                        <path d="M0,-8.403C-2.404,-5.862 -5.432,-4.592 -9.082,-4.592C-12.618,-4.592 -15.596,-5.883 -18.015,-8.467C-19.598,-10.157 -20.652,-12.158 -21.199,-14.456L-32.967,-14.456C-32.3,-9.201 -30.22,-4.677 -26.675,-0.909C-22.309,3.733 -17.134,6.053 -11.151,6.053C-8.486,6.053 -6.012,5.577 -3.729,4.626C-1.448,3.676 0.828,2.121 3.096,-0.036L3.096,4.861L14.721,4.861L14.721,-14.456L3.176,-14.456C2.635,-12.099 1.584,-10.076 0,-8.403" style="fill:rgb(236,102,26);fill-rule:nonzero;"/>
                    </g>
                    <g transform="matrix(-1,0,0,1,554.615,299.862)">
                        <rect x="271.495" y="136.127" width="11.625" height="23.164" style="fill:rgb(236,102,26);"/>
                    </g>
                    <g transform="matrix(1,0,0,1,277.393,416.913)">
                        <path d="M0,15.073C2.009,15.073 3.736,14.343 5.18,12.881C6.623,11.419 7.345,9.651 7.345,7.579C7.345,5.478 6.616,3.69 5.158,2.214C3.701,0.738 1.953,0 -0.085,0C-2.124,0 -3.864,0.723 -5.308,2.172C-6.751,3.619 -7.473,5.365 -7.473,7.409C-7.473,9.538 -6.744,11.347 -5.287,12.838C-3.829,14.328 -2.066,15.073 0,15.073" style="fill:rgb(236,102,26);fill-rule:nonzero;"/>
                    </g>
                    <g transform="matrix(1,0,0,1,0,350.036)">
                        <rect x="271.495" y="112.964" width="11.625" height="19.316" style="fill:rgb(236,102,26);"/>
                    </g>
                    <g transform="matrix(1,0,0,1,324.672,477.605)">
                        <path d="M0,-8.702C-2.417,-6.175 -5.446,-4.912 -9.085,-4.912C-12.725,-4.912 -15.732,-6.161 -18.106,-8.659C-19.671,-10.306 -20.709,-12.293 -21.243,-14.605L-32.957,-14.605C-32.223,-9.477 -29.99,-4.996 -26.202,-1.186C-21.504,3.54 -15.834,5.903 -9.191,5.903C-4.678,5.903 -0.548,4.831 3.199,2.689C6.946,0.545 9.906,-2.428 12.078,-6.232C13.591,-8.884 14.565,-11.677 15.024,-14.605L3.184,-14.605C2.638,-12.329 1.583,-10.357 0,-8.702" style="fill:rgb(236,102,26);fill-rule:nonzero;"/>
                    </g>
                    <g transform="matrix(1,0,0,1,303.005,434.797)">
                        <path d="M0,24.355C0,20.438 1.201,17.223 3.604,14.71C6.006,12.199 9.014,10.943 12.625,10.943C16.322,10.943 19.357,12.185 21.731,14.668C24.105,17.153 25.293,20.381 25.293,24.355L37.001,24.355C37.001,24.341 37.002,24.327 37.002,24.313C37.002,19.969 35.923,15.924 33.766,12.177C31.608,8.43 28.606,5.464 24.76,3.278C20.914,1.092 16.805,0 12.434,0C6.387,0 1.036,2.1 -3.619,6.301C-8.917,11.118 -11.571,17.136 -11.581,24.355L0,24.355Z" style="fill:rgb(236,102,26);fill-rule:nonzero;"/>
                    </g>
                    <g transform="matrix(1,0,0,1,362.983,444.448)">
                        <path d="M0,5.054C2.685,2.461 6.203,1.164 10.552,1.164C12.939,1.164 15.021,1.533 16.796,2.271C18.574,3.01 20.371,4.329 22.189,6.232L31.867,0.908C29.539,-2.469 26.544,-5.074 22.882,-6.905C19.22,-8.736 15.089,-9.651 10.492,-9.651C5.523,-9.651 1.031,-8.572 -2.985,-6.415C-7.002,-4.258 -10.132,-1.291 -12.374,2.485C-14.589,6.212 -15.705,10.286 -15.733,14.705L-4.015,14.705C-3.945,10.799 -2.614,7.578 0,5.054" style="fill:rgb(236,102,26);fill-rule:nonzero;"/>
                    </g>
                    <g transform="matrix(1,0,0,1,354.165,470.239)">
                        <path d="M0,6.031C4.613,10.858 10.993,13.27 19.141,13.27C28.195,13.27 35.207,10.04 40.174,3.579L31.008,-2.698C28.109,0.851 24.061,2.625 18.859,2.625C14.652,2.625 11.256,1.379 8.67,-1.116C6.905,-2.817 5.758,-4.864 5.197,-7.239L-6.631,-7.239C-5.907,-2.285 -3.715,2.145 0,6.031" style="fill:rgb(236,102,26);fill-rule:nonzero;"/>
                    </g>
                    <g transform="matrix(1,0,0,1,0,350.036)">
                        <rect x="404.047" y="112.964" width="11.624" height="19.316" style="fill:rgb(236,102,26);"/>
                    </g>
                    <g transform="matrix(-1,0,0,1,819.718,281.977)">
                        <rect x="404.047" y="136.128" width="11.624" height="41.047" style="fill:rgb(236,102,26);"/>
                    </g>
                    <g transform="matrix(1,0,0,1,430.852,416.913)">
                        <path d="M0,15.073C2.009,15.073 3.735,14.343 5.18,12.881C6.623,11.419 7.345,9.651 7.345,7.579C7.345,5.478 6.616,3.69 5.158,2.214C3.7,0.738 1.953,0 -0.085,0C-2.124,0 -3.864,0.723 -5.308,2.172C-6.752,3.619 -7.473,5.365 -7.473,7.409C-7.473,9.538 -6.744,11.347 -5.287,12.838C-3.829,14.328 -2.066,15.073 0,15.073" style="fill:rgb(236,102,26);fill-rule:nonzero;"/>
                    </g>
                    <g transform="matrix(1,0,0,1,0,350.036)">
                        <rect x="424.955" y="112.964" width="11.624" height="19.316" style="fill:rgb(236,102,26);"/>
                    </g>
                    <g transform="matrix(-1,0,0,1,861.534,299.862)">
                        <rect x="424.955" y="136.127" width="11.624" height="23.164" style="fill:rgb(236,102,26);"/>
                    </g>
                    <g transform="matrix(1,0,0,1,447.139,463)">
                        <path d="M0,19.316L11.625,19.316L11.625,0.73C11.625,0.475 11.627,0.245 11.628,0L0,0L0,19.316Z" style="fill:rgb(236,102,26);fill-rule:nonzero;"/>
                    </g>
                    <g transform="matrix(1,0,0,1,0,350.036)">
                        <rect x="476.733" y="112.964" width="11.496" height="19.316" style="fill:rgb(236,102,26);"/>
                    </g>
                    <g transform="matrix(1,0,0,1,459.273,439.619)">
                        <path d="M0,14.712C0.651,11.934 1.82,9.758 3.505,8.184C5.189,6.609 7.208,5.822 9.559,5.822C11.371,5.822 12.893,6.298 14.124,7.248C15.356,8.198 16.22,9.58 16.716,11.395C17.119,12.872 17.356,15.599 17.431,19.534L28.956,19.534L28.956,12.082C28.956,6.745 27.609,2.714 24.917,-0.011C21.714,-3.219 17.816,-4.822 13.225,-4.822C10.984,-4.822 8.795,-4.388 6.655,-3.519C4.515,-2.65 2.127,-1.104 -0.509,1.117L-0.509,-3.63L-12.134,-3.63L-12.134,19.534L-0.441,19.534C-0.363,17.245 -0.216,15.633 0,14.712" style="fill:rgb(236,102,26);fill-rule:nonzero;"/>
                    </g>
                    <g transform="matrix(1,0,0,1,504.09,416.913)">
                        <path d="M0,15.073C2.009,15.073 3.735,14.343 5.18,12.881C6.623,11.419 7.345,9.651 7.345,7.579C7.345,5.478 6.616,3.69 5.158,2.214C3.7,0.738 1.953,0 -0.085,0C-2.124,0 -3.864,0.723 -5.308,2.172C-6.752,3.619 -7.473,5.365 -7.473,7.409C-7.473,9.538 -6.744,11.347 -5.287,12.838C-3.829,14.328 -2.066,15.073 0,15.073" style="fill:rgb(236,102,26);fill-rule:nonzero;"/>
                    </g>
                    <g transform="matrix(1,0,0,1,0,350.036)">
                        <rect x="498.193" y="112.964" width="11.624" height="19.316" style="fill:rgb(236,102,26);"/>
                    </g>
                    <g transform="matrix(-1,0,0,1,1008.01,299.862)">
                        <rect x="498.193" y="136.127" width="11.624" height="23.164" style="fill:rgb(236,102,26);"/>
                    </g>
                    <g transform="matrix(1,0,0,1,525.04,470.239)">
                        <path d="M0,6.031C4.612,10.858 10.992,13.27 19.14,13.27C28.194,13.27 35.206,10.04 40.174,3.579L31.008,-2.698C28.109,0.851 24.06,2.625 18.858,2.625C14.652,2.625 11.256,1.379 8.669,-1.116C6.905,-2.817 5.757,-4.864 5.197,-7.239L-6.631,-7.239C-5.908,-2.285 -3.715,2.145 0,6.031" style="fill:rgb(236,102,26);fill-rule:nonzero;"/>
                    </g>
                    <g transform="matrix(1,0,0,1,533.858,444.448)">
                        <path d="M0,5.054C2.686,2.461 6.203,1.164 10.552,1.164C12.938,1.164 15.021,1.533 16.797,2.271C18.573,3.01 20.371,4.329 22.189,6.232L31.867,0.908C29.539,-2.469 26.544,-5.074 22.882,-6.905C19.221,-8.736 15.09,-9.651 10.491,-9.651C5.523,-9.651 1.031,-8.572 -2.985,-6.415C-7.003,-4.258 -10.132,-1.291 -12.374,2.485C-14.589,6.212 -15.705,10.286 -15.733,14.705L-4.015,14.705C-3.945,10.799 -2.614,7.578 0,5.054" style="fill:rgb(236,102,26);fill-rule:nonzero;"/>
                    </g>
                </g>
                <g id="logo">
                    <g transform="matrix(1,0,0,1,405.163,195.667)">
                        <path d="M0,106.666C-5,94.999 -26.333,65.666 -34,55.333C-41.667,44.999 -54.333,24.666 -48.333,-6.667C-42.333,-38.001 -23,-64.001 31.333,-49.001C33.89,-48.023 37.128,-46.564 40.582,-44.456C11.732,-80.832 -32.848,-104.167 -82.882,-104.167C-169.867,-104.167 -240.382,-33.652 -240.382,53.333C-240.382,140.318 -169.867,210.833 -82.882,210.833C-27.845,210.833 20.589,182.597 48.749,139.828C46.008,141.452 42.689,142.377 38.667,142.333C8.333,141.999 5,118.333 0,106.666" style="fill:rgb(236,102,24);fill-rule:nonzero;"/>
                    </g>
                    <g transform="matrix(1,0,0,1,224.838,228.54)">
                        <path d="M0,27.138C0,22.694 1.328,19.052 3.986,16.211C6.643,13.371 9.98,11.95 13.998,11.95C18.111,11.95 21.512,13.347 24.2,16.14C26.888,18.933 28.234,22.583 28.234,27.09C28.234,27.123 28.23,27.153 28.23,27.186L40.66,27.186L40.66,1.285L27.662,1.285L27.662,6.998C25.347,4.649 22.827,2.888 20.1,1.713C17.374,0.539 14.458,-0.048 11.351,-0.048C4.597,-0.048 -1.141,2.507 -5.865,7.617C-10.569,12.707 -12.928,19.23 -12.947,27.186L0.002,27.186C0.002,27.169 0,27.154 0,27.138" style="fill:rgb(38,38,38);fill-rule:nonzero;"/>
                    </g>
                    <g transform="matrix(1,0,0,1,249.037,276.191)">
                        <path d="M0,-9.396C-2.688,-6.555 -6.073,-5.135 -10.155,-5.135C-14.109,-5.135 -17.439,-6.579 -20.143,-9.468C-21.914,-11.357 -23.093,-13.594 -23.704,-16.164L-36.862,-16.164C-36.116,-10.289 -33.791,-5.229 -29.827,-1.016C-24.945,4.174 -19.158,6.768 -12.469,6.768C-9.489,6.768 -6.723,6.236 -4.17,5.173C-1.619,4.11 0.925,2.372 3.462,-0.04L3.462,5.435L16.46,5.435L16.46,-16.164L3.551,-16.164C2.946,-13.528 1.771,-11.267 0,-9.396" style="fill:rgb(38,38,38);fill-rule:nonzero;"/>
                    </g>
                    <g transform="matrix(1,0,0,1,292.2,239.282)">
                        <path d="M0,5.652C3.002,2.753 6.936,1.303 11.799,1.303C14.468,1.303 16.796,1.715 18.781,2.54C20.768,3.367 22.778,4.842 24.811,6.969L35.632,1.017C33.029,-2.76 29.681,-5.673 25.586,-7.72C21.491,-9.768 16.872,-10.791 11.731,-10.791C6.176,-10.791 1.153,-9.584 -3.338,-7.172C-7.83,-4.76 -11.33,-1.442 -13.836,2.779C-16.312,6.947 -17.56,11.502 -17.592,16.443L-4.489,16.443C-4.411,12.076 -2.923,8.474 0,5.652" style="fill:rgb(38,38,38);fill-rule:nonzero;"/>
                    </g>
                    <g transform="matrix(1,0,0,1,282.339,268.122)">
                        <path d="M0,6.742C5.158,12.14 12.292,14.837 21.402,14.837C31.527,14.837 39.367,11.224 44.921,4L34.672,-3.018C31.431,0.95 26.904,2.933 21.088,2.933C16.384,2.933 12.586,1.54 9.694,-1.25C7.721,-3.152 6.438,-5.44 5.811,-8.095L-7.414,-8.095C-6.605,-2.556 -4.154,2.397 0,6.742" style="fill:rgb(38,38,38);fill-rule:nonzero;"/>
                    </g>
                    <g transform="matrix(1,0,0,1,312.667,126.221)">
                        <path d="M0,6.608C-0.556,6.608 -1.081,6.56 -1.583,6.491C0.486,6.202 1.992,5.378 1.992,4.393C1.992,3.409 0.486,2.584 -1.583,2.296C-1.081,2.226 -0.556,2.178 0,2.178C2.849,2.178 5.158,3.17 5.158,4.393C5.158,5.616 2.849,6.608 0,6.608M-0.705,-4.171C-8.077,-4.171 -14.053,-0.824 -14.053,3.304C-14.053,7.432 -8.077,10.779 -0.705,10.779C6.667,10.779 12.642,7.432 12.642,3.304C12.642,-0.824 6.667,-4.171 -0.705,-4.171" style="fill:rgb(38,38,38);fill-rule:nonzero;"/>
                    </g>
                    <g transform="matrix(1,0,0,1,438.816,193.237)">
                        <path d="M0,72.352C2.697,67.779 4.004,63.818 4.3,60.502C5.179,50.673 -6.988,44.761 -14.027,51.678C-22.799,60.298 -7.236,75.677 -6.176,76.705C-5.836,77.856 -5.421,79.055 -4.987,80.305C-2.488,87.497 -1.059,92.88 -5.474,96.659C-7.147,98.091 -8.281,98.049 -8.986,97.892C-11.795,97.265 -15.456,92.767 -18.314,86.432C-18.822,85.307 -19.28,84.019 -19.756,82.377C-21.206,77.385 -25.221,69.531 -28.449,63.219C-30.202,59.791 -31.857,56.553 -32.288,55.322L-32.334,55.197C-38.243,40.157 -13.486,20.2 0.639,11.039C-2.174,30.84 -19.87,40.214 -20.706,40.644L-17.526,46.881C-16.415,46.314 9.657,32.667 7.949,2.949C7.222,-9.698 1.303,-19.617 -9.168,-25.737C-20.766,-32.517 -35.224,-32.613 -47.846,-25.997C-63.456,-17.815 -70.263,-2.159 -67.534,19.279C-65.551,34.849 -59.269,47.9 -59.003,48.448L-52.707,45.389C-52.942,44.903 -75.899,-3.39 -44.596,-19.797C-34.126,-25.286 -22.202,-25.247 -12.701,-19.694C-4.429,-14.859 0.138,-7.345 0.901,2.635C-4.055,5.593 -48.497,32.972 -38.872,57.698C-38.266,59.395 -36.681,62.495 -34.681,66.406C-31.753,72.134 -27.742,79.978 -26.478,84.329C-25.908,86.294 -25.341,87.877 -24.695,89.31C-22.4,94.397 -17.506,103.163 -10.51,104.724C-9.871,104.866 -9.137,104.965 -8.331,104.965C-6.226,104.965 -3.628,104.293 -0.922,101.977C7.461,94.801 3.95,84.694 1.625,78.007C0.993,76.188 0.079,73.559 0,72.352" style="fill:rgb(218,218,218);fill-rule:nonzero;"/>
                    </g>
                    <g transform="matrix(0,-1,-1,0,435.14,249)">
                        <path d="M-2.5,-2.5C-3.881,-2.5 -5,-1.381 -5,0C-5,1.381 -3.881,2.5 -2.5,2.5C-1.119,2.5 0,1.381 0,0C0,-1.381 -1.119,-2.5 -2.5,-2.5" style="fill:rgb(236,102,24);fill-rule:nonzero;"/>
                    </g>
                    <g transform="matrix(1,0,0,1,322.322,95)">
                        <path d="M0,308C-84.916,308 -154,238.916 -154,154C-154,69.084 -84.916,0 0,0C42.313,0 81.992,17.036 110.956,47.199C88.053,41.578 69.606,42.984 56.074,51.395C43.322,59.321 34.923,73.434 31.111,93.342C24.326,128.775 40.693,150.836 46.071,158.085C50.775,164.426 74.501,196.664 79.665,208.712C80.34,210.288 81.013,212.18 81.724,214.182C86.254,226.927 93.1,246.187 121.51,246.5C122.063,246.507 122.611,246.496 123.151,246.469C94.089,285.17 48.739,308 0,308M144.292,190.24C143.926,188.341 142.089,187.101 140.195,187.466C138.297,187.831 137.055,189.666 137.419,191.563C137.477,191.865 143.097,221.875 133.266,234.383C132.223,235.709 131.036,236.756 129.709,237.56C128.037,238.524 126.175,239.125 124.094,239.37C123.872,239.393 123.652,239.418 123.424,239.432C122.828,239.48 122.219,239.508 121.587,239.5C98.06,239.242 92.659,224.047 88.32,211.837C87.57,209.728 86.862,207.735 86.099,205.954C80.765,193.509 58.416,162.976 51.693,153.915C46.767,147.276 31.779,127.073 37.986,94.658C41.416,76.748 48.745,64.192 59.769,57.34C72.36,49.513 90.31,48.725 113.12,54.995C116.066,56.132 118.932,57.546 121.641,59.199C123.088,60.083 124.962,59.801 126.086,58.529C127.209,57.259 127.26,55.365 126.206,54.036C95.442,15.247 49.441,-7 0,-7C-88.776,-7 -161,65.224 -161,154C-161,242.775 -88.776,315 0,315C54.069,315 104.14,288.12 134.115,243.067C135.84,241.903 137.399,240.453 138.775,238.701C150.572,223.682 144.555,191.598 144.292,190.24" style="fill:rgb(38,38,38);fill-rule:nonzero;"/>
                    </g>
                    <g transform="matrix(1,0,0,1,311.598,49.9183)">
                        <path d="M0,78.043C-1.243,78.033 -2.243,77.015 -2.25,75.772C-2.299,66.977 -1.039,34.867 19.645,28.848C37.922,23.53 59.783,14.957 76.682,0.931C78.407,-0.501 80.952,1.068 80.411,3.243C74.924,25.315 60.352,78.544 0,78.043" style="fill:rgb(42,146,55);fill-rule:nonzero;"/>
                    </g>
                    <g transform="matrix(1,0,0,1,312.348,52.8948)">
                        <path d="M0,72.07L0.111,72.07C51.492,72.071 68.275,32.487 76.237,1.573C62.132,12.804 43.136,21.943 19.733,28.752C1.375,34.093 0.036,64.317 0,72.07M0.092,78.07C-0.199,78.07 -0.482,78.069 -0.775,78.067C-3.64,78.043 -5.984,75.686 -6,72.813C-6.055,62.783 -4.483,29.549 18.057,22.991C41.569,16.15 60.397,6.949 74.017,-4.354C75.795,-5.832 78.303,-6 80.256,-4.774C82.226,-3.537 83.136,-1.274 82.573,0.99C77.822,20.098 63.401,78.064 0.092,78.07" style="fill:rgb(38,38,38);fill-rule:nonzero;"/>
                    </g>
                </g>
            </g>
        </g>
    </g>
</svg>
